M48
; DRILL file {KiCad 5.1.6} date Tue Jun 23 23:05:23 2020
; FORMAT={-:-/ absolute / metric / decimal}
; #@! TF.CreationDate,2020-06-23T23:05:23+02:00
; #@! TF.GenerationSoftware,Kicad,Pcbnew,5.1.6
; #@! TF.FileFunction,Plated,1,2,PTH
FMAT,2
METRIC
T1C0.300
T2C1.000
T3C1.300
%
G90
G05
T1
X150.0Y-53.48
X153.0Y-53.48
X160.0Y-41.48
X160.0Y-48.98
X160.0Y-57.98
X160.0Y-73.68
X161.5Y-39.48
X161.5Y-43.48
X161.7Y-68.08
X161.9Y-61.28
X161.9Y-62.58
X161.9Y-70.68
X162.0Y-52.38
X162.0Y-53.58
X162.0Y-54.98
X162.0Y-63.98
X163.4Y-65.18
X163.5Y-66.98
X168.4Y-65.18
X168.5Y-56.08
X168.5Y-67.08
X169.8Y-52.38
X169.8Y-53.58
X170.1Y-61.28
X170.1Y-62.68
X170.1Y-70.68
X170.2Y-56.18
X170.2Y-68.18
X170.4Y-47.58
X170.4Y-63.78
X170.4Y-75.38
X171.0Y-39.98
X171.0Y-42.98
X171.6Y-48.98
X171.8Y-73.78
X172.0Y-39.98
X172.0Y-42.98
X172.4Y-50.18
X172.5Y-131.98
X172.5Y-133.48
X172.5Y-135.23
X173.0Y-34.98
X173.0Y-54.98
X173.0Y-130.88
X173.3Y-59.88
X173.4Y-56.98
X173.5Y-61.28
X174.0Y-35.98
X174.0Y-50.98
X174.0Y-64.98
X174.0Y-78.98
X174.0Y-92.98
X174.0Y-105.98
X174.0Y-120.98
X174.0Y-134.98
X175.0Y-35.98
X175.0Y-50.98
X175.0Y-61.98
X175.0Y-64.98
X175.0Y-78.98
X175.0Y-92.98
X175.0Y-105.98
X175.0Y-120.98
X175.0Y-134.98
X176.0Y-35.98
X176.0Y-50.98
X176.0Y-56.98
X176.0Y-64.98
X176.0Y-78.98
X176.0Y-92.98
X176.0Y-105.98
X176.0Y-120.98
X176.0Y-134.98
X176.75Y-97.48
X176.75Y-110.98
X176.75Y-124.98
X176.75Y-139.23
X177.0Y-40.98
X177.0Y-49.98
X177.0Y-83.48
X177.25Y-119.23
X177.75Y-77.23
X177.75Y-105.48
X178.0Y-48.98
X178.0Y-133.98
X178.25Y-69.23
X178.505Y-91.235
X179.4Y-56.38
X179.5Y-63.23
X180.7Y-143.48
X180.9Y-103.68
X180.9Y-117.58
X181.0Y-75.68
X181.0Y-89.68
X181.0Y-131.68
X181.2Y-45.38
X183.75Y-55.98
X183.75Y-57.98
X183.75Y-70.23
X183.75Y-71.98
X183.75Y-83.98
X183.75Y-85.98
X183.75Y-112.23
X183.75Y-113.73
X183.75Y-125.98
X183.75Y-128.23
X184.0Y-41.73
X184.0Y-43.48
X184.0Y-98.23
X184.0Y-99.98
X184.0Y-139.98
X184.0Y-141.98
X186.0Y-32.98
X187.7Y-34.66
X187.7Y-48.96
X187.7Y-63.26
X187.7Y-77.26
X187.7Y-91.26
X187.7Y-105.26
X187.7Y-119.26
X187.7Y-133.26
X188.0Y-46.23
X188.0Y-60.48
X188.0Y-74.48
X188.0Y-88.48
X188.0Y-102.48
X188.0Y-116.48
X188.0Y-130.73
X188.25Y-32.98
X197.0Y-41.98
X197.0Y-56.28
X197.0Y-70.58
X197.0Y-84.58
X197.0Y-98.58
X197.0Y-112.58
X197.0Y-126.58
X197.0Y-140.58
X205.74Y-41.96
X205.74Y-56.26
X205.74Y-70.56
X205.74Y-84.56
X205.74Y-98.56
X205.74Y-112.56
X205.74Y-126.56
X205.74Y-140.56
X214.48Y-41.96
X214.48Y-56.26
X214.48Y-70.56
X214.48Y-84.56
X214.48Y-98.56
X214.48Y-112.56
X214.48Y-126.56
X214.48Y-140.56
X223.22Y-41.96
X223.22Y-56.26
X223.22Y-70.56
X223.22Y-84.56
X223.22Y-98.56
X223.22Y-112.56
X223.22Y-126.56
X223.22Y-140.56
X231.96Y-41.96
X231.96Y-56.26
X231.96Y-70.56
X231.96Y-84.56
X231.96Y-98.56
X231.96Y-112.56
X231.96Y-126.56
X231.96Y-140.56
X240.7Y-41.96
X240.7Y-56.26
X240.7Y-70.56
X240.7Y-84.56
X240.7Y-98.56
X240.7Y-112.56
X240.7Y-126.56
X240.7Y-140.56
X249.44Y-41.96
X249.44Y-56.26
X249.44Y-70.56
X249.44Y-84.56
X249.44Y-98.56
X249.44Y-112.56
X249.44Y-126.56
X249.44Y-140.56
X258.18Y-41.96
X258.18Y-56.26
X258.18Y-70.56
X258.18Y-84.56
X258.18Y-98.56
X258.18Y-112.56
X258.18Y-126.56
X258.18Y-140.56
T2
X200.143Y-71.003
X201.939Y-72.799
X208.905Y-112.975
X210.701Y-114.771
X191.404Y-112.984
X193.2Y-114.78
X200.143Y-141.003
X201.939Y-142.799
X191.404Y-126.984
X193.2Y-128.78
X200.143Y-127.003
X201.939Y-128.799
X200.143Y-99.003
X201.939Y-100.799
X226.428Y-84.937
X228.224Y-86.733
X243.934Y-84.906
X245.73Y-86.702
X252.664Y-126.893
X254.46Y-128.689
X191.404Y-98.984
X193.2Y-100.78
X200.143Y-42.403
X201.939Y-44.199
X243.934Y-126.906
X245.73Y-128.702
X191.404Y-84.984
X193.2Y-86.78
X226.428Y-70.937
X228.224Y-72.733
X161.75Y-41.51
X164.29Y-41.51
X166.83Y-41.51
X169.37Y-41.51
X208.905Y-56.675
X210.701Y-58.471
X200.143Y-113.003
X201.939Y-114.799
X217.561Y-113.045
X219.357Y-114.841
X243.934Y-98.906
X245.73Y-100.702
X208.905Y-42.375
X210.701Y-44.171
X252.664Y-56.593
X254.46Y-58.389
X243.934Y-70.906
X245.73Y-72.702
X235.121Y-126.966
X236.917Y-128.762
X217.561Y-71.045
X219.357Y-72.841
X208.905Y-98.975
X210.701Y-100.771
X235.121Y-56.666
X236.917Y-58.462
X208.905Y-70.975
X210.701Y-72.771
X226.428Y-42.337
X228.224Y-44.133
X151.5Y-50.98
X151.5Y-53.52
X151.5Y-56.06
X151.5Y-58.6
X151.5Y-61.14
X151.5Y-63.68
X151.5Y-66.22
X208.905Y-84.975
X210.701Y-86.771
X226.428Y-140.937
X228.224Y-142.733
X217.561Y-127.045
X219.357Y-128.841
X252.664Y-112.893
X254.46Y-114.689
X217.561Y-99.045
X219.357Y-100.841
X235.121Y-140.966
X236.917Y-142.762
X235.121Y-98.966
X236.917Y-100.762
X252.664Y-42.293
X254.46Y-44.089
X217.561Y-56.745
X219.357Y-58.541
X252.664Y-140.893
X254.46Y-142.689
X243.934Y-140.906
X245.73Y-142.702
X252.664Y-98.893
X254.46Y-100.689
X226.428Y-126.937
X228.224Y-128.733
X235.121Y-42.366
X236.917Y-44.162
X217.561Y-42.445
X219.357Y-44.241
X243.934Y-56.606
X245.73Y-58.402
X200.143Y-56.703
X201.939Y-58.499
X191.404Y-140.984
X193.2Y-142.78
X191.404Y-70.984
X193.2Y-72.78
X235.121Y-112.966
X236.917Y-114.762
X217.561Y-85.045
X219.357Y-86.841
X235.121Y-84.966
X236.917Y-86.762
X226.428Y-56.637
X228.224Y-58.433
X252.664Y-84.893
X254.46Y-86.689
X191.404Y-56.684
X193.2Y-58.48
X200.143Y-85.003
X201.939Y-86.799
X243.934Y-42.306
X245.73Y-44.102
X226.428Y-112.937
X228.224Y-114.733
X208.905Y-126.975
X210.701Y-128.771
X191.404Y-42.384
X193.2Y-44.18
X243.934Y-112.906
X245.73Y-114.702
X208.905Y-140.975
X210.701Y-142.771
X226.428Y-98.937
X228.224Y-100.733
X235.121Y-70.966
X236.917Y-72.762
X252.664Y-70.893
X254.46Y-72.689
X217.561Y-141.045
X219.357Y-142.841
T3
X157.0Y-134.48
X157.0Y-139.48
T0
M30
