%TF.GenerationSoftware,KiCad,Pcbnew,5.1.6*%
%TF.CreationDate,2020-06-23T23:05:21+02:00*%
%TF.ProjectId,NeonMatrix,4e656f6e-4d61-4747-9269-782e6b696361,rev?*%
%TF.SameCoordinates,Original*%
%TF.FileFunction,Soldermask,Bot*%
%TF.FilePolarity,Negative*%
%FSLAX46Y46*%
G04 Gerber Fmt 4.6, Leading zero omitted, Abs format (unit mm)*
G04 Created by KiCad (PCBNEW 5.1.6) date 2020-06-23 23:05:21*
%MOMM*%
%LPD*%
G01*
G04 APERTURE LIST*
%ADD10O,1.800000X1.800000*%
%ADD11R,1.800000X1.800000*%
%ADD12C,0.100000*%
%ADD13O,1.600000X2.100000*%
%ADD14C,2.600000*%
%ADD15R,2.600000X2.600000*%
G04 APERTURE END LIST*
D10*
%TO.C,J2*%
X151500000Y-66220000D03*
X151500000Y-63680000D03*
X151500000Y-61140000D03*
X151500000Y-58600000D03*
X151500000Y-56060000D03*
X151500000Y-53520000D03*
D11*
X151500000Y-50980000D03*
%TD*%
%TO.C,NE64*%
G36*
G01*
X252027892Y-141529783D02*
X252027892Y-141529783D01*
G75*
G02*
X252027892Y-140256991I636396J636396D01*
G01*
X252027892Y-140256991D01*
G75*
G02*
X253300684Y-140256991I636396J-636396D01*
G01*
X253300684Y-140256991D01*
G75*
G02*
X253300684Y-141529783I-636396J-636396D01*
G01*
X253300684Y-141529783D01*
G75*
G02*
X252027892Y-141529783I-636396J636396D01*
G01*
G37*
D12*
G36*
X254460339Y-143962230D02*
G01*
X253187547Y-142689438D01*
X254460339Y-141416646D01*
X255733131Y-142689438D01*
X254460339Y-143962230D01*
G37*
%TD*%
%TO.C,NE63*%
G36*
G01*
X243297312Y-141541915D02*
X243297312Y-141541915D01*
G75*
G02*
X243297312Y-140269123I636396J636396D01*
G01*
X243297312Y-140269123D01*
G75*
G02*
X244570104Y-140269123I636396J-636396D01*
G01*
X244570104Y-140269123D01*
G75*
G02*
X244570104Y-141541915I-636396J-636396D01*
G01*
X244570104Y-141541915D01*
G75*
G02*
X243297312Y-141541915I-636396J636396D01*
G01*
G37*
G36*
X245729759Y-143974362D02*
G01*
X244456967Y-142701570D01*
X245729759Y-141428778D01*
X247002551Y-142701570D01*
X245729759Y-143974362D01*
G37*
%TD*%
%TO.C,NE62*%
G36*
G01*
X234484425Y-141602468D02*
X234484425Y-141602468D01*
G75*
G02*
X234484425Y-140329676I636396J636396D01*
G01*
X234484425Y-140329676D01*
G75*
G02*
X235757217Y-140329676I636396J-636396D01*
G01*
X235757217Y-140329676D01*
G75*
G02*
X235757217Y-141602468I-636396J-636396D01*
G01*
X235757217Y-141602468D01*
G75*
G02*
X234484425Y-141602468I-636396J636396D01*
G01*
G37*
G36*
X236916872Y-144034915D02*
G01*
X235644080Y-142762123D01*
X236916872Y-141489331D01*
X238189664Y-142762123D01*
X236916872Y-144034915D01*
G37*
%TD*%
%TO.C,NE61*%
G36*
G01*
X225791674Y-141573108D02*
X225791674Y-141573108D01*
G75*
G02*
X225791674Y-140300316I636396J636396D01*
G01*
X225791674Y-140300316D01*
G75*
G02*
X227064466Y-140300316I636396J-636396D01*
G01*
X227064466Y-140300316D01*
G75*
G02*
X227064466Y-141573108I-636396J-636396D01*
G01*
X227064466Y-141573108D01*
G75*
G02*
X225791674Y-141573108I-636396J636396D01*
G01*
G37*
G36*
X228224121Y-144005555D02*
G01*
X226951329Y-142732763D01*
X228224121Y-141459971D01*
X229496913Y-142732763D01*
X228224121Y-144005555D01*
G37*
%TD*%
%TO.C,NE60*%
G36*
G01*
X216924805Y-141681327D02*
X216924805Y-141681327D01*
G75*
G02*
X216924805Y-140408535I636396J636396D01*
G01*
X216924805Y-140408535D01*
G75*
G02*
X218197597Y-140408535I636396J-636396D01*
G01*
X218197597Y-140408535D01*
G75*
G02*
X218197597Y-141681327I-636396J-636396D01*
G01*
X218197597Y-141681327D01*
G75*
G02*
X216924805Y-141681327I-636396J636396D01*
G01*
G37*
G36*
X219357252Y-144113774D02*
G01*
X218084460Y-142840982D01*
X219357252Y-141568190D01*
X220630044Y-142840982D01*
X219357252Y-144113774D01*
G37*
%TD*%
%TO.C,NE59*%
G36*
G01*
X208268272Y-141611585D02*
X208268272Y-141611585D01*
G75*
G02*
X208268272Y-140338793I636396J636396D01*
G01*
X208268272Y-140338793D01*
G75*
G02*
X209541064Y-140338793I636396J-636396D01*
G01*
X209541064Y-140338793D01*
G75*
G02*
X209541064Y-141611585I-636396J-636396D01*
G01*
X209541064Y-141611585D01*
G75*
G02*
X208268272Y-141611585I-636396J636396D01*
G01*
G37*
G36*
X210700719Y-144044032D02*
G01*
X209427927Y-142771240D01*
X210700719Y-141498448D01*
X211973511Y-142771240D01*
X210700719Y-144044032D01*
G37*
%TD*%
%TO.C,NE58*%
G36*
G01*
X199506714Y-141638900D02*
X199506714Y-141638900D01*
G75*
G02*
X199506714Y-140366108I636396J636396D01*
G01*
X199506714Y-140366108D01*
G75*
G02*
X200779506Y-140366108I636396J-636396D01*
G01*
X200779506Y-140366108D01*
G75*
G02*
X200779506Y-141638900I-636396J-636396D01*
G01*
X200779506Y-141638900D01*
G75*
G02*
X199506714Y-141638900I-636396J636396D01*
G01*
G37*
G36*
X201939161Y-144071347D02*
G01*
X200666369Y-142798555D01*
X201939161Y-141525763D01*
X203211953Y-142798555D01*
X201939161Y-144071347D01*
G37*
%TD*%
%TO.C,NE57*%
G36*
G01*
X190767553Y-141620345D02*
X190767553Y-141620345D01*
G75*
G02*
X190767553Y-140347553I636396J636396D01*
G01*
X190767553Y-140347553D01*
G75*
G02*
X192040345Y-140347553I636396J-636396D01*
G01*
X192040345Y-140347553D01*
G75*
G02*
X192040345Y-141620345I-636396J-636396D01*
G01*
X192040345Y-141620345D01*
G75*
G02*
X190767553Y-141620345I-636396J636396D01*
G01*
G37*
G36*
X193200000Y-144052792D02*
G01*
X191927208Y-142780000D01*
X193200000Y-141507208D01*
X194472792Y-142780000D01*
X193200000Y-144052792D01*
G37*
%TD*%
%TO.C,NE56*%
G36*
G01*
X252027892Y-127529783D02*
X252027892Y-127529783D01*
G75*
G02*
X252027892Y-126256991I636396J636396D01*
G01*
X252027892Y-126256991D01*
G75*
G02*
X253300684Y-126256991I636396J-636396D01*
G01*
X253300684Y-126256991D01*
G75*
G02*
X253300684Y-127529783I-636396J-636396D01*
G01*
X253300684Y-127529783D01*
G75*
G02*
X252027892Y-127529783I-636396J636396D01*
G01*
G37*
G36*
X254460339Y-129962230D02*
G01*
X253187547Y-128689438D01*
X254460339Y-127416646D01*
X255733131Y-128689438D01*
X254460339Y-129962230D01*
G37*
%TD*%
%TO.C,NE55*%
G36*
G01*
X243297312Y-127541915D02*
X243297312Y-127541915D01*
G75*
G02*
X243297312Y-126269123I636396J636396D01*
G01*
X243297312Y-126269123D01*
G75*
G02*
X244570104Y-126269123I636396J-636396D01*
G01*
X244570104Y-126269123D01*
G75*
G02*
X244570104Y-127541915I-636396J-636396D01*
G01*
X244570104Y-127541915D01*
G75*
G02*
X243297312Y-127541915I-636396J636396D01*
G01*
G37*
G36*
X245729759Y-129974362D02*
G01*
X244456967Y-128701570D01*
X245729759Y-127428778D01*
X247002551Y-128701570D01*
X245729759Y-129974362D01*
G37*
%TD*%
%TO.C,NE54*%
G36*
G01*
X234484425Y-127602468D02*
X234484425Y-127602468D01*
G75*
G02*
X234484425Y-126329676I636396J636396D01*
G01*
X234484425Y-126329676D01*
G75*
G02*
X235757217Y-126329676I636396J-636396D01*
G01*
X235757217Y-126329676D01*
G75*
G02*
X235757217Y-127602468I-636396J-636396D01*
G01*
X235757217Y-127602468D01*
G75*
G02*
X234484425Y-127602468I-636396J636396D01*
G01*
G37*
G36*
X236916872Y-130034915D02*
G01*
X235644080Y-128762123D01*
X236916872Y-127489331D01*
X238189664Y-128762123D01*
X236916872Y-130034915D01*
G37*
%TD*%
%TO.C,NE53*%
G36*
G01*
X225791674Y-127573108D02*
X225791674Y-127573108D01*
G75*
G02*
X225791674Y-126300316I636396J636396D01*
G01*
X225791674Y-126300316D01*
G75*
G02*
X227064466Y-126300316I636396J-636396D01*
G01*
X227064466Y-126300316D01*
G75*
G02*
X227064466Y-127573108I-636396J-636396D01*
G01*
X227064466Y-127573108D01*
G75*
G02*
X225791674Y-127573108I-636396J636396D01*
G01*
G37*
G36*
X228224121Y-130005555D02*
G01*
X226951329Y-128732763D01*
X228224121Y-127459971D01*
X229496913Y-128732763D01*
X228224121Y-130005555D01*
G37*
%TD*%
%TO.C,NE52*%
G36*
G01*
X216924805Y-127681327D02*
X216924805Y-127681327D01*
G75*
G02*
X216924805Y-126408535I636396J636396D01*
G01*
X216924805Y-126408535D01*
G75*
G02*
X218197597Y-126408535I636396J-636396D01*
G01*
X218197597Y-126408535D01*
G75*
G02*
X218197597Y-127681327I-636396J-636396D01*
G01*
X218197597Y-127681327D01*
G75*
G02*
X216924805Y-127681327I-636396J636396D01*
G01*
G37*
G36*
X219357252Y-130113774D02*
G01*
X218084460Y-128840982D01*
X219357252Y-127568190D01*
X220630044Y-128840982D01*
X219357252Y-130113774D01*
G37*
%TD*%
%TO.C,NE51*%
G36*
G01*
X208268272Y-127611585D02*
X208268272Y-127611585D01*
G75*
G02*
X208268272Y-126338793I636396J636396D01*
G01*
X208268272Y-126338793D01*
G75*
G02*
X209541064Y-126338793I636396J-636396D01*
G01*
X209541064Y-126338793D01*
G75*
G02*
X209541064Y-127611585I-636396J-636396D01*
G01*
X209541064Y-127611585D01*
G75*
G02*
X208268272Y-127611585I-636396J636396D01*
G01*
G37*
G36*
X210700719Y-130044032D02*
G01*
X209427927Y-128771240D01*
X210700719Y-127498448D01*
X211973511Y-128771240D01*
X210700719Y-130044032D01*
G37*
%TD*%
%TO.C,NE50*%
G36*
G01*
X199506714Y-127638900D02*
X199506714Y-127638900D01*
G75*
G02*
X199506714Y-126366108I636396J636396D01*
G01*
X199506714Y-126366108D01*
G75*
G02*
X200779506Y-126366108I636396J-636396D01*
G01*
X200779506Y-126366108D01*
G75*
G02*
X200779506Y-127638900I-636396J-636396D01*
G01*
X200779506Y-127638900D01*
G75*
G02*
X199506714Y-127638900I-636396J636396D01*
G01*
G37*
G36*
X201939161Y-130071347D02*
G01*
X200666369Y-128798555D01*
X201939161Y-127525763D01*
X203211953Y-128798555D01*
X201939161Y-130071347D01*
G37*
%TD*%
%TO.C,NE49*%
G36*
G01*
X190767553Y-127620345D02*
X190767553Y-127620345D01*
G75*
G02*
X190767553Y-126347553I636396J636396D01*
G01*
X190767553Y-126347553D01*
G75*
G02*
X192040345Y-126347553I636396J-636396D01*
G01*
X192040345Y-126347553D01*
G75*
G02*
X192040345Y-127620345I-636396J-636396D01*
G01*
X192040345Y-127620345D01*
G75*
G02*
X190767553Y-127620345I-636396J636396D01*
G01*
G37*
G36*
X193200000Y-130052792D02*
G01*
X191927208Y-128780000D01*
X193200000Y-127507208D01*
X194472792Y-128780000D01*
X193200000Y-130052792D01*
G37*
%TD*%
%TO.C,NE48*%
G36*
G01*
X252027892Y-113529783D02*
X252027892Y-113529783D01*
G75*
G02*
X252027892Y-112256991I636396J636396D01*
G01*
X252027892Y-112256991D01*
G75*
G02*
X253300684Y-112256991I636396J-636396D01*
G01*
X253300684Y-112256991D01*
G75*
G02*
X253300684Y-113529783I-636396J-636396D01*
G01*
X253300684Y-113529783D01*
G75*
G02*
X252027892Y-113529783I-636396J636396D01*
G01*
G37*
G36*
X254460339Y-115962230D02*
G01*
X253187547Y-114689438D01*
X254460339Y-113416646D01*
X255733131Y-114689438D01*
X254460339Y-115962230D01*
G37*
%TD*%
%TO.C,NE47*%
G36*
G01*
X243297312Y-113541915D02*
X243297312Y-113541915D01*
G75*
G02*
X243297312Y-112269123I636396J636396D01*
G01*
X243297312Y-112269123D01*
G75*
G02*
X244570104Y-112269123I636396J-636396D01*
G01*
X244570104Y-112269123D01*
G75*
G02*
X244570104Y-113541915I-636396J-636396D01*
G01*
X244570104Y-113541915D01*
G75*
G02*
X243297312Y-113541915I-636396J636396D01*
G01*
G37*
G36*
X245729759Y-115974362D02*
G01*
X244456967Y-114701570D01*
X245729759Y-113428778D01*
X247002551Y-114701570D01*
X245729759Y-115974362D01*
G37*
%TD*%
%TO.C,NE46*%
G36*
G01*
X234484425Y-113602468D02*
X234484425Y-113602468D01*
G75*
G02*
X234484425Y-112329676I636396J636396D01*
G01*
X234484425Y-112329676D01*
G75*
G02*
X235757217Y-112329676I636396J-636396D01*
G01*
X235757217Y-112329676D01*
G75*
G02*
X235757217Y-113602468I-636396J-636396D01*
G01*
X235757217Y-113602468D01*
G75*
G02*
X234484425Y-113602468I-636396J636396D01*
G01*
G37*
G36*
X236916872Y-116034915D02*
G01*
X235644080Y-114762123D01*
X236916872Y-113489331D01*
X238189664Y-114762123D01*
X236916872Y-116034915D01*
G37*
%TD*%
%TO.C,NE45*%
G36*
G01*
X225791674Y-113573108D02*
X225791674Y-113573108D01*
G75*
G02*
X225791674Y-112300316I636396J636396D01*
G01*
X225791674Y-112300316D01*
G75*
G02*
X227064466Y-112300316I636396J-636396D01*
G01*
X227064466Y-112300316D01*
G75*
G02*
X227064466Y-113573108I-636396J-636396D01*
G01*
X227064466Y-113573108D01*
G75*
G02*
X225791674Y-113573108I-636396J636396D01*
G01*
G37*
G36*
X228224121Y-116005555D02*
G01*
X226951329Y-114732763D01*
X228224121Y-113459971D01*
X229496913Y-114732763D01*
X228224121Y-116005555D01*
G37*
%TD*%
%TO.C,NE44*%
G36*
G01*
X216924805Y-113681327D02*
X216924805Y-113681327D01*
G75*
G02*
X216924805Y-112408535I636396J636396D01*
G01*
X216924805Y-112408535D01*
G75*
G02*
X218197597Y-112408535I636396J-636396D01*
G01*
X218197597Y-112408535D01*
G75*
G02*
X218197597Y-113681327I-636396J-636396D01*
G01*
X218197597Y-113681327D01*
G75*
G02*
X216924805Y-113681327I-636396J636396D01*
G01*
G37*
G36*
X219357252Y-116113774D02*
G01*
X218084460Y-114840982D01*
X219357252Y-113568190D01*
X220630044Y-114840982D01*
X219357252Y-116113774D01*
G37*
%TD*%
%TO.C,NE43*%
G36*
G01*
X208268272Y-113611585D02*
X208268272Y-113611585D01*
G75*
G02*
X208268272Y-112338793I636396J636396D01*
G01*
X208268272Y-112338793D01*
G75*
G02*
X209541064Y-112338793I636396J-636396D01*
G01*
X209541064Y-112338793D01*
G75*
G02*
X209541064Y-113611585I-636396J-636396D01*
G01*
X209541064Y-113611585D01*
G75*
G02*
X208268272Y-113611585I-636396J636396D01*
G01*
G37*
G36*
X210700719Y-116044032D02*
G01*
X209427927Y-114771240D01*
X210700719Y-113498448D01*
X211973511Y-114771240D01*
X210700719Y-116044032D01*
G37*
%TD*%
%TO.C,NE42*%
G36*
G01*
X199506714Y-113638900D02*
X199506714Y-113638900D01*
G75*
G02*
X199506714Y-112366108I636396J636396D01*
G01*
X199506714Y-112366108D01*
G75*
G02*
X200779506Y-112366108I636396J-636396D01*
G01*
X200779506Y-112366108D01*
G75*
G02*
X200779506Y-113638900I-636396J-636396D01*
G01*
X200779506Y-113638900D01*
G75*
G02*
X199506714Y-113638900I-636396J636396D01*
G01*
G37*
G36*
X201939161Y-116071347D02*
G01*
X200666369Y-114798555D01*
X201939161Y-113525763D01*
X203211953Y-114798555D01*
X201939161Y-116071347D01*
G37*
%TD*%
%TO.C,NE41*%
G36*
G01*
X190767553Y-113620345D02*
X190767553Y-113620345D01*
G75*
G02*
X190767553Y-112347553I636396J636396D01*
G01*
X190767553Y-112347553D01*
G75*
G02*
X192040345Y-112347553I636396J-636396D01*
G01*
X192040345Y-112347553D01*
G75*
G02*
X192040345Y-113620345I-636396J-636396D01*
G01*
X192040345Y-113620345D01*
G75*
G02*
X190767553Y-113620345I-636396J636396D01*
G01*
G37*
G36*
X193200000Y-116052792D02*
G01*
X191927208Y-114780000D01*
X193200000Y-113507208D01*
X194472792Y-114780000D01*
X193200000Y-116052792D01*
G37*
%TD*%
%TO.C,NE40*%
G36*
G01*
X252027892Y-99529783D02*
X252027892Y-99529783D01*
G75*
G02*
X252027892Y-98256991I636396J636396D01*
G01*
X252027892Y-98256991D01*
G75*
G02*
X253300684Y-98256991I636396J-636396D01*
G01*
X253300684Y-98256991D01*
G75*
G02*
X253300684Y-99529783I-636396J-636396D01*
G01*
X253300684Y-99529783D01*
G75*
G02*
X252027892Y-99529783I-636396J636396D01*
G01*
G37*
G36*
X254460339Y-101962230D02*
G01*
X253187547Y-100689438D01*
X254460339Y-99416646D01*
X255733131Y-100689438D01*
X254460339Y-101962230D01*
G37*
%TD*%
%TO.C,NE39*%
G36*
G01*
X243297312Y-99541915D02*
X243297312Y-99541915D01*
G75*
G02*
X243297312Y-98269123I636396J636396D01*
G01*
X243297312Y-98269123D01*
G75*
G02*
X244570104Y-98269123I636396J-636396D01*
G01*
X244570104Y-98269123D01*
G75*
G02*
X244570104Y-99541915I-636396J-636396D01*
G01*
X244570104Y-99541915D01*
G75*
G02*
X243297312Y-99541915I-636396J636396D01*
G01*
G37*
G36*
X245729759Y-101974362D02*
G01*
X244456967Y-100701570D01*
X245729759Y-99428778D01*
X247002551Y-100701570D01*
X245729759Y-101974362D01*
G37*
%TD*%
%TO.C,NE38*%
G36*
G01*
X234484425Y-99602468D02*
X234484425Y-99602468D01*
G75*
G02*
X234484425Y-98329676I636396J636396D01*
G01*
X234484425Y-98329676D01*
G75*
G02*
X235757217Y-98329676I636396J-636396D01*
G01*
X235757217Y-98329676D01*
G75*
G02*
X235757217Y-99602468I-636396J-636396D01*
G01*
X235757217Y-99602468D01*
G75*
G02*
X234484425Y-99602468I-636396J636396D01*
G01*
G37*
G36*
X236916872Y-102034915D02*
G01*
X235644080Y-100762123D01*
X236916872Y-99489331D01*
X238189664Y-100762123D01*
X236916872Y-102034915D01*
G37*
%TD*%
%TO.C,NE37*%
G36*
G01*
X225791674Y-99573108D02*
X225791674Y-99573108D01*
G75*
G02*
X225791674Y-98300316I636396J636396D01*
G01*
X225791674Y-98300316D01*
G75*
G02*
X227064466Y-98300316I636396J-636396D01*
G01*
X227064466Y-98300316D01*
G75*
G02*
X227064466Y-99573108I-636396J-636396D01*
G01*
X227064466Y-99573108D01*
G75*
G02*
X225791674Y-99573108I-636396J636396D01*
G01*
G37*
G36*
X228224121Y-102005555D02*
G01*
X226951329Y-100732763D01*
X228224121Y-99459971D01*
X229496913Y-100732763D01*
X228224121Y-102005555D01*
G37*
%TD*%
%TO.C,NE36*%
G36*
G01*
X216924805Y-99681327D02*
X216924805Y-99681327D01*
G75*
G02*
X216924805Y-98408535I636396J636396D01*
G01*
X216924805Y-98408535D01*
G75*
G02*
X218197597Y-98408535I636396J-636396D01*
G01*
X218197597Y-98408535D01*
G75*
G02*
X218197597Y-99681327I-636396J-636396D01*
G01*
X218197597Y-99681327D01*
G75*
G02*
X216924805Y-99681327I-636396J636396D01*
G01*
G37*
G36*
X219357252Y-102113774D02*
G01*
X218084460Y-100840982D01*
X219357252Y-99568190D01*
X220630044Y-100840982D01*
X219357252Y-102113774D01*
G37*
%TD*%
%TO.C,NE35*%
G36*
G01*
X208268272Y-99611585D02*
X208268272Y-99611585D01*
G75*
G02*
X208268272Y-98338793I636396J636396D01*
G01*
X208268272Y-98338793D01*
G75*
G02*
X209541064Y-98338793I636396J-636396D01*
G01*
X209541064Y-98338793D01*
G75*
G02*
X209541064Y-99611585I-636396J-636396D01*
G01*
X209541064Y-99611585D01*
G75*
G02*
X208268272Y-99611585I-636396J636396D01*
G01*
G37*
G36*
X210700719Y-102044032D02*
G01*
X209427927Y-100771240D01*
X210700719Y-99498448D01*
X211973511Y-100771240D01*
X210700719Y-102044032D01*
G37*
%TD*%
%TO.C,NE34*%
G36*
G01*
X199506714Y-99638900D02*
X199506714Y-99638900D01*
G75*
G02*
X199506714Y-98366108I636396J636396D01*
G01*
X199506714Y-98366108D01*
G75*
G02*
X200779506Y-98366108I636396J-636396D01*
G01*
X200779506Y-98366108D01*
G75*
G02*
X200779506Y-99638900I-636396J-636396D01*
G01*
X200779506Y-99638900D01*
G75*
G02*
X199506714Y-99638900I-636396J636396D01*
G01*
G37*
G36*
X201939161Y-102071347D02*
G01*
X200666369Y-100798555D01*
X201939161Y-99525763D01*
X203211953Y-100798555D01*
X201939161Y-102071347D01*
G37*
%TD*%
%TO.C,NE33*%
G36*
G01*
X190767553Y-99620345D02*
X190767553Y-99620345D01*
G75*
G02*
X190767553Y-98347553I636396J636396D01*
G01*
X190767553Y-98347553D01*
G75*
G02*
X192040345Y-98347553I636396J-636396D01*
G01*
X192040345Y-98347553D01*
G75*
G02*
X192040345Y-99620345I-636396J-636396D01*
G01*
X192040345Y-99620345D01*
G75*
G02*
X190767553Y-99620345I-636396J636396D01*
G01*
G37*
G36*
X193200000Y-102052792D02*
G01*
X191927208Y-100780000D01*
X193200000Y-99507208D01*
X194472792Y-100780000D01*
X193200000Y-102052792D01*
G37*
%TD*%
%TO.C,NE32*%
G36*
G01*
X252027892Y-85529783D02*
X252027892Y-85529783D01*
G75*
G02*
X252027892Y-84256991I636396J636396D01*
G01*
X252027892Y-84256991D01*
G75*
G02*
X253300684Y-84256991I636396J-636396D01*
G01*
X253300684Y-84256991D01*
G75*
G02*
X253300684Y-85529783I-636396J-636396D01*
G01*
X253300684Y-85529783D01*
G75*
G02*
X252027892Y-85529783I-636396J636396D01*
G01*
G37*
G36*
X254460339Y-87962230D02*
G01*
X253187547Y-86689438D01*
X254460339Y-85416646D01*
X255733131Y-86689438D01*
X254460339Y-87962230D01*
G37*
%TD*%
%TO.C,NE31*%
G36*
G01*
X243297312Y-85541915D02*
X243297312Y-85541915D01*
G75*
G02*
X243297312Y-84269123I636396J636396D01*
G01*
X243297312Y-84269123D01*
G75*
G02*
X244570104Y-84269123I636396J-636396D01*
G01*
X244570104Y-84269123D01*
G75*
G02*
X244570104Y-85541915I-636396J-636396D01*
G01*
X244570104Y-85541915D01*
G75*
G02*
X243297312Y-85541915I-636396J636396D01*
G01*
G37*
G36*
X245729759Y-87974362D02*
G01*
X244456967Y-86701570D01*
X245729759Y-85428778D01*
X247002551Y-86701570D01*
X245729759Y-87974362D01*
G37*
%TD*%
%TO.C,NE30*%
G36*
G01*
X234484425Y-85602468D02*
X234484425Y-85602468D01*
G75*
G02*
X234484425Y-84329676I636396J636396D01*
G01*
X234484425Y-84329676D01*
G75*
G02*
X235757217Y-84329676I636396J-636396D01*
G01*
X235757217Y-84329676D01*
G75*
G02*
X235757217Y-85602468I-636396J-636396D01*
G01*
X235757217Y-85602468D01*
G75*
G02*
X234484425Y-85602468I-636396J636396D01*
G01*
G37*
G36*
X236916872Y-88034915D02*
G01*
X235644080Y-86762123D01*
X236916872Y-85489331D01*
X238189664Y-86762123D01*
X236916872Y-88034915D01*
G37*
%TD*%
%TO.C,NE29*%
G36*
G01*
X225791674Y-85573108D02*
X225791674Y-85573108D01*
G75*
G02*
X225791674Y-84300316I636396J636396D01*
G01*
X225791674Y-84300316D01*
G75*
G02*
X227064466Y-84300316I636396J-636396D01*
G01*
X227064466Y-84300316D01*
G75*
G02*
X227064466Y-85573108I-636396J-636396D01*
G01*
X227064466Y-85573108D01*
G75*
G02*
X225791674Y-85573108I-636396J636396D01*
G01*
G37*
G36*
X228224121Y-88005555D02*
G01*
X226951329Y-86732763D01*
X228224121Y-85459971D01*
X229496913Y-86732763D01*
X228224121Y-88005555D01*
G37*
%TD*%
%TO.C,NE28*%
G36*
G01*
X216924805Y-85681327D02*
X216924805Y-85681327D01*
G75*
G02*
X216924805Y-84408535I636396J636396D01*
G01*
X216924805Y-84408535D01*
G75*
G02*
X218197597Y-84408535I636396J-636396D01*
G01*
X218197597Y-84408535D01*
G75*
G02*
X218197597Y-85681327I-636396J-636396D01*
G01*
X218197597Y-85681327D01*
G75*
G02*
X216924805Y-85681327I-636396J636396D01*
G01*
G37*
G36*
X219357252Y-88113774D02*
G01*
X218084460Y-86840982D01*
X219357252Y-85568190D01*
X220630044Y-86840982D01*
X219357252Y-88113774D01*
G37*
%TD*%
%TO.C,NE27*%
G36*
G01*
X208268272Y-85611585D02*
X208268272Y-85611585D01*
G75*
G02*
X208268272Y-84338793I636396J636396D01*
G01*
X208268272Y-84338793D01*
G75*
G02*
X209541064Y-84338793I636396J-636396D01*
G01*
X209541064Y-84338793D01*
G75*
G02*
X209541064Y-85611585I-636396J-636396D01*
G01*
X209541064Y-85611585D01*
G75*
G02*
X208268272Y-85611585I-636396J636396D01*
G01*
G37*
G36*
X210700719Y-88044032D02*
G01*
X209427927Y-86771240D01*
X210700719Y-85498448D01*
X211973511Y-86771240D01*
X210700719Y-88044032D01*
G37*
%TD*%
%TO.C,NE26*%
G36*
G01*
X199506714Y-85638900D02*
X199506714Y-85638900D01*
G75*
G02*
X199506714Y-84366108I636396J636396D01*
G01*
X199506714Y-84366108D01*
G75*
G02*
X200779506Y-84366108I636396J-636396D01*
G01*
X200779506Y-84366108D01*
G75*
G02*
X200779506Y-85638900I-636396J-636396D01*
G01*
X200779506Y-85638900D01*
G75*
G02*
X199506714Y-85638900I-636396J636396D01*
G01*
G37*
G36*
X201939161Y-88071347D02*
G01*
X200666369Y-86798555D01*
X201939161Y-85525763D01*
X203211953Y-86798555D01*
X201939161Y-88071347D01*
G37*
%TD*%
%TO.C,NE25*%
G36*
G01*
X190767553Y-85620345D02*
X190767553Y-85620345D01*
G75*
G02*
X190767553Y-84347553I636396J636396D01*
G01*
X190767553Y-84347553D01*
G75*
G02*
X192040345Y-84347553I636396J-636396D01*
G01*
X192040345Y-84347553D01*
G75*
G02*
X192040345Y-85620345I-636396J-636396D01*
G01*
X192040345Y-85620345D01*
G75*
G02*
X190767553Y-85620345I-636396J636396D01*
G01*
G37*
G36*
X193200000Y-88052792D02*
G01*
X191927208Y-86780000D01*
X193200000Y-85507208D01*
X194472792Y-86780000D01*
X193200000Y-88052792D01*
G37*
%TD*%
%TO.C,NE24*%
G36*
G01*
X252027892Y-71529783D02*
X252027892Y-71529783D01*
G75*
G02*
X252027892Y-70256991I636396J636396D01*
G01*
X252027892Y-70256991D01*
G75*
G02*
X253300684Y-70256991I636396J-636396D01*
G01*
X253300684Y-70256991D01*
G75*
G02*
X253300684Y-71529783I-636396J-636396D01*
G01*
X253300684Y-71529783D01*
G75*
G02*
X252027892Y-71529783I-636396J636396D01*
G01*
G37*
G36*
X254460339Y-73962230D02*
G01*
X253187547Y-72689438D01*
X254460339Y-71416646D01*
X255733131Y-72689438D01*
X254460339Y-73962230D01*
G37*
%TD*%
%TO.C,NE23*%
G36*
G01*
X243297312Y-71541915D02*
X243297312Y-71541915D01*
G75*
G02*
X243297312Y-70269123I636396J636396D01*
G01*
X243297312Y-70269123D01*
G75*
G02*
X244570104Y-70269123I636396J-636396D01*
G01*
X244570104Y-70269123D01*
G75*
G02*
X244570104Y-71541915I-636396J-636396D01*
G01*
X244570104Y-71541915D01*
G75*
G02*
X243297312Y-71541915I-636396J636396D01*
G01*
G37*
G36*
X245729759Y-73974362D02*
G01*
X244456967Y-72701570D01*
X245729759Y-71428778D01*
X247002551Y-72701570D01*
X245729759Y-73974362D01*
G37*
%TD*%
%TO.C,NE22*%
G36*
G01*
X234484425Y-71602468D02*
X234484425Y-71602468D01*
G75*
G02*
X234484425Y-70329676I636396J636396D01*
G01*
X234484425Y-70329676D01*
G75*
G02*
X235757217Y-70329676I636396J-636396D01*
G01*
X235757217Y-70329676D01*
G75*
G02*
X235757217Y-71602468I-636396J-636396D01*
G01*
X235757217Y-71602468D01*
G75*
G02*
X234484425Y-71602468I-636396J636396D01*
G01*
G37*
G36*
X236916872Y-74034915D02*
G01*
X235644080Y-72762123D01*
X236916872Y-71489331D01*
X238189664Y-72762123D01*
X236916872Y-74034915D01*
G37*
%TD*%
%TO.C,NE21*%
G36*
G01*
X225791674Y-71573108D02*
X225791674Y-71573108D01*
G75*
G02*
X225791674Y-70300316I636396J636396D01*
G01*
X225791674Y-70300316D01*
G75*
G02*
X227064466Y-70300316I636396J-636396D01*
G01*
X227064466Y-70300316D01*
G75*
G02*
X227064466Y-71573108I-636396J-636396D01*
G01*
X227064466Y-71573108D01*
G75*
G02*
X225791674Y-71573108I-636396J636396D01*
G01*
G37*
G36*
X228224121Y-74005555D02*
G01*
X226951329Y-72732763D01*
X228224121Y-71459971D01*
X229496913Y-72732763D01*
X228224121Y-74005555D01*
G37*
%TD*%
%TO.C,NE20*%
G36*
G01*
X216924805Y-71681327D02*
X216924805Y-71681327D01*
G75*
G02*
X216924805Y-70408535I636396J636396D01*
G01*
X216924805Y-70408535D01*
G75*
G02*
X218197597Y-70408535I636396J-636396D01*
G01*
X218197597Y-70408535D01*
G75*
G02*
X218197597Y-71681327I-636396J-636396D01*
G01*
X218197597Y-71681327D01*
G75*
G02*
X216924805Y-71681327I-636396J636396D01*
G01*
G37*
G36*
X219357252Y-74113774D02*
G01*
X218084460Y-72840982D01*
X219357252Y-71568190D01*
X220630044Y-72840982D01*
X219357252Y-74113774D01*
G37*
%TD*%
%TO.C,NE19*%
G36*
G01*
X208268272Y-71611585D02*
X208268272Y-71611585D01*
G75*
G02*
X208268272Y-70338793I636396J636396D01*
G01*
X208268272Y-70338793D01*
G75*
G02*
X209541064Y-70338793I636396J-636396D01*
G01*
X209541064Y-70338793D01*
G75*
G02*
X209541064Y-71611585I-636396J-636396D01*
G01*
X209541064Y-71611585D01*
G75*
G02*
X208268272Y-71611585I-636396J636396D01*
G01*
G37*
G36*
X210700719Y-74044032D02*
G01*
X209427927Y-72771240D01*
X210700719Y-71498448D01*
X211973511Y-72771240D01*
X210700719Y-74044032D01*
G37*
%TD*%
%TO.C,NE18*%
G36*
G01*
X199506714Y-71638900D02*
X199506714Y-71638900D01*
G75*
G02*
X199506714Y-70366108I636396J636396D01*
G01*
X199506714Y-70366108D01*
G75*
G02*
X200779506Y-70366108I636396J-636396D01*
G01*
X200779506Y-70366108D01*
G75*
G02*
X200779506Y-71638900I-636396J-636396D01*
G01*
X200779506Y-71638900D01*
G75*
G02*
X199506714Y-71638900I-636396J636396D01*
G01*
G37*
G36*
X201939161Y-74071347D02*
G01*
X200666369Y-72798555D01*
X201939161Y-71525763D01*
X203211953Y-72798555D01*
X201939161Y-74071347D01*
G37*
%TD*%
%TO.C,NE17*%
G36*
G01*
X190767553Y-71620345D02*
X190767553Y-71620345D01*
G75*
G02*
X190767553Y-70347553I636396J636396D01*
G01*
X190767553Y-70347553D01*
G75*
G02*
X192040345Y-70347553I636396J-636396D01*
G01*
X192040345Y-70347553D01*
G75*
G02*
X192040345Y-71620345I-636396J-636396D01*
G01*
X192040345Y-71620345D01*
G75*
G02*
X190767553Y-71620345I-636396J636396D01*
G01*
G37*
G36*
X193200000Y-74052792D02*
G01*
X191927208Y-72780000D01*
X193200000Y-71507208D01*
X194472792Y-72780000D01*
X193200000Y-74052792D01*
G37*
%TD*%
%TO.C,NE16*%
G36*
G01*
X252027892Y-57229783D02*
X252027892Y-57229783D01*
G75*
G02*
X252027892Y-55956991I636396J636396D01*
G01*
X252027892Y-55956991D01*
G75*
G02*
X253300684Y-55956991I636396J-636396D01*
G01*
X253300684Y-55956991D01*
G75*
G02*
X253300684Y-57229783I-636396J-636396D01*
G01*
X253300684Y-57229783D01*
G75*
G02*
X252027892Y-57229783I-636396J636396D01*
G01*
G37*
G36*
X254460339Y-59662230D02*
G01*
X253187547Y-58389438D01*
X254460339Y-57116646D01*
X255733131Y-58389438D01*
X254460339Y-59662230D01*
G37*
%TD*%
%TO.C,NE15*%
G36*
G01*
X243297312Y-57241915D02*
X243297312Y-57241915D01*
G75*
G02*
X243297312Y-55969123I636396J636396D01*
G01*
X243297312Y-55969123D01*
G75*
G02*
X244570104Y-55969123I636396J-636396D01*
G01*
X244570104Y-55969123D01*
G75*
G02*
X244570104Y-57241915I-636396J-636396D01*
G01*
X244570104Y-57241915D01*
G75*
G02*
X243297312Y-57241915I-636396J636396D01*
G01*
G37*
G36*
X245729759Y-59674362D02*
G01*
X244456967Y-58401570D01*
X245729759Y-57128778D01*
X247002551Y-58401570D01*
X245729759Y-59674362D01*
G37*
%TD*%
%TO.C,NE14*%
G36*
G01*
X234484425Y-57302468D02*
X234484425Y-57302468D01*
G75*
G02*
X234484425Y-56029676I636396J636396D01*
G01*
X234484425Y-56029676D01*
G75*
G02*
X235757217Y-56029676I636396J-636396D01*
G01*
X235757217Y-56029676D01*
G75*
G02*
X235757217Y-57302468I-636396J-636396D01*
G01*
X235757217Y-57302468D01*
G75*
G02*
X234484425Y-57302468I-636396J636396D01*
G01*
G37*
G36*
X236916872Y-59734915D02*
G01*
X235644080Y-58462123D01*
X236916872Y-57189331D01*
X238189664Y-58462123D01*
X236916872Y-59734915D01*
G37*
%TD*%
%TO.C,NE13*%
G36*
G01*
X225791674Y-57273108D02*
X225791674Y-57273108D01*
G75*
G02*
X225791674Y-56000316I636396J636396D01*
G01*
X225791674Y-56000316D01*
G75*
G02*
X227064466Y-56000316I636396J-636396D01*
G01*
X227064466Y-56000316D01*
G75*
G02*
X227064466Y-57273108I-636396J-636396D01*
G01*
X227064466Y-57273108D01*
G75*
G02*
X225791674Y-57273108I-636396J636396D01*
G01*
G37*
G36*
X228224121Y-59705555D02*
G01*
X226951329Y-58432763D01*
X228224121Y-57159971D01*
X229496913Y-58432763D01*
X228224121Y-59705555D01*
G37*
%TD*%
%TO.C,NE12*%
G36*
G01*
X216924805Y-57381327D02*
X216924805Y-57381327D01*
G75*
G02*
X216924805Y-56108535I636396J636396D01*
G01*
X216924805Y-56108535D01*
G75*
G02*
X218197597Y-56108535I636396J-636396D01*
G01*
X218197597Y-56108535D01*
G75*
G02*
X218197597Y-57381327I-636396J-636396D01*
G01*
X218197597Y-57381327D01*
G75*
G02*
X216924805Y-57381327I-636396J636396D01*
G01*
G37*
G36*
X219357252Y-59813774D02*
G01*
X218084460Y-58540982D01*
X219357252Y-57268190D01*
X220630044Y-58540982D01*
X219357252Y-59813774D01*
G37*
%TD*%
%TO.C,NE11*%
G36*
G01*
X208268272Y-57311585D02*
X208268272Y-57311585D01*
G75*
G02*
X208268272Y-56038793I636396J636396D01*
G01*
X208268272Y-56038793D01*
G75*
G02*
X209541064Y-56038793I636396J-636396D01*
G01*
X209541064Y-56038793D01*
G75*
G02*
X209541064Y-57311585I-636396J-636396D01*
G01*
X209541064Y-57311585D01*
G75*
G02*
X208268272Y-57311585I-636396J636396D01*
G01*
G37*
G36*
X210700719Y-59744032D02*
G01*
X209427927Y-58471240D01*
X210700719Y-57198448D01*
X211973511Y-58471240D01*
X210700719Y-59744032D01*
G37*
%TD*%
%TO.C,NE10*%
G36*
G01*
X199506714Y-57338900D02*
X199506714Y-57338900D01*
G75*
G02*
X199506714Y-56066108I636396J636396D01*
G01*
X199506714Y-56066108D01*
G75*
G02*
X200779506Y-56066108I636396J-636396D01*
G01*
X200779506Y-56066108D01*
G75*
G02*
X200779506Y-57338900I-636396J-636396D01*
G01*
X200779506Y-57338900D01*
G75*
G02*
X199506714Y-57338900I-636396J636396D01*
G01*
G37*
G36*
X201939161Y-59771347D02*
G01*
X200666369Y-58498555D01*
X201939161Y-57225763D01*
X203211953Y-58498555D01*
X201939161Y-59771347D01*
G37*
%TD*%
%TO.C,NE9*%
G36*
G01*
X190767553Y-57320345D02*
X190767553Y-57320345D01*
G75*
G02*
X190767553Y-56047553I636396J636396D01*
G01*
X190767553Y-56047553D01*
G75*
G02*
X192040345Y-56047553I636396J-636396D01*
G01*
X192040345Y-56047553D01*
G75*
G02*
X192040345Y-57320345I-636396J-636396D01*
G01*
X192040345Y-57320345D01*
G75*
G02*
X190767553Y-57320345I-636396J636396D01*
G01*
G37*
G36*
X193200000Y-59752792D02*
G01*
X191927208Y-58480000D01*
X193200000Y-57207208D01*
X194472792Y-58480000D01*
X193200000Y-59752792D01*
G37*
%TD*%
%TO.C,NE1*%
G36*
G01*
X190767553Y-43020345D02*
X190767553Y-43020345D01*
G75*
G02*
X190767553Y-41747553I636396J636396D01*
G01*
X190767553Y-41747553D01*
G75*
G02*
X192040345Y-41747553I636396J-636396D01*
G01*
X192040345Y-41747553D01*
G75*
G02*
X192040345Y-43020345I-636396J-636396D01*
G01*
X192040345Y-43020345D01*
G75*
G02*
X190767553Y-43020345I-636396J636396D01*
G01*
G37*
G36*
X193200000Y-45452792D02*
G01*
X191927208Y-44180000D01*
X193200000Y-42907208D01*
X194472792Y-44180000D01*
X193200000Y-45452792D01*
G37*
%TD*%
%TO.C,NE8*%
G36*
G01*
X252027892Y-42929783D02*
X252027892Y-42929783D01*
G75*
G02*
X252027892Y-41656991I636396J636396D01*
G01*
X252027892Y-41656991D01*
G75*
G02*
X253300684Y-41656991I636396J-636396D01*
G01*
X253300684Y-41656991D01*
G75*
G02*
X253300684Y-42929783I-636396J-636396D01*
G01*
X253300684Y-42929783D01*
G75*
G02*
X252027892Y-42929783I-636396J636396D01*
G01*
G37*
G36*
X254460339Y-45362230D02*
G01*
X253187547Y-44089438D01*
X254460339Y-42816646D01*
X255733131Y-44089438D01*
X254460339Y-45362230D01*
G37*
%TD*%
%TO.C,NE7*%
G36*
G01*
X243297312Y-42941915D02*
X243297312Y-42941915D01*
G75*
G02*
X243297312Y-41669123I636396J636396D01*
G01*
X243297312Y-41669123D01*
G75*
G02*
X244570104Y-41669123I636396J-636396D01*
G01*
X244570104Y-41669123D01*
G75*
G02*
X244570104Y-42941915I-636396J-636396D01*
G01*
X244570104Y-42941915D01*
G75*
G02*
X243297312Y-42941915I-636396J636396D01*
G01*
G37*
G36*
X245729759Y-45374362D02*
G01*
X244456967Y-44101570D01*
X245729759Y-42828778D01*
X247002551Y-44101570D01*
X245729759Y-45374362D01*
G37*
%TD*%
%TO.C,NE6*%
G36*
G01*
X234484425Y-43002468D02*
X234484425Y-43002468D01*
G75*
G02*
X234484425Y-41729676I636396J636396D01*
G01*
X234484425Y-41729676D01*
G75*
G02*
X235757217Y-41729676I636396J-636396D01*
G01*
X235757217Y-41729676D01*
G75*
G02*
X235757217Y-43002468I-636396J-636396D01*
G01*
X235757217Y-43002468D01*
G75*
G02*
X234484425Y-43002468I-636396J636396D01*
G01*
G37*
G36*
X236916872Y-45434915D02*
G01*
X235644080Y-44162123D01*
X236916872Y-42889331D01*
X238189664Y-44162123D01*
X236916872Y-45434915D01*
G37*
%TD*%
%TO.C,NE5*%
G36*
G01*
X225791674Y-42973108D02*
X225791674Y-42973108D01*
G75*
G02*
X225791674Y-41700316I636396J636396D01*
G01*
X225791674Y-41700316D01*
G75*
G02*
X227064466Y-41700316I636396J-636396D01*
G01*
X227064466Y-41700316D01*
G75*
G02*
X227064466Y-42973108I-636396J-636396D01*
G01*
X227064466Y-42973108D01*
G75*
G02*
X225791674Y-42973108I-636396J636396D01*
G01*
G37*
G36*
X228224121Y-45405555D02*
G01*
X226951329Y-44132763D01*
X228224121Y-42859971D01*
X229496913Y-44132763D01*
X228224121Y-45405555D01*
G37*
%TD*%
%TO.C,NE4*%
G36*
G01*
X216924805Y-43081327D02*
X216924805Y-43081327D01*
G75*
G02*
X216924805Y-41808535I636396J636396D01*
G01*
X216924805Y-41808535D01*
G75*
G02*
X218197597Y-41808535I636396J-636396D01*
G01*
X218197597Y-41808535D01*
G75*
G02*
X218197597Y-43081327I-636396J-636396D01*
G01*
X218197597Y-43081327D01*
G75*
G02*
X216924805Y-43081327I-636396J636396D01*
G01*
G37*
G36*
X219357252Y-45513774D02*
G01*
X218084460Y-44240982D01*
X219357252Y-42968190D01*
X220630044Y-44240982D01*
X219357252Y-45513774D01*
G37*
%TD*%
%TO.C,NE3*%
G36*
G01*
X208268272Y-43011585D02*
X208268272Y-43011585D01*
G75*
G02*
X208268272Y-41738793I636396J636396D01*
G01*
X208268272Y-41738793D01*
G75*
G02*
X209541064Y-41738793I636396J-636396D01*
G01*
X209541064Y-41738793D01*
G75*
G02*
X209541064Y-43011585I-636396J-636396D01*
G01*
X209541064Y-43011585D01*
G75*
G02*
X208268272Y-43011585I-636396J636396D01*
G01*
G37*
G36*
X210700719Y-45444032D02*
G01*
X209427927Y-44171240D01*
X210700719Y-42898448D01*
X211973511Y-44171240D01*
X210700719Y-45444032D01*
G37*
%TD*%
%TO.C,NE2*%
G36*
G01*
X199506714Y-43038900D02*
X199506714Y-43038900D01*
G75*
G02*
X199506714Y-41766108I636396J636396D01*
G01*
X199506714Y-41766108D01*
G75*
G02*
X200779506Y-41766108I636396J-636396D01*
G01*
X200779506Y-41766108D01*
G75*
G02*
X200779506Y-43038900I-636396J-636396D01*
G01*
X200779506Y-43038900D01*
G75*
G02*
X199506714Y-43038900I-636396J636396D01*
G01*
G37*
G36*
X201939161Y-45471347D02*
G01*
X200666369Y-44198555D01*
X201939161Y-42925763D01*
X203211953Y-44198555D01*
X201939161Y-45471347D01*
G37*
%TD*%
D13*
%TO.C,M1*%
X161750000Y-41510000D03*
X164290000Y-41510000D03*
X166830000Y-41510000D03*
X169370000Y-41510000D03*
%TD*%
D14*
%TO.C,J1*%
X157000000Y-134480000D03*
D15*
X157000000Y-139480000D03*
%TD*%
M02*
