%TF.GenerationSoftware,KiCad,Pcbnew,5.1.6*%
%TF.CreationDate,2020-06-23T23:05:21+02:00*%
%TF.ProjectId,NeonMatrix,4e656f6e-4d61-4747-9269-782e6b696361,rev?*%
%TF.SameCoordinates,Original*%
%TF.FileFunction,Paste,Top*%
%TF.FilePolarity,Positive*%
%FSLAX46Y46*%
G04 Gerber Fmt 4.6, Leading zero omitted, Abs format (unit mm)*
G04 Created by KiCad (PCBNEW 5.1.6) date 2020-06-23 23:05:21*
%MOMM*%
%LPD*%
G01*
G04 APERTURE LIST*
%ADD10C,0.100000*%
G04 APERTURE END LIST*
%TO.C,C16*%
G36*
G01*
X170047500Y-74145000D02*
X170047500Y-73415000D01*
G75*
G02*
X170242500Y-73220000I195000J0D01*
G01*
X170632500Y-73220000D01*
G75*
G02*
X170827500Y-73415000I0J-195000D01*
G01*
X170827500Y-74145000D01*
G75*
G02*
X170632500Y-74340000I-195000J0D01*
G01*
X170242500Y-74340000D01*
G75*
G02*
X170047500Y-74145000I0J195000D01*
G01*
G37*
G36*
G01*
X168172500Y-74145000D02*
X168172500Y-73415000D01*
G75*
G02*
X168367500Y-73220000I195000J0D01*
G01*
X168757500Y-73220000D01*
G75*
G02*
X168952500Y-73415000I0J-195000D01*
G01*
X168952500Y-74145000D01*
G75*
G02*
X168757500Y-74340000I-195000J0D01*
G01*
X168367500Y-74340000D01*
G75*
G02*
X168172500Y-74145000I0J195000D01*
G01*
G37*
%TD*%
%TO.C,C15*%
G36*
G01*
X161752500Y-73415000D02*
X161752500Y-74145000D01*
G75*
G02*
X161557500Y-74340000I-195000J0D01*
G01*
X161167500Y-74340000D01*
G75*
G02*
X160972500Y-74145000I0J195000D01*
G01*
X160972500Y-73415000D01*
G75*
G02*
X161167500Y-73220000I195000J0D01*
G01*
X161557500Y-73220000D01*
G75*
G02*
X161752500Y-73415000I0J-195000D01*
G01*
G37*
G36*
G01*
X163627500Y-73415000D02*
X163627500Y-74145000D01*
G75*
G02*
X163432500Y-74340000I-195000J0D01*
G01*
X163042500Y-74340000D01*
G75*
G02*
X162847500Y-74145000I0J195000D01*
G01*
X162847500Y-73415000D01*
G75*
G02*
X163042500Y-73220000I195000J0D01*
G01*
X163432500Y-73220000D01*
G75*
G02*
X163627500Y-73415000I0J-195000D01*
G01*
G37*
%TD*%
%TO.C,U11*%
G36*
G01*
X164305000Y-71865000D02*
X164305000Y-72105000D01*
G75*
G02*
X164185000Y-72225000I-120000J0D01*
G01*
X162865000Y-72225000D01*
G75*
G02*
X162745000Y-72105000I0J120000D01*
G01*
X162745000Y-71865000D01*
G75*
G02*
X162865000Y-71745000I120000J0D01*
G01*
X164185000Y-71745000D01*
G75*
G02*
X164305000Y-71865000I0J-120000D01*
G01*
G37*
G36*
G01*
X164305000Y-70595000D02*
X164305000Y-70835000D01*
G75*
G02*
X164185000Y-70955000I-120000J0D01*
G01*
X162865000Y-70955000D01*
G75*
G02*
X162745000Y-70835000I0J120000D01*
G01*
X162745000Y-70595000D01*
G75*
G02*
X162865000Y-70475000I120000J0D01*
G01*
X164185000Y-70475000D01*
G75*
G02*
X164305000Y-70595000I0J-120000D01*
G01*
G37*
G36*
G01*
X164305000Y-69325000D02*
X164305000Y-69565000D01*
G75*
G02*
X164185000Y-69685000I-120000J0D01*
G01*
X162865000Y-69685000D01*
G75*
G02*
X162745000Y-69565000I0J120000D01*
G01*
X162745000Y-69325000D01*
G75*
G02*
X162865000Y-69205000I120000J0D01*
G01*
X164185000Y-69205000D01*
G75*
G02*
X164305000Y-69325000I0J-120000D01*
G01*
G37*
G36*
G01*
X164305000Y-68055000D02*
X164305000Y-68295000D01*
G75*
G02*
X164185000Y-68415000I-120000J0D01*
G01*
X162865000Y-68415000D01*
G75*
G02*
X162745000Y-68295000I0J120000D01*
G01*
X162745000Y-68055000D01*
G75*
G02*
X162865000Y-67935000I120000J0D01*
G01*
X164185000Y-67935000D01*
G75*
G02*
X164305000Y-68055000I0J-120000D01*
G01*
G37*
G36*
G01*
X169255000Y-68055000D02*
X169255000Y-68295000D01*
G75*
G02*
X169135000Y-68415000I-120000J0D01*
G01*
X167815000Y-68415000D01*
G75*
G02*
X167695000Y-68295000I0J120000D01*
G01*
X167695000Y-68055000D01*
G75*
G02*
X167815000Y-67935000I120000J0D01*
G01*
X169135000Y-67935000D01*
G75*
G02*
X169255000Y-68055000I0J-120000D01*
G01*
G37*
G36*
G01*
X169255000Y-69325000D02*
X169255000Y-69565000D01*
G75*
G02*
X169135000Y-69685000I-120000J0D01*
G01*
X167815000Y-69685000D01*
G75*
G02*
X167695000Y-69565000I0J120000D01*
G01*
X167695000Y-69325000D01*
G75*
G02*
X167815000Y-69205000I120000J0D01*
G01*
X169135000Y-69205000D01*
G75*
G02*
X169255000Y-69325000I0J-120000D01*
G01*
G37*
G36*
G01*
X169255000Y-70595000D02*
X169255000Y-70835000D01*
G75*
G02*
X169135000Y-70955000I-120000J0D01*
G01*
X167815000Y-70955000D01*
G75*
G02*
X167695000Y-70835000I0J120000D01*
G01*
X167695000Y-70595000D01*
G75*
G02*
X167815000Y-70475000I120000J0D01*
G01*
X169135000Y-70475000D01*
G75*
G02*
X169255000Y-70595000I0J-120000D01*
G01*
G37*
G36*
G01*
X169255000Y-71865000D02*
X169255000Y-72105000D01*
G75*
G02*
X169135000Y-72225000I-120000J0D01*
G01*
X167815000Y-72225000D01*
G75*
G02*
X167695000Y-72105000I0J120000D01*
G01*
X167695000Y-71865000D01*
G75*
G02*
X167815000Y-71745000I120000J0D01*
G01*
X169135000Y-71745000D01*
G75*
G02*
X169255000Y-71865000I0J-120000D01*
G01*
G37*
%TD*%
%TO.C,C14*%
G36*
G01*
X161552500Y-45315000D02*
X161552500Y-46045000D01*
G75*
G02*
X161357500Y-46240000I-195000J0D01*
G01*
X160967500Y-46240000D01*
G75*
G02*
X160772500Y-46045000I0J195000D01*
G01*
X160772500Y-45315000D01*
G75*
G02*
X160967500Y-45120000I195000J0D01*
G01*
X161357500Y-45120000D01*
G75*
G02*
X161552500Y-45315000I0J-195000D01*
G01*
G37*
G36*
G01*
X163427500Y-45315000D02*
X163427500Y-46045000D01*
G75*
G02*
X163232500Y-46240000I-195000J0D01*
G01*
X162842500Y-46240000D01*
G75*
G02*
X162647500Y-46045000I0J195000D01*
G01*
X162647500Y-45315000D01*
G75*
G02*
X162842500Y-45120000I195000J0D01*
G01*
X163232500Y-45120000D01*
G75*
G02*
X163427500Y-45315000I0J-195000D01*
G01*
G37*
%TD*%
%TO.C,U1*%
G36*
G01*
X182305000Y-43405000D02*
X182305000Y-43645000D01*
G75*
G02*
X182185000Y-43765000I-120000J0D01*
G01*
X180865000Y-43765000D01*
G75*
G02*
X180745000Y-43645000I0J120000D01*
G01*
X180745000Y-43405000D01*
G75*
G02*
X180865000Y-43285000I120000J0D01*
G01*
X182185000Y-43285000D01*
G75*
G02*
X182305000Y-43405000I0J-120000D01*
G01*
G37*
G36*
G01*
X182305000Y-42135000D02*
X182305000Y-42375000D01*
G75*
G02*
X182185000Y-42495000I-120000J0D01*
G01*
X180865000Y-42495000D01*
G75*
G02*
X180745000Y-42375000I0J120000D01*
G01*
X180745000Y-42135000D01*
G75*
G02*
X180865000Y-42015000I120000J0D01*
G01*
X182185000Y-42015000D01*
G75*
G02*
X182305000Y-42135000I0J-120000D01*
G01*
G37*
G36*
G01*
X182305000Y-40865000D02*
X182305000Y-41105000D01*
G75*
G02*
X182185000Y-41225000I-120000J0D01*
G01*
X180865000Y-41225000D01*
G75*
G02*
X180745000Y-41105000I0J120000D01*
G01*
X180745000Y-40865000D01*
G75*
G02*
X180865000Y-40745000I120000J0D01*
G01*
X182185000Y-40745000D01*
G75*
G02*
X182305000Y-40865000I0J-120000D01*
G01*
G37*
G36*
G01*
X182305000Y-39595000D02*
X182305000Y-39835000D01*
G75*
G02*
X182185000Y-39955000I-120000J0D01*
G01*
X180865000Y-39955000D01*
G75*
G02*
X180745000Y-39835000I0J120000D01*
G01*
X180745000Y-39595000D01*
G75*
G02*
X180865000Y-39475000I120000J0D01*
G01*
X182185000Y-39475000D01*
G75*
G02*
X182305000Y-39595000I0J-120000D01*
G01*
G37*
G36*
G01*
X182305000Y-38325000D02*
X182305000Y-38565000D01*
G75*
G02*
X182185000Y-38685000I-120000J0D01*
G01*
X180865000Y-38685000D01*
G75*
G02*
X180745000Y-38565000I0J120000D01*
G01*
X180745000Y-38325000D01*
G75*
G02*
X180865000Y-38205000I120000J0D01*
G01*
X182185000Y-38205000D01*
G75*
G02*
X182305000Y-38325000I0J-120000D01*
G01*
G37*
G36*
G01*
X182305000Y-37055000D02*
X182305000Y-37295000D01*
G75*
G02*
X182185000Y-37415000I-120000J0D01*
G01*
X180865000Y-37415000D01*
G75*
G02*
X180745000Y-37295000I0J120000D01*
G01*
X180745000Y-37055000D01*
G75*
G02*
X180865000Y-36935000I120000J0D01*
G01*
X182185000Y-36935000D01*
G75*
G02*
X182305000Y-37055000I0J-120000D01*
G01*
G37*
G36*
G01*
X182305000Y-35785000D02*
X182305000Y-36025000D01*
G75*
G02*
X182185000Y-36145000I-120000J0D01*
G01*
X180865000Y-36145000D01*
G75*
G02*
X180745000Y-36025000I0J120000D01*
G01*
X180745000Y-35785000D01*
G75*
G02*
X180865000Y-35665000I120000J0D01*
G01*
X182185000Y-35665000D01*
G75*
G02*
X182305000Y-35785000I0J-120000D01*
G01*
G37*
G36*
G01*
X182305000Y-34515000D02*
X182305000Y-34755000D01*
G75*
G02*
X182185000Y-34875000I-120000J0D01*
G01*
X180865000Y-34875000D01*
G75*
G02*
X180745000Y-34755000I0J120000D01*
G01*
X180745000Y-34515000D01*
G75*
G02*
X180865000Y-34395000I120000J0D01*
G01*
X182185000Y-34395000D01*
G75*
G02*
X182305000Y-34515000I0J-120000D01*
G01*
G37*
G36*
G01*
X187255000Y-34515000D02*
X187255000Y-34755000D01*
G75*
G02*
X187135000Y-34875000I-120000J0D01*
G01*
X185815000Y-34875000D01*
G75*
G02*
X185695000Y-34755000I0J120000D01*
G01*
X185695000Y-34515000D01*
G75*
G02*
X185815000Y-34395000I120000J0D01*
G01*
X187135000Y-34395000D01*
G75*
G02*
X187255000Y-34515000I0J-120000D01*
G01*
G37*
G36*
G01*
X187255000Y-35785000D02*
X187255000Y-36025000D01*
G75*
G02*
X187135000Y-36145000I-120000J0D01*
G01*
X185815000Y-36145000D01*
G75*
G02*
X185695000Y-36025000I0J120000D01*
G01*
X185695000Y-35785000D01*
G75*
G02*
X185815000Y-35665000I120000J0D01*
G01*
X187135000Y-35665000D01*
G75*
G02*
X187255000Y-35785000I0J-120000D01*
G01*
G37*
G36*
G01*
X187255000Y-37055000D02*
X187255000Y-37295000D01*
G75*
G02*
X187135000Y-37415000I-120000J0D01*
G01*
X185815000Y-37415000D01*
G75*
G02*
X185695000Y-37295000I0J120000D01*
G01*
X185695000Y-37055000D01*
G75*
G02*
X185815000Y-36935000I120000J0D01*
G01*
X187135000Y-36935000D01*
G75*
G02*
X187255000Y-37055000I0J-120000D01*
G01*
G37*
G36*
G01*
X187255000Y-38325000D02*
X187255000Y-38565000D01*
G75*
G02*
X187135000Y-38685000I-120000J0D01*
G01*
X185815000Y-38685000D01*
G75*
G02*
X185695000Y-38565000I0J120000D01*
G01*
X185695000Y-38325000D01*
G75*
G02*
X185815000Y-38205000I120000J0D01*
G01*
X187135000Y-38205000D01*
G75*
G02*
X187255000Y-38325000I0J-120000D01*
G01*
G37*
G36*
G01*
X187255000Y-39595000D02*
X187255000Y-39835000D01*
G75*
G02*
X187135000Y-39955000I-120000J0D01*
G01*
X185815000Y-39955000D01*
G75*
G02*
X185695000Y-39835000I0J120000D01*
G01*
X185695000Y-39595000D01*
G75*
G02*
X185815000Y-39475000I120000J0D01*
G01*
X187135000Y-39475000D01*
G75*
G02*
X187255000Y-39595000I0J-120000D01*
G01*
G37*
G36*
G01*
X187255000Y-40865000D02*
X187255000Y-41105000D01*
G75*
G02*
X187135000Y-41225000I-120000J0D01*
G01*
X185815000Y-41225000D01*
G75*
G02*
X185695000Y-41105000I0J120000D01*
G01*
X185695000Y-40865000D01*
G75*
G02*
X185815000Y-40745000I120000J0D01*
G01*
X187135000Y-40745000D01*
G75*
G02*
X187255000Y-40865000I0J-120000D01*
G01*
G37*
G36*
G01*
X187255000Y-42135000D02*
X187255000Y-42375000D01*
G75*
G02*
X187135000Y-42495000I-120000J0D01*
G01*
X185815000Y-42495000D01*
G75*
G02*
X185695000Y-42375000I0J120000D01*
G01*
X185695000Y-42135000D01*
G75*
G02*
X185815000Y-42015000I120000J0D01*
G01*
X187135000Y-42015000D01*
G75*
G02*
X187255000Y-42135000I0J-120000D01*
G01*
G37*
G36*
G01*
X187255000Y-43405000D02*
X187255000Y-43645000D01*
G75*
G02*
X187135000Y-43765000I-120000J0D01*
G01*
X185815000Y-43765000D01*
G75*
G02*
X185695000Y-43645000I0J120000D01*
G01*
X185695000Y-43405000D01*
G75*
G02*
X185815000Y-43285000I120000J0D01*
G01*
X187135000Y-43285000D01*
G75*
G02*
X187255000Y-43405000I0J-120000D01*
G01*
G37*
%TD*%
%TO.C,C5*%
G36*
G01*
X170047500Y-44845000D02*
X170047500Y-44115000D01*
G75*
G02*
X170242500Y-43920000I195000J0D01*
G01*
X170632500Y-43920000D01*
G75*
G02*
X170827500Y-44115000I0J-195000D01*
G01*
X170827500Y-44845000D01*
G75*
G02*
X170632500Y-45040000I-195000J0D01*
G01*
X170242500Y-45040000D01*
G75*
G02*
X170047500Y-44845000I0J195000D01*
G01*
G37*
G36*
G01*
X168172500Y-44845000D02*
X168172500Y-44115000D01*
G75*
G02*
X168367500Y-43920000I195000J0D01*
G01*
X168757500Y-43920000D01*
G75*
G02*
X168952500Y-44115000I0J-195000D01*
G01*
X168952500Y-44845000D01*
G75*
G02*
X168757500Y-45040000I-195000J0D01*
G01*
X168367500Y-45040000D01*
G75*
G02*
X168172500Y-44845000I0J195000D01*
G01*
G37*
%TD*%
%TO.C,C4*%
G36*
G01*
X170047500Y-49345000D02*
X170047500Y-48615000D01*
G75*
G02*
X170242500Y-48420000I195000J0D01*
G01*
X170632500Y-48420000D01*
G75*
G02*
X170827500Y-48615000I0J-195000D01*
G01*
X170827500Y-49345000D01*
G75*
G02*
X170632500Y-49540000I-195000J0D01*
G01*
X170242500Y-49540000D01*
G75*
G02*
X170047500Y-49345000I0J195000D01*
G01*
G37*
G36*
G01*
X168172500Y-49345000D02*
X168172500Y-48615000D01*
G75*
G02*
X168367500Y-48420000I195000J0D01*
G01*
X168757500Y-48420000D01*
G75*
G02*
X168952500Y-48615000I0J-195000D01*
G01*
X168952500Y-49345000D01*
G75*
G02*
X168757500Y-49540000I-195000J0D01*
G01*
X168367500Y-49540000D01*
G75*
G02*
X168172500Y-49345000I0J195000D01*
G01*
G37*
%TD*%
%TO.C,U10*%
G36*
G01*
X167695000Y-60195000D02*
X167695000Y-59955000D01*
G75*
G02*
X167815000Y-59835000I120000J0D01*
G01*
X169135000Y-59835000D01*
G75*
G02*
X169255000Y-59955000I0J-120000D01*
G01*
X169255000Y-60195000D01*
G75*
G02*
X169135000Y-60315000I-120000J0D01*
G01*
X167815000Y-60315000D01*
G75*
G02*
X167695000Y-60195000I0J120000D01*
G01*
G37*
G36*
G01*
X167695000Y-61465000D02*
X167695000Y-61225000D01*
G75*
G02*
X167815000Y-61105000I120000J0D01*
G01*
X169135000Y-61105000D01*
G75*
G02*
X169255000Y-61225000I0J-120000D01*
G01*
X169255000Y-61465000D01*
G75*
G02*
X169135000Y-61585000I-120000J0D01*
G01*
X167815000Y-61585000D01*
G75*
G02*
X167695000Y-61465000I0J120000D01*
G01*
G37*
G36*
G01*
X167695000Y-62735000D02*
X167695000Y-62495000D01*
G75*
G02*
X167815000Y-62375000I120000J0D01*
G01*
X169135000Y-62375000D01*
G75*
G02*
X169255000Y-62495000I0J-120000D01*
G01*
X169255000Y-62735000D01*
G75*
G02*
X169135000Y-62855000I-120000J0D01*
G01*
X167815000Y-62855000D01*
G75*
G02*
X167695000Y-62735000I0J120000D01*
G01*
G37*
G36*
G01*
X167695000Y-64005000D02*
X167695000Y-63765000D01*
G75*
G02*
X167815000Y-63645000I120000J0D01*
G01*
X169135000Y-63645000D01*
G75*
G02*
X169255000Y-63765000I0J-120000D01*
G01*
X169255000Y-64005000D01*
G75*
G02*
X169135000Y-64125000I-120000J0D01*
G01*
X167815000Y-64125000D01*
G75*
G02*
X167695000Y-64005000I0J120000D01*
G01*
G37*
G36*
G01*
X162745000Y-64005000D02*
X162745000Y-63765000D01*
G75*
G02*
X162865000Y-63645000I120000J0D01*
G01*
X164185000Y-63645000D01*
G75*
G02*
X164305000Y-63765000I0J-120000D01*
G01*
X164305000Y-64005000D01*
G75*
G02*
X164185000Y-64125000I-120000J0D01*
G01*
X162865000Y-64125000D01*
G75*
G02*
X162745000Y-64005000I0J120000D01*
G01*
G37*
G36*
G01*
X162745000Y-62735000D02*
X162745000Y-62495000D01*
G75*
G02*
X162865000Y-62375000I120000J0D01*
G01*
X164185000Y-62375000D01*
G75*
G02*
X164305000Y-62495000I0J-120000D01*
G01*
X164305000Y-62735000D01*
G75*
G02*
X164185000Y-62855000I-120000J0D01*
G01*
X162865000Y-62855000D01*
G75*
G02*
X162745000Y-62735000I0J120000D01*
G01*
G37*
G36*
G01*
X162745000Y-61465000D02*
X162745000Y-61225000D01*
G75*
G02*
X162865000Y-61105000I120000J0D01*
G01*
X164185000Y-61105000D01*
G75*
G02*
X164305000Y-61225000I0J-120000D01*
G01*
X164305000Y-61465000D01*
G75*
G02*
X164185000Y-61585000I-120000J0D01*
G01*
X162865000Y-61585000D01*
G75*
G02*
X162745000Y-61465000I0J120000D01*
G01*
G37*
G36*
G01*
X162745000Y-60195000D02*
X162745000Y-59955000D01*
G75*
G02*
X162865000Y-59835000I120000J0D01*
G01*
X164185000Y-59835000D01*
G75*
G02*
X164305000Y-59955000I0J-120000D01*
G01*
X164305000Y-60195000D01*
G75*
G02*
X164185000Y-60315000I-120000J0D01*
G01*
X162865000Y-60315000D01*
G75*
G02*
X162745000Y-60195000I0J120000D01*
G01*
G37*
%TD*%
%TO.C,U9*%
G36*
G01*
X167695000Y-51195000D02*
X167695000Y-50955000D01*
G75*
G02*
X167815000Y-50835000I120000J0D01*
G01*
X169135000Y-50835000D01*
G75*
G02*
X169255000Y-50955000I0J-120000D01*
G01*
X169255000Y-51195000D01*
G75*
G02*
X169135000Y-51315000I-120000J0D01*
G01*
X167815000Y-51315000D01*
G75*
G02*
X167695000Y-51195000I0J120000D01*
G01*
G37*
G36*
G01*
X167695000Y-52465000D02*
X167695000Y-52225000D01*
G75*
G02*
X167815000Y-52105000I120000J0D01*
G01*
X169135000Y-52105000D01*
G75*
G02*
X169255000Y-52225000I0J-120000D01*
G01*
X169255000Y-52465000D01*
G75*
G02*
X169135000Y-52585000I-120000J0D01*
G01*
X167815000Y-52585000D01*
G75*
G02*
X167695000Y-52465000I0J120000D01*
G01*
G37*
G36*
G01*
X167695000Y-53735000D02*
X167695000Y-53495000D01*
G75*
G02*
X167815000Y-53375000I120000J0D01*
G01*
X169135000Y-53375000D01*
G75*
G02*
X169255000Y-53495000I0J-120000D01*
G01*
X169255000Y-53735000D01*
G75*
G02*
X169135000Y-53855000I-120000J0D01*
G01*
X167815000Y-53855000D01*
G75*
G02*
X167695000Y-53735000I0J120000D01*
G01*
G37*
G36*
G01*
X167695000Y-55005000D02*
X167695000Y-54765000D01*
G75*
G02*
X167815000Y-54645000I120000J0D01*
G01*
X169135000Y-54645000D01*
G75*
G02*
X169255000Y-54765000I0J-120000D01*
G01*
X169255000Y-55005000D01*
G75*
G02*
X169135000Y-55125000I-120000J0D01*
G01*
X167815000Y-55125000D01*
G75*
G02*
X167695000Y-55005000I0J120000D01*
G01*
G37*
G36*
G01*
X162745000Y-55005000D02*
X162745000Y-54765000D01*
G75*
G02*
X162865000Y-54645000I120000J0D01*
G01*
X164185000Y-54645000D01*
G75*
G02*
X164305000Y-54765000I0J-120000D01*
G01*
X164305000Y-55005000D01*
G75*
G02*
X164185000Y-55125000I-120000J0D01*
G01*
X162865000Y-55125000D01*
G75*
G02*
X162745000Y-55005000I0J120000D01*
G01*
G37*
G36*
G01*
X162745000Y-53735000D02*
X162745000Y-53495000D01*
G75*
G02*
X162865000Y-53375000I120000J0D01*
G01*
X164185000Y-53375000D01*
G75*
G02*
X164305000Y-53495000I0J-120000D01*
G01*
X164305000Y-53735000D01*
G75*
G02*
X164185000Y-53855000I-120000J0D01*
G01*
X162865000Y-53855000D01*
G75*
G02*
X162745000Y-53735000I0J120000D01*
G01*
G37*
G36*
G01*
X162745000Y-52465000D02*
X162745000Y-52225000D01*
G75*
G02*
X162865000Y-52105000I120000J0D01*
G01*
X164185000Y-52105000D01*
G75*
G02*
X164305000Y-52225000I0J-120000D01*
G01*
X164305000Y-52465000D01*
G75*
G02*
X164185000Y-52585000I-120000J0D01*
G01*
X162865000Y-52585000D01*
G75*
G02*
X162745000Y-52465000I0J120000D01*
G01*
G37*
G36*
G01*
X162745000Y-51195000D02*
X162745000Y-50955000D01*
G75*
G02*
X162865000Y-50835000I120000J0D01*
G01*
X164185000Y-50835000D01*
G75*
G02*
X164305000Y-50955000I0J-120000D01*
G01*
X164305000Y-51195000D01*
G75*
G02*
X164185000Y-51315000I-120000J0D01*
G01*
X162865000Y-51315000D01*
G75*
G02*
X162745000Y-51195000I0J120000D01*
G01*
G37*
%TD*%
%TO.C,C13*%
G36*
G01*
X184147500Y-75625000D02*
X184147500Y-74895000D01*
G75*
G02*
X184342500Y-74700000I195000J0D01*
G01*
X184732500Y-74700000D01*
G75*
G02*
X184927500Y-74895000I0J-195000D01*
G01*
X184927500Y-75625000D01*
G75*
G02*
X184732500Y-75820000I-195000J0D01*
G01*
X184342500Y-75820000D01*
G75*
G02*
X184147500Y-75625000I0J195000D01*
G01*
G37*
G36*
G01*
X182272500Y-75625000D02*
X182272500Y-74895000D01*
G75*
G02*
X182467500Y-74700000I195000J0D01*
G01*
X182857500Y-74700000D01*
G75*
G02*
X183052500Y-74895000I0J-195000D01*
G01*
X183052500Y-75625000D01*
G75*
G02*
X182857500Y-75820000I-195000J0D01*
G01*
X182467500Y-75820000D01*
G75*
G02*
X182272500Y-75625000I0J195000D01*
G01*
G37*
%TD*%
%TO.C,C12*%
G36*
G01*
X184347500Y-89725000D02*
X184347500Y-88995000D01*
G75*
G02*
X184542500Y-88800000I195000J0D01*
G01*
X184932500Y-88800000D01*
G75*
G02*
X185127500Y-88995000I0J-195000D01*
G01*
X185127500Y-89725000D01*
G75*
G02*
X184932500Y-89920000I-195000J0D01*
G01*
X184542500Y-89920000D01*
G75*
G02*
X184347500Y-89725000I0J195000D01*
G01*
G37*
G36*
G01*
X182472500Y-89725000D02*
X182472500Y-88995000D01*
G75*
G02*
X182667500Y-88800000I195000J0D01*
G01*
X183057500Y-88800000D01*
G75*
G02*
X183252500Y-88995000I0J-195000D01*
G01*
X183252500Y-89725000D01*
G75*
G02*
X183057500Y-89920000I-195000J0D01*
G01*
X182667500Y-89920000D01*
G75*
G02*
X182472500Y-89725000I0J195000D01*
G01*
G37*
%TD*%
%TO.C,C11*%
G36*
G01*
X184447500Y-61725000D02*
X184447500Y-60995000D01*
G75*
G02*
X184642500Y-60800000I195000J0D01*
G01*
X185032500Y-60800000D01*
G75*
G02*
X185227500Y-60995000I0J-195000D01*
G01*
X185227500Y-61725000D01*
G75*
G02*
X185032500Y-61920000I-195000J0D01*
G01*
X184642500Y-61920000D01*
G75*
G02*
X184447500Y-61725000I0J195000D01*
G01*
G37*
G36*
G01*
X182572500Y-61725000D02*
X182572500Y-60995000D01*
G75*
G02*
X182767500Y-60800000I195000J0D01*
G01*
X183157500Y-60800000D01*
G75*
G02*
X183352500Y-60995000I0J-195000D01*
G01*
X183352500Y-61725000D01*
G75*
G02*
X183157500Y-61920000I-195000J0D01*
G01*
X182767500Y-61920000D01*
G75*
G02*
X182572500Y-61725000I0J195000D01*
G01*
G37*
%TD*%
%TO.C,C10*%
G36*
G01*
X184247500Y-103725000D02*
X184247500Y-102995000D01*
G75*
G02*
X184442500Y-102800000I195000J0D01*
G01*
X184832500Y-102800000D01*
G75*
G02*
X185027500Y-102995000I0J-195000D01*
G01*
X185027500Y-103725000D01*
G75*
G02*
X184832500Y-103920000I-195000J0D01*
G01*
X184442500Y-103920000D01*
G75*
G02*
X184247500Y-103725000I0J195000D01*
G01*
G37*
G36*
G01*
X182372500Y-103725000D02*
X182372500Y-102995000D01*
G75*
G02*
X182567500Y-102800000I195000J0D01*
G01*
X182957500Y-102800000D01*
G75*
G02*
X183152500Y-102995000I0J-195000D01*
G01*
X183152500Y-103725000D01*
G75*
G02*
X182957500Y-103920000I-195000J0D01*
G01*
X182567500Y-103920000D01*
G75*
G02*
X182372500Y-103725000I0J195000D01*
G01*
G37*
%TD*%
%TO.C,C9*%
G36*
G01*
X184547500Y-47425000D02*
X184547500Y-46695000D01*
G75*
G02*
X184742500Y-46500000I195000J0D01*
G01*
X185132500Y-46500000D01*
G75*
G02*
X185327500Y-46695000I0J-195000D01*
G01*
X185327500Y-47425000D01*
G75*
G02*
X185132500Y-47620000I-195000J0D01*
G01*
X184742500Y-47620000D01*
G75*
G02*
X184547500Y-47425000I0J195000D01*
G01*
G37*
G36*
G01*
X182672500Y-47425000D02*
X182672500Y-46695000D01*
G75*
G02*
X182867500Y-46500000I195000J0D01*
G01*
X183257500Y-46500000D01*
G75*
G02*
X183452500Y-46695000I0J-195000D01*
G01*
X183452500Y-47425000D01*
G75*
G02*
X183257500Y-47620000I-195000J0D01*
G01*
X182867500Y-47620000D01*
G75*
G02*
X182672500Y-47425000I0J195000D01*
G01*
G37*
%TD*%
%TO.C,C8*%
G36*
G01*
X184147500Y-117725000D02*
X184147500Y-116995000D01*
G75*
G02*
X184342500Y-116800000I195000J0D01*
G01*
X184732500Y-116800000D01*
G75*
G02*
X184927500Y-116995000I0J-195000D01*
G01*
X184927500Y-117725000D01*
G75*
G02*
X184732500Y-117920000I-195000J0D01*
G01*
X184342500Y-117920000D01*
G75*
G02*
X184147500Y-117725000I0J195000D01*
G01*
G37*
G36*
G01*
X182272500Y-117725000D02*
X182272500Y-116995000D01*
G75*
G02*
X182467500Y-116800000I195000J0D01*
G01*
X182857500Y-116800000D01*
G75*
G02*
X183052500Y-116995000I0J-195000D01*
G01*
X183052500Y-117725000D01*
G75*
G02*
X182857500Y-117920000I-195000J0D01*
G01*
X182467500Y-117920000D01*
G75*
G02*
X182272500Y-117725000I0J195000D01*
G01*
G37*
%TD*%
%TO.C,C7*%
G36*
G01*
X184147500Y-33245000D02*
X184147500Y-32515000D01*
G75*
G02*
X184342500Y-32320000I195000J0D01*
G01*
X184732500Y-32320000D01*
G75*
G02*
X184927500Y-32515000I0J-195000D01*
G01*
X184927500Y-33245000D01*
G75*
G02*
X184732500Y-33440000I-195000J0D01*
G01*
X184342500Y-33440000D01*
G75*
G02*
X184147500Y-33245000I0J195000D01*
G01*
G37*
G36*
G01*
X182272500Y-33245000D02*
X182272500Y-32515000D01*
G75*
G02*
X182467500Y-32320000I195000J0D01*
G01*
X182857500Y-32320000D01*
G75*
G02*
X183052500Y-32515000I0J-195000D01*
G01*
X183052500Y-33245000D01*
G75*
G02*
X182857500Y-33440000I-195000J0D01*
G01*
X182467500Y-33440000D01*
G75*
G02*
X182272500Y-33245000I0J195000D01*
G01*
G37*
%TD*%
%TO.C,C6*%
G36*
G01*
X184147500Y-131725000D02*
X184147500Y-130995000D01*
G75*
G02*
X184342500Y-130800000I195000J0D01*
G01*
X184732500Y-130800000D01*
G75*
G02*
X184927500Y-130995000I0J-195000D01*
G01*
X184927500Y-131725000D01*
G75*
G02*
X184732500Y-131920000I-195000J0D01*
G01*
X184342500Y-131920000D01*
G75*
G02*
X184147500Y-131725000I0J195000D01*
G01*
G37*
G36*
G01*
X182272500Y-131725000D02*
X182272500Y-130995000D01*
G75*
G02*
X182467500Y-130800000I195000J0D01*
G01*
X182857500Y-130800000D01*
G75*
G02*
X183052500Y-130995000I0J-195000D01*
G01*
X183052500Y-131725000D01*
G75*
G02*
X182857500Y-131920000I-195000J0D01*
G01*
X182467500Y-131920000D01*
G75*
G02*
X182272500Y-131725000I0J195000D01*
G01*
G37*
%TD*%
%TO.C,C3*%
G36*
G01*
X170047500Y-58345000D02*
X170047500Y-57615000D01*
G75*
G02*
X170242500Y-57420000I195000J0D01*
G01*
X170632500Y-57420000D01*
G75*
G02*
X170827500Y-57615000I0J-195000D01*
G01*
X170827500Y-58345000D01*
G75*
G02*
X170632500Y-58540000I-195000J0D01*
G01*
X170242500Y-58540000D01*
G75*
G02*
X170047500Y-58345000I0J195000D01*
G01*
G37*
G36*
G01*
X168172500Y-58345000D02*
X168172500Y-57615000D01*
G75*
G02*
X168367500Y-57420000I195000J0D01*
G01*
X168757500Y-57420000D01*
G75*
G02*
X168952500Y-57615000I0J-195000D01*
G01*
X168952500Y-58345000D01*
G75*
G02*
X168757500Y-58540000I-195000J0D01*
G01*
X168367500Y-58540000D01*
G75*
G02*
X168172500Y-58345000I0J195000D01*
G01*
G37*
%TD*%
%TO.C,C2*%
G36*
G01*
X161452500Y-57615000D02*
X161452500Y-58345000D01*
G75*
G02*
X161257500Y-58540000I-195000J0D01*
G01*
X160867500Y-58540000D01*
G75*
G02*
X160672500Y-58345000I0J195000D01*
G01*
X160672500Y-57615000D01*
G75*
G02*
X160867500Y-57420000I195000J0D01*
G01*
X161257500Y-57420000D01*
G75*
G02*
X161452500Y-57615000I0J-195000D01*
G01*
G37*
G36*
G01*
X163327500Y-57615000D02*
X163327500Y-58345000D01*
G75*
G02*
X163132500Y-58540000I-195000J0D01*
G01*
X162742500Y-58540000D01*
G75*
G02*
X162547500Y-58345000I0J195000D01*
G01*
X162547500Y-57615000D01*
G75*
G02*
X162742500Y-57420000I195000J0D01*
G01*
X163132500Y-57420000D01*
G75*
G02*
X163327500Y-57615000I0J-195000D01*
G01*
G37*
%TD*%
%TO.C,C1*%
G36*
G01*
X161514999Y-48615000D02*
X161514999Y-49345000D01*
G75*
G02*
X161319999Y-49540000I-195000J0D01*
G01*
X160929999Y-49540000D01*
G75*
G02*
X160734999Y-49345000I0J195000D01*
G01*
X160734999Y-48615000D01*
G75*
G02*
X160929999Y-48420000I195000J0D01*
G01*
X161319999Y-48420000D01*
G75*
G02*
X161514999Y-48615000I0J-195000D01*
G01*
G37*
G36*
G01*
X163389999Y-48615000D02*
X163389999Y-49345000D01*
G75*
G02*
X163194999Y-49540000I-195000J0D01*
G01*
X162804999Y-49540000D01*
G75*
G02*
X162609999Y-49345000I0J195000D01*
G01*
X162609999Y-48615000D01*
G75*
G02*
X162804999Y-48420000I195000J0D01*
G01*
X163194999Y-48420000D01*
G75*
G02*
X163389999Y-48615000I0J-195000D01*
G01*
G37*
%TD*%
%TO.C,R128*%
G36*
G01*
X255867896Y-142086909D02*
X256157809Y-141796994D01*
G75*
G02*
X256405297Y-141796994I123744J-123744D01*
G01*
X256652785Y-142044482D01*
G75*
G02*
X256652785Y-142291970I-123744J-123744D01*
G01*
X256362871Y-142581884D01*
G75*
G02*
X256115383Y-142581884I-123744J123744D01*
G01*
X255867895Y-142334396D01*
G75*
G02*
X255867895Y-142086908I123744J123744D01*
G01*
G37*
G36*
G01*
X254754202Y-140973215D02*
X255044115Y-140683300D01*
G75*
G02*
X255291603Y-140683300I123744J-123744D01*
G01*
X255539091Y-140930788D01*
G75*
G02*
X255539091Y-141178276I-123744J-123744D01*
G01*
X255249177Y-141468190D01*
G75*
G02*
X255001689Y-141468190I-123744J123744D01*
G01*
X254754201Y-141220702D01*
G75*
G02*
X254754201Y-140973214I123744J123744D01*
G01*
G37*
%TD*%
%TO.C,R127*%
G36*
G01*
X259738829Y-138963089D02*
X259933990Y-138767927D01*
G75*
G02*
X260100868Y-138767927I83439J-83439D01*
G01*
X260267745Y-138934804D01*
G75*
G02*
X260267745Y-139101682I-83439J-83439D01*
G01*
X260072584Y-139296843D01*
G75*
G02*
X259905706Y-139296843I-83439J83439D01*
G01*
X259738829Y-139129966D01*
G75*
G02*
X259738829Y-138963088I83439J83439D01*
G01*
G37*
G36*
G01*
X259052935Y-138277195D02*
X259248096Y-138082033D01*
G75*
G02*
X259414974Y-138082033I83439J-83439D01*
G01*
X259581851Y-138248910D01*
G75*
G02*
X259581851Y-138415788I-83439J-83439D01*
G01*
X259386690Y-138610949D01*
G75*
G02*
X259219812Y-138610949I-83439J83439D01*
G01*
X259052935Y-138444072D01*
G75*
G02*
X259052935Y-138277194I83439J83439D01*
G01*
G37*
%TD*%
%TO.C,R126*%
G36*
G01*
X247137315Y-142099040D02*
X247427228Y-141809125D01*
G75*
G02*
X247674716Y-141809125I123744J-123744D01*
G01*
X247922204Y-142056613D01*
G75*
G02*
X247922204Y-142304101I-123744J-123744D01*
G01*
X247632290Y-142594015D01*
G75*
G02*
X247384802Y-142594015I-123744J123744D01*
G01*
X247137314Y-142346527D01*
G75*
G02*
X247137314Y-142099039I123744J123744D01*
G01*
G37*
G36*
G01*
X246023621Y-140985346D02*
X246313534Y-140695431D01*
G75*
G02*
X246561022Y-140695431I123744J-123744D01*
G01*
X246808510Y-140942919D01*
G75*
G02*
X246808510Y-141190407I-123744J-123744D01*
G01*
X246518596Y-141480321D01*
G75*
G02*
X246271108Y-141480321I-123744J123744D01*
G01*
X246023620Y-141232833D01*
G75*
G02*
X246023620Y-140985345I123744J123744D01*
G01*
G37*
%TD*%
%TO.C,R125*%
G36*
G01*
X251008248Y-138975221D02*
X251203409Y-138780059D01*
G75*
G02*
X251370287Y-138780059I83439J-83439D01*
G01*
X251537164Y-138946936D01*
G75*
G02*
X251537164Y-139113814I-83439J-83439D01*
G01*
X251342003Y-139308975D01*
G75*
G02*
X251175125Y-139308975I-83439J83439D01*
G01*
X251008248Y-139142098D01*
G75*
G02*
X251008248Y-138975220I83439J83439D01*
G01*
G37*
G36*
G01*
X250322354Y-138289327D02*
X250517515Y-138094165D01*
G75*
G02*
X250684393Y-138094165I83439J-83439D01*
G01*
X250851270Y-138261042D01*
G75*
G02*
X250851270Y-138427920I-83439J-83439D01*
G01*
X250656109Y-138623081D01*
G75*
G02*
X250489231Y-138623081I-83439J83439D01*
G01*
X250322354Y-138456204D01*
G75*
G02*
X250322354Y-138289326I83439J83439D01*
G01*
G37*
%TD*%
%TO.C,R124*%
G36*
G01*
X238324428Y-142159593D02*
X238614341Y-141869678D01*
G75*
G02*
X238861829Y-141869678I123744J-123744D01*
G01*
X239109317Y-142117166D01*
G75*
G02*
X239109317Y-142364654I-123744J-123744D01*
G01*
X238819403Y-142654568D01*
G75*
G02*
X238571915Y-142654568I-123744J123744D01*
G01*
X238324427Y-142407080D01*
G75*
G02*
X238324427Y-142159592I123744J123744D01*
G01*
G37*
G36*
G01*
X237210734Y-141045899D02*
X237500647Y-140755984D01*
G75*
G02*
X237748135Y-140755984I123744J-123744D01*
G01*
X237995623Y-141003472D01*
G75*
G02*
X237995623Y-141250960I-123744J-123744D01*
G01*
X237705709Y-141540874D01*
G75*
G02*
X237458221Y-141540874I-123744J123744D01*
G01*
X237210733Y-141293386D01*
G75*
G02*
X237210733Y-141045898I123744J123744D01*
G01*
G37*
%TD*%
%TO.C,R123*%
G36*
G01*
X242195361Y-139035774D02*
X242390522Y-138840612D01*
G75*
G02*
X242557400Y-138840612I83439J-83439D01*
G01*
X242724277Y-139007489D01*
G75*
G02*
X242724277Y-139174367I-83439J-83439D01*
G01*
X242529116Y-139369528D01*
G75*
G02*
X242362238Y-139369528I-83439J83439D01*
G01*
X242195361Y-139202651D01*
G75*
G02*
X242195361Y-139035773I83439J83439D01*
G01*
G37*
G36*
G01*
X241509467Y-138349880D02*
X241704628Y-138154718D01*
G75*
G02*
X241871506Y-138154718I83439J-83439D01*
G01*
X242038383Y-138321595D01*
G75*
G02*
X242038383Y-138488473I-83439J-83439D01*
G01*
X241843222Y-138683634D01*
G75*
G02*
X241676344Y-138683634I-83439J83439D01*
G01*
X241509467Y-138516757D01*
G75*
G02*
X241509467Y-138349879I83439J83439D01*
G01*
G37*
%TD*%
%TO.C,R122*%
G36*
G01*
X229631677Y-142130232D02*
X229921590Y-141840317D01*
G75*
G02*
X230169078Y-141840317I123744J-123744D01*
G01*
X230416566Y-142087805D01*
G75*
G02*
X230416566Y-142335293I-123744J-123744D01*
G01*
X230126652Y-142625207D01*
G75*
G02*
X229879164Y-142625207I-123744J123744D01*
G01*
X229631676Y-142377719D01*
G75*
G02*
X229631676Y-142130231I123744J123744D01*
G01*
G37*
G36*
G01*
X228517983Y-141016538D02*
X228807896Y-140726623D01*
G75*
G02*
X229055384Y-140726623I123744J-123744D01*
G01*
X229302872Y-140974111D01*
G75*
G02*
X229302872Y-141221599I-123744J-123744D01*
G01*
X229012958Y-141511513D01*
G75*
G02*
X228765470Y-141511513I-123744J123744D01*
G01*
X228517982Y-141264025D01*
G75*
G02*
X228517982Y-141016537I123744J123744D01*
G01*
G37*
%TD*%
%TO.C,R121*%
G36*
G01*
X233502611Y-139006413D02*
X233697772Y-138811251D01*
G75*
G02*
X233864650Y-138811251I83439J-83439D01*
G01*
X234031527Y-138978128D01*
G75*
G02*
X234031527Y-139145006I-83439J-83439D01*
G01*
X233836366Y-139340167D01*
G75*
G02*
X233669488Y-139340167I-83439J83439D01*
G01*
X233502611Y-139173290D01*
G75*
G02*
X233502611Y-139006412I83439J83439D01*
G01*
G37*
G36*
G01*
X232816717Y-138320519D02*
X233011878Y-138125357D01*
G75*
G02*
X233178756Y-138125357I83439J-83439D01*
G01*
X233345633Y-138292234D01*
G75*
G02*
X233345633Y-138459112I-83439J-83439D01*
G01*
X233150472Y-138654273D01*
G75*
G02*
X232983594Y-138654273I-83439J83439D01*
G01*
X232816717Y-138487396D01*
G75*
G02*
X232816717Y-138320518I83439J83439D01*
G01*
G37*
%TD*%
%TO.C,R120*%
G36*
G01*
X220764808Y-142238451D02*
X221054721Y-141948536D01*
G75*
G02*
X221302209Y-141948536I123744J-123744D01*
G01*
X221549697Y-142196024D01*
G75*
G02*
X221549697Y-142443512I-123744J-123744D01*
G01*
X221259783Y-142733426D01*
G75*
G02*
X221012295Y-142733426I-123744J123744D01*
G01*
X220764807Y-142485938D01*
G75*
G02*
X220764807Y-142238450I123744J123744D01*
G01*
G37*
G36*
G01*
X219651114Y-141124757D02*
X219941027Y-140834842D01*
G75*
G02*
X220188515Y-140834842I123744J-123744D01*
G01*
X220436003Y-141082330D01*
G75*
G02*
X220436003Y-141329818I-123744J-123744D01*
G01*
X220146089Y-141619732D01*
G75*
G02*
X219898601Y-141619732I-123744J123744D01*
G01*
X219651113Y-141372244D01*
G75*
G02*
X219651113Y-141124756I123744J123744D01*
G01*
G37*
%TD*%
%TO.C,R119*%
G36*
G01*
X224635742Y-139114632D02*
X224830903Y-138919470D01*
G75*
G02*
X224997781Y-138919470I83439J-83439D01*
G01*
X225164658Y-139086347D01*
G75*
G02*
X225164658Y-139253225I-83439J-83439D01*
G01*
X224969497Y-139448386D01*
G75*
G02*
X224802619Y-139448386I-83439J83439D01*
G01*
X224635742Y-139281509D01*
G75*
G02*
X224635742Y-139114631I83439J83439D01*
G01*
G37*
G36*
G01*
X223949848Y-138428738D02*
X224145009Y-138233576D01*
G75*
G02*
X224311887Y-138233576I83439J-83439D01*
G01*
X224478764Y-138400453D01*
G75*
G02*
X224478764Y-138567331I-83439J-83439D01*
G01*
X224283603Y-138762492D01*
G75*
G02*
X224116725Y-138762492I-83439J83439D01*
G01*
X223949848Y-138595615D01*
G75*
G02*
X223949848Y-138428737I83439J83439D01*
G01*
G37*
%TD*%
%TO.C,R118*%
G36*
G01*
X212108276Y-142168711D02*
X212398189Y-141878796D01*
G75*
G02*
X212645677Y-141878796I123744J-123744D01*
G01*
X212893165Y-142126284D01*
G75*
G02*
X212893165Y-142373772I-123744J-123744D01*
G01*
X212603251Y-142663686D01*
G75*
G02*
X212355763Y-142663686I-123744J123744D01*
G01*
X212108275Y-142416198D01*
G75*
G02*
X212108275Y-142168710I123744J123744D01*
G01*
G37*
G36*
G01*
X210994582Y-141055017D02*
X211284495Y-140765102D01*
G75*
G02*
X211531983Y-140765102I123744J-123744D01*
G01*
X211779471Y-141012590D01*
G75*
G02*
X211779471Y-141260078I-123744J-123744D01*
G01*
X211489557Y-141549992D01*
G75*
G02*
X211242069Y-141549992I-123744J123744D01*
G01*
X210994581Y-141302504D01*
G75*
G02*
X210994581Y-141055016I123744J123744D01*
G01*
G37*
%TD*%
%TO.C,R117*%
G36*
G01*
X215979209Y-139044891D02*
X216174370Y-138849729D01*
G75*
G02*
X216341248Y-138849729I83439J-83439D01*
G01*
X216508125Y-139016606D01*
G75*
G02*
X216508125Y-139183484I-83439J-83439D01*
G01*
X216312964Y-139378645D01*
G75*
G02*
X216146086Y-139378645I-83439J83439D01*
G01*
X215979209Y-139211768D01*
G75*
G02*
X215979209Y-139044890I83439J83439D01*
G01*
G37*
G36*
G01*
X215293315Y-138358997D02*
X215488476Y-138163835D01*
G75*
G02*
X215655354Y-138163835I83439J-83439D01*
G01*
X215822231Y-138330712D01*
G75*
G02*
X215822231Y-138497590I-83439J-83439D01*
G01*
X215627070Y-138692751D01*
G75*
G02*
X215460192Y-138692751I-83439J83439D01*
G01*
X215293315Y-138525874D01*
G75*
G02*
X215293315Y-138358996I83439J83439D01*
G01*
G37*
%TD*%
%TO.C,R116*%
G36*
G01*
X203346718Y-142196025D02*
X203636631Y-141906110D01*
G75*
G02*
X203884119Y-141906110I123744J-123744D01*
G01*
X204131607Y-142153598D01*
G75*
G02*
X204131607Y-142401086I-123744J-123744D01*
G01*
X203841693Y-142691000D01*
G75*
G02*
X203594205Y-142691000I-123744J123744D01*
G01*
X203346717Y-142443512D01*
G75*
G02*
X203346717Y-142196024I123744J123744D01*
G01*
G37*
G36*
G01*
X202233024Y-141082331D02*
X202522937Y-140792416D01*
G75*
G02*
X202770425Y-140792416I123744J-123744D01*
G01*
X203017913Y-141039904D01*
G75*
G02*
X203017913Y-141287392I-123744J-123744D01*
G01*
X202727999Y-141577306D01*
G75*
G02*
X202480511Y-141577306I-123744J123744D01*
G01*
X202233023Y-141329818D01*
G75*
G02*
X202233023Y-141082330I123744J123744D01*
G01*
G37*
%TD*%
%TO.C,R115*%
G36*
G01*
X207217651Y-139072206D02*
X207412812Y-138877044D01*
G75*
G02*
X207579690Y-138877044I83439J-83439D01*
G01*
X207746567Y-139043921D01*
G75*
G02*
X207746567Y-139210799I-83439J-83439D01*
G01*
X207551406Y-139405960D01*
G75*
G02*
X207384528Y-139405960I-83439J83439D01*
G01*
X207217651Y-139239083D01*
G75*
G02*
X207217651Y-139072205I83439J83439D01*
G01*
G37*
G36*
G01*
X206531757Y-138386312D02*
X206726918Y-138191150D01*
G75*
G02*
X206893796Y-138191150I83439J-83439D01*
G01*
X207060673Y-138358027D01*
G75*
G02*
X207060673Y-138524905I-83439J-83439D01*
G01*
X206865512Y-138720066D01*
G75*
G02*
X206698634Y-138720066I-83439J83439D01*
G01*
X206531757Y-138553189D01*
G75*
G02*
X206531757Y-138386311I83439J83439D01*
G01*
G37*
%TD*%
%TO.C,R114*%
G36*
G01*
X194607556Y-142177470D02*
X194897469Y-141887555D01*
G75*
G02*
X195144957Y-141887555I123744J-123744D01*
G01*
X195392445Y-142135043D01*
G75*
G02*
X195392445Y-142382531I-123744J-123744D01*
G01*
X195102531Y-142672445D01*
G75*
G02*
X194855043Y-142672445I-123744J123744D01*
G01*
X194607555Y-142424957D01*
G75*
G02*
X194607555Y-142177469I123744J123744D01*
G01*
G37*
G36*
G01*
X193493862Y-141063776D02*
X193783775Y-140773861D01*
G75*
G02*
X194031263Y-140773861I123744J-123744D01*
G01*
X194278751Y-141021349D01*
G75*
G02*
X194278751Y-141268837I-123744J-123744D01*
G01*
X193988837Y-141558751D01*
G75*
G02*
X193741349Y-141558751I-123744J123744D01*
G01*
X193493861Y-141311263D01*
G75*
G02*
X193493861Y-141063775I123744J123744D01*
G01*
G37*
%TD*%
%TO.C,R113*%
G36*
G01*
X198478489Y-139053651D02*
X198673650Y-138858489D01*
G75*
G02*
X198840528Y-138858489I83439J-83439D01*
G01*
X199007405Y-139025366D01*
G75*
G02*
X199007405Y-139192244I-83439J-83439D01*
G01*
X198812244Y-139387405D01*
G75*
G02*
X198645366Y-139387405I-83439J83439D01*
G01*
X198478489Y-139220528D01*
G75*
G02*
X198478489Y-139053650I83439J83439D01*
G01*
G37*
G36*
G01*
X197792595Y-138367757D02*
X197987756Y-138172595D01*
G75*
G02*
X198154634Y-138172595I83439J-83439D01*
G01*
X198321511Y-138339472D01*
G75*
G02*
X198321511Y-138506350I-83439J-83439D01*
G01*
X198126350Y-138701511D01*
G75*
G02*
X197959472Y-138701511I-83439J83439D01*
G01*
X197792595Y-138534634D01*
G75*
G02*
X197792595Y-138367756I83439J83439D01*
G01*
G37*
%TD*%
%TO.C,R112*%
G36*
G01*
X255867896Y-128086909D02*
X256157809Y-127796994D01*
G75*
G02*
X256405297Y-127796994I123744J-123744D01*
G01*
X256652785Y-128044482D01*
G75*
G02*
X256652785Y-128291970I-123744J-123744D01*
G01*
X256362871Y-128581884D01*
G75*
G02*
X256115383Y-128581884I-123744J123744D01*
G01*
X255867895Y-128334396D01*
G75*
G02*
X255867895Y-128086908I123744J123744D01*
G01*
G37*
G36*
G01*
X254754202Y-126973215D02*
X255044115Y-126683300D01*
G75*
G02*
X255291603Y-126683300I123744J-123744D01*
G01*
X255539091Y-126930788D01*
G75*
G02*
X255539091Y-127178276I-123744J-123744D01*
G01*
X255249177Y-127468190D01*
G75*
G02*
X255001689Y-127468190I-123744J123744D01*
G01*
X254754201Y-127220702D01*
G75*
G02*
X254754201Y-126973214I123744J123744D01*
G01*
G37*
%TD*%
%TO.C,R111*%
G36*
G01*
X259738829Y-124963089D02*
X259933990Y-124767927D01*
G75*
G02*
X260100868Y-124767927I83439J-83439D01*
G01*
X260267745Y-124934804D01*
G75*
G02*
X260267745Y-125101682I-83439J-83439D01*
G01*
X260072584Y-125296843D01*
G75*
G02*
X259905706Y-125296843I-83439J83439D01*
G01*
X259738829Y-125129966D01*
G75*
G02*
X259738829Y-124963088I83439J83439D01*
G01*
G37*
G36*
G01*
X259052935Y-124277195D02*
X259248096Y-124082033D01*
G75*
G02*
X259414974Y-124082033I83439J-83439D01*
G01*
X259581851Y-124248910D01*
G75*
G02*
X259581851Y-124415788I-83439J-83439D01*
G01*
X259386690Y-124610949D01*
G75*
G02*
X259219812Y-124610949I-83439J83439D01*
G01*
X259052935Y-124444072D01*
G75*
G02*
X259052935Y-124277194I83439J83439D01*
G01*
G37*
%TD*%
%TO.C,R110*%
G36*
G01*
X247137315Y-128099040D02*
X247427228Y-127809125D01*
G75*
G02*
X247674716Y-127809125I123744J-123744D01*
G01*
X247922204Y-128056613D01*
G75*
G02*
X247922204Y-128304101I-123744J-123744D01*
G01*
X247632290Y-128594015D01*
G75*
G02*
X247384802Y-128594015I-123744J123744D01*
G01*
X247137314Y-128346527D01*
G75*
G02*
X247137314Y-128099039I123744J123744D01*
G01*
G37*
G36*
G01*
X246023621Y-126985346D02*
X246313534Y-126695431D01*
G75*
G02*
X246561022Y-126695431I123744J-123744D01*
G01*
X246808510Y-126942919D01*
G75*
G02*
X246808510Y-127190407I-123744J-123744D01*
G01*
X246518596Y-127480321D01*
G75*
G02*
X246271108Y-127480321I-123744J123744D01*
G01*
X246023620Y-127232833D01*
G75*
G02*
X246023620Y-126985345I123744J123744D01*
G01*
G37*
%TD*%
%TO.C,R109*%
G36*
G01*
X251008248Y-124975221D02*
X251203409Y-124780059D01*
G75*
G02*
X251370287Y-124780059I83439J-83439D01*
G01*
X251537164Y-124946936D01*
G75*
G02*
X251537164Y-125113814I-83439J-83439D01*
G01*
X251342003Y-125308975D01*
G75*
G02*
X251175125Y-125308975I-83439J83439D01*
G01*
X251008248Y-125142098D01*
G75*
G02*
X251008248Y-124975220I83439J83439D01*
G01*
G37*
G36*
G01*
X250322354Y-124289327D02*
X250517515Y-124094165D01*
G75*
G02*
X250684393Y-124094165I83439J-83439D01*
G01*
X250851270Y-124261042D01*
G75*
G02*
X250851270Y-124427920I-83439J-83439D01*
G01*
X250656109Y-124623081D01*
G75*
G02*
X250489231Y-124623081I-83439J83439D01*
G01*
X250322354Y-124456204D01*
G75*
G02*
X250322354Y-124289326I83439J83439D01*
G01*
G37*
%TD*%
%TO.C,R108*%
G36*
G01*
X238324428Y-128159593D02*
X238614341Y-127869678D01*
G75*
G02*
X238861829Y-127869678I123744J-123744D01*
G01*
X239109317Y-128117166D01*
G75*
G02*
X239109317Y-128364654I-123744J-123744D01*
G01*
X238819403Y-128654568D01*
G75*
G02*
X238571915Y-128654568I-123744J123744D01*
G01*
X238324427Y-128407080D01*
G75*
G02*
X238324427Y-128159592I123744J123744D01*
G01*
G37*
G36*
G01*
X237210734Y-127045899D02*
X237500647Y-126755984D01*
G75*
G02*
X237748135Y-126755984I123744J-123744D01*
G01*
X237995623Y-127003472D01*
G75*
G02*
X237995623Y-127250960I-123744J-123744D01*
G01*
X237705709Y-127540874D01*
G75*
G02*
X237458221Y-127540874I-123744J123744D01*
G01*
X237210733Y-127293386D01*
G75*
G02*
X237210733Y-127045898I123744J123744D01*
G01*
G37*
%TD*%
%TO.C,R107*%
G36*
G01*
X242195361Y-125035774D02*
X242390522Y-124840612D01*
G75*
G02*
X242557400Y-124840612I83439J-83439D01*
G01*
X242724277Y-125007489D01*
G75*
G02*
X242724277Y-125174367I-83439J-83439D01*
G01*
X242529116Y-125369528D01*
G75*
G02*
X242362238Y-125369528I-83439J83439D01*
G01*
X242195361Y-125202651D01*
G75*
G02*
X242195361Y-125035773I83439J83439D01*
G01*
G37*
G36*
G01*
X241509467Y-124349880D02*
X241704628Y-124154718D01*
G75*
G02*
X241871506Y-124154718I83439J-83439D01*
G01*
X242038383Y-124321595D01*
G75*
G02*
X242038383Y-124488473I-83439J-83439D01*
G01*
X241843222Y-124683634D01*
G75*
G02*
X241676344Y-124683634I-83439J83439D01*
G01*
X241509467Y-124516757D01*
G75*
G02*
X241509467Y-124349879I83439J83439D01*
G01*
G37*
%TD*%
%TO.C,R106*%
G36*
G01*
X229631677Y-128130232D02*
X229921590Y-127840317D01*
G75*
G02*
X230169078Y-127840317I123744J-123744D01*
G01*
X230416566Y-128087805D01*
G75*
G02*
X230416566Y-128335293I-123744J-123744D01*
G01*
X230126652Y-128625207D01*
G75*
G02*
X229879164Y-128625207I-123744J123744D01*
G01*
X229631676Y-128377719D01*
G75*
G02*
X229631676Y-128130231I123744J123744D01*
G01*
G37*
G36*
G01*
X228517983Y-127016538D02*
X228807896Y-126726623D01*
G75*
G02*
X229055384Y-126726623I123744J-123744D01*
G01*
X229302872Y-126974111D01*
G75*
G02*
X229302872Y-127221599I-123744J-123744D01*
G01*
X229012958Y-127511513D01*
G75*
G02*
X228765470Y-127511513I-123744J123744D01*
G01*
X228517982Y-127264025D01*
G75*
G02*
X228517982Y-127016537I123744J123744D01*
G01*
G37*
%TD*%
%TO.C,R105*%
G36*
G01*
X233502611Y-125006413D02*
X233697772Y-124811251D01*
G75*
G02*
X233864650Y-124811251I83439J-83439D01*
G01*
X234031527Y-124978128D01*
G75*
G02*
X234031527Y-125145006I-83439J-83439D01*
G01*
X233836366Y-125340167D01*
G75*
G02*
X233669488Y-125340167I-83439J83439D01*
G01*
X233502611Y-125173290D01*
G75*
G02*
X233502611Y-125006412I83439J83439D01*
G01*
G37*
G36*
G01*
X232816717Y-124320519D02*
X233011878Y-124125357D01*
G75*
G02*
X233178756Y-124125357I83439J-83439D01*
G01*
X233345633Y-124292234D01*
G75*
G02*
X233345633Y-124459112I-83439J-83439D01*
G01*
X233150472Y-124654273D01*
G75*
G02*
X232983594Y-124654273I-83439J83439D01*
G01*
X232816717Y-124487396D01*
G75*
G02*
X232816717Y-124320518I83439J83439D01*
G01*
G37*
%TD*%
%TO.C,R104*%
G36*
G01*
X220764808Y-128238451D02*
X221054721Y-127948536D01*
G75*
G02*
X221302209Y-127948536I123744J-123744D01*
G01*
X221549697Y-128196024D01*
G75*
G02*
X221549697Y-128443512I-123744J-123744D01*
G01*
X221259783Y-128733426D01*
G75*
G02*
X221012295Y-128733426I-123744J123744D01*
G01*
X220764807Y-128485938D01*
G75*
G02*
X220764807Y-128238450I123744J123744D01*
G01*
G37*
G36*
G01*
X219651114Y-127124757D02*
X219941027Y-126834842D01*
G75*
G02*
X220188515Y-126834842I123744J-123744D01*
G01*
X220436003Y-127082330D01*
G75*
G02*
X220436003Y-127329818I-123744J-123744D01*
G01*
X220146089Y-127619732D01*
G75*
G02*
X219898601Y-127619732I-123744J123744D01*
G01*
X219651113Y-127372244D01*
G75*
G02*
X219651113Y-127124756I123744J123744D01*
G01*
G37*
%TD*%
%TO.C,R103*%
G36*
G01*
X224635742Y-125114632D02*
X224830903Y-124919470D01*
G75*
G02*
X224997781Y-124919470I83439J-83439D01*
G01*
X225164658Y-125086347D01*
G75*
G02*
X225164658Y-125253225I-83439J-83439D01*
G01*
X224969497Y-125448386D01*
G75*
G02*
X224802619Y-125448386I-83439J83439D01*
G01*
X224635742Y-125281509D01*
G75*
G02*
X224635742Y-125114631I83439J83439D01*
G01*
G37*
G36*
G01*
X223949848Y-124428738D02*
X224145009Y-124233576D01*
G75*
G02*
X224311887Y-124233576I83439J-83439D01*
G01*
X224478764Y-124400453D01*
G75*
G02*
X224478764Y-124567331I-83439J-83439D01*
G01*
X224283603Y-124762492D01*
G75*
G02*
X224116725Y-124762492I-83439J83439D01*
G01*
X223949848Y-124595615D01*
G75*
G02*
X223949848Y-124428737I83439J83439D01*
G01*
G37*
%TD*%
%TO.C,R102*%
G36*
G01*
X212108276Y-128168711D02*
X212398189Y-127878796D01*
G75*
G02*
X212645677Y-127878796I123744J-123744D01*
G01*
X212893165Y-128126284D01*
G75*
G02*
X212893165Y-128373772I-123744J-123744D01*
G01*
X212603251Y-128663686D01*
G75*
G02*
X212355763Y-128663686I-123744J123744D01*
G01*
X212108275Y-128416198D01*
G75*
G02*
X212108275Y-128168710I123744J123744D01*
G01*
G37*
G36*
G01*
X210994582Y-127055017D02*
X211284495Y-126765102D01*
G75*
G02*
X211531983Y-126765102I123744J-123744D01*
G01*
X211779471Y-127012590D01*
G75*
G02*
X211779471Y-127260078I-123744J-123744D01*
G01*
X211489557Y-127549992D01*
G75*
G02*
X211242069Y-127549992I-123744J123744D01*
G01*
X210994581Y-127302504D01*
G75*
G02*
X210994581Y-127055016I123744J123744D01*
G01*
G37*
%TD*%
%TO.C,R101*%
G36*
G01*
X215979209Y-125044891D02*
X216174370Y-124849729D01*
G75*
G02*
X216341248Y-124849729I83439J-83439D01*
G01*
X216508125Y-125016606D01*
G75*
G02*
X216508125Y-125183484I-83439J-83439D01*
G01*
X216312964Y-125378645D01*
G75*
G02*
X216146086Y-125378645I-83439J83439D01*
G01*
X215979209Y-125211768D01*
G75*
G02*
X215979209Y-125044890I83439J83439D01*
G01*
G37*
G36*
G01*
X215293315Y-124358997D02*
X215488476Y-124163835D01*
G75*
G02*
X215655354Y-124163835I83439J-83439D01*
G01*
X215822231Y-124330712D01*
G75*
G02*
X215822231Y-124497590I-83439J-83439D01*
G01*
X215627070Y-124692751D01*
G75*
G02*
X215460192Y-124692751I-83439J83439D01*
G01*
X215293315Y-124525874D01*
G75*
G02*
X215293315Y-124358996I83439J83439D01*
G01*
G37*
%TD*%
%TO.C,R100*%
G36*
G01*
X203346718Y-128196025D02*
X203636631Y-127906110D01*
G75*
G02*
X203884119Y-127906110I123744J-123744D01*
G01*
X204131607Y-128153598D01*
G75*
G02*
X204131607Y-128401086I-123744J-123744D01*
G01*
X203841693Y-128691000D01*
G75*
G02*
X203594205Y-128691000I-123744J123744D01*
G01*
X203346717Y-128443512D01*
G75*
G02*
X203346717Y-128196024I123744J123744D01*
G01*
G37*
G36*
G01*
X202233024Y-127082331D02*
X202522937Y-126792416D01*
G75*
G02*
X202770425Y-126792416I123744J-123744D01*
G01*
X203017913Y-127039904D01*
G75*
G02*
X203017913Y-127287392I-123744J-123744D01*
G01*
X202727999Y-127577306D01*
G75*
G02*
X202480511Y-127577306I-123744J123744D01*
G01*
X202233023Y-127329818D01*
G75*
G02*
X202233023Y-127082330I123744J123744D01*
G01*
G37*
%TD*%
%TO.C,R99*%
G36*
G01*
X207217651Y-125072206D02*
X207412812Y-124877044D01*
G75*
G02*
X207579690Y-124877044I83439J-83439D01*
G01*
X207746567Y-125043921D01*
G75*
G02*
X207746567Y-125210799I-83439J-83439D01*
G01*
X207551406Y-125405960D01*
G75*
G02*
X207384528Y-125405960I-83439J83439D01*
G01*
X207217651Y-125239083D01*
G75*
G02*
X207217651Y-125072205I83439J83439D01*
G01*
G37*
G36*
G01*
X206531757Y-124386312D02*
X206726918Y-124191150D01*
G75*
G02*
X206893796Y-124191150I83439J-83439D01*
G01*
X207060673Y-124358027D01*
G75*
G02*
X207060673Y-124524905I-83439J-83439D01*
G01*
X206865512Y-124720066D01*
G75*
G02*
X206698634Y-124720066I-83439J83439D01*
G01*
X206531757Y-124553189D01*
G75*
G02*
X206531757Y-124386311I83439J83439D01*
G01*
G37*
%TD*%
%TO.C,R98*%
G36*
G01*
X194607556Y-128177470D02*
X194897469Y-127887555D01*
G75*
G02*
X195144957Y-127887555I123744J-123744D01*
G01*
X195392445Y-128135043D01*
G75*
G02*
X195392445Y-128382531I-123744J-123744D01*
G01*
X195102531Y-128672445D01*
G75*
G02*
X194855043Y-128672445I-123744J123744D01*
G01*
X194607555Y-128424957D01*
G75*
G02*
X194607555Y-128177469I123744J123744D01*
G01*
G37*
G36*
G01*
X193493862Y-127063776D02*
X193783775Y-126773861D01*
G75*
G02*
X194031263Y-126773861I123744J-123744D01*
G01*
X194278751Y-127021349D01*
G75*
G02*
X194278751Y-127268837I-123744J-123744D01*
G01*
X193988837Y-127558751D01*
G75*
G02*
X193741349Y-127558751I-123744J123744D01*
G01*
X193493861Y-127311263D01*
G75*
G02*
X193493861Y-127063775I123744J123744D01*
G01*
G37*
%TD*%
%TO.C,R97*%
G36*
G01*
X198478489Y-125053651D02*
X198673650Y-124858489D01*
G75*
G02*
X198840528Y-124858489I83439J-83439D01*
G01*
X199007405Y-125025366D01*
G75*
G02*
X199007405Y-125192244I-83439J-83439D01*
G01*
X198812244Y-125387405D01*
G75*
G02*
X198645366Y-125387405I-83439J83439D01*
G01*
X198478489Y-125220528D01*
G75*
G02*
X198478489Y-125053650I83439J83439D01*
G01*
G37*
G36*
G01*
X197792595Y-124367757D02*
X197987756Y-124172595D01*
G75*
G02*
X198154634Y-124172595I83439J-83439D01*
G01*
X198321511Y-124339472D01*
G75*
G02*
X198321511Y-124506350I-83439J-83439D01*
G01*
X198126350Y-124701511D01*
G75*
G02*
X197959472Y-124701511I-83439J83439D01*
G01*
X197792595Y-124534634D01*
G75*
G02*
X197792595Y-124367756I83439J83439D01*
G01*
G37*
%TD*%
%TO.C,R96*%
G36*
G01*
X255867896Y-114086909D02*
X256157809Y-113796994D01*
G75*
G02*
X256405297Y-113796994I123744J-123744D01*
G01*
X256652785Y-114044482D01*
G75*
G02*
X256652785Y-114291970I-123744J-123744D01*
G01*
X256362871Y-114581884D01*
G75*
G02*
X256115383Y-114581884I-123744J123744D01*
G01*
X255867895Y-114334396D01*
G75*
G02*
X255867895Y-114086908I123744J123744D01*
G01*
G37*
G36*
G01*
X254754202Y-112973215D02*
X255044115Y-112683300D01*
G75*
G02*
X255291603Y-112683300I123744J-123744D01*
G01*
X255539091Y-112930788D01*
G75*
G02*
X255539091Y-113178276I-123744J-123744D01*
G01*
X255249177Y-113468190D01*
G75*
G02*
X255001689Y-113468190I-123744J123744D01*
G01*
X254754201Y-113220702D01*
G75*
G02*
X254754201Y-112973214I123744J123744D01*
G01*
G37*
%TD*%
%TO.C,R95*%
G36*
G01*
X259738829Y-110963089D02*
X259933990Y-110767927D01*
G75*
G02*
X260100868Y-110767927I83439J-83439D01*
G01*
X260267745Y-110934804D01*
G75*
G02*
X260267745Y-111101682I-83439J-83439D01*
G01*
X260072584Y-111296843D01*
G75*
G02*
X259905706Y-111296843I-83439J83439D01*
G01*
X259738829Y-111129966D01*
G75*
G02*
X259738829Y-110963088I83439J83439D01*
G01*
G37*
G36*
G01*
X259052935Y-110277195D02*
X259248096Y-110082033D01*
G75*
G02*
X259414974Y-110082033I83439J-83439D01*
G01*
X259581851Y-110248910D01*
G75*
G02*
X259581851Y-110415788I-83439J-83439D01*
G01*
X259386690Y-110610949D01*
G75*
G02*
X259219812Y-110610949I-83439J83439D01*
G01*
X259052935Y-110444072D01*
G75*
G02*
X259052935Y-110277194I83439J83439D01*
G01*
G37*
%TD*%
%TO.C,R94*%
G36*
G01*
X247137315Y-114099040D02*
X247427228Y-113809125D01*
G75*
G02*
X247674716Y-113809125I123744J-123744D01*
G01*
X247922204Y-114056613D01*
G75*
G02*
X247922204Y-114304101I-123744J-123744D01*
G01*
X247632290Y-114594015D01*
G75*
G02*
X247384802Y-114594015I-123744J123744D01*
G01*
X247137314Y-114346527D01*
G75*
G02*
X247137314Y-114099039I123744J123744D01*
G01*
G37*
G36*
G01*
X246023621Y-112985346D02*
X246313534Y-112695431D01*
G75*
G02*
X246561022Y-112695431I123744J-123744D01*
G01*
X246808510Y-112942919D01*
G75*
G02*
X246808510Y-113190407I-123744J-123744D01*
G01*
X246518596Y-113480321D01*
G75*
G02*
X246271108Y-113480321I-123744J123744D01*
G01*
X246023620Y-113232833D01*
G75*
G02*
X246023620Y-112985345I123744J123744D01*
G01*
G37*
%TD*%
%TO.C,R93*%
G36*
G01*
X251008248Y-110975221D02*
X251203409Y-110780059D01*
G75*
G02*
X251370287Y-110780059I83439J-83439D01*
G01*
X251537164Y-110946936D01*
G75*
G02*
X251537164Y-111113814I-83439J-83439D01*
G01*
X251342003Y-111308975D01*
G75*
G02*
X251175125Y-111308975I-83439J83439D01*
G01*
X251008248Y-111142098D01*
G75*
G02*
X251008248Y-110975220I83439J83439D01*
G01*
G37*
G36*
G01*
X250322354Y-110289327D02*
X250517515Y-110094165D01*
G75*
G02*
X250684393Y-110094165I83439J-83439D01*
G01*
X250851270Y-110261042D01*
G75*
G02*
X250851270Y-110427920I-83439J-83439D01*
G01*
X250656109Y-110623081D01*
G75*
G02*
X250489231Y-110623081I-83439J83439D01*
G01*
X250322354Y-110456204D01*
G75*
G02*
X250322354Y-110289326I83439J83439D01*
G01*
G37*
%TD*%
%TO.C,R92*%
G36*
G01*
X238324428Y-114159593D02*
X238614341Y-113869678D01*
G75*
G02*
X238861829Y-113869678I123744J-123744D01*
G01*
X239109317Y-114117166D01*
G75*
G02*
X239109317Y-114364654I-123744J-123744D01*
G01*
X238819403Y-114654568D01*
G75*
G02*
X238571915Y-114654568I-123744J123744D01*
G01*
X238324427Y-114407080D01*
G75*
G02*
X238324427Y-114159592I123744J123744D01*
G01*
G37*
G36*
G01*
X237210734Y-113045899D02*
X237500647Y-112755984D01*
G75*
G02*
X237748135Y-112755984I123744J-123744D01*
G01*
X237995623Y-113003472D01*
G75*
G02*
X237995623Y-113250960I-123744J-123744D01*
G01*
X237705709Y-113540874D01*
G75*
G02*
X237458221Y-113540874I-123744J123744D01*
G01*
X237210733Y-113293386D01*
G75*
G02*
X237210733Y-113045898I123744J123744D01*
G01*
G37*
%TD*%
%TO.C,R91*%
G36*
G01*
X242195361Y-111035774D02*
X242390522Y-110840612D01*
G75*
G02*
X242557400Y-110840612I83439J-83439D01*
G01*
X242724277Y-111007489D01*
G75*
G02*
X242724277Y-111174367I-83439J-83439D01*
G01*
X242529116Y-111369528D01*
G75*
G02*
X242362238Y-111369528I-83439J83439D01*
G01*
X242195361Y-111202651D01*
G75*
G02*
X242195361Y-111035773I83439J83439D01*
G01*
G37*
G36*
G01*
X241509467Y-110349880D02*
X241704628Y-110154718D01*
G75*
G02*
X241871506Y-110154718I83439J-83439D01*
G01*
X242038383Y-110321595D01*
G75*
G02*
X242038383Y-110488473I-83439J-83439D01*
G01*
X241843222Y-110683634D01*
G75*
G02*
X241676344Y-110683634I-83439J83439D01*
G01*
X241509467Y-110516757D01*
G75*
G02*
X241509467Y-110349879I83439J83439D01*
G01*
G37*
%TD*%
%TO.C,R90*%
G36*
G01*
X229631677Y-114130232D02*
X229921590Y-113840317D01*
G75*
G02*
X230169078Y-113840317I123744J-123744D01*
G01*
X230416566Y-114087805D01*
G75*
G02*
X230416566Y-114335293I-123744J-123744D01*
G01*
X230126652Y-114625207D01*
G75*
G02*
X229879164Y-114625207I-123744J123744D01*
G01*
X229631676Y-114377719D01*
G75*
G02*
X229631676Y-114130231I123744J123744D01*
G01*
G37*
G36*
G01*
X228517983Y-113016538D02*
X228807896Y-112726623D01*
G75*
G02*
X229055384Y-112726623I123744J-123744D01*
G01*
X229302872Y-112974111D01*
G75*
G02*
X229302872Y-113221599I-123744J-123744D01*
G01*
X229012958Y-113511513D01*
G75*
G02*
X228765470Y-113511513I-123744J123744D01*
G01*
X228517982Y-113264025D01*
G75*
G02*
X228517982Y-113016537I123744J123744D01*
G01*
G37*
%TD*%
%TO.C,R89*%
G36*
G01*
X233502611Y-111006413D02*
X233697772Y-110811251D01*
G75*
G02*
X233864650Y-110811251I83439J-83439D01*
G01*
X234031527Y-110978128D01*
G75*
G02*
X234031527Y-111145006I-83439J-83439D01*
G01*
X233836366Y-111340167D01*
G75*
G02*
X233669488Y-111340167I-83439J83439D01*
G01*
X233502611Y-111173290D01*
G75*
G02*
X233502611Y-111006412I83439J83439D01*
G01*
G37*
G36*
G01*
X232816717Y-110320519D02*
X233011878Y-110125357D01*
G75*
G02*
X233178756Y-110125357I83439J-83439D01*
G01*
X233345633Y-110292234D01*
G75*
G02*
X233345633Y-110459112I-83439J-83439D01*
G01*
X233150472Y-110654273D01*
G75*
G02*
X232983594Y-110654273I-83439J83439D01*
G01*
X232816717Y-110487396D01*
G75*
G02*
X232816717Y-110320518I83439J83439D01*
G01*
G37*
%TD*%
%TO.C,R88*%
G36*
G01*
X220764808Y-114238451D02*
X221054721Y-113948536D01*
G75*
G02*
X221302209Y-113948536I123744J-123744D01*
G01*
X221549697Y-114196024D01*
G75*
G02*
X221549697Y-114443512I-123744J-123744D01*
G01*
X221259783Y-114733426D01*
G75*
G02*
X221012295Y-114733426I-123744J123744D01*
G01*
X220764807Y-114485938D01*
G75*
G02*
X220764807Y-114238450I123744J123744D01*
G01*
G37*
G36*
G01*
X219651114Y-113124757D02*
X219941027Y-112834842D01*
G75*
G02*
X220188515Y-112834842I123744J-123744D01*
G01*
X220436003Y-113082330D01*
G75*
G02*
X220436003Y-113329818I-123744J-123744D01*
G01*
X220146089Y-113619732D01*
G75*
G02*
X219898601Y-113619732I-123744J123744D01*
G01*
X219651113Y-113372244D01*
G75*
G02*
X219651113Y-113124756I123744J123744D01*
G01*
G37*
%TD*%
%TO.C,R87*%
G36*
G01*
X224635742Y-111114632D02*
X224830903Y-110919470D01*
G75*
G02*
X224997781Y-110919470I83439J-83439D01*
G01*
X225164658Y-111086347D01*
G75*
G02*
X225164658Y-111253225I-83439J-83439D01*
G01*
X224969497Y-111448386D01*
G75*
G02*
X224802619Y-111448386I-83439J83439D01*
G01*
X224635742Y-111281509D01*
G75*
G02*
X224635742Y-111114631I83439J83439D01*
G01*
G37*
G36*
G01*
X223949848Y-110428738D02*
X224145009Y-110233576D01*
G75*
G02*
X224311887Y-110233576I83439J-83439D01*
G01*
X224478764Y-110400453D01*
G75*
G02*
X224478764Y-110567331I-83439J-83439D01*
G01*
X224283603Y-110762492D01*
G75*
G02*
X224116725Y-110762492I-83439J83439D01*
G01*
X223949848Y-110595615D01*
G75*
G02*
X223949848Y-110428737I83439J83439D01*
G01*
G37*
%TD*%
%TO.C,R86*%
G36*
G01*
X212108276Y-114168711D02*
X212398189Y-113878796D01*
G75*
G02*
X212645677Y-113878796I123744J-123744D01*
G01*
X212893165Y-114126284D01*
G75*
G02*
X212893165Y-114373772I-123744J-123744D01*
G01*
X212603251Y-114663686D01*
G75*
G02*
X212355763Y-114663686I-123744J123744D01*
G01*
X212108275Y-114416198D01*
G75*
G02*
X212108275Y-114168710I123744J123744D01*
G01*
G37*
G36*
G01*
X210994582Y-113055017D02*
X211284495Y-112765102D01*
G75*
G02*
X211531983Y-112765102I123744J-123744D01*
G01*
X211779471Y-113012590D01*
G75*
G02*
X211779471Y-113260078I-123744J-123744D01*
G01*
X211489557Y-113549992D01*
G75*
G02*
X211242069Y-113549992I-123744J123744D01*
G01*
X210994581Y-113302504D01*
G75*
G02*
X210994581Y-113055016I123744J123744D01*
G01*
G37*
%TD*%
%TO.C,R85*%
G36*
G01*
X215979209Y-111044891D02*
X216174370Y-110849729D01*
G75*
G02*
X216341248Y-110849729I83439J-83439D01*
G01*
X216508125Y-111016606D01*
G75*
G02*
X216508125Y-111183484I-83439J-83439D01*
G01*
X216312964Y-111378645D01*
G75*
G02*
X216146086Y-111378645I-83439J83439D01*
G01*
X215979209Y-111211768D01*
G75*
G02*
X215979209Y-111044890I83439J83439D01*
G01*
G37*
G36*
G01*
X215293315Y-110358997D02*
X215488476Y-110163835D01*
G75*
G02*
X215655354Y-110163835I83439J-83439D01*
G01*
X215822231Y-110330712D01*
G75*
G02*
X215822231Y-110497590I-83439J-83439D01*
G01*
X215627070Y-110692751D01*
G75*
G02*
X215460192Y-110692751I-83439J83439D01*
G01*
X215293315Y-110525874D01*
G75*
G02*
X215293315Y-110358996I83439J83439D01*
G01*
G37*
%TD*%
%TO.C,R84*%
G36*
G01*
X203346718Y-114196025D02*
X203636631Y-113906110D01*
G75*
G02*
X203884119Y-113906110I123744J-123744D01*
G01*
X204131607Y-114153598D01*
G75*
G02*
X204131607Y-114401086I-123744J-123744D01*
G01*
X203841693Y-114691000D01*
G75*
G02*
X203594205Y-114691000I-123744J123744D01*
G01*
X203346717Y-114443512D01*
G75*
G02*
X203346717Y-114196024I123744J123744D01*
G01*
G37*
G36*
G01*
X202233024Y-113082331D02*
X202522937Y-112792416D01*
G75*
G02*
X202770425Y-112792416I123744J-123744D01*
G01*
X203017913Y-113039904D01*
G75*
G02*
X203017913Y-113287392I-123744J-123744D01*
G01*
X202727999Y-113577306D01*
G75*
G02*
X202480511Y-113577306I-123744J123744D01*
G01*
X202233023Y-113329818D01*
G75*
G02*
X202233023Y-113082330I123744J123744D01*
G01*
G37*
%TD*%
%TO.C,R83*%
G36*
G01*
X207217651Y-111072206D02*
X207412812Y-110877044D01*
G75*
G02*
X207579690Y-110877044I83439J-83439D01*
G01*
X207746567Y-111043921D01*
G75*
G02*
X207746567Y-111210799I-83439J-83439D01*
G01*
X207551406Y-111405960D01*
G75*
G02*
X207384528Y-111405960I-83439J83439D01*
G01*
X207217651Y-111239083D01*
G75*
G02*
X207217651Y-111072205I83439J83439D01*
G01*
G37*
G36*
G01*
X206531757Y-110386312D02*
X206726918Y-110191150D01*
G75*
G02*
X206893796Y-110191150I83439J-83439D01*
G01*
X207060673Y-110358027D01*
G75*
G02*
X207060673Y-110524905I-83439J-83439D01*
G01*
X206865512Y-110720066D01*
G75*
G02*
X206698634Y-110720066I-83439J83439D01*
G01*
X206531757Y-110553189D01*
G75*
G02*
X206531757Y-110386311I83439J83439D01*
G01*
G37*
%TD*%
%TO.C,R82*%
G36*
G01*
X194607556Y-114177470D02*
X194897469Y-113887555D01*
G75*
G02*
X195144957Y-113887555I123744J-123744D01*
G01*
X195392445Y-114135043D01*
G75*
G02*
X195392445Y-114382531I-123744J-123744D01*
G01*
X195102531Y-114672445D01*
G75*
G02*
X194855043Y-114672445I-123744J123744D01*
G01*
X194607555Y-114424957D01*
G75*
G02*
X194607555Y-114177469I123744J123744D01*
G01*
G37*
G36*
G01*
X193493862Y-113063776D02*
X193783775Y-112773861D01*
G75*
G02*
X194031263Y-112773861I123744J-123744D01*
G01*
X194278751Y-113021349D01*
G75*
G02*
X194278751Y-113268837I-123744J-123744D01*
G01*
X193988837Y-113558751D01*
G75*
G02*
X193741349Y-113558751I-123744J123744D01*
G01*
X193493861Y-113311263D01*
G75*
G02*
X193493861Y-113063775I123744J123744D01*
G01*
G37*
%TD*%
%TO.C,R81*%
G36*
G01*
X198478489Y-111053651D02*
X198673650Y-110858489D01*
G75*
G02*
X198840528Y-110858489I83439J-83439D01*
G01*
X199007405Y-111025366D01*
G75*
G02*
X199007405Y-111192244I-83439J-83439D01*
G01*
X198812244Y-111387405D01*
G75*
G02*
X198645366Y-111387405I-83439J83439D01*
G01*
X198478489Y-111220528D01*
G75*
G02*
X198478489Y-111053650I83439J83439D01*
G01*
G37*
G36*
G01*
X197792595Y-110367757D02*
X197987756Y-110172595D01*
G75*
G02*
X198154634Y-110172595I83439J-83439D01*
G01*
X198321511Y-110339472D01*
G75*
G02*
X198321511Y-110506350I-83439J-83439D01*
G01*
X198126350Y-110701511D01*
G75*
G02*
X197959472Y-110701511I-83439J83439D01*
G01*
X197792595Y-110534634D01*
G75*
G02*
X197792595Y-110367756I83439J83439D01*
G01*
G37*
%TD*%
%TO.C,R80*%
G36*
G01*
X255867896Y-100086909D02*
X256157809Y-99796994D01*
G75*
G02*
X256405297Y-99796994I123744J-123744D01*
G01*
X256652785Y-100044482D01*
G75*
G02*
X256652785Y-100291970I-123744J-123744D01*
G01*
X256362871Y-100581884D01*
G75*
G02*
X256115383Y-100581884I-123744J123744D01*
G01*
X255867895Y-100334396D01*
G75*
G02*
X255867895Y-100086908I123744J123744D01*
G01*
G37*
G36*
G01*
X254754202Y-98973215D02*
X255044115Y-98683300D01*
G75*
G02*
X255291603Y-98683300I123744J-123744D01*
G01*
X255539091Y-98930788D01*
G75*
G02*
X255539091Y-99178276I-123744J-123744D01*
G01*
X255249177Y-99468190D01*
G75*
G02*
X255001689Y-99468190I-123744J123744D01*
G01*
X254754201Y-99220702D01*
G75*
G02*
X254754201Y-98973214I123744J123744D01*
G01*
G37*
%TD*%
%TO.C,R79*%
G36*
G01*
X259738829Y-96963089D02*
X259933990Y-96767927D01*
G75*
G02*
X260100868Y-96767927I83439J-83439D01*
G01*
X260267745Y-96934804D01*
G75*
G02*
X260267745Y-97101682I-83439J-83439D01*
G01*
X260072584Y-97296843D01*
G75*
G02*
X259905706Y-97296843I-83439J83439D01*
G01*
X259738829Y-97129966D01*
G75*
G02*
X259738829Y-96963088I83439J83439D01*
G01*
G37*
G36*
G01*
X259052935Y-96277195D02*
X259248096Y-96082033D01*
G75*
G02*
X259414974Y-96082033I83439J-83439D01*
G01*
X259581851Y-96248910D01*
G75*
G02*
X259581851Y-96415788I-83439J-83439D01*
G01*
X259386690Y-96610949D01*
G75*
G02*
X259219812Y-96610949I-83439J83439D01*
G01*
X259052935Y-96444072D01*
G75*
G02*
X259052935Y-96277194I83439J83439D01*
G01*
G37*
%TD*%
%TO.C,R78*%
G36*
G01*
X247137315Y-100099040D02*
X247427228Y-99809125D01*
G75*
G02*
X247674716Y-99809125I123744J-123744D01*
G01*
X247922204Y-100056613D01*
G75*
G02*
X247922204Y-100304101I-123744J-123744D01*
G01*
X247632290Y-100594015D01*
G75*
G02*
X247384802Y-100594015I-123744J123744D01*
G01*
X247137314Y-100346527D01*
G75*
G02*
X247137314Y-100099039I123744J123744D01*
G01*
G37*
G36*
G01*
X246023621Y-98985346D02*
X246313534Y-98695431D01*
G75*
G02*
X246561022Y-98695431I123744J-123744D01*
G01*
X246808510Y-98942919D01*
G75*
G02*
X246808510Y-99190407I-123744J-123744D01*
G01*
X246518596Y-99480321D01*
G75*
G02*
X246271108Y-99480321I-123744J123744D01*
G01*
X246023620Y-99232833D01*
G75*
G02*
X246023620Y-98985345I123744J123744D01*
G01*
G37*
%TD*%
%TO.C,R77*%
G36*
G01*
X251008248Y-96975221D02*
X251203409Y-96780059D01*
G75*
G02*
X251370287Y-96780059I83439J-83439D01*
G01*
X251537164Y-96946936D01*
G75*
G02*
X251537164Y-97113814I-83439J-83439D01*
G01*
X251342003Y-97308975D01*
G75*
G02*
X251175125Y-97308975I-83439J83439D01*
G01*
X251008248Y-97142098D01*
G75*
G02*
X251008248Y-96975220I83439J83439D01*
G01*
G37*
G36*
G01*
X250322354Y-96289327D02*
X250517515Y-96094165D01*
G75*
G02*
X250684393Y-96094165I83439J-83439D01*
G01*
X250851270Y-96261042D01*
G75*
G02*
X250851270Y-96427920I-83439J-83439D01*
G01*
X250656109Y-96623081D01*
G75*
G02*
X250489231Y-96623081I-83439J83439D01*
G01*
X250322354Y-96456204D01*
G75*
G02*
X250322354Y-96289326I83439J83439D01*
G01*
G37*
%TD*%
%TO.C,R76*%
G36*
G01*
X238324428Y-100159593D02*
X238614341Y-99869678D01*
G75*
G02*
X238861829Y-99869678I123744J-123744D01*
G01*
X239109317Y-100117166D01*
G75*
G02*
X239109317Y-100364654I-123744J-123744D01*
G01*
X238819403Y-100654568D01*
G75*
G02*
X238571915Y-100654568I-123744J123744D01*
G01*
X238324427Y-100407080D01*
G75*
G02*
X238324427Y-100159592I123744J123744D01*
G01*
G37*
G36*
G01*
X237210734Y-99045899D02*
X237500647Y-98755984D01*
G75*
G02*
X237748135Y-98755984I123744J-123744D01*
G01*
X237995623Y-99003472D01*
G75*
G02*
X237995623Y-99250960I-123744J-123744D01*
G01*
X237705709Y-99540874D01*
G75*
G02*
X237458221Y-99540874I-123744J123744D01*
G01*
X237210733Y-99293386D01*
G75*
G02*
X237210733Y-99045898I123744J123744D01*
G01*
G37*
%TD*%
%TO.C,R75*%
G36*
G01*
X242195361Y-97035774D02*
X242390522Y-96840612D01*
G75*
G02*
X242557400Y-96840612I83439J-83439D01*
G01*
X242724277Y-97007489D01*
G75*
G02*
X242724277Y-97174367I-83439J-83439D01*
G01*
X242529116Y-97369528D01*
G75*
G02*
X242362238Y-97369528I-83439J83439D01*
G01*
X242195361Y-97202651D01*
G75*
G02*
X242195361Y-97035773I83439J83439D01*
G01*
G37*
G36*
G01*
X241509467Y-96349880D02*
X241704628Y-96154718D01*
G75*
G02*
X241871506Y-96154718I83439J-83439D01*
G01*
X242038383Y-96321595D01*
G75*
G02*
X242038383Y-96488473I-83439J-83439D01*
G01*
X241843222Y-96683634D01*
G75*
G02*
X241676344Y-96683634I-83439J83439D01*
G01*
X241509467Y-96516757D01*
G75*
G02*
X241509467Y-96349879I83439J83439D01*
G01*
G37*
%TD*%
%TO.C,R74*%
G36*
G01*
X229631677Y-100130232D02*
X229921590Y-99840317D01*
G75*
G02*
X230169078Y-99840317I123744J-123744D01*
G01*
X230416566Y-100087805D01*
G75*
G02*
X230416566Y-100335293I-123744J-123744D01*
G01*
X230126652Y-100625207D01*
G75*
G02*
X229879164Y-100625207I-123744J123744D01*
G01*
X229631676Y-100377719D01*
G75*
G02*
X229631676Y-100130231I123744J123744D01*
G01*
G37*
G36*
G01*
X228517983Y-99016538D02*
X228807896Y-98726623D01*
G75*
G02*
X229055384Y-98726623I123744J-123744D01*
G01*
X229302872Y-98974111D01*
G75*
G02*
X229302872Y-99221599I-123744J-123744D01*
G01*
X229012958Y-99511513D01*
G75*
G02*
X228765470Y-99511513I-123744J123744D01*
G01*
X228517982Y-99264025D01*
G75*
G02*
X228517982Y-99016537I123744J123744D01*
G01*
G37*
%TD*%
%TO.C,R73*%
G36*
G01*
X233502611Y-97006413D02*
X233697772Y-96811251D01*
G75*
G02*
X233864650Y-96811251I83439J-83439D01*
G01*
X234031527Y-96978128D01*
G75*
G02*
X234031527Y-97145006I-83439J-83439D01*
G01*
X233836366Y-97340167D01*
G75*
G02*
X233669488Y-97340167I-83439J83439D01*
G01*
X233502611Y-97173290D01*
G75*
G02*
X233502611Y-97006412I83439J83439D01*
G01*
G37*
G36*
G01*
X232816717Y-96320519D02*
X233011878Y-96125357D01*
G75*
G02*
X233178756Y-96125357I83439J-83439D01*
G01*
X233345633Y-96292234D01*
G75*
G02*
X233345633Y-96459112I-83439J-83439D01*
G01*
X233150472Y-96654273D01*
G75*
G02*
X232983594Y-96654273I-83439J83439D01*
G01*
X232816717Y-96487396D01*
G75*
G02*
X232816717Y-96320518I83439J83439D01*
G01*
G37*
%TD*%
%TO.C,R72*%
G36*
G01*
X220764808Y-100238451D02*
X221054721Y-99948536D01*
G75*
G02*
X221302209Y-99948536I123744J-123744D01*
G01*
X221549697Y-100196024D01*
G75*
G02*
X221549697Y-100443512I-123744J-123744D01*
G01*
X221259783Y-100733426D01*
G75*
G02*
X221012295Y-100733426I-123744J123744D01*
G01*
X220764807Y-100485938D01*
G75*
G02*
X220764807Y-100238450I123744J123744D01*
G01*
G37*
G36*
G01*
X219651114Y-99124757D02*
X219941027Y-98834842D01*
G75*
G02*
X220188515Y-98834842I123744J-123744D01*
G01*
X220436003Y-99082330D01*
G75*
G02*
X220436003Y-99329818I-123744J-123744D01*
G01*
X220146089Y-99619732D01*
G75*
G02*
X219898601Y-99619732I-123744J123744D01*
G01*
X219651113Y-99372244D01*
G75*
G02*
X219651113Y-99124756I123744J123744D01*
G01*
G37*
%TD*%
%TO.C,R71*%
G36*
G01*
X224635742Y-97114632D02*
X224830903Y-96919470D01*
G75*
G02*
X224997781Y-96919470I83439J-83439D01*
G01*
X225164658Y-97086347D01*
G75*
G02*
X225164658Y-97253225I-83439J-83439D01*
G01*
X224969497Y-97448386D01*
G75*
G02*
X224802619Y-97448386I-83439J83439D01*
G01*
X224635742Y-97281509D01*
G75*
G02*
X224635742Y-97114631I83439J83439D01*
G01*
G37*
G36*
G01*
X223949848Y-96428738D02*
X224145009Y-96233576D01*
G75*
G02*
X224311887Y-96233576I83439J-83439D01*
G01*
X224478764Y-96400453D01*
G75*
G02*
X224478764Y-96567331I-83439J-83439D01*
G01*
X224283603Y-96762492D01*
G75*
G02*
X224116725Y-96762492I-83439J83439D01*
G01*
X223949848Y-96595615D01*
G75*
G02*
X223949848Y-96428737I83439J83439D01*
G01*
G37*
%TD*%
%TO.C,R70*%
G36*
G01*
X212108276Y-100168711D02*
X212398189Y-99878796D01*
G75*
G02*
X212645677Y-99878796I123744J-123744D01*
G01*
X212893165Y-100126284D01*
G75*
G02*
X212893165Y-100373772I-123744J-123744D01*
G01*
X212603251Y-100663686D01*
G75*
G02*
X212355763Y-100663686I-123744J123744D01*
G01*
X212108275Y-100416198D01*
G75*
G02*
X212108275Y-100168710I123744J123744D01*
G01*
G37*
G36*
G01*
X210994582Y-99055017D02*
X211284495Y-98765102D01*
G75*
G02*
X211531983Y-98765102I123744J-123744D01*
G01*
X211779471Y-99012590D01*
G75*
G02*
X211779471Y-99260078I-123744J-123744D01*
G01*
X211489557Y-99549992D01*
G75*
G02*
X211242069Y-99549992I-123744J123744D01*
G01*
X210994581Y-99302504D01*
G75*
G02*
X210994581Y-99055016I123744J123744D01*
G01*
G37*
%TD*%
%TO.C,R69*%
G36*
G01*
X215979209Y-97044891D02*
X216174370Y-96849729D01*
G75*
G02*
X216341248Y-96849729I83439J-83439D01*
G01*
X216508125Y-97016606D01*
G75*
G02*
X216508125Y-97183484I-83439J-83439D01*
G01*
X216312964Y-97378645D01*
G75*
G02*
X216146086Y-97378645I-83439J83439D01*
G01*
X215979209Y-97211768D01*
G75*
G02*
X215979209Y-97044890I83439J83439D01*
G01*
G37*
G36*
G01*
X215293315Y-96358997D02*
X215488476Y-96163835D01*
G75*
G02*
X215655354Y-96163835I83439J-83439D01*
G01*
X215822231Y-96330712D01*
G75*
G02*
X215822231Y-96497590I-83439J-83439D01*
G01*
X215627070Y-96692751D01*
G75*
G02*
X215460192Y-96692751I-83439J83439D01*
G01*
X215293315Y-96525874D01*
G75*
G02*
X215293315Y-96358996I83439J83439D01*
G01*
G37*
%TD*%
%TO.C,R68*%
G36*
G01*
X203346718Y-100196025D02*
X203636631Y-99906110D01*
G75*
G02*
X203884119Y-99906110I123744J-123744D01*
G01*
X204131607Y-100153598D01*
G75*
G02*
X204131607Y-100401086I-123744J-123744D01*
G01*
X203841693Y-100691000D01*
G75*
G02*
X203594205Y-100691000I-123744J123744D01*
G01*
X203346717Y-100443512D01*
G75*
G02*
X203346717Y-100196024I123744J123744D01*
G01*
G37*
G36*
G01*
X202233024Y-99082331D02*
X202522937Y-98792416D01*
G75*
G02*
X202770425Y-98792416I123744J-123744D01*
G01*
X203017913Y-99039904D01*
G75*
G02*
X203017913Y-99287392I-123744J-123744D01*
G01*
X202727999Y-99577306D01*
G75*
G02*
X202480511Y-99577306I-123744J123744D01*
G01*
X202233023Y-99329818D01*
G75*
G02*
X202233023Y-99082330I123744J123744D01*
G01*
G37*
%TD*%
%TO.C,R67*%
G36*
G01*
X207217651Y-97072206D02*
X207412812Y-96877044D01*
G75*
G02*
X207579690Y-96877044I83439J-83439D01*
G01*
X207746567Y-97043921D01*
G75*
G02*
X207746567Y-97210799I-83439J-83439D01*
G01*
X207551406Y-97405960D01*
G75*
G02*
X207384528Y-97405960I-83439J83439D01*
G01*
X207217651Y-97239083D01*
G75*
G02*
X207217651Y-97072205I83439J83439D01*
G01*
G37*
G36*
G01*
X206531757Y-96386312D02*
X206726918Y-96191150D01*
G75*
G02*
X206893796Y-96191150I83439J-83439D01*
G01*
X207060673Y-96358027D01*
G75*
G02*
X207060673Y-96524905I-83439J-83439D01*
G01*
X206865512Y-96720066D01*
G75*
G02*
X206698634Y-96720066I-83439J83439D01*
G01*
X206531757Y-96553189D01*
G75*
G02*
X206531757Y-96386311I83439J83439D01*
G01*
G37*
%TD*%
%TO.C,R66*%
G36*
G01*
X194607556Y-100177470D02*
X194897469Y-99887555D01*
G75*
G02*
X195144957Y-99887555I123744J-123744D01*
G01*
X195392445Y-100135043D01*
G75*
G02*
X195392445Y-100382531I-123744J-123744D01*
G01*
X195102531Y-100672445D01*
G75*
G02*
X194855043Y-100672445I-123744J123744D01*
G01*
X194607555Y-100424957D01*
G75*
G02*
X194607555Y-100177469I123744J123744D01*
G01*
G37*
G36*
G01*
X193493862Y-99063776D02*
X193783775Y-98773861D01*
G75*
G02*
X194031263Y-98773861I123744J-123744D01*
G01*
X194278751Y-99021349D01*
G75*
G02*
X194278751Y-99268837I-123744J-123744D01*
G01*
X193988837Y-99558751D01*
G75*
G02*
X193741349Y-99558751I-123744J123744D01*
G01*
X193493861Y-99311263D01*
G75*
G02*
X193493861Y-99063775I123744J123744D01*
G01*
G37*
%TD*%
%TO.C,R65*%
G36*
G01*
X198478489Y-97053651D02*
X198673650Y-96858489D01*
G75*
G02*
X198840528Y-96858489I83439J-83439D01*
G01*
X199007405Y-97025366D01*
G75*
G02*
X199007405Y-97192244I-83439J-83439D01*
G01*
X198812244Y-97387405D01*
G75*
G02*
X198645366Y-97387405I-83439J83439D01*
G01*
X198478489Y-97220528D01*
G75*
G02*
X198478489Y-97053650I83439J83439D01*
G01*
G37*
G36*
G01*
X197792595Y-96367757D02*
X197987756Y-96172595D01*
G75*
G02*
X198154634Y-96172595I83439J-83439D01*
G01*
X198321511Y-96339472D01*
G75*
G02*
X198321511Y-96506350I-83439J-83439D01*
G01*
X198126350Y-96701511D01*
G75*
G02*
X197959472Y-96701511I-83439J83439D01*
G01*
X197792595Y-96534634D01*
G75*
G02*
X197792595Y-96367756I83439J83439D01*
G01*
G37*
%TD*%
%TO.C,R64*%
G36*
G01*
X255867896Y-86086909D02*
X256157809Y-85796994D01*
G75*
G02*
X256405297Y-85796994I123744J-123744D01*
G01*
X256652785Y-86044482D01*
G75*
G02*
X256652785Y-86291970I-123744J-123744D01*
G01*
X256362871Y-86581884D01*
G75*
G02*
X256115383Y-86581884I-123744J123744D01*
G01*
X255867895Y-86334396D01*
G75*
G02*
X255867895Y-86086908I123744J123744D01*
G01*
G37*
G36*
G01*
X254754202Y-84973215D02*
X255044115Y-84683300D01*
G75*
G02*
X255291603Y-84683300I123744J-123744D01*
G01*
X255539091Y-84930788D01*
G75*
G02*
X255539091Y-85178276I-123744J-123744D01*
G01*
X255249177Y-85468190D01*
G75*
G02*
X255001689Y-85468190I-123744J123744D01*
G01*
X254754201Y-85220702D01*
G75*
G02*
X254754201Y-84973214I123744J123744D01*
G01*
G37*
%TD*%
%TO.C,R63*%
G36*
G01*
X259738829Y-82963089D02*
X259933990Y-82767927D01*
G75*
G02*
X260100868Y-82767927I83439J-83439D01*
G01*
X260267745Y-82934804D01*
G75*
G02*
X260267745Y-83101682I-83439J-83439D01*
G01*
X260072584Y-83296843D01*
G75*
G02*
X259905706Y-83296843I-83439J83439D01*
G01*
X259738829Y-83129966D01*
G75*
G02*
X259738829Y-82963088I83439J83439D01*
G01*
G37*
G36*
G01*
X259052935Y-82277195D02*
X259248096Y-82082033D01*
G75*
G02*
X259414974Y-82082033I83439J-83439D01*
G01*
X259581851Y-82248910D01*
G75*
G02*
X259581851Y-82415788I-83439J-83439D01*
G01*
X259386690Y-82610949D01*
G75*
G02*
X259219812Y-82610949I-83439J83439D01*
G01*
X259052935Y-82444072D01*
G75*
G02*
X259052935Y-82277194I83439J83439D01*
G01*
G37*
%TD*%
%TO.C,R62*%
G36*
G01*
X247137315Y-86099040D02*
X247427228Y-85809125D01*
G75*
G02*
X247674716Y-85809125I123744J-123744D01*
G01*
X247922204Y-86056613D01*
G75*
G02*
X247922204Y-86304101I-123744J-123744D01*
G01*
X247632290Y-86594015D01*
G75*
G02*
X247384802Y-86594015I-123744J123744D01*
G01*
X247137314Y-86346527D01*
G75*
G02*
X247137314Y-86099039I123744J123744D01*
G01*
G37*
G36*
G01*
X246023621Y-84985346D02*
X246313534Y-84695431D01*
G75*
G02*
X246561022Y-84695431I123744J-123744D01*
G01*
X246808510Y-84942919D01*
G75*
G02*
X246808510Y-85190407I-123744J-123744D01*
G01*
X246518596Y-85480321D01*
G75*
G02*
X246271108Y-85480321I-123744J123744D01*
G01*
X246023620Y-85232833D01*
G75*
G02*
X246023620Y-84985345I123744J123744D01*
G01*
G37*
%TD*%
%TO.C,R61*%
G36*
G01*
X251008248Y-82975221D02*
X251203409Y-82780059D01*
G75*
G02*
X251370287Y-82780059I83439J-83439D01*
G01*
X251537164Y-82946936D01*
G75*
G02*
X251537164Y-83113814I-83439J-83439D01*
G01*
X251342003Y-83308975D01*
G75*
G02*
X251175125Y-83308975I-83439J83439D01*
G01*
X251008248Y-83142098D01*
G75*
G02*
X251008248Y-82975220I83439J83439D01*
G01*
G37*
G36*
G01*
X250322354Y-82289327D02*
X250517515Y-82094165D01*
G75*
G02*
X250684393Y-82094165I83439J-83439D01*
G01*
X250851270Y-82261042D01*
G75*
G02*
X250851270Y-82427920I-83439J-83439D01*
G01*
X250656109Y-82623081D01*
G75*
G02*
X250489231Y-82623081I-83439J83439D01*
G01*
X250322354Y-82456204D01*
G75*
G02*
X250322354Y-82289326I83439J83439D01*
G01*
G37*
%TD*%
%TO.C,R60*%
G36*
G01*
X238324428Y-86159593D02*
X238614341Y-85869678D01*
G75*
G02*
X238861829Y-85869678I123744J-123744D01*
G01*
X239109317Y-86117166D01*
G75*
G02*
X239109317Y-86364654I-123744J-123744D01*
G01*
X238819403Y-86654568D01*
G75*
G02*
X238571915Y-86654568I-123744J123744D01*
G01*
X238324427Y-86407080D01*
G75*
G02*
X238324427Y-86159592I123744J123744D01*
G01*
G37*
G36*
G01*
X237210734Y-85045899D02*
X237500647Y-84755984D01*
G75*
G02*
X237748135Y-84755984I123744J-123744D01*
G01*
X237995623Y-85003472D01*
G75*
G02*
X237995623Y-85250960I-123744J-123744D01*
G01*
X237705709Y-85540874D01*
G75*
G02*
X237458221Y-85540874I-123744J123744D01*
G01*
X237210733Y-85293386D01*
G75*
G02*
X237210733Y-85045898I123744J123744D01*
G01*
G37*
%TD*%
%TO.C,R59*%
G36*
G01*
X242195361Y-83035774D02*
X242390522Y-82840612D01*
G75*
G02*
X242557400Y-82840612I83439J-83439D01*
G01*
X242724277Y-83007489D01*
G75*
G02*
X242724277Y-83174367I-83439J-83439D01*
G01*
X242529116Y-83369528D01*
G75*
G02*
X242362238Y-83369528I-83439J83439D01*
G01*
X242195361Y-83202651D01*
G75*
G02*
X242195361Y-83035773I83439J83439D01*
G01*
G37*
G36*
G01*
X241509467Y-82349880D02*
X241704628Y-82154718D01*
G75*
G02*
X241871506Y-82154718I83439J-83439D01*
G01*
X242038383Y-82321595D01*
G75*
G02*
X242038383Y-82488473I-83439J-83439D01*
G01*
X241843222Y-82683634D01*
G75*
G02*
X241676344Y-82683634I-83439J83439D01*
G01*
X241509467Y-82516757D01*
G75*
G02*
X241509467Y-82349879I83439J83439D01*
G01*
G37*
%TD*%
%TO.C,R58*%
G36*
G01*
X229631677Y-86130232D02*
X229921590Y-85840317D01*
G75*
G02*
X230169078Y-85840317I123744J-123744D01*
G01*
X230416566Y-86087805D01*
G75*
G02*
X230416566Y-86335293I-123744J-123744D01*
G01*
X230126652Y-86625207D01*
G75*
G02*
X229879164Y-86625207I-123744J123744D01*
G01*
X229631676Y-86377719D01*
G75*
G02*
X229631676Y-86130231I123744J123744D01*
G01*
G37*
G36*
G01*
X228517983Y-85016538D02*
X228807896Y-84726623D01*
G75*
G02*
X229055384Y-84726623I123744J-123744D01*
G01*
X229302872Y-84974111D01*
G75*
G02*
X229302872Y-85221599I-123744J-123744D01*
G01*
X229012958Y-85511513D01*
G75*
G02*
X228765470Y-85511513I-123744J123744D01*
G01*
X228517982Y-85264025D01*
G75*
G02*
X228517982Y-85016537I123744J123744D01*
G01*
G37*
%TD*%
%TO.C,R57*%
G36*
G01*
X233502611Y-83006413D02*
X233697772Y-82811251D01*
G75*
G02*
X233864650Y-82811251I83439J-83439D01*
G01*
X234031527Y-82978128D01*
G75*
G02*
X234031527Y-83145006I-83439J-83439D01*
G01*
X233836366Y-83340167D01*
G75*
G02*
X233669488Y-83340167I-83439J83439D01*
G01*
X233502611Y-83173290D01*
G75*
G02*
X233502611Y-83006412I83439J83439D01*
G01*
G37*
G36*
G01*
X232816717Y-82320519D02*
X233011878Y-82125357D01*
G75*
G02*
X233178756Y-82125357I83439J-83439D01*
G01*
X233345633Y-82292234D01*
G75*
G02*
X233345633Y-82459112I-83439J-83439D01*
G01*
X233150472Y-82654273D01*
G75*
G02*
X232983594Y-82654273I-83439J83439D01*
G01*
X232816717Y-82487396D01*
G75*
G02*
X232816717Y-82320518I83439J83439D01*
G01*
G37*
%TD*%
%TO.C,R56*%
G36*
G01*
X220764808Y-86238451D02*
X221054721Y-85948536D01*
G75*
G02*
X221302209Y-85948536I123744J-123744D01*
G01*
X221549697Y-86196024D01*
G75*
G02*
X221549697Y-86443512I-123744J-123744D01*
G01*
X221259783Y-86733426D01*
G75*
G02*
X221012295Y-86733426I-123744J123744D01*
G01*
X220764807Y-86485938D01*
G75*
G02*
X220764807Y-86238450I123744J123744D01*
G01*
G37*
G36*
G01*
X219651114Y-85124757D02*
X219941027Y-84834842D01*
G75*
G02*
X220188515Y-84834842I123744J-123744D01*
G01*
X220436003Y-85082330D01*
G75*
G02*
X220436003Y-85329818I-123744J-123744D01*
G01*
X220146089Y-85619732D01*
G75*
G02*
X219898601Y-85619732I-123744J123744D01*
G01*
X219651113Y-85372244D01*
G75*
G02*
X219651113Y-85124756I123744J123744D01*
G01*
G37*
%TD*%
%TO.C,R55*%
G36*
G01*
X224635742Y-83114632D02*
X224830903Y-82919470D01*
G75*
G02*
X224997781Y-82919470I83439J-83439D01*
G01*
X225164658Y-83086347D01*
G75*
G02*
X225164658Y-83253225I-83439J-83439D01*
G01*
X224969497Y-83448386D01*
G75*
G02*
X224802619Y-83448386I-83439J83439D01*
G01*
X224635742Y-83281509D01*
G75*
G02*
X224635742Y-83114631I83439J83439D01*
G01*
G37*
G36*
G01*
X223949848Y-82428738D02*
X224145009Y-82233576D01*
G75*
G02*
X224311887Y-82233576I83439J-83439D01*
G01*
X224478764Y-82400453D01*
G75*
G02*
X224478764Y-82567331I-83439J-83439D01*
G01*
X224283603Y-82762492D01*
G75*
G02*
X224116725Y-82762492I-83439J83439D01*
G01*
X223949848Y-82595615D01*
G75*
G02*
X223949848Y-82428737I83439J83439D01*
G01*
G37*
%TD*%
%TO.C,R54*%
G36*
G01*
X212108276Y-86168711D02*
X212398189Y-85878796D01*
G75*
G02*
X212645677Y-85878796I123744J-123744D01*
G01*
X212893165Y-86126284D01*
G75*
G02*
X212893165Y-86373772I-123744J-123744D01*
G01*
X212603251Y-86663686D01*
G75*
G02*
X212355763Y-86663686I-123744J123744D01*
G01*
X212108275Y-86416198D01*
G75*
G02*
X212108275Y-86168710I123744J123744D01*
G01*
G37*
G36*
G01*
X210994582Y-85055017D02*
X211284495Y-84765102D01*
G75*
G02*
X211531983Y-84765102I123744J-123744D01*
G01*
X211779471Y-85012590D01*
G75*
G02*
X211779471Y-85260078I-123744J-123744D01*
G01*
X211489557Y-85549992D01*
G75*
G02*
X211242069Y-85549992I-123744J123744D01*
G01*
X210994581Y-85302504D01*
G75*
G02*
X210994581Y-85055016I123744J123744D01*
G01*
G37*
%TD*%
%TO.C,R53*%
G36*
G01*
X215979209Y-83044891D02*
X216174370Y-82849729D01*
G75*
G02*
X216341248Y-82849729I83439J-83439D01*
G01*
X216508125Y-83016606D01*
G75*
G02*
X216508125Y-83183484I-83439J-83439D01*
G01*
X216312964Y-83378645D01*
G75*
G02*
X216146086Y-83378645I-83439J83439D01*
G01*
X215979209Y-83211768D01*
G75*
G02*
X215979209Y-83044890I83439J83439D01*
G01*
G37*
G36*
G01*
X215293315Y-82358997D02*
X215488476Y-82163835D01*
G75*
G02*
X215655354Y-82163835I83439J-83439D01*
G01*
X215822231Y-82330712D01*
G75*
G02*
X215822231Y-82497590I-83439J-83439D01*
G01*
X215627070Y-82692751D01*
G75*
G02*
X215460192Y-82692751I-83439J83439D01*
G01*
X215293315Y-82525874D01*
G75*
G02*
X215293315Y-82358996I83439J83439D01*
G01*
G37*
%TD*%
%TO.C,R52*%
G36*
G01*
X203346718Y-86196025D02*
X203636631Y-85906110D01*
G75*
G02*
X203884119Y-85906110I123744J-123744D01*
G01*
X204131607Y-86153598D01*
G75*
G02*
X204131607Y-86401086I-123744J-123744D01*
G01*
X203841693Y-86691000D01*
G75*
G02*
X203594205Y-86691000I-123744J123744D01*
G01*
X203346717Y-86443512D01*
G75*
G02*
X203346717Y-86196024I123744J123744D01*
G01*
G37*
G36*
G01*
X202233024Y-85082331D02*
X202522937Y-84792416D01*
G75*
G02*
X202770425Y-84792416I123744J-123744D01*
G01*
X203017913Y-85039904D01*
G75*
G02*
X203017913Y-85287392I-123744J-123744D01*
G01*
X202727999Y-85577306D01*
G75*
G02*
X202480511Y-85577306I-123744J123744D01*
G01*
X202233023Y-85329818D01*
G75*
G02*
X202233023Y-85082330I123744J123744D01*
G01*
G37*
%TD*%
%TO.C,R51*%
G36*
G01*
X207217651Y-83072206D02*
X207412812Y-82877044D01*
G75*
G02*
X207579690Y-82877044I83439J-83439D01*
G01*
X207746567Y-83043921D01*
G75*
G02*
X207746567Y-83210799I-83439J-83439D01*
G01*
X207551406Y-83405960D01*
G75*
G02*
X207384528Y-83405960I-83439J83439D01*
G01*
X207217651Y-83239083D01*
G75*
G02*
X207217651Y-83072205I83439J83439D01*
G01*
G37*
G36*
G01*
X206531757Y-82386312D02*
X206726918Y-82191150D01*
G75*
G02*
X206893796Y-82191150I83439J-83439D01*
G01*
X207060673Y-82358027D01*
G75*
G02*
X207060673Y-82524905I-83439J-83439D01*
G01*
X206865512Y-82720066D01*
G75*
G02*
X206698634Y-82720066I-83439J83439D01*
G01*
X206531757Y-82553189D01*
G75*
G02*
X206531757Y-82386311I83439J83439D01*
G01*
G37*
%TD*%
%TO.C,R50*%
G36*
G01*
X194607556Y-86177470D02*
X194897469Y-85887555D01*
G75*
G02*
X195144957Y-85887555I123744J-123744D01*
G01*
X195392445Y-86135043D01*
G75*
G02*
X195392445Y-86382531I-123744J-123744D01*
G01*
X195102531Y-86672445D01*
G75*
G02*
X194855043Y-86672445I-123744J123744D01*
G01*
X194607555Y-86424957D01*
G75*
G02*
X194607555Y-86177469I123744J123744D01*
G01*
G37*
G36*
G01*
X193493862Y-85063776D02*
X193783775Y-84773861D01*
G75*
G02*
X194031263Y-84773861I123744J-123744D01*
G01*
X194278751Y-85021349D01*
G75*
G02*
X194278751Y-85268837I-123744J-123744D01*
G01*
X193988837Y-85558751D01*
G75*
G02*
X193741349Y-85558751I-123744J123744D01*
G01*
X193493861Y-85311263D01*
G75*
G02*
X193493861Y-85063775I123744J123744D01*
G01*
G37*
%TD*%
%TO.C,R49*%
G36*
G01*
X198478489Y-83053651D02*
X198673650Y-82858489D01*
G75*
G02*
X198840528Y-82858489I83439J-83439D01*
G01*
X199007405Y-83025366D01*
G75*
G02*
X199007405Y-83192244I-83439J-83439D01*
G01*
X198812244Y-83387405D01*
G75*
G02*
X198645366Y-83387405I-83439J83439D01*
G01*
X198478489Y-83220528D01*
G75*
G02*
X198478489Y-83053650I83439J83439D01*
G01*
G37*
G36*
G01*
X197792595Y-82367757D02*
X197987756Y-82172595D01*
G75*
G02*
X198154634Y-82172595I83439J-83439D01*
G01*
X198321511Y-82339472D01*
G75*
G02*
X198321511Y-82506350I-83439J-83439D01*
G01*
X198126350Y-82701511D01*
G75*
G02*
X197959472Y-82701511I-83439J83439D01*
G01*
X197792595Y-82534634D01*
G75*
G02*
X197792595Y-82367756I83439J83439D01*
G01*
G37*
%TD*%
%TO.C,R48*%
G36*
G01*
X255867896Y-72086909D02*
X256157809Y-71796994D01*
G75*
G02*
X256405297Y-71796994I123744J-123744D01*
G01*
X256652785Y-72044482D01*
G75*
G02*
X256652785Y-72291970I-123744J-123744D01*
G01*
X256362871Y-72581884D01*
G75*
G02*
X256115383Y-72581884I-123744J123744D01*
G01*
X255867895Y-72334396D01*
G75*
G02*
X255867895Y-72086908I123744J123744D01*
G01*
G37*
G36*
G01*
X254754202Y-70973215D02*
X255044115Y-70683300D01*
G75*
G02*
X255291603Y-70683300I123744J-123744D01*
G01*
X255539091Y-70930788D01*
G75*
G02*
X255539091Y-71178276I-123744J-123744D01*
G01*
X255249177Y-71468190D01*
G75*
G02*
X255001689Y-71468190I-123744J123744D01*
G01*
X254754201Y-71220702D01*
G75*
G02*
X254754201Y-70973214I123744J123744D01*
G01*
G37*
%TD*%
%TO.C,R47*%
G36*
G01*
X259738829Y-68963089D02*
X259933990Y-68767927D01*
G75*
G02*
X260100868Y-68767927I83439J-83439D01*
G01*
X260267745Y-68934804D01*
G75*
G02*
X260267745Y-69101682I-83439J-83439D01*
G01*
X260072584Y-69296843D01*
G75*
G02*
X259905706Y-69296843I-83439J83439D01*
G01*
X259738829Y-69129966D01*
G75*
G02*
X259738829Y-68963088I83439J83439D01*
G01*
G37*
G36*
G01*
X259052935Y-68277195D02*
X259248096Y-68082033D01*
G75*
G02*
X259414974Y-68082033I83439J-83439D01*
G01*
X259581851Y-68248910D01*
G75*
G02*
X259581851Y-68415788I-83439J-83439D01*
G01*
X259386690Y-68610949D01*
G75*
G02*
X259219812Y-68610949I-83439J83439D01*
G01*
X259052935Y-68444072D01*
G75*
G02*
X259052935Y-68277194I83439J83439D01*
G01*
G37*
%TD*%
%TO.C,R46*%
G36*
G01*
X247137315Y-72099040D02*
X247427228Y-71809125D01*
G75*
G02*
X247674716Y-71809125I123744J-123744D01*
G01*
X247922204Y-72056613D01*
G75*
G02*
X247922204Y-72304101I-123744J-123744D01*
G01*
X247632290Y-72594015D01*
G75*
G02*
X247384802Y-72594015I-123744J123744D01*
G01*
X247137314Y-72346527D01*
G75*
G02*
X247137314Y-72099039I123744J123744D01*
G01*
G37*
G36*
G01*
X246023621Y-70985346D02*
X246313534Y-70695431D01*
G75*
G02*
X246561022Y-70695431I123744J-123744D01*
G01*
X246808510Y-70942919D01*
G75*
G02*
X246808510Y-71190407I-123744J-123744D01*
G01*
X246518596Y-71480321D01*
G75*
G02*
X246271108Y-71480321I-123744J123744D01*
G01*
X246023620Y-71232833D01*
G75*
G02*
X246023620Y-70985345I123744J123744D01*
G01*
G37*
%TD*%
%TO.C,R45*%
G36*
G01*
X251008248Y-68975221D02*
X251203409Y-68780059D01*
G75*
G02*
X251370287Y-68780059I83439J-83439D01*
G01*
X251537164Y-68946936D01*
G75*
G02*
X251537164Y-69113814I-83439J-83439D01*
G01*
X251342003Y-69308975D01*
G75*
G02*
X251175125Y-69308975I-83439J83439D01*
G01*
X251008248Y-69142098D01*
G75*
G02*
X251008248Y-68975220I83439J83439D01*
G01*
G37*
G36*
G01*
X250322354Y-68289327D02*
X250517515Y-68094165D01*
G75*
G02*
X250684393Y-68094165I83439J-83439D01*
G01*
X250851270Y-68261042D01*
G75*
G02*
X250851270Y-68427920I-83439J-83439D01*
G01*
X250656109Y-68623081D01*
G75*
G02*
X250489231Y-68623081I-83439J83439D01*
G01*
X250322354Y-68456204D01*
G75*
G02*
X250322354Y-68289326I83439J83439D01*
G01*
G37*
%TD*%
%TO.C,R44*%
G36*
G01*
X238324428Y-72159593D02*
X238614341Y-71869678D01*
G75*
G02*
X238861829Y-71869678I123744J-123744D01*
G01*
X239109317Y-72117166D01*
G75*
G02*
X239109317Y-72364654I-123744J-123744D01*
G01*
X238819403Y-72654568D01*
G75*
G02*
X238571915Y-72654568I-123744J123744D01*
G01*
X238324427Y-72407080D01*
G75*
G02*
X238324427Y-72159592I123744J123744D01*
G01*
G37*
G36*
G01*
X237210734Y-71045899D02*
X237500647Y-70755984D01*
G75*
G02*
X237748135Y-70755984I123744J-123744D01*
G01*
X237995623Y-71003472D01*
G75*
G02*
X237995623Y-71250960I-123744J-123744D01*
G01*
X237705709Y-71540874D01*
G75*
G02*
X237458221Y-71540874I-123744J123744D01*
G01*
X237210733Y-71293386D01*
G75*
G02*
X237210733Y-71045898I123744J123744D01*
G01*
G37*
%TD*%
%TO.C,R43*%
G36*
G01*
X242195361Y-69035774D02*
X242390522Y-68840612D01*
G75*
G02*
X242557400Y-68840612I83439J-83439D01*
G01*
X242724277Y-69007489D01*
G75*
G02*
X242724277Y-69174367I-83439J-83439D01*
G01*
X242529116Y-69369528D01*
G75*
G02*
X242362238Y-69369528I-83439J83439D01*
G01*
X242195361Y-69202651D01*
G75*
G02*
X242195361Y-69035773I83439J83439D01*
G01*
G37*
G36*
G01*
X241509467Y-68349880D02*
X241704628Y-68154718D01*
G75*
G02*
X241871506Y-68154718I83439J-83439D01*
G01*
X242038383Y-68321595D01*
G75*
G02*
X242038383Y-68488473I-83439J-83439D01*
G01*
X241843222Y-68683634D01*
G75*
G02*
X241676344Y-68683634I-83439J83439D01*
G01*
X241509467Y-68516757D01*
G75*
G02*
X241509467Y-68349879I83439J83439D01*
G01*
G37*
%TD*%
%TO.C,R42*%
G36*
G01*
X229631677Y-72130232D02*
X229921590Y-71840317D01*
G75*
G02*
X230169078Y-71840317I123744J-123744D01*
G01*
X230416566Y-72087805D01*
G75*
G02*
X230416566Y-72335293I-123744J-123744D01*
G01*
X230126652Y-72625207D01*
G75*
G02*
X229879164Y-72625207I-123744J123744D01*
G01*
X229631676Y-72377719D01*
G75*
G02*
X229631676Y-72130231I123744J123744D01*
G01*
G37*
G36*
G01*
X228517983Y-71016538D02*
X228807896Y-70726623D01*
G75*
G02*
X229055384Y-70726623I123744J-123744D01*
G01*
X229302872Y-70974111D01*
G75*
G02*
X229302872Y-71221599I-123744J-123744D01*
G01*
X229012958Y-71511513D01*
G75*
G02*
X228765470Y-71511513I-123744J123744D01*
G01*
X228517982Y-71264025D01*
G75*
G02*
X228517982Y-71016537I123744J123744D01*
G01*
G37*
%TD*%
%TO.C,R41*%
G36*
G01*
X233502611Y-69006413D02*
X233697772Y-68811251D01*
G75*
G02*
X233864650Y-68811251I83439J-83439D01*
G01*
X234031527Y-68978128D01*
G75*
G02*
X234031527Y-69145006I-83439J-83439D01*
G01*
X233836366Y-69340167D01*
G75*
G02*
X233669488Y-69340167I-83439J83439D01*
G01*
X233502611Y-69173290D01*
G75*
G02*
X233502611Y-69006412I83439J83439D01*
G01*
G37*
G36*
G01*
X232816717Y-68320519D02*
X233011878Y-68125357D01*
G75*
G02*
X233178756Y-68125357I83439J-83439D01*
G01*
X233345633Y-68292234D01*
G75*
G02*
X233345633Y-68459112I-83439J-83439D01*
G01*
X233150472Y-68654273D01*
G75*
G02*
X232983594Y-68654273I-83439J83439D01*
G01*
X232816717Y-68487396D01*
G75*
G02*
X232816717Y-68320518I83439J83439D01*
G01*
G37*
%TD*%
%TO.C,R40*%
G36*
G01*
X220764808Y-72238451D02*
X221054721Y-71948536D01*
G75*
G02*
X221302209Y-71948536I123744J-123744D01*
G01*
X221549697Y-72196024D01*
G75*
G02*
X221549697Y-72443512I-123744J-123744D01*
G01*
X221259783Y-72733426D01*
G75*
G02*
X221012295Y-72733426I-123744J123744D01*
G01*
X220764807Y-72485938D01*
G75*
G02*
X220764807Y-72238450I123744J123744D01*
G01*
G37*
G36*
G01*
X219651114Y-71124757D02*
X219941027Y-70834842D01*
G75*
G02*
X220188515Y-70834842I123744J-123744D01*
G01*
X220436003Y-71082330D01*
G75*
G02*
X220436003Y-71329818I-123744J-123744D01*
G01*
X220146089Y-71619732D01*
G75*
G02*
X219898601Y-71619732I-123744J123744D01*
G01*
X219651113Y-71372244D01*
G75*
G02*
X219651113Y-71124756I123744J123744D01*
G01*
G37*
%TD*%
%TO.C,R39*%
G36*
G01*
X224635742Y-69114632D02*
X224830903Y-68919470D01*
G75*
G02*
X224997781Y-68919470I83439J-83439D01*
G01*
X225164658Y-69086347D01*
G75*
G02*
X225164658Y-69253225I-83439J-83439D01*
G01*
X224969497Y-69448386D01*
G75*
G02*
X224802619Y-69448386I-83439J83439D01*
G01*
X224635742Y-69281509D01*
G75*
G02*
X224635742Y-69114631I83439J83439D01*
G01*
G37*
G36*
G01*
X223949848Y-68428738D02*
X224145009Y-68233576D01*
G75*
G02*
X224311887Y-68233576I83439J-83439D01*
G01*
X224478764Y-68400453D01*
G75*
G02*
X224478764Y-68567331I-83439J-83439D01*
G01*
X224283603Y-68762492D01*
G75*
G02*
X224116725Y-68762492I-83439J83439D01*
G01*
X223949848Y-68595615D01*
G75*
G02*
X223949848Y-68428737I83439J83439D01*
G01*
G37*
%TD*%
%TO.C,R38*%
G36*
G01*
X212108276Y-72168711D02*
X212398189Y-71878796D01*
G75*
G02*
X212645677Y-71878796I123744J-123744D01*
G01*
X212893165Y-72126284D01*
G75*
G02*
X212893165Y-72373772I-123744J-123744D01*
G01*
X212603251Y-72663686D01*
G75*
G02*
X212355763Y-72663686I-123744J123744D01*
G01*
X212108275Y-72416198D01*
G75*
G02*
X212108275Y-72168710I123744J123744D01*
G01*
G37*
G36*
G01*
X210994582Y-71055017D02*
X211284495Y-70765102D01*
G75*
G02*
X211531983Y-70765102I123744J-123744D01*
G01*
X211779471Y-71012590D01*
G75*
G02*
X211779471Y-71260078I-123744J-123744D01*
G01*
X211489557Y-71549992D01*
G75*
G02*
X211242069Y-71549992I-123744J123744D01*
G01*
X210994581Y-71302504D01*
G75*
G02*
X210994581Y-71055016I123744J123744D01*
G01*
G37*
%TD*%
%TO.C,R37*%
G36*
G01*
X215979209Y-69044891D02*
X216174370Y-68849729D01*
G75*
G02*
X216341248Y-68849729I83439J-83439D01*
G01*
X216508125Y-69016606D01*
G75*
G02*
X216508125Y-69183484I-83439J-83439D01*
G01*
X216312964Y-69378645D01*
G75*
G02*
X216146086Y-69378645I-83439J83439D01*
G01*
X215979209Y-69211768D01*
G75*
G02*
X215979209Y-69044890I83439J83439D01*
G01*
G37*
G36*
G01*
X215293315Y-68358997D02*
X215488476Y-68163835D01*
G75*
G02*
X215655354Y-68163835I83439J-83439D01*
G01*
X215822231Y-68330712D01*
G75*
G02*
X215822231Y-68497590I-83439J-83439D01*
G01*
X215627070Y-68692751D01*
G75*
G02*
X215460192Y-68692751I-83439J83439D01*
G01*
X215293315Y-68525874D01*
G75*
G02*
X215293315Y-68358996I83439J83439D01*
G01*
G37*
%TD*%
%TO.C,R36*%
G36*
G01*
X203346718Y-72196025D02*
X203636631Y-71906110D01*
G75*
G02*
X203884119Y-71906110I123744J-123744D01*
G01*
X204131607Y-72153598D01*
G75*
G02*
X204131607Y-72401086I-123744J-123744D01*
G01*
X203841693Y-72691000D01*
G75*
G02*
X203594205Y-72691000I-123744J123744D01*
G01*
X203346717Y-72443512D01*
G75*
G02*
X203346717Y-72196024I123744J123744D01*
G01*
G37*
G36*
G01*
X202233024Y-71082331D02*
X202522937Y-70792416D01*
G75*
G02*
X202770425Y-70792416I123744J-123744D01*
G01*
X203017913Y-71039904D01*
G75*
G02*
X203017913Y-71287392I-123744J-123744D01*
G01*
X202727999Y-71577306D01*
G75*
G02*
X202480511Y-71577306I-123744J123744D01*
G01*
X202233023Y-71329818D01*
G75*
G02*
X202233023Y-71082330I123744J123744D01*
G01*
G37*
%TD*%
%TO.C,R35*%
G36*
G01*
X207217651Y-69072206D02*
X207412812Y-68877044D01*
G75*
G02*
X207579690Y-68877044I83439J-83439D01*
G01*
X207746567Y-69043921D01*
G75*
G02*
X207746567Y-69210799I-83439J-83439D01*
G01*
X207551406Y-69405960D01*
G75*
G02*
X207384528Y-69405960I-83439J83439D01*
G01*
X207217651Y-69239083D01*
G75*
G02*
X207217651Y-69072205I83439J83439D01*
G01*
G37*
G36*
G01*
X206531757Y-68386312D02*
X206726918Y-68191150D01*
G75*
G02*
X206893796Y-68191150I83439J-83439D01*
G01*
X207060673Y-68358027D01*
G75*
G02*
X207060673Y-68524905I-83439J-83439D01*
G01*
X206865512Y-68720066D01*
G75*
G02*
X206698634Y-68720066I-83439J83439D01*
G01*
X206531757Y-68553189D01*
G75*
G02*
X206531757Y-68386311I83439J83439D01*
G01*
G37*
%TD*%
%TO.C,R34*%
G36*
G01*
X194607556Y-72177470D02*
X194897469Y-71887555D01*
G75*
G02*
X195144957Y-71887555I123744J-123744D01*
G01*
X195392445Y-72135043D01*
G75*
G02*
X195392445Y-72382531I-123744J-123744D01*
G01*
X195102531Y-72672445D01*
G75*
G02*
X194855043Y-72672445I-123744J123744D01*
G01*
X194607555Y-72424957D01*
G75*
G02*
X194607555Y-72177469I123744J123744D01*
G01*
G37*
G36*
G01*
X193493862Y-71063776D02*
X193783775Y-70773861D01*
G75*
G02*
X194031263Y-70773861I123744J-123744D01*
G01*
X194278751Y-71021349D01*
G75*
G02*
X194278751Y-71268837I-123744J-123744D01*
G01*
X193988837Y-71558751D01*
G75*
G02*
X193741349Y-71558751I-123744J123744D01*
G01*
X193493861Y-71311263D01*
G75*
G02*
X193493861Y-71063775I123744J123744D01*
G01*
G37*
%TD*%
%TO.C,R33*%
G36*
G01*
X198478489Y-69053651D02*
X198673650Y-68858489D01*
G75*
G02*
X198840528Y-68858489I83439J-83439D01*
G01*
X199007405Y-69025366D01*
G75*
G02*
X199007405Y-69192244I-83439J-83439D01*
G01*
X198812244Y-69387405D01*
G75*
G02*
X198645366Y-69387405I-83439J83439D01*
G01*
X198478489Y-69220528D01*
G75*
G02*
X198478489Y-69053650I83439J83439D01*
G01*
G37*
G36*
G01*
X197792595Y-68367757D02*
X197987756Y-68172595D01*
G75*
G02*
X198154634Y-68172595I83439J-83439D01*
G01*
X198321511Y-68339472D01*
G75*
G02*
X198321511Y-68506350I-83439J-83439D01*
G01*
X198126350Y-68701511D01*
G75*
G02*
X197959472Y-68701511I-83439J83439D01*
G01*
X197792595Y-68534634D01*
G75*
G02*
X197792595Y-68367756I83439J83439D01*
G01*
G37*
%TD*%
%TO.C,R32*%
G36*
G01*
X255867896Y-57786909D02*
X256157809Y-57496994D01*
G75*
G02*
X256405297Y-57496994I123744J-123744D01*
G01*
X256652785Y-57744482D01*
G75*
G02*
X256652785Y-57991970I-123744J-123744D01*
G01*
X256362871Y-58281884D01*
G75*
G02*
X256115383Y-58281884I-123744J123744D01*
G01*
X255867895Y-58034396D01*
G75*
G02*
X255867895Y-57786908I123744J123744D01*
G01*
G37*
G36*
G01*
X254754202Y-56673215D02*
X255044115Y-56383300D01*
G75*
G02*
X255291603Y-56383300I123744J-123744D01*
G01*
X255539091Y-56630788D01*
G75*
G02*
X255539091Y-56878276I-123744J-123744D01*
G01*
X255249177Y-57168190D01*
G75*
G02*
X255001689Y-57168190I-123744J123744D01*
G01*
X254754201Y-56920702D01*
G75*
G02*
X254754201Y-56673214I123744J123744D01*
G01*
G37*
%TD*%
%TO.C,R31*%
G36*
G01*
X259738829Y-54663089D02*
X259933990Y-54467927D01*
G75*
G02*
X260100868Y-54467927I83439J-83439D01*
G01*
X260267745Y-54634804D01*
G75*
G02*
X260267745Y-54801682I-83439J-83439D01*
G01*
X260072584Y-54996843D01*
G75*
G02*
X259905706Y-54996843I-83439J83439D01*
G01*
X259738829Y-54829966D01*
G75*
G02*
X259738829Y-54663088I83439J83439D01*
G01*
G37*
G36*
G01*
X259052935Y-53977195D02*
X259248096Y-53782033D01*
G75*
G02*
X259414974Y-53782033I83439J-83439D01*
G01*
X259581851Y-53948910D01*
G75*
G02*
X259581851Y-54115788I-83439J-83439D01*
G01*
X259386690Y-54310949D01*
G75*
G02*
X259219812Y-54310949I-83439J83439D01*
G01*
X259052935Y-54144072D01*
G75*
G02*
X259052935Y-53977194I83439J83439D01*
G01*
G37*
%TD*%
%TO.C,R30*%
G36*
G01*
X247137315Y-57799040D02*
X247427228Y-57509125D01*
G75*
G02*
X247674716Y-57509125I123744J-123744D01*
G01*
X247922204Y-57756613D01*
G75*
G02*
X247922204Y-58004101I-123744J-123744D01*
G01*
X247632290Y-58294015D01*
G75*
G02*
X247384802Y-58294015I-123744J123744D01*
G01*
X247137314Y-58046527D01*
G75*
G02*
X247137314Y-57799039I123744J123744D01*
G01*
G37*
G36*
G01*
X246023621Y-56685346D02*
X246313534Y-56395431D01*
G75*
G02*
X246561022Y-56395431I123744J-123744D01*
G01*
X246808510Y-56642919D01*
G75*
G02*
X246808510Y-56890407I-123744J-123744D01*
G01*
X246518596Y-57180321D01*
G75*
G02*
X246271108Y-57180321I-123744J123744D01*
G01*
X246023620Y-56932833D01*
G75*
G02*
X246023620Y-56685345I123744J123744D01*
G01*
G37*
%TD*%
%TO.C,R29*%
G36*
G01*
X251008248Y-54675221D02*
X251203409Y-54480059D01*
G75*
G02*
X251370287Y-54480059I83439J-83439D01*
G01*
X251537164Y-54646936D01*
G75*
G02*
X251537164Y-54813814I-83439J-83439D01*
G01*
X251342003Y-55008975D01*
G75*
G02*
X251175125Y-55008975I-83439J83439D01*
G01*
X251008248Y-54842098D01*
G75*
G02*
X251008248Y-54675220I83439J83439D01*
G01*
G37*
G36*
G01*
X250322354Y-53989327D02*
X250517515Y-53794165D01*
G75*
G02*
X250684393Y-53794165I83439J-83439D01*
G01*
X250851270Y-53961042D01*
G75*
G02*
X250851270Y-54127920I-83439J-83439D01*
G01*
X250656109Y-54323081D01*
G75*
G02*
X250489231Y-54323081I-83439J83439D01*
G01*
X250322354Y-54156204D01*
G75*
G02*
X250322354Y-53989326I83439J83439D01*
G01*
G37*
%TD*%
%TO.C,R28*%
G36*
G01*
X238324428Y-57859593D02*
X238614341Y-57569678D01*
G75*
G02*
X238861829Y-57569678I123744J-123744D01*
G01*
X239109317Y-57817166D01*
G75*
G02*
X239109317Y-58064654I-123744J-123744D01*
G01*
X238819403Y-58354568D01*
G75*
G02*
X238571915Y-58354568I-123744J123744D01*
G01*
X238324427Y-58107080D01*
G75*
G02*
X238324427Y-57859592I123744J123744D01*
G01*
G37*
G36*
G01*
X237210734Y-56745899D02*
X237500647Y-56455984D01*
G75*
G02*
X237748135Y-56455984I123744J-123744D01*
G01*
X237995623Y-56703472D01*
G75*
G02*
X237995623Y-56950960I-123744J-123744D01*
G01*
X237705709Y-57240874D01*
G75*
G02*
X237458221Y-57240874I-123744J123744D01*
G01*
X237210733Y-56993386D01*
G75*
G02*
X237210733Y-56745898I123744J123744D01*
G01*
G37*
%TD*%
%TO.C,R27*%
G36*
G01*
X242195361Y-54735774D02*
X242390522Y-54540612D01*
G75*
G02*
X242557400Y-54540612I83439J-83439D01*
G01*
X242724277Y-54707489D01*
G75*
G02*
X242724277Y-54874367I-83439J-83439D01*
G01*
X242529116Y-55069528D01*
G75*
G02*
X242362238Y-55069528I-83439J83439D01*
G01*
X242195361Y-54902651D01*
G75*
G02*
X242195361Y-54735773I83439J83439D01*
G01*
G37*
G36*
G01*
X241509467Y-54049880D02*
X241704628Y-53854718D01*
G75*
G02*
X241871506Y-53854718I83439J-83439D01*
G01*
X242038383Y-54021595D01*
G75*
G02*
X242038383Y-54188473I-83439J-83439D01*
G01*
X241843222Y-54383634D01*
G75*
G02*
X241676344Y-54383634I-83439J83439D01*
G01*
X241509467Y-54216757D01*
G75*
G02*
X241509467Y-54049879I83439J83439D01*
G01*
G37*
%TD*%
%TO.C,R26*%
G36*
G01*
X229631677Y-57830232D02*
X229921590Y-57540317D01*
G75*
G02*
X230169078Y-57540317I123744J-123744D01*
G01*
X230416566Y-57787805D01*
G75*
G02*
X230416566Y-58035293I-123744J-123744D01*
G01*
X230126652Y-58325207D01*
G75*
G02*
X229879164Y-58325207I-123744J123744D01*
G01*
X229631676Y-58077719D01*
G75*
G02*
X229631676Y-57830231I123744J123744D01*
G01*
G37*
G36*
G01*
X228517983Y-56716538D02*
X228807896Y-56426623D01*
G75*
G02*
X229055384Y-56426623I123744J-123744D01*
G01*
X229302872Y-56674111D01*
G75*
G02*
X229302872Y-56921599I-123744J-123744D01*
G01*
X229012958Y-57211513D01*
G75*
G02*
X228765470Y-57211513I-123744J123744D01*
G01*
X228517982Y-56964025D01*
G75*
G02*
X228517982Y-56716537I123744J123744D01*
G01*
G37*
%TD*%
%TO.C,R25*%
G36*
G01*
X233502611Y-54706413D02*
X233697772Y-54511251D01*
G75*
G02*
X233864650Y-54511251I83439J-83439D01*
G01*
X234031527Y-54678128D01*
G75*
G02*
X234031527Y-54845006I-83439J-83439D01*
G01*
X233836366Y-55040167D01*
G75*
G02*
X233669488Y-55040167I-83439J83439D01*
G01*
X233502611Y-54873290D01*
G75*
G02*
X233502611Y-54706412I83439J83439D01*
G01*
G37*
G36*
G01*
X232816717Y-54020519D02*
X233011878Y-53825357D01*
G75*
G02*
X233178756Y-53825357I83439J-83439D01*
G01*
X233345633Y-53992234D01*
G75*
G02*
X233345633Y-54159112I-83439J-83439D01*
G01*
X233150472Y-54354273D01*
G75*
G02*
X232983594Y-54354273I-83439J83439D01*
G01*
X232816717Y-54187396D01*
G75*
G02*
X232816717Y-54020518I83439J83439D01*
G01*
G37*
%TD*%
%TO.C,R24*%
G36*
G01*
X220764808Y-57938451D02*
X221054721Y-57648536D01*
G75*
G02*
X221302209Y-57648536I123744J-123744D01*
G01*
X221549697Y-57896024D01*
G75*
G02*
X221549697Y-58143512I-123744J-123744D01*
G01*
X221259783Y-58433426D01*
G75*
G02*
X221012295Y-58433426I-123744J123744D01*
G01*
X220764807Y-58185938D01*
G75*
G02*
X220764807Y-57938450I123744J123744D01*
G01*
G37*
G36*
G01*
X219651114Y-56824757D02*
X219941027Y-56534842D01*
G75*
G02*
X220188515Y-56534842I123744J-123744D01*
G01*
X220436003Y-56782330D01*
G75*
G02*
X220436003Y-57029818I-123744J-123744D01*
G01*
X220146089Y-57319732D01*
G75*
G02*
X219898601Y-57319732I-123744J123744D01*
G01*
X219651113Y-57072244D01*
G75*
G02*
X219651113Y-56824756I123744J123744D01*
G01*
G37*
%TD*%
%TO.C,R23*%
G36*
G01*
X224635742Y-54814632D02*
X224830903Y-54619470D01*
G75*
G02*
X224997781Y-54619470I83439J-83439D01*
G01*
X225164658Y-54786347D01*
G75*
G02*
X225164658Y-54953225I-83439J-83439D01*
G01*
X224969497Y-55148386D01*
G75*
G02*
X224802619Y-55148386I-83439J83439D01*
G01*
X224635742Y-54981509D01*
G75*
G02*
X224635742Y-54814631I83439J83439D01*
G01*
G37*
G36*
G01*
X223949848Y-54128738D02*
X224145009Y-53933576D01*
G75*
G02*
X224311887Y-53933576I83439J-83439D01*
G01*
X224478764Y-54100453D01*
G75*
G02*
X224478764Y-54267331I-83439J-83439D01*
G01*
X224283603Y-54462492D01*
G75*
G02*
X224116725Y-54462492I-83439J83439D01*
G01*
X223949848Y-54295615D01*
G75*
G02*
X223949848Y-54128737I83439J83439D01*
G01*
G37*
%TD*%
%TO.C,R22*%
G36*
G01*
X212108276Y-57868711D02*
X212398189Y-57578796D01*
G75*
G02*
X212645677Y-57578796I123744J-123744D01*
G01*
X212893165Y-57826284D01*
G75*
G02*
X212893165Y-58073772I-123744J-123744D01*
G01*
X212603251Y-58363686D01*
G75*
G02*
X212355763Y-58363686I-123744J123744D01*
G01*
X212108275Y-58116198D01*
G75*
G02*
X212108275Y-57868710I123744J123744D01*
G01*
G37*
G36*
G01*
X210994582Y-56755017D02*
X211284495Y-56465102D01*
G75*
G02*
X211531983Y-56465102I123744J-123744D01*
G01*
X211779471Y-56712590D01*
G75*
G02*
X211779471Y-56960078I-123744J-123744D01*
G01*
X211489557Y-57249992D01*
G75*
G02*
X211242069Y-57249992I-123744J123744D01*
G01*
X210994581Y-57002504D01*
G75*
G02*
X210994581Y-56755016I123744J123744D01*
G01*
G37*
%TD*%
%TO.C,R21*%
G36*
G01*
X215979209Y-54744891D02*
X216174370Y-54549729D01*
G75*
G02*
X216341248Y-54549729I83439J-83439D01*
G01*
X216508125Y-54716606D01*
G75*
G02*
X216508125Y-54883484I-83439J-83439D01*
G01*
X216312964Y-55078645D01*
G75*
G02*
X216146086Y-55078645I-83439J83439D01*
G01*
X215979209Y-54911768D01*
G75*
G02*
X215979209Y-54744890I83439J83439D01*
G01*
G37*
G36*
G01*
X215293315Y-54058997D02*
X215488476Y-53863835D01*
G75*
G02*
X215655354Y-53863835I83439J-83439D01*
G01*
X215822231Y-54030712D01*
G75*
G02*
X215822231Y-54197590I-83439J-83439D01*
G01*
X215627070Y-54392751D01*
G75*
G02*
X215460192Y-54392751I-83439J83439D01*
G01*
X215293315Y-54225874D01*
G75*
G02*
X215293315Y-54058996I83439J83439D01*
G01*
G37*
%TD*%
%TO.C,R20*%
G36*
G01*
X203346718Y-57896025D02*
X203636631Y-57606110D01*
G75*
G02*
X203884119Y-57606110I123744J-123744D01*
G01*
X204131607Y-57853598D01*
G75*
G02*
X204131607Y-58101086I-123744J-123744D01*
G01*
X203841693Y-58391000D01*
G75*
G02*
X203594205Y-58391000I-123744J123744D01*
G01*
X203346717Y-58143512D01*
G75*
G02*
X203346717Y-57896024I123744J123744D01*
G01*
G37*
G36*
G01*
X202233024Y-56782331D02*
X202522937Y-56492416D01*
G75*
G02*
X202770425Y-56492416I123744J-123744D01*
G01*
X203017913Y-56739904D01*
G75*
G02*
X203017913Y-56987392I-123744J-123744D01*
G01*
X202727999Y-57277306D01*
G75*
G02*
X202480511Y-57277306I-123744J123744D01*
G01*
X202233023Y-57029818D01*
G75*
G02*
X202233023Y-56782330I123744J123744D01*
G01*
G37*
%TD*%
%TO.C,R19*%
G36*
G01*
X207217651Y-54772206D02*
X207412812Y-54577044D01*
G75*
G02*
X207579690Y-54577044I83439J-83439D01*
G01*
X207746567Y-54743921D01*
G75*
G02*
X207746567Y-54910799I-83439J-83439D01*
G01*
X207551406Y-55105960D01*
G75*
G02*
X207384528Y-55105960I-83439J83439D01*
G01*
X207217651Y-54939083D01*
G75*
G02*
X207217651Y-54772205I83439J83439D01*
G01*
G37*
G36*
G01*
X206531757Y-54086312D02*
X206726918Y-53891150D01*
G75*
G02*
X206893796Y-53891150I83439J-83439D01*
G01*
X207060673Y-54058027D01*
G75*
G02*
X207060673Y-54224905I-83439J-83439D01*
G01*
X206865512Y-54420066D01*
G75*
G02*
X206698634Y-54420066I-83439J83439D01*
G01*
X206531757Y-54253189D01*
G75*
G02*
X206531757Y-54086311I83439J83439D01*
G01*
G37*
%TD*%
%TO.C,R18*%
G36*
G01*
X194607556Y-57877470D02*
X194897469Y-57587555D01*
G75*
G02*
X195144957Y-57587555I123744J-123744D01*
G01*
X195392445Y-57835043D01*
G75*
G02*
X195392445Y-58082531I-123744J-123744D01*
G01*
X195102531Y-58372445D01*
G75*
G02*
X194855043Y-58372445I-123744J123744D01*
G01*
X194607555Y-58124957D01*
G75*
G02*
X194607555Y-57877469I123744J123744D01*
G01*
G37*
G36*
G01*
X193493862Y-56763776D02*
X193783775Y-56473861D01*
G75*
G02*
X194031263Y-56473861I123744J-123744D01*
G01*
X194278751Y-56721349D01*
G75*
G02*
X194278751Y-56968837I-123744J-123744D01*
G01*
X193988837Y-57258751D01*
G75*
G02*
X193741349Y-57258751I-123744J123744D01*
G01*
X193493861Y-57011263D01*
G75*
G02*
X193493861Y-56763775I123744J123744D01*
G01*
G37*
%TD*%
%TO.C,R17*%
G36*
G01*
X198478489Y-54753651D02*
X198673650Y-54558489D01*
G75*
G02*
X198840528Y-54558489I83439J-83439D01*
G01*
X199007405Y-54725366D01*
G75*
G02*
X199007405Y-54892244I-83439J-83439D01*
G01*
X198812244Y-55087405D01*
G75*
G02*
X198645366Y-55087405I-83439J83439D01*
G01*
X198478489Y-54920528D01*
G75*
G02*
X198478489Y-54753650I83439J83439D01*
G01*
G37*
G36*
G01*
X197792595Y-54067757D02*
X197987756Y-53872595D01*
G75*
G02*
X198154634Y-53872595I83439J-83439D01*
G01*
X198321511Y-54039472D01*
G75*
G02*
X198321511Y-54206350I-83439J-83439D01*
G01*
X198126350Y-54401511D01*
G75*
G02*
X197959472Y-54401511I-83439J83439D01*
G01*
X197792595Y-54234634D01*
G75*
G02*
X197792595Y-54067756I83439J83439D01*
G01*
G37*
%TD*%
D10*
%TO.C,D64*%
G36*
X256788623Y-140008605D02*
G01*
X257241172Y-140461154D01*
X256732055Y-140970271D01*
X256279506Y-140517722D01*
X256788623Y-140008605D01*
G37*
G36*
X257531085Y-137922640D02*
G01*
X257983634Y-138375189D01*
X257474517Y-138884306D01*
X257021968Y-138431757D01*
X257531085Y-137922640D01*
G37*
G36*
X258874588Y-139266143D02*
G01*
X259327137Y-139718692D01*
X258818020Y-140227809D01*
X258365471Y-139775260D01*
X258874588Y-139266143D01*
G37*
%TD*%
%TO.C,D63*%
G36*
X248058042Y-140020737D02*
G01*
X248510591Y-140473286D01*
X248001474Y-140982403D01*
X247548925Y-140529854D01*
X248058042Y-140020737D01*
G37*
G36*
X248800504Y-137934772D02*
G01*
X249253053Y-138387321D01*
X248743936Y-138896438D01*
X248291387Y-138443889D01*
X248800504Y-137934772D01*
G37*
G36*
X250144007Y-139278275D02*
G01*
X250596556Y-139730824D01*
X250087439Y-140239941D01*
X249634890Y-139787392D01*
X250144007Y-139278275D01*
G37*
%TD*%
%TO.C,D62*%
G36*
X239245155Y-140081290D02*
G01*
X239697704Y-140533839D01*
X239188587Y-141042956D01*
X238736038Y-140590407D01*
X239245155Y-140081290D01*
G37*
G36*
X239987617Y-137995325D02*
G01*
X240440166Y-138447874D01*
X239931049Y-138956991D01*
X239478500Y-138504442D01*
X239987617Y-137995325D01*
G37*
G36*
X241331120Y-139338828D02*
G01*
X241783669Y-139791377D01*
X241274552Y-140300494D01*
X240822003Y-139847945D01*
X241331120Y-139338828D01*
G37*
%TD*%
%TO.C,D61*%
G36*
X230552405Y-140051929D02*
G01*
X231004954Y-140504478D01*
X230495837Y-141013595D01*
X230043288Y-140561046D01*
X230552405Y-140051929D01*
G37*
G36*
X231294867Y-137965964D02*
G01*
X231747416Y-138418513D01*
X231238299Y-138927630D01*
X230785750Y-138475081D01*
X231294867Y-137965964D01*
G37*
G36*
X232638370Y-139309467D02*
G01*
X233090919Y-139762016D01*
X232581802Y-140271133D01*
X232129253Y-139818584D01*
X232638370Y-139309467D01*
G37*
%TD*%
%TO.C,D60*%
G36*
X221685536Y-140160148D02*
G01*
X222138085Y-140612697D01*
X221628968Y-141121814D01*
X221176419Y-140669265D01*
X221685536Y-140160148D01*
G37*
G36*
X222427998Y-138074183D02*
G01*
X222880547Y-138526732D01*
X222371430Y-139035849D01*
X221918881Y-138583300D01*
X222427998Y-138074183D01*
G37*
G36*
X223771501Y-139417686D02*
G01*
X224224050Y-139870235D01*
X223714933Y-140379352D01*
X223262384Y-139926803D01*
X223771501Y-139417686D01*
G37*
%TD*%
%TO.C,D59*%
G36*
X213029004Y-140090407D02*
G01*
X213481553Y-140542956D01*
X212972436Y-141052073D01*
X212519887Y-140599524D01*
X213029004Y-140090407D01*
G37*
G36*
X213771466Y-138004442D02*
G01*
X214224015Y-138456991D01*
X213714898Y-138966108D01*
X213262349Y-138513559D01*
X213771466Y-138004442D01*
G37*
G36*
X215114969Y-139347945D02*
G01*
X215567518Y-139800494D01*
X215058401Y-140309611D01*
X214605852Y-139857062D01*
X215114969Y-139347945D01*
G37*
%TD*%
%TO.C,D58*%
G36*
X204267446Y-140117722D02*
G01*
X204719995Y-140570271D01*
X204210878Y-141079388D01*
X203758329Y-140626839D01*
X204267446Y-140117722D01*
G37*
G36*
X205009908Y-138031757D02*
G01*
X205462457Y-138484306D01*
X204953340Y-138993423D01*
X204500791Y-138540874D01*
X205009908Y-138031757D01*
G37*
G36*
X206353411Y-139375260D02*
G01*
X206805960Y-139827809D01*
X206296843Y-140336926D01*
X205844294Y-139884377D01*
X206353411Y-139375260D01*
G37*
%TD*%
%TO.C,D57*%
G36*
X195528284Y-140099167D02*
G01*
X195980833Y-140551716D01*
X195471716Y-141060833D01*
X195019167Y-140608284D01*
X195528284Y-140099167D01*
G37*
G36*
X196270746Y-138013202D02*
G01*
X196723295Y-138465751D01*
X196214178Y-138974868D01*
X195761629Y-138522319D01*
X196270746Y-138013202D01*
G37*
G36*
X197614249Y-139356705D02*
G01*
X198066798Y-139809254D01*
X197557681Y-140318371D01*
X197105132Y-139865822D01*
X197614249Y-139356705D01*
G37*
%TD*%
%TO.C,D56*%
G36*
X256788623Y-126008605D02*
G01*
X257241172Y-126461154D01*
X256732055Y-126970271D01*
X256279506Y-126517722D01*
X256788623Y-126008605D01*
G37*
G36*
X257531085Y-123922640D02*
G01*
X257983634Y-124375189D01*
X257474517Y-124884306D01*
X257021968Y-124431757D01*
X257531085Y-123922640D01*
G37*
G36*
X258874588Y-125266143D02*
G01*
X259327137Y-125718692D01*
X258818020Y-126227809D01*
X258365471Y-125775260D01*
X258874588Y-125266143D01*
G37*
%TD*%
%TO.C,D55*%
G36*
X248058042Y-126020737D02*
G01*
X248510591Y-126473286D01*
X248001474Y-126982403D01*
X247548925Y-126529854D01*
X248058042Y-126020737D01*
G37*
G36*
X248800504Y-123934772D02*
G01*
X249253053Y-124387321D01*
X248743936Y-124896438D01*
X248291387Y-124443889D01*
X248800504Y-123934772D01*
G37*
G36*
X250144007Y-125278275D02*
G01*
X250596556Y-125730824D01*
X250087439Y-126239941D01*
X249634890Y-125787392D01*
X250144007Y-125278275D01*
G37*
%TD*%
%TO.C,D54*%
G36*
X239245155Y-126081290D02*
G01*
X239697704Y-126533839D01*
X239188587Y-127042956D01*
X238736038Y-126590407D01*
X239245155Y-126081290D01*
G37*
G36*
X239987617Y-123995325D02*
G01*
X240440166Y-124447874D01*
X239931049Y-124956991D01*
X239478500Y-124504442D01*
X239987617Y-123995325D01*
G37*
G36*
X241331120Y-125338828D02*
G01*
X241783669Y-125791377D01*
X241274552Y-126300494D01*
X240822003Y-125847945D01*
X241331120Y-125338828D01*
G37*
%TD*%
%TO.C,D53*%
G36*
X230552405Y-126051929D02*
G01*
X231004954Y-126504478D01*
X230495837Y-127013595D01*
X230043288Y-126561046D01*
X230552405Y-126051929D01*
G37*
G36*
X231294867Y-123965964D02*
G01*
X231747416Y-124418513D01*
X231238299Y-124927630D01*
X230785750Y-124475081D01*
X231294867Y-123965964D01*
G37*
G36*
X232638370Y-125309467D02*
G01*
X233090919Y-125762016D01*
X232581802Y-126271133D01*
X232129253Y-125818584D01*
X232638370Y-125309467D01*
G37*
%TD*%
%TO.C,D52*%
G36*
X221685536Y-126160148D02*
G01*
X222138085Y-126612697D01*
X221628968Y-127121814D01*
X221176419Y-126669265D01*
X221685536Y-126160148D01*
G37*
G36*
X222427998Y-124074183D02*
G01*
X222880547Y-124526732D01*
X222371430Y-125035849D01*
X221918881Y-124583300D01*
X222427998Y-124074183D01*
G37*
G36*
X223771501Y-125417686D02*
G01*
X224224050Y-125870235D01*
X223714933Y-126379352D01*
X223262384Y-125926803D01*
X223771501Y-125417686D01*
G37*
%TD*%
%TO.C,D51*%
G36*
X213029004Y-126090407D02*
G01*
X213481553Y-126542956D01*
X212972436Y-127052073D01*
X212519887Y-126599524D01*
X213029004Y-126090407D01*
G37*
G36*
X213771466Y-124004442D02*
G01*
X214224015Y-124456991D01*
X213714898Y-124966108D01*
X213262349Y-124513559D01*
X213771466Y-124004442D01*
G37*
G36*
X215114969Y-125347945D02*
G01*
X215567518Y-125800494D01*
X215058401Y-126309611D01*
X214605852Y-125857062D01*
X215114969Y-125347945D01*
G37*
%TD*%
%TO.C,D50*%
G36*
X204267446Y-126117722D02*
G01*
X204719995Y-126570271D01*
X204210878Y-127079388D01*
X203758329Y-126626839D01*
X204267446Y-126117722D01*
G37*
G36*
X205009908Y-124031757D02*
G01*
X205462457Y-124484306D01*
X204953340Y-124993423D01*
X204500791Y-124540874D01*
X205009908Y-124031757D01*
G37*
G36*
X206353411Y-125375260D02*
G01*
X206805960Y-125827809D01*
X206296843Y-126336926D01*
X205844294Y-125884377D01*
X206353411Y-125375260D01*
G37*
%TD*%
%TO.C,D49*%
G36*
X195528284Y-126099167D02*
G01*
X195980833Y-126551716D01*
X195471716Y-127060833D01*
X195019167Y-126608284D01*
X195528284Y-126099167D01*
G37*
G36*
X196270746Y-124013202D02*
G01*
X196723295Y-124465751D01*
X196214178Y-124974868D01*
X195761629Y-124522319D01*
X196270746Y-124013202D01*
G37*
G36*
X197614249Y-125356705D02*
G01*
X198066798Y-125809254D01*
X197557681Y-126318371D01*
X197105132Y-125865822D01*
X197614249Y-125356705D01*
G37*
%TD*%
%TO.C,D48*%
G36*
X256788623Y-112008605D02*
G01*
X257241172Y-112461154D01*
X256732055Y-112970271D01*
X256279506Y-112517722D01*
X256788623Y-112008605D01*
G37*
G36*
X257531085Y-109922640D02*
G01*
X257983634Y-110375189D01*
X257474517Y-110884306D01*
X257021968Y-110431757D01*
X257531085Y-109922640D01*
G37*
G36*
X258874588Y-111266143D02*
G01*
X259327137Y-111718692D01*
X258818020Y-112227809D01*
X258365471Y-111775260D01*
X258874588Y-111266143D01*
G37*
%TD*%
%TO.C,D47*%
G36*
X248058042Y-112020737D02*
G01*
X248510591Y-112473286D01*
X248001474Y-112982403D01*
X247548925Y-112529854D01*
X248058042Y-112020737D01*
G37*
G36*
X248800504Y-109934772D02*
G01*
X249253053Y-110387321D01*
X248743936Y-110896438D01*
X248291387Y-110443889D01*
X248800504Y-109934772D01*
G37*
G36*
X250144007Y-111278275D02*
G01*
X250596556Y-111730824D01*
X250087439Y-112239941D01*
X249634890Y-111787392D01*
X250144007Y-111278275D01*
G37*
%TD*%
%TO.C,D46*%
G36*
X239245155Y-112081290D02*
G01*
X239697704Y-112533839D01*
X239188587Y-113042956D01*
X238736038Y-112590407D01*
X239245155Y-112081290D01*
G37*
G36*
X239987617Y-109995325D02*
G01*
X240440166Y-110447874D01*
X239931049Y-110956991D01*
X239478500Y-110504442D01*
X239987617Y-109995325D01*
G37*
G36*
X241331120Y-111338828D02*
G01*
X241783669Y-111791377D01*
X241274552Y-112300494D01*
X240822003Y-111847945D01*
X241331120Y-111338828D01*
G37*
%TD*%
%TO.C,D45*%
G36*
X230552405Y-112051929D02*
G01*
X231004954Y-112504478D01*
X230495837Y-113013595D01*
X230043288Y-112561046D01*
X230552405Y-112051929D01*
G37*
G36*
X231294867Y-109965964D02*
G01*
X231747416Y-110418513D01*
X231238299Y-110927630D01*
X230785750Y-110475081D01*
X231294867Y-109965964D01*
G37*
G36*
X232638370Y-111309467D02*
G01*
X233090919Y-111762016D01*
X232581802Y-112271133D01*
X232129253Y-111818584D01*
X232638370Y-111309467D01*
G37*
%TD*%
%TO.C,D44*%
G36*
X221685536Y-112160148D02*
G01*
X222138085Y-112612697D01*
X221628968Y-113121814D01*
X221176419Y-112669265D01*
X221685536Y-112160148D01*
G37*
G36*
X222427998Y-110074183D02*
G01*
X222880547Y-110526732D01*
X222371430Y-111035849D01*
X221918881Y-110583300D01*
X222427998Y-110074183D01*
G37*
G36*
X223771501Y-111417686D02*
G01*
X224224050Y-111870235D01*
X223714933Y-112379352D01*
X223262384Y-111926803D01*
X223771501Y-111417686D01*
G37*
%TD*%
%TO.C,D43*%
G36*
X213029004Y-112090407D02*
G01*
X213481553Y-112542956D01*
X212972436Y-113052073D01*
X212519887Y-112599524D01*
X213029004Y-112090407D01*
G37*
G36*
X213771466Y-110004442D02*
G01*
X214224015Y-110456991D01*
X213714898Y-110966108D01*
X213262349Y-110513559D01*
X213771466Y-110004442D01*
G37*
G36*
X215114969Y-111347945D02*
G01*
X215567518Y-111800494D01*
X215058401Y-112309611D01*
X214605852Y-111857062D01*
X215114969Y-111347945D01*
G37*
%TD*%
%TO.C,D42*%
G36*
X204267446Y-112117722D02*
G01*
X204719995Y-112570271D01*
X204210878Y-113079388D01*
X203758329Y-112626839D01*
X204267446Y-112117722D01*
G37*
G36*
X205009908Y-110031757D02*
G01*
X205462457Y-110484306D01*
X204953340Y-110993423D01*
X204500791Y-110540874D01*
X205009908Y-110031757D01*
G37*
G36*
X206353411Y-111375260D02*
G01*
X206805960Y-111827809D01*
X206296843Y-112336926D01*
X205844294Y-111884377D01*
X206353411Y-111375260D01*
G37*
%TD*%
%TO.C,D41*%
G36*
X195528284Y-112099167D02*
G01*
X195980833Y-112551716D01*
X195471716Y-113060833D01*
X195019167Y-112608284D01*
X195528284Y-112099167D01*
G37*
G36*
X196270746Y-110013202D02*
G01*
X196723295Y-110465751D01*
X196214178Y-110974868D01*
X195761629Y-110522319D01*
X196270746Y-110013202D01*
G37*
G36*
X197614249Y-111356705D02*
G01*
X198066798Y-111809254D01*
X197557681Y-112318371D01*
X197105132Y-111865822D01*
X197614249Y-111356705D01*
G37*
%TD*%
%TO.C,D40*%
G36*
X256788623Y-98008605D02*
G01*
X257241172Y-98461154D01*
X256732055Y-98970271D01*
X256279506Y-98517722D01*
X256788623Y-98008605D01*
G37*
G36*
X257531085Y-95922640D02*
G01*
X257983634Y-96375189D01*
X257474517Y-96884306D01*
X257021968Y-96431757D01*
X257531085Y-95922640D01*
G37*
G36*
X258874588Y-97266143D02*
G01*
X259327137Y-97718692D01*
X258818020Y-98227809D01*
X258365471Y-97775260D01*
X258874588Y-97266143D01*
G37*
%TD*%
%TO.C,D39*%
G36*
X248058042Y-98020737D02*
G01*
X248510591Y-98473286D01*
X248001474Y-98982403D01*
X247548925Y-98529854D01*
X248058042Y-98020737D01*
G37*
G36*
X248800504Y-95934772D02*
G01*
X249253053Y-96387321D01*
X248743936Y-96896438D01*
X248291387Y-96443889D01*
X248800504Y-95934772D01*
G37*
G36*
X250144007Y-97278275D02*
G01*
X250596556Y-97730824D01*
X250087439Y-98239941D01*
X249634890Y-97787392D01*
X250144007Y-97278275D01*
G37*
%TD*%
%TO.C,D38*%
G36*
X239245155Y-98081290D02*
G01*
X239697704Y-98533839D01*
X239188587Y-99042956D01*
X238736038Y-98590407D01*
X239245155Y-98081290D01*
G37*
G36*
X239987617Y-95995325D02*
G01*
X240440166Y-96447874D01*
X239931049Y-96956991D01*
X239478500Y-96504442D01*
X239987617Y-95995325D01*
G37*
G36*
X241331120Y-97338828D02*
G01*
X241783669Y-97791377D01*
X241274552Y-98300494D01*
X240822003Y-97847945D01*
X241331120Y-97338828D01*
G37*
%TD*%
%TO.C,D37*%
G36*
X230552405Y-98051929D02*
G01*
X231004954Y-98504478D01*
X230495837Y-99013595D01*
X230043288Y-98561046D01*
X230552405Y-98051929D01*
G37*
G36*
X231294867Y-95965964D02*
G01*
X231747416Y-96418513D01*
X231238299Y-96927630D01*
X230785750Y-96475081D01*
X231294867Y-95965964D01*
G37*
G36*
X232638370Y-97309467D02*
G01*
X233090919Y-97762016D01*
X232581802Y-98271133D01*
X232129253Y-97818584D01*
X232638370Y-97309467D01*
G37*
%TD*%
%TO.C,D36*%
G36*
X221685536Y-98160148D02*
G01*
X222138085Y-98612697D01*
X221628968Y-99121814D01*
X221176419Y-98669265D01*
X221685536Y-98160148D01*
G37*
G36*
X222427998Y-96074183D02*
G01*
X222880547Y-96526732D01*
X222371430Y-97035849D01*
X221918881Y-96583300D01*
X222427998Y-96074183D01*
G37*
G36*
X223771501Y-97417686D02*
G01*
X224224050Y-97870235D01*
X223714933Y-98379352D01*
X223262384Y-97926803D01*
X223771501Y-97417686D01*
G37*
%TD*%
%TO.C,D35*%
G36*
X213029004Y-98090407D02*
G01*
X213481553Y-98542956D01*
X212972436Y-99052073D01*
X212519887Y-98599524D01*
X213029004Y-98090407D01*
G37*
G36*
X213771466Y-96004442D02*
G01*
X214224015Y-96456991D01*
X213714898Y-96966108D01*
X213262349Y-96513559D01*
X213771466Y-96004442D01*
G37*
G36*
X215114969Y-97347945D02*
G01*
X215567518Y-97800494D01*
X215058401Y-98309611D01*
X214605852Y-97857062D01*
X215114969Y-97347945D01*
G37*
%TD*%
%TO.C,D34*%
G36*
X204267446Y-98117722D02*
G01*
X204719995Y-98570271D01*
X204210878Y-99079388D01*
X203758329Y-98626839D01*
X204267446Y-98117722D01*
G37*
G36*
X205009908Y-96031757D02*
G01*
X205462457Y-96484306D01*
X204953340Y-96993423D01*
X204500791Y-96540874D01*
X205009908Y-96031757D01*
G37*
G36*
X206353411Y-97375260D02*
G01*
X206805960Y-97827809D01*
X206296843Y-98336926D01*
X205844294Y-97884377D01*
X206353411Y-97375260D01*
G37*
%TD*%
%TO.C,D33*%
G36*
X195528284Y-98099167D02*
G01*
X195980833Y-98551716D01*
X195471716Y-99060833D01*
X195019167Y-98608284D01*
X195528284Y-98099167D01*
G37*
G36*
X196270746Y-96013202D02*
G01*
X196723295Y-96465751D01*
X196214178Y-96974868D01*
X195761629Y-96522319D01*
X196270746Y-96013202D01*
G37*
G36*
X197614249Y-97356705D02*
G01*
X198066798Y-97809254D01*
X197557681Y-98318371D01*
X197105132Y-97865822D01*
X197614249Y-97356705D01*
G37*
%TD*%
%TO.C,D32*%
G36*
X256788623Y-84008605D02*
G01*
X257241172Y-84461154D01*
X256732055Y-84970271D01*
X256279506Y-84517722D01*
X256788623Y-84008605D01*
G37*
G36*
X257531085Y-81922640D02*
G01*
X257983634Y-82375189D01*
X257474517Y-82884306D01*
X257021968Y-82431757D01*
X257531085Y-81922640D01*
G37*
G36*
X258874588Y-83266143D02*
G01*
X259327137Y-83718692D01*
X258818020Y-84227809D01*
X258365471Y-83775260D01*
X258874588Y-83266143D01*
G37*
%TD*%
%TO.C,D31*%
G36*
X248058042Y-84020737D02*
G01*
X248510591Y-84473286D01*
X248001474Y-84982403D01*
X247548925Y-84529854D01*
X248058042Y-84020737D01*
G37*
G36*
X248800504Y-81934772D02*
G01*
X249253053Y-82387321D01*
X248743936Y-82896438D01*
X248291387Y-82443889D01*
X248800504Y-81934772D01*
G37*
G36*
X250144007Y-83278275D02*
G01*
X250596556Y-83730824D01*
X250087439Y-84239941D01*
X249634890Y-83787392D01*
X250144007Y-83278275D01*
G37*
%TD*%
%TO.C,D30*%
G36*
X239245155Y-84081290D02*
G01*
X239697704Y-84533839D01*
X239188587Y-85042956D01*
X238736038Y-84590407D01*
X239245155Y-84081290D01*
G37*
G36*
X239987617Y-81995325D02*
G01*
X240440166Y-82447874D01*
X239931049Y-82956991D01*
X239478500Y-82504442D01*
X239987617Y-81995325D01*
G37*
G36*
X241331120Y-83338828D02*
G01*
X241783669Y-83791377D01*
X241274552Y-84300494D01*
X240822003Y-83847945D01*
X241331120Y-83338828D01*
G37*
%TD*%
%TO.C,D29*%
G36*
X230552405Y-84051929D02*
G01*
X231004954Y-84504478D01*
X230495837Y-85013595D01*
X230043288Y-84561046D01*
X230552405Y-84051929D01*
G37*
G36*
X231294867Y-81965964D02*
G01*
X231747416Y-82418513D01*
X231238299Y-82927630D01*
X230785750Y-82475081D01*
X231294867Y-81965964D01*
G37*
G36*
X232638370Y-83309467D02*
G01*
X233090919Y-83762016D01*
X232581802Y-84271133D01*
X232129253Y-83818584D01*
X232638370Y-83309467D01*
G37*
%TD*%
%TO.C,D28*%
G36*
X221685536Y-84160148D02*
G01*
X222138085Y-84612697D01*
X221628968Y-85121814D01*
X221176419Y-84669265D01*
X221685536Y-84160148D01*
G37*
G36*
X222427998Y-82074183D02*
G01*
X222880547Y-82526732D01*
X222371430Y-83035849D01*
X221918881Y-82583300D01*
X222427998Y-82074183D01*
G37*
G36*
X223771501Y-83417686D02*
G01*
X224224050Y-83870235D01*
X223714933Y-84379352D01*
X223262384Y-83926803D01*
X223771501Y-83417686D01*
G37*
%TD*%
%TO.C,D27*%
G36*
X213029004Y-84090407D02*
G01*
X213481553Y-84542956D01*
X212972436Y-85052073D01*
X212519887Y-84599524D01*
X213029004Y-84090407D01*
G37*
G36*
X213771466Y-82004442D02*
G01*
X214224015Y-82456991D01*
X213714898Y-82966108D01*
X213262349Y-82513559D01*
X213771466Y-82004442D01*
G37*
G36*
X215114969Y-83347945D02*
G01*
X215567518Y-83800494D01*
X215058401Y-84309611D01*
X214605852Y-83857062D01*
X215114969Y-83347945D01*
G37*
%TD*%
%TO.C,D26*%
G36*
X204267446Y-84117722D02*
G01*
X204719995Y-84570271D01*
X204210878Y-85079388D01*
X203758329Y-84626839D01*
X204267446Y-84117722D01*
G37*
G36*
X205009908Y-82031757D02*
G01*
X205462457Y-82484306D01*
X204953340Y-82993423D01*
X204500791Y-82540874D01*
X205009908Y-82031757D01*
G37*
G36*
X206353411Y-83375260D02*
G01*
X206805960Y-83827809D01*
X206296843Y-84336926D01*
X205844294Y-83884377D01*
X206353411Y-83375260D01*
G37*
%TD*%
%TO.C,D25*%
G36*
X195528284Y-84099167D02*
G01*
X195980833Y-84551716D01*
X195471716Y-85060833D01*
X195019167Y-84608284D01*
X195528284Y-84099167D01*
G37*
G36*
X196270746Y-82013202D02*
G01*
X196723295Y-82465751D01*
X196214178Y-82974868D01*
X195761629Y-82522319D01*
X196270746Y-82013202D01*
G37*
G36*
X197614249Y-83356705D02*
G01*
X198066798Y-83809254D01*
X197557681Y-84318371D01*
X197105132Y-83865822D01*
X197614249Y-83356705D01*
G37*
%TD*%
%TO.C,D24*%
G36*
X256788623Y-70008605D02*
G01*
X257241172Y-70461154D01*
X256732055Y-70970271D01*
X256279506Y-70517722D01*
X256788623Y-70008605D01*
G37*
G36*
X257531085Y-67922640D02*
G01*
X257983634Y-68375189D01*
X257474517Y-68884306D01*
X257021968Y-68431757D01*
X257531085Y-67922640D01*
G37*
G36*
X258874588Y-69266143D02*
G01*
X259327137Y-69718692D01*
X258818020Y-70227809D01*
X258365471Y-69775260D01*
X258874588Y-69266143D01*
G37*
%TD*%
%TO.C,D23*%
G36*
X248058042Y-70020737D02*
G01*
X248510591Y-70473286D01*
X248001474Y-70982403D01*
X247548925Y-70529854D01*
X248058042Y-70020737D01*
G37*
G36*
X248800504Y-67934772D02*
G01*
X249253053Y-68387321D01*
X248743936Y-68896438D01*
X248291387Y-68443889D01*
X248800504Y-67934772D01*
G37*
G36*
X250144007Y-69278275D02*
G01*
X250596556Y-69730824D01*
X250087439Y-70239941D01*
X249634890Y-69787392D01*
X250144007Y-69278275D01*
G37*
%TD*%
%TO.C,D22*%
G36*
X239245155Y-70081290D02*
G01*
X239697704Y-70533839D01*
X239188587Y-71042956D01*
X238736038Y-70590407D01*
X239245155Y-70081290D01*
G37*
G36*
X239987617Y-67995325D02*
G01*
X240440166Y-68447874D01*
X239931049Y-68956991D01*
X239478500Y-68504442D01*
X239987617Y-67995325D01*
G37*
G36*
X241331120Y-69338828D02*
G01*
X241783669Y-69791377D01*
X241274552Y-70300494D01*
X240822003Y-69847945D01*
X241331120Y-69338828D01*
G37*
%TD*%
%TO.C,D21*%
G36*
X230552405Y-70051929D02*
G01*
X231004954Y-70504478D01*
X230495837Y-71013595D01*
X230043288Y-70561046D01*
X230552405Y-70051929D01*
G37*
G36*
X231294867Y-67965964D02*
G01*
X231747416Y-68418513D01*
X231238299Y-68927630D01*
X230785750Y-68475081D01*
X231294867Y-67965964D01*
G37*
G36*
X232638370Y-69309467D02*
G01*
X233090919Y-69762016D01*
X232581802Y-70271133D01*
X232129253Y-69818584D01*
X232638370Y-69309467D01*
G37*
%TD*%
%TO.C,D20*%
G36*
X221685536Y-70160148D02*
G01*
X222138085Y-70612697D01*
X221628968Y-71121814D01*
X221176419Y-70669265D01*
X221685536Y-70160148D01*
G37*
G36*
X222427998Y-68074183D02*
G01*
X222880547Y-68526732D01*
X222371430Y-69035849D01*
X221918881Y-68583300D01*
X222427998Y-68074183D01*
G37*
G36*
X223771501Y-69417686D02*
G01*
X224224050Y-69870235D01*
X223714933Y-70379352D01*
X223262384Y-69926803D01*
X223771501Y-69417686D01*
G37*
%TD*%
%TO.C,D19*%
G36*
X213029004Y-70090407D02*
G01*
X213481553Y-70542956D01*
X212972436Y-71052073D01*
X212519887Y-70599524D01*
X213029004Y-70090407D01*
G37*
G36*
X213771466Y-68004442D02*
G01*
X214224015Y-68456991D01*
X213714898Y-68966108D01*
X213262349Y-68513559D01*
X213771466Y-68004442D01*
G37*
G36*
X215114969Y-69347945D02*
G01*
X215567518Y-69800494D01*
X215058401Y-70309611D01*
X214605852Y-69857062D01*
X215114969Y-69347945D01*
G37*
%TD*%
%TO.C,D18*%
G36*
X204267446Y-70117722D02*
G01*
X204719995Y-70570271D01*
X204210878Y-71079388D01*
X203758329Y-70626839D01*
X204267446Y-70117722D01*
G37*
G36*
X205009908Y-68031757D02*
G01*
X205462457Y-68484306D01*
X204953340Y-68993423D01*
X204500791Y-68540874D01*
X205009908Y-68031757D01*
G37*
G36*
X206353411Y-69375260D02*
G01*
X206805960Y-69827809D01*
X206296843Y-70336926D01*
X205844294Y-69884377D01*
X206353411Y-69375260D01*
G37*
%TD*%
%TO.C,D17*%
G36*
X195528284Y-70099167D02*
G01*
X195980833Y-70551716D01*
X195471716Y-71060833D01*
X195019167Y-70608284D01*
X195528284Y-70099167D01*
G37*
G36*
X196270746Y-68013202D02*
G01*
X196723295Y-68465751D01*
X196214178Y-68974868D01*
X195761629Y-68522319D01*
X196270746Y-68013202D01*
G37*
G36*
X197614249Y-69356705D02*
G01*
X198066798Y-69809254D01*
X197557681Y-70318371D01*
X197105132Y-69865822D01*
X197614249Y-69356705D01*
G37*
%TD*%
%TO.C,D16*%
G36*
X256788623Y-55708605D02*
G01*
X257241172Y-56161154D01*
X256732055Y-56670271D01*
X256279506Y-56217722D01*
X256788623Y-55708605D01*
G37*
G36*
X257531085Y-53622640D02*
G01*
X257983634Y-54075189D01*
X257474517Y-54584306D01*
X257021968Y-54131757D01*
X257531085Y-53622640D01*
G37*
G36*
X258874588Y-54966143D02*
G01*
X259327137Y-55418692D01*
X258818020Y-55927809D01*
X258365471Y-55475260D01*
X258874588Y-54966143D01*
G37*
%TD*%
%TO.C,D15*%
G36*
X248058042Y-55720737D02*
G01*
X248510591Y-56173286D01*
X248001474Y-56682403D01*
X247548925Y-56229854D01*
X248058042Y-55720737D01*
G37*
G36*
X248800504Y-53634772D02*
G01*
X249253053Y-54087321D01*
X248743936Y-54596438D01*
X248291387Y-54143889D01*
X248800504Y-53634772D01*
G37*
G36*
X250144007Y-54978275D02*
G01*
X250596556Y-55430824D01*
X250087439Y-55939941D01*
X249634890Y-55487392D01*
X250144007Y-54978275D01*
G37*
%TD*%
%TO.C,D14*%
G36*
X239245155Y-55781290D02*
G01*
X239697704Y-56233839D01*
X239188587Y-56742956D01*
X238736038Y-56290407D01*
X239245155Y-55781290D01*
G37*
G36*
X239987617Y-53695325D02*
G01*
X240440166Y-54147874D01*
X239931049Y-54656991D01*
X239478500Y-54204442D01*
X239987617Y-53695325D01*
G37*
G36*
X241331120Y-55038828D02*
G01*
X241783669Y-55491377D01*
X241274552Y-56000494D01*
X240822003Y-55547945D01*
X241331120Y-55038828D01*
G37*
%TD*%
%TO.C,D13*%
G36*
X230552405Y-55751929D02*
G01*
X231004954Y-56204478D01*
X230495837Y-56713595D01*
X230043288Y-56261046D01*
X230552405Y-55751929D01*
G37*
G36*
X231294867Y-53665964D02*
G01*
X231747416Y-54118513D01*
X231238299Y-54627630D01*
X230785750Y-54175081D01*
X231294867Y-53665964D01*
G37*
G36*
X232638370Y-55009467D02*
G01*
X233090919Y-55462016D01*
X232581802Y-55971133D01*
X232129253Y-55518584D01*
X232638370Y-55009467D01*
G37*
%TD*%
%TO.C,D12*%
G36*
X221685536Y-55860148D02*
G01*
X222138085Y-56312697D01*
X221628968Y-56821814D01*
X221176419Y-56369265D01*
X221685536Y-55860148D01*
G37*
G36*
X222427998Y-53774183D02*
G01*
X222880547Y-54226732D01*
X222371430Y-54735849D01*
X221918881Y-54283300D01*
X222427998Y-53774183D01*
G37*
G36*
X223771501Y-55117686D02*
G01*
X224224050Y-55570235D01*
X223714933Y-56079352D01*
X223262384Y-55626803D01*
X223771501Y-55117686D01*
G37*
%TD*%
%TO.C,D11*%
G36*
X213029004Y-55790407D02*
G01*
X213481553Y-56242956D01*
X212972436Y-56752073D01*
X212519887Y-56299524D01*
X213029004Y-55790407D01*
G37*
G36*
X213771466Y-53704442D02*
G01*
X214224015Y-54156991D01*
X213714898Y-54666108D01*
X213262349Y-54213559D01*
X213771466Y-53704442D01*
G37*
G36*
X215114969Y-55047945D02*
G01*
X215567518Y-55500494D01*
X215058401Y-56009611D01*
X214605852Y-55557062D01*
X215114969Y-55047945D01*
G37*
%TD*%
%TO.C,D10*%
G36*
X204267446Y-55817722D02*
G01*
X204719995Y-56270271D01*
X204210878Y-56779388D01*
X203758329Y-56326839D01*
X204267446Y-55817722D01*
G37*
G36*
X205009908Y-53731757D02*
G01*
X205462457Y-54184306D01*
X204953340Y-54693423D01*
X204500791Y-54240874D01*
X205009908Y-53731757D01*
G37*
G36*
X206353411Y-55075260D02*
G01*
X206805960Y-55527809D01*
X206296843Y-56036926D01*
X205844294Y-55584377D01*
X206353411Y-55075260D01*
G37*
%TD*%
%TO.C,D9*%
G36*
X195528284Y-55799167D02*
G01*
X195980833Y-56251716D01*
X195471716Y-56760833D01*
X195019167Y-56308284D01*
X195528284Y-55799167D01*
G37*
G36*
X196270746Y-53713202D02*
G01*
X196723295Y-54165751D01*
X196214178Y-54674868D01*
X195761629Y-54222319D01*
X196270746Y-53713202D01*
G37*
G36*
X197614249Y-55056705D02*
G01*
X198066798Y-55509254D01*
X197557681Y-56018371D01*
X197105132Y-55565822D01*
X197614249Y-55056705D01*
G37*
%TD*%
%TO.C,U8*%
G36*
G01*
X182305000Y-142005000D02*
X182305000Y-142245000D01*
G75*
G02*
X182185000Y-142365000I-120000J0D01*
G01*
X180865000Y-142365000D01*
G75*
G02*
X180745000Y-142245000I0J120000D01*
G01*
X180745000Y-142005000D01*
G75*
G02*
X180865000Y-141885000I120000J0D01*
G01*
X182185000Y-141885000D01*
G75*
G02*
X182305000Y-142005000I0J-120000D01*
G01*
G37*
G36*
G01*
X182305000Y-140735000D02*
X182305000Y-140975000D01*
G75*
G02*
X182185000Y-141095000I-120000J0D01*
G01*
X180865000Y-141095000D01*
G75*
G02*
X180745000Y-140975000I0J120000D01*
G01*
X180745000Y-140735000D01*
G75*
G02*
X180865000Y-140615000I120000J0D01*
G01*
X182185000Y-140615000D01*
G75*
G02*
X182305000Y-140735000I0J-120000D01*
G01*
G37*
G36*
G01*
X182305000Y-139465000D02*
X182305000Y-139705000D01*
G75*
G02*
X182185000Y-139825000I-120000J0D01*
G01*
X180865000Y-139825000D01*
G75*
G02*
X180745000Y-139705000I0J120000D01*
G01*
X180745000Y-139465000D01*
G75*
G02*
X180865000Y-139345000I120000J0D01*
G01*
X182185000Y-139345000D01*
G75*
G02*
X182305000Y-139465000I0J-120000D01*
G01*
G37*
G36*
G01*
X182305000Y-138195000D02*
X182305000Y-138435000D01*
G75*
G02*
X182185000Y-138555000I-120000J0D01*
G01*
X180865000Y-138555000D01*
G75*
G02*
X180745000Y-138435000I0J120000D01*
G01*
X180745000Y-138195000D01*
G75*
G02*
X180865000Y-138075000I120000J0D01*
G01*
X182185000Y-138075000D01*
G75*
G02*
X182305000Y-138195000I0J-120000D01*
G01*
G37*
G36*
G01*
X182305000Y-136925000D02*
X182305000Y-137165000D01*
G75*
G02*
X182185000Y-137285000I-120000J0D01*
G01*
X180865000Y-137285000D01*
G75*
G02*
X180745000Y-137165000I0J120000D01*
G01*
X180745000Y-136925000D01*
G75*
G02*
X180865000Y-136805000I120000J0D01*
G01*
X182185000Y-136805000D01*
G75*
G02*
X182305000Y-136925000I0J-120000D01*
G01*
G37*
G36*
G01*
X182305000Y-135655000D02*
X182305000Y-135895000D01*
G75*
G02*
X182185000Y-136015000I-120000J0D01*
G01*
X180865000Y-136015000D01*
G75*
G02*
X180745000Y-135895000I0J120000D01*
G01*
X180745000Y-135655000D01*
G75*
G02*
X180865000Y-135535000I120000J0D01*
G01*
X182185000Y-135535000D01*
G75*
G02*
X182305000Y-135655000I0J-120000D01*
G01*
G37*
G36*
G01*
X182305000Y-134385000D02*
X182305000Y-134625000D01*
G75*
G02*
X182185000Y-134745000I-120000J0D01*
G01*
X180865000Y-134745000D01*
G75*
G02*
X180745000Y-134625000I0J120000D01*
G01*
X180745000Y-134385000D01*
G75*
G02*
X180865000Y-134265000I120000J0D01*
G01*
X182185000Y-134265000D01*
G75*
G02*
X182305000Y-134385000I0J-120000D01*
G01*
G37*
G36*
G01*
X182305000Y-133115000D02*
X182305000Y-133355000D01*
G75*
G02*
X182185000Y-133475000I-120000J0D01*
G01*
X180865000Y-133475000D01*
G75*
G02*
X180745000Y-133355000I0J120000D01*
G01*
X180745000Y-133115000D01*
G75*
G02*
X180865000Y-132995000I120000J0D01*
G01*
X182185000Y-132995000D01*
G75*
G02*
X182305000Y-133115000I0J-120000D01*
G01*
G37*
G36*
G01*
X187255000Y-133115000D02*
X187255000Y-133355000D01*
G75*
G02*
X187135000Y-133475000I-120000J0D01*
G01*
X185815000Y-133475000D01*
G75*
G02*
X185695000Y-133355000I0J120000D01*
G01*
X185695000Y-133115000D01*
G75*
G02*
X185815000Y-132995000I120000J0D01*
G01*
X187135000Y-132995000D01*
G75*
G02*
X187255000Y-133115000I0J-120000D01*
G01*
G37*
G36*
G01*
X187255000Y-134385000D02*
X187255000Y-134625000D01*
G75*
G02*
X187135000Y-134745000I-120000J0D01*
G01*
X185815000Y-134745000D01*
G75*
G02*
X185695000Y-134625000I0J120000D01*
G01*
X185695000Y-134385000D01*
G75*
G02*
X185815000Y-134265000I120000J0D01*
G01*
X187135000Y-134265000D01*
G75*
G02*
X187255000Y-134385000I0J-120000D01*
G01*
G37*
G36*
G01*
X187255000Y-135655000D02*
X187255000Y-135895000D01*
G75*
G02*
X187135000Y-136015000I-120000J0D01*
G01*
X185815000Y-136015000D01*
G75*
G02*
X185695000Y-135895000I0J120000D01*
G01*
X185695000Y-135655000D01*
G75*
G02*
X185815000Y-135535000I120000J0D01*
G01*
X187135000Y-135535000D01*
G75*
G02*
X187255000Y-135655000I0J-120000D01*
G01*
G37*
G36*
G01*
X187255000Y-136925000D02*
X187255000Y-137165000D01*
G75*
G02*
X187135000Y-137285000I-120000J0D01*
G01*
X185815000Y-137285000D01*
G75*
G02*
X185695000Y-137165000I0J120000D01*
G01*
X185695000Y-136925000D01*
G75*
G02*
X185815000Y-136805000I120000J0D01*
G01*
X187135000Y-136805000D01*
G75*
G02*
X187255000Y-136925000I0J-120000D01*
G01*
G37*
G36*
G01*
X187255000Y-138195000D02*
X187255000Y-138435000D01*
G75*
G02*
X187135000Y-138555000I-120000J0D01*
G01*
X185815000Y-138555000D01*
G75*
G02*
X185695000Y-138435000I0J120000D01*
G01*
X185695000Y-138195000D01*
G75*
G02*
X185815000Y-138075000I120000J0D01*
G01*
X187135000Y-138075000D01*
G75*
G02*
X187255000Y-138195000I0J-120000D01*
G01*
G37*
G36*
G01*
X187255000Y-139465000D02*
X187255000Y-139705000D01*
G75*
G02*
X187135000Y-139825000I-120000J0D01*
G01*
X185815000Y-139825000D01*
G75*
G02*
X185695000Y-139705000I0J120000D01*
G01*
X185695000Y-139465000D01*
G75*
G02*
X185815000Y-139345000I120000J0D01*
G01*
X187135000Y-139345000D01*
G75*
G02*
X187255000Y-139465000I0J-120000D01*
G01*
G37*
G36*
G01*
X187255000Y-140735000D02*
X187255000Y-140975000D01*
G75*
G02*
X187135000Y-141095000I-120000J0D01*
G01*
X185815000Y-141095000D01*
G75*
G02*
X185695000Y-140975000I0J120000D01*
G01*
X185695000Y-140735000D01*
G75*
G02*
X185815000Y-140615000I120000J0D01*
G01*
X187135000Y-140615000D01*
G75*
G02*
X187255000Y-140735000I0J-120000D01*
G01*
G37*
G36*
G01*
X187255000Y-142005000D02*
X187255000Y-142245000D01*
G75*
G02*
X187135000Y-142365000I-120000J0D01*
G01*
X185815000Y-142365000D01*
G75*
G02*
X185695000Y-142245000I0J120000D01*
G01*
X185695000Y-142005000D01*
G75*
G02*
X185815000Y-141885000I120000J0D01*
G01*
X187135000Y-141885000D01*
G75*
G02*
X187255000Y-142005000I0J-120000D01*
G01*
G37*
%TD*%
%TO.C,U7*%
G36*
G01*
X182305000Y-128005000D02*
X182305000Y-128245000D01*
G75*
G02*
X182185000Y-128365000I-120000J0D01*
G01*
X180865000Y-128365000D01*
G75*
G02*
X180745000Y-128245000I0J120000D01*
G01*
X180745000Y-128005000D01*
G75*
G02*
X180865000Y-127885000I120000J0D01*
G01*
X182185000Y-127885000D01*
G75*
G02*
X182305000Y-128005000I0J-120000D01*
G01*
G37*
G36*
G01*
X182305000Y-126735000D02*
X182305000Y-126975000D01*
G75*
G02*
X182185000Y-127095000I-120000J0D01*
G01*
X180865000Y-127095000D01*
G75*
G02*
X180745000Y-126975000I0J120000D01*
G01*
X180745000Y-126735000D01*
G75*
G02*
X180865000Y-126615000I120000J0D01*
G01*
X182185000Y-126615000D01*
G75*
G02*
X182305000Y-126735000I0J-120000D01*
G01*
G37*
G36*
G01*
X182305000Y-125465000D02*
X182305000Y-125705000D01*
G75*
G02*
X182185000Y-125825000I-120000J0D01*
G01*
X180865000Y-125825000D01*
G75*
G02*
X180745000Y-125705000I0J120000D01*
G01*
X180745000Y-125465000D01*
G75*
G02*
X180865000Y-125345000I120000J0D01*
G01*
X182185000Y-125345000D01*
G75*
G02*
X182305000Y-125465000I0J-120000D01*
G01*
G37*
G36*
G01*
X182305000Y-124195000D02*
X182305000Y-124435000D01*
G75*
G02*
X182185000Y-124555000I-120000J0D01*
G01*
X180865000Y-124555000D01*
G75*
G02*
X180745000Y-124435000I0J120000D01*
G01*
X180745000Y-124195000D01*
G75*
G02*
X180865000Y-124075000I120000J0D01*
G01*
X182185000Y-124075000D01*
G75*
G02*
X182305000Y-124195000I0J-120000D01*
G01*
G37*
G36*
G01*
X182305000Y-122925000D02*
X182305000Y-123165000D01*
G75*
G02*
X182185000Y-123285000I-120000J0D01*
G01*
X180865000Y-123285000D01*
G75*
G02*
X180745000Y-123165000I0J120000D01*
G01*
X180745000Y-122925000D01*
G75*
G02*
X180865000Y-122805000I120000J0D01*
G01*
X182185000Y-122805000D01*
G75*
G02*
X182305000Y-122925000I0J-120000D01*
G01*
G37*
G36*
G01*
X182305000Y-121655000D02*
X182305000Y-121895000D01*
G75*
G02*
X182185000Y-122015000I-120000J0D01*
G01*
X180865000Y-122015000D01*
G75*
G02*
X180745000Y-121895000I0J120000D01*
G01*
X180745000Y-121655000D01*
G75*
G02*
X180865000Y-121535000I120000J0D01*
G01*
X182185000Y-121535000D01*
G75*
G02*
X182305000Y-121655000I0J-120000D01*
G01*
G37*
G36*
G01*
X182305000Y-120385000D02*
X182305000Y-120625000D01*
G75*
G02*
X182185000Y-120745000I-120000J0D01*
G01*
X180865000Y-120745000D01*
G75*
G02*
X180745000Y-120625000I0J120000D01*
G01*
X180745000Y-120385000D01*
G75*
G02*
X180865000Y-120265000I120000J0D01*
G01*
X182185000Y-120265000D01*
G75*
G02*
X182305000Y-120385000I0J-120000D01*
G01*
G37*
G36*
G01*
X182305000Y-119115000D02*
X182305000Y-119355000D01*
G75*
G02*
X182185000Y-119475000I-120000J0D01*
G01*
X180865000Y-119475000D01*
G75*
G02*
X180745000Y-119355000I0J120000D01*
G01*
X180745000Y-119115000D01*
G75*
G02*
X180865000Y-118995000I120000J0D01*
G01*
X182185000Y-118995000D01*
G75*
G02*
X182305000Y-119115000I0J-120000D01*
G01*
G37*
G36*
G01*
X187255000Y-119115000D02*
X187255000Y-119355000D01*
G75*
G02*
X187135000Y-119475000I-120000J0D01*
G01*
X185815000Y-119475000D01*
G75*
G02*
X185695000Y-119355000I0J120000D01*
G01*
X185695000Y-119115000D01*
G75*
G02*
X185815000Y-118995000I120000J0D01*
G01*
X187135000Y-118995000D01*
G75*
G02*
X187255000Y-119115000I0J-120000D01*
G01*
G37*
G36*
G01*
X187255000Y-120385000D02*
X187255000Y-120625000D01*
G75*
G02*
X187135000Y-120745000I-120000J0D01*
G01*
X185815000Y-120745000D01*
G75*
G02*
X185695000Y-120625000I0J120000D01*
G01*
X185695000Y-120385000D01*
G75*
G02*
X185815000Y-120265000I120000J0D01*
G01*
X187135000Y-120265000D01*
G75*
G02*
X187255000Y-120385000I0J-120000D01*
G01*
G37*
G36*
G01*
X187255000Y-121655000D02*
X187255000Y-121895000D01*
G75*
G02*
X187135000Y-122015000I-120000J0D01*
G01*
X185815000Y-122015000D01*
G75*
G02*
X185695000Y-121895000I0J120000D01*
G01*
X185695000Y-121655000D01*
G75*
G02*
X185815000Y-121535000I120000J0D01*
G01*
X187135000Y-121535000D01*
G75*
G02*
X187255000Y-121655000I0J-120000D01*
G01*
G37*
G36*
G01*
X187255000Y-122925000D02*
X187255000Y-123165000D01*
G75*
G02*
X187135000Y-123285000I-120000J0D01*
G01*
X185815000Y-123285000D01*
G75*
G02*
X185695000Y-123165000I0J120000D01*
G01*
X185695000Y-122925000D01*
G75*
G02*
X185815000Y-122805000I120000J0D01*
G01*
X187135000Y-122805000D01*
G75*
G02*
X187255000Y-122925000I0J-120000D01*
G01*
G37*
G36*
G01*
X187255000Y-124195000D02*
X187255000Y-124435000D01*
G75*
G02*
X187135000Y-124555000I-120000J0D01*
G01*
X185815000Y-124555000D01*
G75*
G02*
X185695000Y-124435000I0J120000D01*
G01*
X185695000Y-124195000D01*
G75*
G02*
X185815000Y-124075000I120000J0D01*
G01*
X187135000Y-124075000D01*
G75*
G02*
X187255000Y-124195000I0J-120000D01*
G01*
G37*
G36*
G01*
X187255000Y-125465000D02*
X187255000Y-125705000D01*
G75*
G02*
X187135000Y-125825000I-120000J0D01*
G01*
X185815000Y-125825000D01*
G75*
G02*
X185695000Y-125705000I0J120000D01*
G01*
X185695000Y-125465000D01*
G75*
G02*
X185815000Y-125345000I120000J0D01*
G01*
X187135000Y-125345000D01*
G75*
G02*
X187255000Y-125465000I0J-120000D01*
G01*
G37*
G36*
G01*
X187255000Y-126735000D02*
X187255000Y-126975000D01*
G75*
G02*
X187135000Y-127095000I-120000J0D01*
G01*
X185815000Y-127095000D01*
G75*
G02*
X185695000Y-126975000I0J120000D01*
G01*
X185695000Y-126735000D01*
G75*
G02*
X185815000Y-126615000I120000J0D01*
G01*
X187135000Y-126615000D01*
G75*
G02*
X187255000Y-126735000I0J-120000D01*
G01*
G37*
G36*
G01*
X187255000Y-128005000D02*
X187255000Y-128245000D01*
G75*
G02*
X187135000Y-128365000I-120000J0D01*
G01*
X185815000Y-128365000D01*
G75*
G02*
X185695000Y-128245000I0J120000D01*
G01*
X185695000Y-128005000D01*
G75*
G02*
X185815000Y-127885000I120000J0D01*
G01*
X187135000Y-127885000D01*
G75*
G02*
X187255000Y-128005000I0J-120000D01*
G01*
G37*
%TD*%
%TO.C,U6*%
G36*
G01*
X182305000Y-114005000D02*
X182305000Y-114245000D01*
G75*
G02*
X182185000Y-114365000I-120000J0D01*
G01*
X180865000Y-114365000D01*
G75*
G02*
X180745000Y-114245000I0J120000D01*
G01*
X180745000Y-114005000D01*
G75*
G02*
X180865000Y-113885000I120000J0D01*
G01*
X182185000Y-113885000D01*
G75*
G02*
X182305000Y-114005000I0J-120000D01*
G01*
G37*
G36*
G01*
X182305000Y-112735000D02*
X182305000Y-112975000D01*
G75*
G02*
X182185000Y-113095000I-120000J0D01*
G01*
X180865000Y-113095000D01*
G75*
G02*
X180745000Y-112975000I0J120000D01*
G01*
X180745000Y-112735000D01*
G75*
G02*
X180865000Y-112615000I120000J0D01*
G01*
X182185000Y-112615000D01*
G75*
G02*
X182305000Y-112735000I0J-120000D01*
G01*
G37*
G36*
G01*
X182305000Y-111465000D02*
X182305000Y-111705000D01*
G75*
G02*
X182185000Y-111825000I-120000J0D01*
G01*
X180865000Y-111825000D01*
G75*
G02*
X180745000Y-111705000I0J120000D01*
G01*
X180745000Y-111465000D01*
G75*
G02*
X180865000Y-111345000I120000J0D01*
G01*
X182185000Y-111345000D01*
G75*
G02*
X182305000Y-111465000I0J-120000D01*
G01*
G37*
G36*
G01*
X182305000Y-110195000D02*
X182305000Y-110435000D01*
G75*
G02*
X182185000Y-110555000I-120000J0D01*
G01*
X180865000Y-110555000D01*
G75*
G02*
X180745000Y-110435000I0J120000D01*
G01*
X180745000Y-110195000D01*
G75*
G02*
X180865000Y-110075000I120000J0D01*
G01*
X182185000Y-110075000D01*
G75*
G02*
X182305000Y-110195000I0J-120000D01*
G01*
G37*
G36*
G01*
X182305000Y-108925000D02*
X182305000Y-109165000D01*
G75*
G02*
X182185000Y-109285000I-120000J0D01*
G01*
X180865000Y-109285000D01*
G75*
G02*
X180745000Y-109165000I0J120000D01*
G01*
X180745000Y-108925000D01*
G75*
G02*
X180865000Y-108805000I120000J0D01*
G01*
X182185000Y-108805000D01*
G75*
G02*
X182305000Y-108925000I0J-120000D01*
G01*
G37*
G36*
G01*
X182305000Y-107655000D02*
X182305000Y-107895000D01*
G75*
G02*
X182185000Y-108015000I-120000J0D01*
G01*
X180865000Y-108015000D01*
G75*
G02*
X180745000Y-107895000I0J120000D01*
G01*
X180745000Y-107655000D01*
G75*
G02*
X180865000Y-107535000I120000J0D01*
G01*
X182185000Y-107535000D01*
G75*
G02*
X182305000Y-107655000I0J-120000D01*
G01*
G37*
G36*
G01*
X182305000Y-106385000D02*
X182305000Y-106625000D01*
G75*
G02*
X182185000Y-106745000I-120000J0D01*
G01*
X180865000Y-106745000D01*
G75*
G02*
X180745000Y-106625000I0J120000D01*
G01*
X180745000Y-106385000D01*
G75*
G02*
X180865000Y-106265000I120000J0D01*
G01*
X182185000Y-106265000D01*
G75*
G02*
X182305000Y-106385000I0J-120000D01*
G01*
G37*
G36*
G01*
X182305000Y-105115000D02*
X182305000Y-105355000D01*
G75*
G02*
X182185000Y-105475000I-120000J0D01*
G01*
X180865000Y-105475000D01*
G75*
G02*
X180745000Y-105355000I0J120000D01*
G01*
X180745000Y-105115000D01*
G75*
G02*
X180865000Y-104995000I120000J0D01*
G01*
X182185000Y-104995000D01*
G75*
G02*
X182305000Y-105115000I0J-120000D01*
G01*
G37*
G36*
G01*
X187255000Y-105115000D02*
X187255000Y-105355000D01*
G75*
G02*
X187135000Y-105475000I-120000J0D01*
G01*
X185815000Y-105475000D01*
G75*
G02*
X185695000Y-105355000I0J120000D01*
G01*
X185695000Y-105115000D01*
G75*
G02*
X185815000Y-104995000I120000J0D01*
G01*
X187135000Y-104995000D01*
G75*
G02*
X187255000Y-105115000I0J-120000D01*
G01*
G37*
G36*
G01*
X187255000Y-106385000D02*
X187255000Y-106625000D01*
G75*
G02*
X187135000Y-106745000I-120000J0D01*
G01*
X185815000Y-106745000D01*
G75*
G02*
X185695000Y-106625000I0J120000D01*
G01*
X185695000Y-106385000D01*
G75*
G02*
X185815000Y-106265000I120000J0D01*
G01*
X187135000Y-106265000D01*
G75*
G02*
X187255000Y-106385000I0J-120000D01*
G01*
G37*
G36*
G01*
X187255000Y-107655000D02*
X187255000Y-107895000D01*
G75*
G02*
X187135000Y-108015000I-120000J0D01*
G01*
X185815000Y-108015000D01*
G75*
G02*
X185695000Y-107895000I0J120000D01*
G01*
X185695000Y-107655000D01*
G75*
G02*
X185815000Y-107535000I120000J0D01*
G01*
X187135000Y-107535000D01*
G75*
G02*
X187255000Y-107655000I0J-120000D01*
G01*
G37*
G36*
G01*
X187255000Y-108925000D02*
X187255000Y-109165000D01*
G75*
G02*
X187135000Y-109285000I-120000J0D01*
G01*
X185815000Y-109285000D01*
G75*
G02*
X185695000Y-109165000I0J120000D01*
G01*
X185695000Y-108925000D01*
G75*
G02*
X185815000Y-108805000I120000J0D01*
G01*
X187135000Y-108805000D01*
G75*
G02*
X187255000Y-108925000I0J-120000D01*
G01*
G37*
G36*
G01*
X187255000Y-110195000D02*
X187255000Y-110435000D01*
G75*
G02*
X187135000Y-110555000I-120000J0D01*
G01*
X185815000Y-110555000D01*
G75*
G02*
X185695000Y-110435000I0J120000D01*
G01*
X185695000Y-110195000D01*
G75*
G02*
X185815000Y-110075000I120000J0D01*
G01*
X187135000Y-110075000D01*
G75*
G02*
X187255000Y-110195000I0J-120000D01*
G01*
G37*
G36*
G01*
X187255000Y-111465000D02*
X187255000Y-111705000D01*
G75*
G02*
X187135000Y-111825000I-120000J0D01*
G01*
X185815000Y-111825000D01*
G75*
G02*
X185695000Y-111705000I0J120000D01*
G01*
X185695000Y-111465000D01*
G75*
G02*
X185815000Y-111345000I120000J0D01*
G01*
X187135000Y-111345000D01*
G75*
G02*
X187255000Y-111465000I0J-120000D01*
G01*
G37*
G36*
G01*
X187255000Y-112735000D02*
X187255000Y-112975000D01*
G75*
G02*
X187135000Y-113095000I-120000J0D01*
G01*
X185815000Y-113095000D01*
G75*
G02*
X185695000Y-112975000I0J120000D01*
G01*
X185695000Y-112735000D01*
G75*
G02*
X185815000Y-112615000I120000J0D01*
G01*
X187135000Y-112615000D01*
G75*
G02*
X187255000Y-112735000I0J-120000D01*
G01*
G37*
G36*
G01*
X187255000Y-114005000D02*
X187255000Y-114245000D01*
G75*
G02*
X187135000Y-114365000I-120000J0D01*
G01*
X185815000Y-114365000D01*
G75*
G02*
X185695000Y-114245000I0J120000D01*
G01*
X185695000Y-114005000D01*
G75*
G02*
X185815000Y-113885000I120000J0D01*
G01*
X187135000Y-113885000D01*
G75*
G02*
X187255000Y-114005000I0J-120000D01*
G01*
G37*
%TD*%
%TO.C,U5*%
G36*
G01*
X182305000Y-100005000D02*
X182305000Y-100245000D01*
G75*
G02*
X182185000Y-100365000I-120000J0D01*
G01*
X180865000Y-100365000D01*
G75*
G02*
X180745000Y-100245000I0J120000D01*
G01*
X180745000Y-100005000D01*
G75*
G02*
X180865000Y-99885000I120000J0D01*
G01*
X182185000Y-99885000D01*
G75*
G02*
X182305000Y-100005000I0J-120000D01*
G01*
G37*
G36*
G01*
X182305000Y-98735000D02*
X182305000Y-98975000D01*
G75*
G02*
X182185000Y-99095000I-120000J0D01*
G01*
X180865000Y-99095000D01*
G75*
G02*
X180745000Y-98975000I0J120000D01*
G01*
X180745000Y-98735000D01*
G75*
G02*
X180865000Y-98615000I120000J0D01*
G01*
X182185000Y-98615000D01*
G75*
G02*
X182305000Y-98735000I0J-120000D01*
G01*
G37*
G36*
G01*
X182305000Y-97465000D02*
X182305000Y-97705000D01*
G75*
G02*
X182185000Y-97825000I-120000J0D01*
G01*
X180865000Y-97825000D01*
G75*
G02*
X180745000Y-97705000I0J120000D01*
G01*
X180745000Y-97465000D01*
G75*
G02*
X180865000Y-97345000I120000J0D01*
G01*
X182185000Y-97345000D01*
G75*
G02*
X182305000Y-97465000I0J-120000D01*
G01*
G37*
G36*
G01*
X182305000Y-96195000D02*
X182305000Y-96435000D01*
G75*
G02*
X182185000Y-96555000I-120000J0D01*
G01*
X180865000Y-96555000D01*
G75*
G02*
X180745000Y-96435000I0J120000D01*
G01*
X180745000Y-96195000D01*
G75*
G02*
X180865000Y-96075000I120000J0D01*
G01*
X182185000Y-96075000D01*
G75*
G02*
X182305000Y-96195000I0J-120000D01*
G01*
G37*
G36*
G01*
X182305000Y-94925000D02*
X182305000Y-95165000D01*
G75*
G02*
X182185000Y-95285000I-120000J0D01*
G01*
X180865000Y-95285000D01*
G75*
G02*
X180745000Y-95165000I0J120000D01*
G01*
X180745000Y-94925000D01*
G75*
G02*
X180865000Y-94805000I120000J0D01*
G01*
X182185000Y-94805000D01*
G75*
G02*
X182305000Y-94925000I0J-120000D01*
G01*
G37*
G36*
G01*
X182305000Y-93655000D02*
X182305000Y-93895000D01*
G75*
G02*
X182185000Y-94015000I-120000J0D01*
G01*
X180865000Y-94015000D01*
G75*
G02*
X180745000Y-93895000I0J120000D01*
G01*
X180745000Y-93655000D01*
G75*
G02*
X180865000Y-93535000I120000J0D01*
G01*
X182185000Y-93535000D01*
G75*
G02*
X182305000Y-93655000I0J-120000D01*
G01*
G37*
G36*
G01*
X182305000Y-92385000D02*
X182305000Y-92625000D01*
G75*
G02*
X182185000Y-92745000I-120000J0D01*
G01*
X180865000Y-92745000D01*
G75*
G02*
X180745000Y-92625000I0J120000D01*
G01*
X180745000Y-92385000D01*
G75*
G02*
X180865000Y-92265000I120000J0D01*
G01*
X182185000Y-92265000D01*
G75*
G02*
X182305000Y-92385000I0J-120000D01*
G01*
G37*
G36*
G01*
X182305000Y-91115000D02*
X182305000Y-91355000D01*
G75*
G02*
X182185000Y-91475000I-120000J0D01*
G01*
X180865000Y-91475000D01*
G75*
G02*
X180745000Y-91355000I0J120000D01*
G01*
X180745000Y-91115000D01*
G75*
G02*
X180865000Y-90995000I120000J0D01*
G01*
X182185000Y-90995000D01*
G75*
G02*
X182305000Y-91115000I0J-120000D01*
G01*
G37*
G36*
G01*
X187255000Y-91115000D02*
X187255000Y-91355000D01*
G75*
G02*
X187135000Y-91475000I-120000J0D01*
G01*
X185815000Y-91475000D01*
G75*
G02*
X185695000Y-91355000I0J120000D01*
G01*
X185695000Y-91115000D01*
G75*
G02*
X185815000Y-90995000I120000J0D01*
G01*
X187135000Y-90995000D01*
G75*
G02*
X187255000Y-91115000I0J-120000D01*
G01*
G37*
G36*
G01*
X187255000Y-92385000D02*
X187255000Y-92625000D01*
G75*
G02*
X187135000Y-92745000I-120000J0D01*
G01*
X185815000Y-92745000D01*
G75*
G02*
X185695000Y-92625000I0J120000D01*
G01*
X185695000Y-92385000D01*
G75*
G02*
X185815000Y-92265000I120000J0D01*
G01*
X187135000Y-92265000D01*
G75*
G02*
X187255000Y-92385000I0J-120000D01*
G01*
G37*
G36*
G01*
X187255000Y-93655000D02*
X187255000Y-93895000D01*
G75*
G02*
X187135000Y-94015000I-120000J0D01*
G01*
X185815000Y-94015000D01*
G75*
G02*
X185695000Y-93895000I0J120000D01*
G01*
X185695000Y-93655000D01*
G75*
G02*
X185815000Y-93535000I120000J0D01*
G01*
X187135000Y-93535000D01*
G75*
G02*
X187255000Y-93655000I0J-120000D01*
G01*
G37*
G36*
G01*
X187255000Y-94925000D02*
X187255000Y-95165000D01*
G75*
G02*
X187135000Y-95285000I-120000J0D01*
G01*
X185815000Y-95285000D01*
G75*
G02*
X185695000Y-95165000I0J120000D01*
G01*
X185695000Y-94925000D01*
G75*
G02*
X185815000Y-94805000I120000J0D01*
G01*
X187135000Y-94805000D01*
G75*
G02*
X187255000Y-94925000I0J-120000D01*
G01*
G37*
G36*
G01*
X187255000Y-96195000D02*
X187255000Y-96435000D01*
G75*
G02*
X187135000Y-96555000I-120000J0D01*
G01*
X185815000Y-96555000D01*
G75*
G02*
X185695000Y-96435000I0J120000D01*
G01*
X185695000Y-96195000D01*
G75*
G02*
X185815000Y-96075000I120000J0D01*
G01*
X187135000Y-96075000D01*
G75*
G02*
X187255000Y-96195000I0J-120000D01*
G01*
G37*
G36*
G01*
X187255000Y-97465000D02*
X187255000Y-97705000D01*
G75*
G02*
X187135000Y-97825000I-120000J0D01*
G01*
X185815000Y-97825000D01*
G75*
G02*
X185695000Y-97705000I0J120000D01*
G01*
X185695000Y-97465000D01*
G75*
G02*
X185815000Y-97345000I120000J0D01*
G01*
X187135000Y-97345000D01*
G75*
G02*
X187255000Y-97465000I0J-120000D01*
G01*
G37*
G36*
G01*
X187255000Y-98735000D02*
X187255000Y-98975000D01*
G75*
G02*
X187135000Y-99095000I-120000J0D01*
G01*
X185815000Y-99095000D01*
G75*
G02*
X185695000Y-98975000I0J120000D01*
G01*
X185695000Y-98735000D01*
G75*
G02*
X185815000Y-98615000I120000J0D01*
G01*
X187135000Y-98615000D01*
G75*
G02*
X187255000Y-98735000I0J-120000D01*
G01*
G37*
G36*
G01*
X187255000Y-100005000D02*
X187255000Y-100245000D01*
G75*
G02*
X187135000Y-100365000I-120000J0D01*
G01*
X185815000Y-100365000D01*
G75*
G02*
X185695000Y-100245000I0J120000D01*
G01*
X185695000Y-100005000D01*
G75*
G02*
X185815000Y-99885000I120000J0D01*
G01*
X187135000Y-99885000D01*
G75*
G02*
X187255000Y-100005000I0J-120000D01*
G01*
G37*
%TD*%
%TO.C,U4*%
G36*
G01*
X182305000Y-86005000D02*
X182305000Y-86245000D01*
G75*
G02*
X182185000Y-86365000I-120000J0D01*
G01*
X180865000Y-86365000D01*
G75*
G02*
X180745000Y-86245000I0J120000D01*
G01*
X180745000Y-86005000D01*
G75*
G02*
X180865000Y-85885000I120000J0D01*
G01*
X182185000Y-85885000D01*
G75*
G02*
X182305000Y-86005000I0J-120000D01*
G01*
G37*
G36*
G01*
X182305000Y-84735000D02*
X182305000Y-84975000D01*
G75*
G02*
X182185000Y-85095000I-120000J0D01*
G01*
X180865000Y-85095000D01*
G75*
G02*
X180745000Y-84975000I0J120000D01*
G01*
X180745000Y-84735000D01*
G75*
G02*
X180865000Y-84615000I120000J0D01*
G01*
X182185000Y-84615000D01*
G75*
G02*
X182305000Y-84735000I0J-120000D01*
G01*
G37*
G36*
G01*
X182305000Y-83465000D02*
X182305000Y-83705000D01*
G75*
G02*
X182185000Y-83825000I-120000J0D01*
G01*
X180865000Y-83825000D01*
G75*
G02*
X180745000Y-83705000I0J120000D01*
G01*
X180745000Y-83465000D01*
G75*
G02*
X180865000Y-83345000I120000J0D01*
G01*
X182185000Y-83345000D01*
G75*
G02*
X182305000Y-83465000I0J-120000D01*
G01*
G37*
G36*
G01*
X182305000Y-82195000D02*
X182305000Y-82435000D01*
G75*
G02*
X182185000Y-82555000I-120000J0D01*
G01*
X180865000Y-82555000D01*
G75*
G02*
X180745000Y-82435000I0J120000D01*
G01*
X180745000Y-82195000D01*
G75*
G02*
X180865000Y-82075000I120000J0D01*
G01*
X182185000Y-82075000D01*
G75*
G02*
X182305000Y-82195000I0J-120000D01*
G01*
G37*
G36*
G01*
X182305000Y-80925000D02*
X182305000Y-81165000D01*
G75*
G02*
X182185000Y-81285000I-120000J0D01*
G01*
X180865000Y-81285000D01*
G75*
G02*
X180745000Y-81165000I0J120000D01*
G01*
X180745000Y-80925000D01*
G75*
G02*
X180865000Y-80805000I120000J0D01*
G01*
X182185000Y-80805000D01*
G75*
G02*
X182305000Y-80925000I0J-120000D01*
G01*
G37*
G36*
G01*
X182305000Y-79655000D02*
X182305000Y-79895000D01*
G75*
G02*
X182185000Y-80015000I-120000J0D01*
G01*
X180865000Y-80015000D01*
G75*
G02*
X180745000Y-79895000I0J120000D01*
G01*
X180745000Y-79655000D01*
G75*
G02*
X180865000Y-79535000I120000J0D01*
G01*
X182185000Y-79535000D01*
G75*
G02*
X182305000Y-79655000I0J-120000D01*
G01*
G37*
G36*
G01*
X182305000Y-78385000D02*
X182305000Y-78625000D01*
G75*
G02*
X182185000Y-78745000I-120000J0D01*
G01*
X180865000Y-78745000D01*
G75*
G02*
X180745000Y-78625000I0J120000D01*
G01*
X180745000Y-78385000D01*
G75*
G02*
X180865000Y-78265000I120000J0D01*
G01*
X182185000Y-78265000D01*
G75*
G02*
X182305000Y-78385000I0J-120000D01*
G01*
G37*
G36*
G01*
X182305000Y-77115000D02*
X182305000Y-77355000D01*
G75*
G02*
X182185000Y-77475000I-120000J0D01*
G01*
X180865000Y-77475000D01*
G75*
G02*
X180745000Y-77355000I0J120000D01*
G01*
X180745000Y-77115000D01*
G75*
G02*
X180865000Y-76995000I120000J0D01*
G01*
X182185000Y-76995000D01*
G75*
G02*
X182305000Y-77115000I0J-120000D01*
G01*
G37*
G36*
G01*
X187255000Y-77115000D02*
X187255000Y-77355000D01*
G75*
G02*
X187135000Y-77475000I-120000J0D01*
G01*
X185815000Y-77475000D01*
G75*
G02*
X185695000Y-77355000I0J120000D01*
G01*
X185695000Y-77115000D01*
G75*
G02*
X185815000Y-76995000I120000J0D01*
G01*
X187135000Y-76995000D01*
G75*
G02*
X187255000Y-77115000I0J-120000D01*
G01*
G37*
G36*
G01*
X187255000Y-78385000D02*
X187255000Y-78625000D01*
G75*
G02*
X187135000Y-78745000I-120000J0D01*
G01*
X185815000Y-78745000D01*
G75*
G02*
X185695000Y-78625000I0J120000D01*
G01*
X185695000Y-78385000D01*
G75*
G02*
X185815000Y-78265000I120000J0D01*
G01*
X187135000Y-78265000D01*
G75*
G02*
X187255000Y-78385000I0J-120000D01*
G01*
G37*
G36*
G01*
X187255000Y-79655000D02*
X187255000Y-79895000D01*
G75*
G02*
X187135000Y-80015000I-120000J0D01*
G01*
X185815000Y-80015000D01*
G75*
G02*
X185695000Y-79895000I0J120000D01*
G01*
X185695000Y-79655000D01*
G75*
G02*
X185815000Y-79535000I120000J0D01*
G01*
X187135000Y-79535000D01*
G75*
G02*
X187255000Y-79655000I0J-120000D01*
G01*
G37*
G36*
G01*
X187255000Y-80925000D02*
X187255000Y-81165000D01*
G75*
G02*
X187135000Y-81285000I-120000J0D01*
G01*
X185815000Y-81285000D01*
G75*
G02*
X185695000Y-81165000I0J120000D01*
G01*
X185695000Y-80925000D01*
G75*
G02*
X185815000Y-80805000I120000J0D01*
G01*
X187135000Y-80805000D01*
G75*
G02*
X187255000Y-80925000I0J-120000D01*
G01*
G37*
G36*
G01*
X187255000Y-82195000D02*
X187255000Y-82435000D01*
G75*
G02*
X187135000Y-82555000I-120000J0D01*
G01*
X185815000Y-82555000D01*
G75*
G02*
X185695000Y-82435000I0J120000D01*
G01*
X185695000Y-82195000D01*
G75*
G02*
X185815000Y-82075000I120000J0D01*
G01*
X187135000Y-82075000D01*
G75*
G02*
X187255000Y-82195000I0J-120000D01*
G01*
G37*
G36*
G01*
X187255000Y-83465000D02*
X187255000Y-83705000D01*
G75*
G02*
X187135000Y-83825000I-120000J0D01*
G01*
X185815000Y-83825000D01*
G75*
G02*
X185695000Y-83705000I0J120000D01*
G01*
X185695000Y-83465000D01*
G75*
G02*
X185815000Y-83345000I120000J0D01*
G01*
X187135000Y-83345000D01*
G75*
G02*
X187255000Y-83465000I0J-120000D01*
G01*
G37*
G36*
G01*
X187255000Y-84735000D02*
X187255000Y-84975000D01*
G75*
G02*
X187135000Y-85095000I-120000J0D01*
G01*
X185815000Y-85095000D01*
G75*
G02*
X185695000Y-84975000I0J120000D01*
G01*
X185695000Y-84735000D01*
G75*
G02*
X185815000Y-84615000I120000J0D01*
G01*
X187135000Y-84615000D01*
G75*
G02*
X187255000Y-84735000I0J-120000D01*
G01*
G37*
G36*
G01*
X187255000Y-86005000D02*
X187255000Y-86245000D01*
G75*
G02*
X187135000Y-86365000I-120000J0D01*
G01*
X185815000Y-86365000D01*
G75*
G02*
X185695000Y-86245000I0J120000D01*
G01*
X185695000Y-86005000D01*
G75*
G02*
X185815000Y-85885000I120000J0D01*
G01*
X187135000Y-85885000D01*
G75*
G02*
X187255000Y-86005000I0J-120000D01*
G01*
G37*
%TD*%
%TO.C,U3*%
G36*
G01*
X182305000Y-72005000D02*
X182305000Y-72245000D01*
G75*
G02*
X182185000Y-72365000I-120000J0D01*
G01*
X180865000Y-72365000D01*
G75*
G02*
X180745000Y-72245000I0J120000D01*
G01*
X180745000Y-72005000D01*
G75*
G02*
X180865000Y-71885000I120000J0D01*
G01*
X182185000Y-71885000D01*
G75*
G02*
X182305000Y-72005000I0J-120000D01*
G01*
G37*
G36*
G01*
X182305000Y-70735000D02*
X182305000Y-70975000D01*
G75*
G02*
X182185000Y-71095000I-120000J0D01*
G01*
X180865000Y-71095000D01*
G75*
G02*
X180745000Y-70975000I0J120000D01*
G01*
X180745000Y-70735000D01*
G75*
G02*
X180865000Y-70615000I120000J0D01*
G01*
X182185000Y-70615000D01*
G75*
G02*
X182305000Y-70735000I0J-120000D01*
G01*
G37*
G36*
G01*
X182305000Y-69465000D02*
X182305000Y-69705000D01*
G75*
G02*
X182185000Y-69825000I-120000J0D01*
G01*
X180865000Y-69825000D01*
G75*
G02*
X180745000Y-69705000I0J120000D01*
G01*
X180745000Y-69465000D01*
G75*
G02*
X180865000Y-69345000I120000J0D01*
G01*
X182185000Y-69345000D01*
G75*
G02*
X182305000Y-69465000I0J-120000D01*
G01*
G37*
G36*
G01*
X182305000Y-68195000D02*
X182305000Y-68435000D01*
G75*
G02*
X182185000Y-68555000I-120000J0D01*
G01*
X180865000Y-68555000D01*
G75*
G02*
X180745000Y-68435000I0J120000D01*
G01*
X180745000Y-68195000D01*
G75*
G02*
X180865000Y-68075000I120000J0D01*
G01*
X182185000Y-68075000D01*
G75*
G02*
X182305000Y-68195000I0J-120000D01*
G01*
G37*
G36*
G01*
X182305000Y-66925000D02*
X182305000Y-67165000D01*
G75*
G02*
X182185000Y-67285000I-120000J0D01*
G01*
X180865000Y-67285000D01*
G75*
G02*
X180745000Y-67165000I0J120000D01*
G01*
X180745000Y-66925000D01*
G75*
G02*
X180865000Y-66805000I120000J0D01*
G01*
X182185000Y-66805000D01*
G75*
G02*
X182305000Y-66925000I0J-120000D01*
G01*
G37*
G36*
G01*
X182305000Y-65655000D02*
X182305000Y-65895000D01*
G75*
G02*
X182185000Y-66015000I-120000J0D01*
G01*
X180865000Y-66015000D01*
G75*
G02*
X180745000Y-65895000I0J120000D01*
G01*
X180745000Y-65655000D01*
G75*
G02*
X180865000Y-65535000I120000J0D01*
G01*
X182185000Y-65535000D01*
G75*
G02*
X182305000Y-65655000I0J-120000D01*
G01*
G37*
G36*
G01*
X182305000Y-64385000D02*
X182305000Y-64625000D01*
G75*
G02*
X182185000Y-64745000I-120000J0D01*
G01*
X180865000Y-64745000D01*
G75*
G02*
X180745000Y-64625000I0J120000D01*
G01*
X180745000Y-64385000D01*
G75*
G02*
X180865000Y-64265000I120000J0D01*
G01*
X182185000Y-64265000D01*
G75*
G02*
X182305000Y-64385000I0J-120000D01*
G01*
G37*
G36*
G01*
X182305000Y-63115000D02*
X182305000Y-63355000D01*
G75*
G02*
X182185000Y-63475000I-120000J0D01*
G01*
X180865000Y-63475000D01*
G75*
G02*
X180745000Y-63355000I0J120000D01*
G01*
X180745000Y-63115000D01*
G75*
G02*
X180865000Y-62995000I120000J0D01*
G01*
X182185000Y-62995000D01*
G75*
G02*
X182305000Y-63115000I0J-120000D01*
G01*
G37*
G36*
G01*
X187255000Y-63115000D02*
X187255000Y-63355000D01*
G75*
G02*
X187135000Y-63475000I-120000J0D01*
G01*
X185815000Y-63475000D01*
G75*
G02*
X185695000Y-63355000I0J120000D01*
G01*
X185695000Y-63115000D01*
G75*
G02*
X185815000Y-62995000I120000J0D01*
G01*
X187135000Y-62995000D01*
G75*
G02*
X187255000Y-63115000I0J-120000D01*
G01*
G37*
G36*
G01*
X187255000Y-64385000D02*
X187255000Y-64625000D01*
G75*
G02*
X187135000Y-64745000I-120000J0D01*
G01*
X185815000Y-64745000D01*
G75*
G02*
X185695000Y-64625000I0J120000D01*
G01*
X185695000Y-64385000D01*
G75*
G02*
X185815000Y-64265000I120000J0D01*
G01*
X187135000Y-64265000D01*
G75*
G02*
X187255000Y-64385000I0J-120000D01*
G01*
G37*
G36*
G01*
X187255000Y-65655000D02*
X187255000Y-65895000D01*
G75*
G02*
X187135000Y-66015000I-120000J0D01*
G01*
X185815000Y-66015000D01*
G75*
G02*
X185695000Y-65895000I0J120000D01*
G01*
X185695000Y-65655000D01*
G75*
G02*
X185815000Y-65535000I120000J0D01*
G01*
X187135000Y-65535000D01*
G75*
G02*
X187255000Y-65655000I0J-120000D01*
G01*
G37*
G36*
G01*
X187255000Y-66925000D02*
X187255000Y-67165000D01*
G75*
G02*
X187135000Y-67285000I-120000J0D01*
G01*
X185815000Y-67285000D01*
G75*
G02*
X185695000Y-67165000I0J120000D01*
G01*
X185695000Y-66925000D01*
G75*
G02*
X185815000Y-66805000I120000J0D01*
G01*
X187135000Y-66805000D01*
G75*
G02*
X187255000Y-66925000I0J-120000D01*
G01*
G37*
G36*
G01*
X187255000Y-68195000D02*
X187255000Y-68435000D01*
G75*
G02*
X187135000Y-68555000I-120000J0D01*
G01*
X185815000Y-68555000D01*
G75*
G02*
X185695000Y-68435000I0J120000D01*
G01*
X185695000Y-68195000D01*
G75*
G02*
X185815000Y-68075000I120000J0D01*
G01*
X187135000Y-68075000D01*
G75*
G02*
X187255000Y-68195000I0J-120000D01*
G01*
G37*
G36*
G01*
X187255000Y-69465000D02*
X187255000Y-69705000D01*
G75*
G02*
X187135000Y-69825000I-120000J0D01*
G01*
X185815000Y-69825000D01*
G75*
G02*
X185695000Y-69705000I0J120000D01*
G01*
X185695000Y-69465000D01*
G75*
G02*
X185815000Y-69345000I120000J0D01*
G01*
X187135000Y-69345000D01*
G75*
G02*
X187255000Y-69465000I0J-120000D01*
G01*
G37*
G36*
G01*
X187255000Y-70735000D02*
X187255000Y-70975000D01*
G75*
G02*
X187135000Y-71095000I-120000J0D01*
G01*
X185815000Y-71095000D01*
G75*
G02*
X185695000Y-70975000I0J120000D01*
G01*
X185695000Y-70735000D01*
G75*
G02*
X185815000Y-70615000I120000J0D01*
G01*
X187135000Y-70615000D01*
G75*
G02*
X187255000Y-70735000I0J-120000D01*
G01*
G37*
G36*
G01*
X187255000Y-72005000D02*
X187255000Y-72245000D01*
G75*
G02*
X187135000Y-72365000I-120000J0D01*
G01*
X185815000Y-72365000D01*
G75*
G02*
X185695000Y-72245000I0J120000D01*
G01*
X185695000Y-72005000D01*
G75*
G02*
X185815000Y-71885000I120000J0D01*
G01*
X187135000Y-71885000D01*
G75*
G02*
X187255000Y-72005000I0J-120000D01*
G01*
G37*
%TD*%
%TO.C,U2*%
G36*
G01*
X182305000Y-57705000D02*
X182305000Y-57945000D01*
G75*
G02*
X182185000Y-58065000I-120000J0D01*
G01*
X180865000Y-58065000D01*
G75*
G02*
X180745000Y-57945000I0J120000D01*
G01*
X180745000Y-57705000D01*
G75*
G02*
X180865000Y-57585000I120000J0D01*
G01*
X182185000Y-57585000D01*
G75*
G02*
X182305000Y-57705000I0J-120000D01*
G01*
G37*
G36*
G01*
X182305000Y-56435000D02*
X182305000Y-56675000D01*
G75*
G02*
X182185000Y-56795000I-120000J0D01*
G01*
X180865000Y-56795000D01*
G75*
G02*
X180745000Y-56675000I0J120000D01*
G01*
X180745000Y-56435000D01*
G75*
G02*
X180865000Y-56315000I120000J0D01*
G01*
X182185000Y-56315000D01*
G75*
G02*
X182305000Y-56435000I0J-120000D01*
G01*
G37*
G36*
G01*
X182305000Y-55165000D02*
X182305000Y-55405000D01*
G75*
G02*
X182185000Y-55525000I-120000J0D01*
G01*
X180865000Y-55525000D01*
G75*
G02*
X180745000Y-55405000I0J120000D01*
G01*
X180745000Y-55165000D01*
G75*
G02*
X180865000Y-55045000I120000J0D01*
G01*
X182185000Y-55045000D01*
G75*
G02*
X182305000Y-55165000I0J-120000D01*
G01*
G37*
G36*
G01*
X182305000Y-53895000D02*
X182305000Y-54135000D01*
G75*
G02*
X182185000Y-54255000I-120000J0D01*
G01*
X180865000Y-54255000D01*
G75*
G02*
X180745000Y-54135000I0J120000D01*
G01*
X180745000Y-53895000D01*
G75*
G02*
X180865000Y-53775000I120000J0D01*
G01*
X182185000Y-53775000D01*
G75*
G02*
X182305000Y-53895000I0J-120000D01*
G01*
G37*
G36*
G01*
X182305000Y-52625000D02*
X182305000Y-52865000D01*
G75*
G02*
X182185000Y-52985000I-120000J0D01*
G01*
X180865000Y-52985000D01*
G75*
G02*
X180745000Y-52865000I0J120000D01*
G01*
X180745000Y-52625000D01*
G75*
G02*
X180865000Y-52505000I120000J0D01*
G01*
X182185000Y-52505000D01*
G75*
G02*
X182305000Y-52625000I0J-120000D01*
G01*
G37*
G36*
G01*
X182305000Y-51355000D02*
X182305000Y-51595000D01*
G75*
G02*
X182185000Y-51715000I-120000J0D01*
G01*
X180865000Y-51715000D01*
G75*
G02*
X180745000Y-51595000I0J120000D01*
G01*
X180745000Y-51355000D01*
G75*
G02*
X180865000Y-51235000I120000J0D01*
G01*
X182185000Y-51235000D01*
G75*
G02*
X182305000Y-51355000I0J-120000D01*
G01*
G37*
G36*
G01*
X182305000Y-50085000D02*
X182305000Y-50325000D01*
G75*
G02*
X182185000Y-50445000I-120000J0D01*
G01*
X180865000Y-50445000D01*
G75*
G02*
X180745000Y-50325000I0J120000D01*
G01*
X180745000Y-50085000D01*
G75*
G02*
X180865000Y-49965000I120000J0D01*
G01*
X182185000Y-49965000D01*
G75*
G02*
X182305000Y-50085000I0J-120000D01*
G01*
G37*
G36*
G01*
X182305000Y-48815000D02*
X182305000Y-49055000D01*
G75*
G02*
X182185000Y-49175000I-120000J0D01*
G01*
X180865000Y-49175000D01*
G75*
G02*
X180745000Y-49055000I0J120000D01*
G01*
X180745000Y-48815000D01*
G75*
G02*
X180865000Y-48695000I120000J0D01*
G01*
X182185000Y-48695000D01*
G75*
G02*
X182305000Y-48815000I0J-120000D01*
G01*
G37*
G36*
G01*
X187255000Y-48815000D02*
X187255000Y-49055000D01*
G75*
G02*
X187135000Y-49175000I-120000J0D01*
G01*
X185815000Y-49175000D01*
G75*
G02*
X185695000Y-49055000I0J120000D01*
G01*
X185695000Y-48815000D01*
G75*
G02*
X185815000Y-48695000I120000J0D01*
G01*
X187135000Y-48695000D01*
G75*
G02*
X187255000Y-48815000I0J-120000D01*
G01*
G37*
G36*
G01*
X187255000Y-50085000D02*
X187255000Y-50325000D01*
G75*
G02*
X187135000Y-50445000I-120000J0D01*
G01*
X185815000Y-50445000D01*
G75*
G02*
X185695000Y-50325000I0J120000D01*
G01*
X185695000Y-50085000D01*
G75*
G02*
X185815000Y-49965000I120000J0D01*
G01*
X187135000Y-49965000D01*
G75*
G02*
X187255000Y-50085000I0J-120000D01*
G01*
G37*
G36*
G01*
X187255000Y-51355000D02*
X187255000Y-51595000D01*
G75*
G02*
X187135000Y-51715000I-120000J0D01*
G01*
X185815000Y-51715000D01*
G75*
G02*
X185695000Y-51595000I0J120000D01*
G01*
X185695000Y-51355000D01*
G75*
G02*
X185815000Y-51235000I120000J0D01*
G01*
X187135000Y-51235000D01*
G75*
G02*
X187255000Y-51355000I0J-120000D01*
G01*
G37*
G36*
G01*
X187255000Y-52625000D02*
X187255000Y-52865000D01*
G75*
G02*
X187135000Y-52985000I-120000J0D01*
G01*
X185815000Y-52985000D01*
G75*
G02*
X185695000Y-52865000I0J120000D01*
G01*
X185695000Y-52625000D01*
G75*
G02*
X185815000Y-52505000I120000J0D01*
G01*
X187135000Y-52505000D01*
G75*
G02*
X187255000Y-52625000I0J-120000D01*
G01*
G37*
G36*
G01*
X187255000Y-53895000D02*
X187255000Y-54135000D01*
G75*
G02*
X187135000Y-54255000I-120000J0D01*
G01*
X185815000Y-54255000D01*
G75*
G02*
X185695000Y-54135000I0J120000D01*
G01*
X185695000Y-53895000D01*
G75*
G02*
X185815000Y-53775000I120000J0D01*
G01*
X187135000Y-53775000D01*
G75*
G02*
X187255000Y-53895000I0J-120000D01*
G01*
G37*
G36*
G01*
X187255000Y-55165000D02*
X187255000Y-55405000D01*
G75*
G02*
X187135000Y-55525000I-120000J0D01*
G01*
X185815000Y-55525000D01*
G75*
G02*
X185695000Y-55405000I0J120000D01*
G01*
X185695000Y-55165000D01*
G75*
G02*
X185815000Y-55045000I120000J0D01*
G01*
X187135000Y-55045000D01*
G75*
G02*
X187255000Y-55165000I0J-120000D01*
G01*
G37*
G36*
G01*
X187255000Y-56435000D02*
X187255000Y-56675000D01*
G75*
G02*
X187135000Y-56795000I-120000J0D01*
G01*
X185815000Y-56795000D01*
G75*
G02*
X185695000Y-56675000I0J120000D01*
G01*
X185695000Y-56435000D01*
G75*
G02*
X185815000Y-56315000I120000J0D01*
G01*
X187135000Y-56315000D01*
G75*
G02*
X187255000Y-56435000I0J-120000D01*
G01*
G37*
G36*
G01*
X187255000Y-57705000D02*
X187255000Y-57945000D01*
G75*
G02*
X187135000Y-58065000I-120000J0D01*
G01*
X185815000Y-58065000D01*
G75*
G02*
X185695000Y-57945000I0J120000D01*
G01*
X185695000Y-57705000D01*
G75*
G02*
X185815000Y-57585000I120000J0D01*
G01*
X187135000Y-57585000D01*
G75*
G02*
X187255000Y-57705000I0J-120000D01*
G01*
G37*
%TD*%
%TO.C,R16*%
G36*
G01*
X255867896Y-43486909D02*
X256157809Y-43196994D01*
G75*
G02*
X256405297Y-43196994I123744J-123744D01*
G01*
X256652785Y-43444482D01*
G75*
G02*
X256652785Y-43691970I-123744J-123744D01*
G01*
X256362871Y-43981884D01*
G75*
G02*
X256115383Y-43981884I-123744J123744D01*
G01*
X255867895Y-43734396D01*
G75*
G02*
X255867895Y-43486908I123744J123744D01*
G01*
G37*
G36*
G01*
X254754202Y-42373215D02*
X255044115Y-42083300D01*
G75*
G02*
X255291603Y-42083300I123744J-123744D01*
G01*
X255539091Y-42330788D01*
G75*
G02*
X255539091Y-42578276I-123744J-123744D01*
G01*
X255249177Y-42868190D01*
G75*
G02*
X255001689Y-42868190I-123744J123744D01*
G01*
X254754201Y-42620702D01*
G75*
G02*
X254754201Y-42373214I123744J123744D01*
G01*
G37*
%TD*%
%TO.C,R15*%
G36*
G01*
X259738829Y-40363089D02*
X259933990Y-40167927D01*
G75*
G02*
X260100868Y-40167927I83439J-83439D01*
G01*
X260267745Y-40334804D01*
G75*
G02*
X260267745Y-40501682I-83439J-83439D01*
G01*
X260072584Y-40696843D01*
G75*
G02*
X259905706Y-40696843I-83439J83439D01*
G01*
X259738829Y-40529966D01*
G75*
G02*
X259738829Y-40363088I83439J83439D01*
G01*
G37*
G36*
G01*
X259052935Y-39677195D02*
X259248096Y-39482033D01*
G75*
G02*
X259414974Y-39482033I83439J-83439D01*
G01*
X259581851Y-39648910D01*
G75*
G02*
X259581851Y-39815788I-83439J-83439D01*
G01*
X259386690Y-40010949D01*
G75*
G02*
X259219812Y-40010949I-83439J83439D01*
G01*
X259052935Y-39844072D01*
G75*
G02*
X259052935Y-39677194I83439J83439D01*
G01*
G37*
%TD*%
%TO.C,R14*%
G36*
G01*
X247137315Y-43499040D02*
X247427228Y-43209125D01*
G75*
G02*
X247674716Y-43209125I123744J-123744D01*
G01*
X247922204Y-43456613D01*
G75*
G02*
X247922204Y-43704101I-123744J-123744D01*
G01*
X247632290Y-43994015D01*
G75*
G02*
X247384802Y-43994015I-123744J123744D01*
G01*
X247137314Y-43746527D01*
G75*
G02*
X247137314Y-43499039I123744J123744D01*
G01*
G37*
G36*
G01*
X246023621Y-42385346D02*
X246313534Y-42095431D01*
G75*
G02*
X246561022Y-42095431I123744J-123744D01*
G01*
X246808510Y-42342919D01*
G75*
G02*
X246808510Y-42590407I-123744J-123744D01*
G01*
X246518596Y-42880321D01*
G75*
G02*
X246271108Y-42880321I-123744J123744D01*
G01*
X246023620Y-42632833D01*
G75*
G02*
X246023620Y-42385345I123744J123744D01*
G01*
G37*
%TD*%
%TO.C,R13*%
G36*
G01*
X251008248Y-40375221D02*
X251203409Y-40180059D01*
G75*
G02*
X251370287Y-40180059I83439J-83439D01*
G01*
X251537164Y-40346936D01*
G75*
G02*
X251537164Y-40513814I-83439J-83439D01*
G01*
X251342003Y-40708975D01*
G75*
G02*
X251175125Y-40708975I-83439J83439D01*
G01*
X251008248Y-40542098D01*
G75*
G02*
X251008248Y-40375220I83439J83439D01*
G01*
G37*
G36*
G01*
X250322354Y-39689327D02*
X250517515Y-39494165D01*
G75*
G02*
X250684393Y-39494165I83439J-83439D01*
G01*
X250851270Y-39661042D01*
G75*
G02*
X250851270Y-39827920I-83439J-83439D01*
G01*
X250656109Y-40023081D01*
G75*
G02*
X250489231Y-40023081I-83439J83439D01*
G01*
X250322354Y-39856204D01*
G75*
G02*
X250322354Y-39689326I83439J83439D01*
G01*
G37*
%TD*%
%TO.C,R12*%
G36*
G01*
X238324428Y-43559593D02*
X238614341Y-43269678D01*
G75*
G02*
X238861829Y-43269678I123744J-123744D01*
G01*
X239109317Y-43517166D01*
G75*
G02*
X239109317Y-43764654I-123744J-123744D01*
G01*
X238819403Y-44054568D01*
G75*
G02*
X238571915Y-44054568I-123744J123744D01*
G01*
X238324427Y-43807080D01*
G75*
G02*
X238324427Y-43559592I123744J123744D01*
G01*
G37*
G36*
G01*
X237210734Y-42445899D02*
X237500647Y-42155984D01*
G75*
G02*
X237748135Y-42155984I123744J-123744D01*
G01*
X237995623Y-42403472D01*
G75*
G02*
X237995623Y-42650960I-123744J-123744D01*
G01*
X237705709Y-42940874D01*
G75*
G02*
X237458221Y-42940874I-123744J123744D01*
G01*
X237210733Y-42693386D01*
G75*
G02*
X237210733Y-42445898I123744J123744D01*
G01*
G37*
%TD*%
%TO.C,R11*%
G36*
G01*
X242195361Y-40435774D02*
X242390522Y-40240612D01*
G75*
G02*
X242557400Y-40240612I83439J-83439D01*
G01*
X242724277Y-40407489D01*
G75*
G02*
X242724277Y-40574367I-83439J-83439D01*
G01*
X242529116Y-40769528D01*
G75*
G02*
X242362238Y-40769528I-83439J83439D01*
G01*
X242195361Y-40602651D01*
G75*
G02*
X242195361Y-40435773I83439J83439D01*
G01*
G37*
G36*
G01*
X241509467Y-39749880D02*
X241704628Y-39554718D01*
G75*
G02*
X241871506Y-39554718I83439J-83439D01*
G01*
X242038383Y-39721595D01*
G75*
G02*
X242038383Y-39888473I-83439J-83439D01*
G01*
X241843222Y-40083634D01*
G75*
G02*
X241676344Y-40083634I-83439J83439D01*
G01*
X241509467Y-39916757D01*
G75*
G02*
X241509467Y-39749879I83439J83439D01*
G01*
G37*
%TD*%
%TO.C,R10*%
G36*
G01*
X229631677Y-43530232D02*
X229921590Y-43240317D01*
G75*
G02*
X230169078Y-43240317I123744J-123744D01*
G01*
X230416566Y-43487805D01*
G75*
G02*
X230416566Y-43735293I-123744J-123744D01*
G01*
X230126652Y-44025207D01*
G75*
G02*
X229879164Y-44025207I-123744J123744D01*
G01*
X229631676Y-43777719D01*
G75*
G02*
X229631676Y-43530231I123744J123744D01*
G01*
G37*
G36*
G01*
X228517983Y-42416538D02*
X228807896Y-42126623D01*
G75*
G02*
X229055384Y-42126623I123744J-123744D01*
G01*
X229302872Y-42374111D01*
G75*
G02*
X229302872Y-42621599I-123744J-123744D01*
G01*
X229012958Y-42911513D01*
G75*
G02*
X228765470Y-42911513I-123744J123744D01*
G01*
X228517982Y-42664025D01*
G75*
G02*
X228517982Y-42416537I123744J123744D01*
G01*
G37*
%TD*%
%TO.C,R9*%
G36*
G01*
X233502611Y-40406413D02*
X233697772Y-40211251D01*
G75*
G02*
X233864650Y-40211251I83439J-83439D01*
G01*
X234031527Y-40378128D01*
G75*
G02*
X234031527Y-40545006I-83439J-83439D01*
G01*
X233836366Y-40740167D01*
G75*
G02*
X233669488Y-40740167I-83439J83439D01*
G01*
X233502611Y-40573290D01*
G75*
G02*
X233502611Y-40406412I83439J83439D01*
G01*
G37*
G36*
G01*
X232816717Y-39720519D02*
X233011878Y-39525357D01*
G75*
G02*
X233178756Y-39525357I83439J-83439D01*
G01*
X233345633Y-39692234D01*
G75*
G02*
X233345633Y-39859112I-83439J-83439D01*
G01*
X233150472Y-40054273D01*
G75*
G02*
X232983594Y-40054273I-83439J83439D01*
G01*
X232816717Y-39887396D01*
G75*
G02*
X232816717Y-39720518I83439J83439D01*
G01*
G37*
%TD*%
%TO.C,R8*%
G36*
G01*
X220764808Y-43638451D02*
X221054721Y-43348536D01*
G75*
G02*
X221302209Y-43348536I123744J-123744D01*
G01*
X221549697Y-43596024D01*
G75*
G02*
X221549697Y-43843512I-123744J-123744D01*
G01*
X221259783Y-44133426D01*
G75*
G02*
X221012295Y-44133426I-123744J123744D01*
G01*
X220764807Y-43885938D01*
G75*
G02*
X220764807Y-43638450I123744J123744D01*
G01*
G37*
G36*
G01*
X219651114Y-42524757D02*
X219941027Y-42234842D01*
G75*
G02*
X220188515Y-42234842I123744J-123744D01*
G01*
X220436003Y-42482330D01*
G75*
G02*
X220436003Y-42729818I-123744J-123744D01*
G01*
X220146089Y-43019732D01*
G75*
G02*
X219898601Y-43019732I-123744J123744D01*
G01*
X219651113Y-42772244D01*
G75*
G02*
X219651113Y-42524756I123744J123744D01*
G01*
G37*
%TD*%
%TO.C,R7*%
G36*
G01*
X224635742Y-40514632D02*
X224830903Y-40319470D01*
G75*
G02*
X224997781Y-40319470I83439J-83439D01*
G01*
X225164658Y-40486347D01*
G75*
G02*
X225164658Y-40653225I-83439J-83439D01*
G01*
X224969497Y-40848386D01*
G75*
G02*
X224802619Y-40848386I-83439J83439D01*
G01*
X224635742Y-40681509D01*
G75*
G02*
X224635742Y-40514631I83439J83439D01*
G01*
G37*
G36*
G01*
X223949848Y-39828738D02*
X224145009Y-39633576D01*
G75*
G02*
X224311887Y-39633576I83439J-83439D01*
G01*
X224478764Y-39800453D01*
G75*
G02*
X224478764Y-39967331I-83439J-83439D01*
G01*
X224283603Y-40162492D01*
G75*
G02*
X224116725Y-40162492I-83439J83439D01*
G01*
X223949848Y-39995615D01*
G75*
G02*
X223949848Y-39828737I83439J83439D01*
G01*
G37*
%TD*%
%TO.C,R6*%
G36*
G01*
X212108276Y-43568711D02*
X212398189Y-43278796D01*
G75*
G02*
X212645677Y-43278796I123744J-123744D01*
G01*
X212893165Y-43526284D01*
G75*
G02*
X212893165Y-43773772I-123744J-123744D01*
G01*
X212603251Y-44063686D01*
G75*
G02*
X212355763Y-44063686I-123744J123744D01*
G01*
X212108275Y-43816198D01*
G75*
G02*
X212108275Y-43568710I123744J123744D01*
G01*
G37*
G36*
G01*
X210994582Y-42455017D02*
X211284495Y-42165102D01*
G75*
G02*
X211531983Y-42165102I123744J-123744D01*
G01*
X211779471Y-42412590D01*
G75*
G02*
X211779471Y-42660078I-123744J-123744D01*
G01*
X211489557Y-42949992D01*
G75*
G02*
X211242069Y-42949992I-123744J123744D01*
G01*
X210994581Y-42702504D01*
G75*
G02*
X210994581Y-42455016I123744J123744D01*
G01*
G37*
%TD*%
%TO.C,R5*%
G36*
G01*
X215979209Y-40444891D02*
X216174370Y-40249729D01*
G75*
G02*
X216341248Y-40249729I83439J-83439D01*
G01*
X216508125Y-40416606D01*
G75*
G02*
X216508125Y-40583484I-83439J-83439D01*
G01*
X216312964Y-40778645D01*
G75*
G02*
X216146086Y-40778645I-83439J83439D01*
G01*
X215979209Y-40611768D01*
G75*
G02*
X215979209Y-40444890I83439J83439D01*
G01*
G37*
G36*
G01*
X215293315Y-39758997D02*
X215488476Y-39563835D01*
G75*
G02*
X215655354Y-39563835I83439J-83439D01*
G01*
X215822231Y-39730712D01*
G75*
G02*
X215822231Y-39897590I-83439J-83439D01*
G01*
X215627070Y-40092751D01*
G75*
G02*
X215460192Y-40092751I-83439J83439D01*
G01*
X215293315Y-39925874D01*
G75*
G02*
X215293315Y-39758996I83439J83439D01*
G01*
G37*
%TD*%
%TO.C,R4*%
G36*
G01*
X203346718Y-43596025D02*
X203636631Y-43306110D01*
G75*
G02*
X203884119Y-43306110I123744J-123744D01*
G01*
X204131607Y-43553598D01*
G75*
G02*
X204131607Y-43801086I-123744J-123744D01*
G01*
X203841693Y-44091000D01*
G75*
G02*
X203594205Y-44091000I-123744J123744D01*
G01*
X203346717Y-43843512D01*
G75*
G02*
X203346717Y-43596024I123744J123744D01*
G01*
G37*
G36*
G01*
X202233024Y-42482331D02*
X202522937Y-42192416D01*
G75*
G02*
X202770425Y-42192416I123744J-123744D01*
G01*
X203017913Y-42439904D01*
G75*
G02*
X203017913Y-42687392I-123744J-123744D01*
G01*
X202727999Y-42977306D01*
G75*
G02*
X202480511Y-42977306I-123744J123744D01*
G01*
X202233023Y-42729818D01*
G75*
G02*
X202233023Y-42482330I123744J123744D01*
G01*
G37*
%TD*%
%TO.C,R3*%
G36*
G01*
X207217651Y-40472206D02*
X207412812Y-40277044D01*
G75*
G02*
X207579690Y-40277044I83439J-83439D01*
G01*
X207746567Y-40443921D01*
G75*
G02*
X207746567Y-40610799I-83439J-83439D01*
G01*
X207551406Y-40805960D01*
G75*
G02*
X207384528Y-40805960I-83439J83439D01*
G01*
X207217651Y-40639083D01*
G75*
G02*
X207217651Y-40472205I83439J83439D01*
G01*
G37*
G36*
G01*
X206531757Y-39786312D02*
X206726918Y-39591150D01*
G75*
G02*
X206893796Y-39591150I83439J-83439D01*
G01*
X207060673Y-39758027D01*
G75*
G02*
X207060673Y-39924905I-83439J-83439D01*
G01*
X206865512Y-40120066D01*
G75*
G02*
X206698634Y-40120066I-83439J83439D01*
G01*
X206531757Y-39953189D01*
G75*
G02*
X206531757Y-39786311I83439J83439D01*
G01*
G37*
%TD*%
%TO.C,D8*%
G36*
X256788623Y-41408605D02*
G01*
X257241172Y-41861154D01*
X256732055Y-42370271D01*
X256279506Y-41917722D01*
X256788623Y-41408605D01*
G37*
G36*
X257531085Y-39322640D02*
G01*
X257983634Y-39775189D01*
X257474517Y-40284306D01*
X257021968Y-39831757D01*
X257531085Y-39322640D01*
G37*
G36*
X258874588Y-40666143D02*
G01*
X259327137Y-41118692D01*
X258818020Y-41627809D01*
X258365471Y-41175260D01*
X258874588Y-40666143D01*
G37*
%TD*%
%TO.C,D7*%
G36*
X248058042Y-41420737D02*
G01*
X248510591Y-41873286D01*
X248001474Y-42382403D01*
X247548925Y-41929854D01*
X248058042Y-41420737D01*
G37*
G36*
X248800504Y-39334772D02*
G01*
X249253053Y-39787321D01*
X248743936Y-40296438D01*
X248291387Y-39843889D01*
X248800504Y-39334772D01*
G37*
G36*
X250144007Y-40678275D02*
G01*
X250596556Y-41130824D01*
X250087439Y-41639941D01*
X249634890Y-41187392D01*
X250144007Y-40678275D01*
G37*
%TD*%
%TO.C,D6*%
G36*
X239245155Y-41481290D02*
G01*
X239697704Y-41933839D01*
X239188587Y-42442956D01*
X238736038Y-41990407D01*
X239245155Y-41481290D01*
G37*
G36*
X239987617Y-39395325D02*
G01*
X240440166Y-39847874D01*
X239931049Y-40356991D01*
X239478500Y-39904442D01*
X239987617Y-39395325D01*
G37*
G36*
X241331120Y-40738828D02*
G01*
X241783669Y-41191377D01*
X241274552Y-41700494D01*
X240822003Y-41247945D01*
X241331120Y-40738828D01*
G37*
%TD*%
%TO.C,D5*%
G36*
X230552405Y-41451929D02*
G01*
X231004954Y-41904478D01*
X230495837Y-42413595D01*
X230043288Y-41961046D01*
X230552405Y-41451929D01*
G37*
G36*
X231294867Y-39365964D02*
G01*
X231747416Y-39818513D01*
X231238299Y-40327630D01*
X230785750Y-39875081D01*
X231294867Y-39365964D01*
G37*
G36*
X232638370Y-40709467D02*
G01*
X233090919Y-41162016D01*
X232581802Y-41671133D01*
X232129253Y-41218584D01*
X232638370Y-40709467D01*
G37*
%TD*%
%TO.C,D4*%
G36*
X221685536Y-41560148D02*
G01*
X222138085Y-42012697D01*
X221628968Y-42521814D01*
X221176419Y-42069265D01*
X221685536Y-41560148D01*
G37*
G36*
X222427998Y-39474183D02*
G01*
X222880547Y-39926732D01*
X222371430Y-40435849D01*
X221918881Y-39983300D01*
X222427998Y-39474183D01*
G37*
G36*
X223771501Y-40817686D02*
G01*
X224224050Y-41270235D01*
X223714933Y-41779352D01*
X223262384Y-41326803D01*
X223771501Y-40817686D01*
G37*
%TD*%
%TO.C,D3*%
G36*
X213029004Y-41490407D02*
G01*
X213481553Y-41942956D01*
X212972436Y-42452073D01*
X212519887Y-41999524D01*
X213029004Y-41490407D01*
G37*
G36*
X213771466Y-39404442D02*
G01*
X214224015Y-39856991D01*
X213714898Y-40366108D01*
X213262349Y-39913559D01*
X213771466Y-39404442D01*
G37*
G36*
X215114969Y-40747945D02*
G01*
X215567518Y-41200494D01*
X215058401Y-41709611D01*
X214605852Y-41257062D01*
X215114969Y-40747945D01*
G37*
%TD*%
%TO.C,D2*%
G36*
X204267446Y-41517722D02*
G01*
X204719995Y-41970271D01*
X204210878Y-42479388D01*
X203758329Y-42026839D01*
X204267446Y-41517722D01*
G37*
G36*
X205009908Y-39431757D02*
G01*
X205462457Y-39884306D01*
X204953340Y-40393423D01*
X204500791Y-39940874D01*
X205009908Y-39431757D01*
G37*
G36*
X206353411Y-40775260D02*
G01*
X206805960Y-41227809D01*
X206296843Y-41736926D01*
X205844294Y-41284377D01*
X206353411Y-40775260D01*
G37*
%TD*%
%TO.C,R2*%
G36*
G01*
X194607556Y-43577470D02*
X194897469Y-43287555D01*
G75*
G02*
X195144957Y-43287555I123744J-123744D01*
G01*
X195392445Y-43535043D01*
G75*
G02*
X195392445Y-43782531I-123744J-123744D01*
G01*
X195102531Y-44072445D01*
G75*
G02*
X194855043Y-44072445I-123744J123744D01*
G01*
X194607555Y-43824957D01*
G75*
G02*
X194607555Y-43577469I123744J123744D01*
G01*
G37*
G36*
G01*
X193493862Y-42463776D02*
X193783775Y-42173861D01*
G75*
G02*
X194031263Y-42173861I123744J-123744D01*
G01*
X194278751Y-42421349D01*
G75*
G02*
X194278751Y-42668837I-123744J-123744D01*
G01*
X193988837Y-42958751D01*
G75*
G02*
X193741349Y-42958751I-123744J123744D01*
G01*
X193493861Y-42711263D01*
G75*
G02*
X193493861Y-42463775I123744J123744D01*
G01*
G37*
%TD*%
%TO.C,R1*%
G36*
G01*
X198478489Y-40453651D02*
X198673650Y-40258489D01*
G75*
G02*
X198840528Y-40258489I83439J-83439D01*
G01*
X199007405Y-40425366D01*
G75*
G02*
X199007405Y-40592244I-83439J-83439D01*
G01*
X198812244Y-40787405D01*
G75*
G02*
X198645366Y-40787405I-83439J83439D01*
G01*
X198478489Y-40620528D01*
G75*
G02*
X198478489Y-40453650I83439J83439D01*
G01*
G37*
G36*
G01*
X197792595Y-39767757D02*
X197987756Y-39572595D01*
G75*
G02*
X198154634Y-39572595I83439J-83439D01*
G01*
X198321511Y-39739472D01*
G75*
G02*
X198321511Y-39906350I-83439J-83439D01*
G01*
X198126350Y-40101511D01*
G75*
G02*
X197959472Y-40101511I-83439J83439D01*
G01*
X197792595Y-39934634D01*
G75*
G02*
X197792595Y-39767756I83439J83439D01*
G01*
G37*
%TD*%
%TO.C,D1*%
G36*
X195528284Y-41499167D02*
G01*
X195980833Y-41951716D01*
X195471716Y-42460833D01*
X195019167Y-42008284D01*
X195528284Y-41499167D01*
G37*
G36*
X196270746Y-39413202D02*
G01*
X196723295Y-39865751D01*
X196214178Y-40374868D01*
X195761629Y-39922319D01*
X196270746Y-39413202D01*
G37*
G36*
X197614249Y-40756705D02*
G01*
X198066798Y-41209254D01*
X197557681Y-41718371D01*
X197105132Y-41265822D01*
X197614249Y-40756705D01*
G37*
%TD*%
M02*
