%TF.GenerationSoftware,KiCad,Pcbnew,5.1.6*%
%TF.CreationDate,2020-06-23T23:05:21+02:00*%
%TF.ProjectId,NeonMatrix,4e656f6e-4d61-4747-9269-782e6b696361,rev?*%
%TF.SameCoordinates,Original*%
%TF.FileFunction,Legend,Top*%
%TF.FilePolarity,Positive*%
%FSLAX46Y46*%
G04 Gerber Fmt 4.6, Leading zero omitted, Abs format (unit mm)*
G04 Created by KiCad (PCBNEW 5.1.6) date 2020-06-23 23:05:21*
%MOMM*%
%LPD*%
G01*
G04 APERTURE LIST*
%ADD10C,0.400000*%
%ADD11C,0.150000*%
%ADD12C,0.120000*%
G04 APERTURE END LIST*
D10*
X188100000Y-142080000D02*
G75*
G03*
X188100000Y-142080000I-100000J0D01*
G01*
X188100000Y-128080000D02*
G75*
G03*
X188100000Y-128080000I-100000J0D01*
G01*
X188100000Y-114080000D02*
G75*
G03*
X188100000Y-114080000I-100000J0D01*
G01*
X188100000Y-100080000D02*
G75*
G03*
X188100000Y-100080000I-100000J0D01*
G01*
X188200000Y-86080000D02*
G75*
G03*
X188200000Y-86080000I-100000J0D01*
G01*
X188200000Y-72080000D02*
G75*
G03*
X188200000Y-72080000I-100000J0D01*
G01*
X188100000Y-57880000D02*
G75*
G03*
X188100000Y-57880000I-100000J0D01*
G01*
X188200000Y-43480000D02*
G75*
G03*
X188200000Y-43480000I-100000J0D01*
G01*
X162000000Y-50980000D02*
G75*
G03*
X162000000Y-50980000I-100000J0D01*
G01*
X162000000Y-60080000D02*
G75*
G03*
X162000000Y-60080000I-100000J0D01*
G01*
X170200000Y-71980000D02*
G75*
G03*
X170200000Y-71980000I-100000J0D01*
G01*
D11*
X154071428Y-66632380D02*
X154071428Y-65632380D01*
X154309523Y-65632380D01*
X154452380Y-65680000D01*
X154547619Y-65775238D01*
X154595238Y-65870476D01*
X154642857Y-66060952D01*
X154642857Y-66203809D01*
X154595238Y-66394285D01*
X154547619Y-66489523D01*
X154452380Y-66584761D01*
X154309523Y-66632380D01*
X154071428Y-66632380D01*
X155023809Y-66346666D02*
X155500000Y-66346666D01*
X154928571Y-66632380D02*
X155261904Y-65632380D01*
X155595238Y-66632380D01*
X155785714Y-65632380D02*
X156357142Y-65632380D01*
X156071428Y-66632380D02*
X156071428Y-65632380D01*
X156642857Y-66346666D02*
X157119047Y-66346666D01*
X156547619Y-66632380D02*
X156880952Y-65632380D01*
X157214285Y-66632380D01*
X157738095Y-65632380D02*
X157928571Y-65632380D01*
X158023809Y-65680000D01*
X158119047Y-65775238D01*
X158166666Y-65965714D01*
X158166666Y-66299047D01*
X158119047Y-66489523D01*
X158023809Y-66584761D01*
X157928571Y-66632380D01*
X157738095Y-66632380D01*
X157642857Y-66584761D01*
X157547619Y-66489523D01*
X157500000Y-66299047D01*
X157500000Y-65965714D01*
X157547619Y-65775238D01*
X157642857Y-65680000D01*
X157738095Y-65632380D01*
X158595238Y-65632380D02*
X158595238Y-66441904D01*
X158642857Y-66537142D01*
X158690476Y-66584761D01*
X158785714Y-66632380D01*
X158976190Y-66632380D01*
X159071428Y-66584761D01*
X159119047Y-66537142D01*
X159166666Y-66441904D01*
X159166666Y-65632380D01*
X159500000Y-65632380D02*
X160071428Y-65632380D01*
X159785714Y-66632380D02*
X159785714Y-65632380D01*
X151980952Y-81807380D02*
X151980952Y-80807380D01*
X152552380Y-81807380D01*
X152552380Y-80807380D01*
X153409523Y-81759761D02*
X153314285Y-81807380D01*
X153123809Y-81807380D01*
X153028571Y-81759761D01*
X152980952Y-81664523D01*
X152980952Y-81283571D01*
X153028571Y-81188333D01*
X153123809Y-81140714D01*
X153314285Y-81140714D01*
X153409523Y-81188333D01*
X153457142Y-81283571D01*
X153457142Y-81378809D01*
X152980952Y-81474047D01*
X154028571Y-81807380D02*
X153933333Y-81759761D01*
X153885714Y-81712142D01*
X153838095Y-81616904D01*
X153838095Y-81331190D01*
X153885714Y-81235952D01*
X153933333Y-81188333D01*
X154028571Y-81140714D01*
X154171428Y-81140714D01*
X154266666Y-81188333D01*
X154314285Y-81235952D01*
X154361904Y-81331190D01*
X154361904Y-81616904D01*
X154314285Y-81712142D01*
X154266666Y-81759761D01*
X154171428Y-81807380D01*
X154028571Y-81807380D01*
X154790476Y-81140714D02*
X154790476Y-81807380D01*
X154790476Y-81235952D02*
X154838095Y-81188333D01*
X154933333Y-81140714D01*
X155076190Y-81140714D01*
X155171428Y-81188333D01*
X155219047Y-81283571D01*
X155219047Y-81807380D01*
X155695238Y-81807380D02*
X155695238Y-80807380D01*
X156028571Y-81521666D01*
X156361904Y-80807380D01*
X156361904Y-81807380D01*
X157266666Y-81807380D02*
X157266666Y-81283571D01*
X157219047Y-81188333D01*
X157123809Y-81140714D01*
X156933333Y-81140714D01*
X156838095Y-81188333D01*
X157266666Y-81759761D02*
X157171428Y-81807380D01*
X156933333Y-81807380D01*
X156838095Y-81759761D01*
X156790476Y-81664523D01*
X156790476Y-81569285D01*
X156838095Y-81474047D01*
X156933333Y-81426428D01*
X157171428Y-81426428D01*
X157266666Y-81378809D01*
X157600000Y-81140714D02*
X157980952Y-81140714D01*
X157742857Y-80807380D02*
X157742857Y-81664523D01*
X157790476Y-81759761D01*
X157885714Y-81807380D01*
X157980952Y-81807380D01*
X158314285Y-81807380D02*
X158314285Y-81140714D01*
X158314285Y-81331190D02*
X158361904Y-81235952D01*
X158409523Y-81188333D01*
X158504761Y-81140714D01*
X158600000Y-81140714D01*
X158933333Y-81807380D02*
X158933333Y-81140714D01*
X158933333Y-80807380D02*
X158885714Y-80855000D01*
X158933333Y-80902619D01*
X158980952Y-80855000D01*
X158933333Y-80807380D01*
X158933333Y-80902619D01*
X159314285Y-81807380D02*
X159838095Y-81140714D01*
X159314285Y-81140714D02*
X159838095Y-81807380D01*
X161552380Y-81807380D02*
X161219047Y-81331190D01*
X160980952Y-81807380D02*
X160980952Y-80807380D01*
X161361904Y-80807380D01*
X161457142Y-80855000D01*
X161504761Y-80902619D01*
X161552380Y-80997857D01*
X161552380Y-81140714D01*
X161504761Y-81235952D01*
X161457142Y-81283571D01*
X161361904Y-81331190D01*
X160980952Y-81331190D01*
X162361904Y-81759761D02*
X162266666Y-81807380D01*
X162076190Y-81807380D01*
X161980952Y-81759761D01*
X161933333Y-81664523D01*
X161933333Y-81283571D01*
X161980952Y-81188333D01*
X162076190Y-81140714D01*
X162266666Y-81140714D01*
X162361904Y-81188333D01*
X162409523Y-81283571D01*
X162409523Y-81378809D01*
X161933333Y-81474047D01*
X162742857Y-81140714D02*
X162980952Y-81807380D01*
X163219047Y-81140714D01*
X163600000Y-81712142D02*
X163647619Y-81759761D01*
X163600000Y-81807380D01*
X163552380Y-81759761D01*
X163600000Y-81712142D01*
X163600000Y-81807380D01*
X164790476Y-81521666D02*
X165266666Y-81521666D01*
X164695238Y-81807380D02*
X165028571Y-80807380D01*
X165361904Y-81807380D01*
X151480952Y-82457380D02*
X152052380Y-82457380D01*
X151766666Y-83457380D02*
X151766666Y-82457380D01*
X152528571Y-83457380D02*
X152433333Y-83409761D01*
X152385714Y-83362142D01*
X152338095Y-83266904D01*
X152338095Y-82981190D01*
X152385714Y-82885952D01*
X152433333Y-82838333D01*
X152528571Y-82790714D01*
X152671428Y-82790714D01*
X152766666Y-82838333D01*
X152814285Y-82885952D01*
X152861904Y-82981190D01*
X152861904Y-83266904D01*
X152814285Y-83362142D01*
X152766666Y-83409761D01*
X152671428Y-83457380D01*
X152528571Y-83457380D01*
X153290476Y-83457380D02*
X153290476Y-82457380D01*
X153290476Y-82838333D02*
X153385714Y-82790714D01*
X153576190Y-82790714D01*
X153671428Y-82838333D01*
X153719047Y-82885952D01*
X153766666Y-82981190D01*
X153766666Y-83266904D01*
X153719047Y-83362142D01*
X153671428Y-83409761D01*
X153576190Y-83457380D01*
X153385714Y-83457380D01*
X153290476Y-83409761D01*
X154195238Y-83457380D02*
X154195238Y-82790714D01*
X154195238Y-82457380D02*
X154147619Y-82505000D01*
X154195238Y-82552619D01*
X154242857Y-82505000D01*
X154195238Y-82457380D01*
X154195238Y-82552619D01*
X155100000Y-83457380D02*
X155100000Y-82933571D01*
X155052380Y-82838333D01*
X154957142Y-82790714D01*
X154766666Y-82790714D01*
X154671428Y-82838333D01*
X155100000Y-83409761D02*
X155004761Y-83457380D01*
X154766666Y-83457380D01*
X154671428Y-83409761D01*
X154623809Y-83314523D01*
X154623809Y-83219285D01*
X154671428Y-83124047D01*
X154766666Y-83076428D01*
X155004761Y-83076428D01*
X155100000Y-83028809D01*
X155528571Y-83409761D02*
X155623809Y-83457380D01*
X155814285Y-83457380D01*
X155909523Y-83409761D01*
X155957142Y-83314523D01*
X155957142Y-83266904D01*
X155909523Y-83171666D01*
X155814285Y-83124047D01*
X155671428Y-83124047D01*
X155576190Y-83076428D01*
X155528571Y-82981190D01*
X155528571Y-82933571D01*
X155576190Y-82838333D01*
X155671428Y-82790714D01*
X155814285Y-82790714D01*
X155909523Y-82838333D01*
X157147619Y-83457380D02*
X157147619Y-82457380D01*
X157480952Y-83171666D01*
X157814285Y-82457380D01*
X157814285Y-83457380D01*
X158719047Y-83457380D02*
X158719047Y-82933571D01*
X158671428Y-82838333D01*
X158576190Y-82790714D01*
X158385714Y-82790714D01*
X158290476Y-82838333D01*
X158719047Y-83409761D02*
X158623809Y-83457380D01*
X158385714Y-83457380D01*
X158290476Y-83409761D01*
X158242857Y-83314523D01*
X158242857Y-83219285D01*
X158290476Y-83124047D01*
X158385714Y-83076428D01*
X158623809Y-83076428D01*
X158719047Y-83028809D01*
X158290476Y-82457380D02*
X158338095Y-82505000D01*
X158290476Y-82552619D01*
X158242857Y-82505000D01*
X158290476Y-82457380D01*
X158290476Y-82552619D01*
X158671428Y-82457380D02*
X158719047Y-82505000D01*
X158671428Y-82552619D01*
X158623809Y-82505000D01*
X158671428Y-82457380D01*
X158671428Y-82552619D01*
X159623809Y-83457380D02*
X159623809Y-82457380D01*
X159623809Y-83409761D02*
X159528571Y-83457380D01*
X159338095Y-83457380D01*
X159242857Y-83409761D01*
X159195238Y-83362142D01*
X159147619Y-83266904D01*
X159147619Y-82981190D01*
X159195238Y-82885952D01*
X159242857Y-82838333D01*
X159338095Y-82790714D01*
X159528571Y-82790714D01*
X159623809Y-82838333D01*
X160480952Y-83409761D02*
X160385714Y-83457380D01*
X160195238Y-83457380D01*
X160100000Y-83409761D01*
X160052380Y-83314523D01*
X160052380Y-82933571D01*
X160100000Y-82838333D01*
X160195238Y-82790714D01*
X160385714Y-82790714D01*
X160480952Y-82838333D01*
X160528571Y-82933571D01*
X160528571Y-83028809D01*
X160052380Y-83124047D01*
X161100000Y-83457380D02*
X161004761Y-83409761D01*
X160957142Y-83314523D01*
X160957142Y-82457380D01*
X162195238Y-82552619D02*
X162242857Y-82505000D01*
X162338095Y-82457380D01*
X162576190Y-82457380D01*
X162671428Y-82505000D01*
X162719047Y-82552619D01*
X162766666Y-82647857D01*
X162766666Y-82743095D01*
X162719047Y-82885952D01*
X162147619Y-83457380D01*
X162766666Y-83457380D01*
X163385714Y-82457380D02*
X163480952Y-82457380D01*
X163576190Y-82505000D01*
X163623809Y-82552619D01*
X163671428Y-82647857D01*
X163719047Y-82838333D01*
X163719047Y-83076428D01*
X163671428Y-83266904D01*
X163623809Y-83362142D01*
X163576190Y-83409761D01*
X163480952Y-83457380D01*
X163385714Y-83457380D01*
X163290476Y-83409761D01*
X163242857Y-83362142D01*
X163195238Y-83266904D01*
X163147619Y-83076428D01*
X163147619Y-82838333D01*
X163195238Y-82647857D01*
X163242857Y-82552619D01*
X163290476Y-82505000D01*
X163385714Y-82457380D01*
X164100000Y-82552619D02*
X164147619Y-82505000D01*
X164242857Y-82457380D01*
X164480952Y-82457380D01*
X164576190Y-82505000D01*
X164623809Y-82552619D01*
X164671428Y-82647857D01*
X164671428Y-82743095D01*
X164623809Y-82885952D01*
X164052380Y-83457380D01*
X164671428Y-83457380D01*
X165290476Y-82457380D02*
X165385714Y-82457380D01*
X165480952Y-82505000D01*
X165528571Y-82552619D01*
X165576190Y-82647857D01*
X165623809Y-82838333D01*
X165623809Y-83076428D01*
X165576190Y-83266904D01*
X165528571Y-83362142D01*
X165480952Y-83409761D01*
X165385714Y-83457380D01*
X165290476Y-83457380D01*
X165195238Y-83409761D01*
X165147619Y-83362142D01*
X165100000Y-83266904D01*
X165052380Y-83076428D01*
X165052380Y-82838333D01*
X165100000Y-82647857D01*
X165147619Y-82552619D01*
X165195238Y-82505000D01*
X165290476Y-82457380D01*
X162269238Y-139970380D02*
X161793047Y-139970380D01*
X161793047Y-138970380D01*
X162602571Y-139970380D02*
X162602571Y-138970380D01*
X163078761Y-139970380D02*
X163078761Y-138970380D01*
X163650190Y-139970380D01*
X163650190Y-138970380D01*
X164126380Y-139446571D02*
X164459714Y-139446571D01*
X164602571Y-139970380D02*
X164126380Y-139970380D01*
X164126380Y-138970380D01*
X164602571Y-138970380D01*
X161721809Y-134890380D02*
X161721809Y-133890380D01*
X162293238Y-134890380D01*
X162293238Y-133890380D01*
X162769428Y-134366571D02*
X163102761Y-134366571D01*
X163245619Y-134890380D02*
X162769428Y-134890380D01*
X162769428Y-133890380D01*
X163245619Y-133890380D01*
X163674190Y-133890380D02*
X163674190Y-134699904D01*
X163721809Y-134795142D01*
X163769428Y-134842761D01*
X163864666Y-134890380D01*
X164055142Y-134890380D01*
X164150380Y-134842761D01*
X164198000Y-134795142D01*
X164245619Y-134699904D01*
X164245619Y-133890380D01*
X164578952Y-133890380D02*
X165150380Y-133890380D01*
X164864666Y-134890380D02*
X164864666Y-133890380D01*
X166055142Y-134890380D02*
X165721809Y-134414190D01*
X165483714Y-134890380D02*
X165483714Y-133890380D01*
X165864666Y-133890380D01*
X165959904Y-133938000D01*
X166007523Y-133985619D01*
X166055142Y-134080857D01*
X166055142Y-134223714D01*
X166007523Y-134318952D01*
X165959904Y-134366571D01*
X165864666Y-134414190D01*
X165483714Y-134414190D01*
X166436095Y-134604666D02*
X166912285Y-134604666D01*
X166340857Y-134890380D02*
X166674190Y-133890380D01*
X167007523Y-134890380D01*
X167817047Y-134890380D02*
X167340857Y-134890380D01*
X167340857Y-133890380D01*
X154244380Y-63278380D02*
X154434857Y-63278380D01*
X154530095Y-63326000D01*
X154625333Y-63421238D01*
X154672952Y-63611714D01*
X154672952Y-63945047D01*
X154625333Y-64135523D01*
X154530095Y-64230761D01*
X154434857Y-64278380D01*
X154244380Y-64278380D01*
X154149142Y-64230761D01*
X154053904Y-64135523D01*
X154006285Y-63945047D01*
X154006285Y-63611714D01*
X154053904Y-63421238D01*
X154149142Y-63326000D01*
X154244380Y-63278380D01*
X155101523Y-63754571D02*
X155434857Y-63754571D01*
X155577714Y-64278380D02*
X155101523Y-64278380D01*
X155101523Y-63278380D01*
X155577714Y-63278380D01*
X154538190Y-61738380D02*
X154062000Y-61738380D01*
X154062000Y-60738380D01*
X154823904Y-61452666D02*
X155300095Y-61452666D01*
X154728666Y-61738380D02*
X155062000Y-60738380D01*
X155395333Y-61738380D01*
X155585809Y-60738380D02*
X156157238Y-60738380D01*
X155871523Y-61738380D02*
X155871523Y-60738380D01*
X157062000Y-61643142D02*
X157014380Y-61690761D01*
X156871523Y-61738380D01*
X156776285Y-61738380D01*
X156633428Y-61690761D01*
X156538190Y-61595523D01*
X156490571Y-61500285D01*
X156442952Y-61309809D01*
X156442952Y-61166952D01*
X156490571Y-60976476D01*
X156538190Y-60881238D01*
X156633428Y-60786000D01*
X156776285Y-60738380D01*
X156871523Y-60738380D01*
X157014380Y-60786000D01*
X157062000Y-60833619D01*
X157490571Y-61738380D02*
X157490571Y-60738380D01*
X157490571Y-61214571D02*
X158062000Y-61214571D01*
X158062000Y-61738380D02*
X158062000Y-60738380D01*
X154014285Y-59150761D02*
X154157142Y-59198380D01*
X154395238Y-59198380D01*
X154490476Y-59150761D01*
X154538095Y-59103142D01*
X154585714Y-59007904D01*
X154585714Y-58912666D01*
X154538095Y-58817428D01*
X154490476Y-58769809D01*
X154395238Y-58722190D01*
X154204761Y-58674571D01*
X154109523Y-58626952D01*
X154061904Y-58579333D01*
X154014285Y-58484095D01*
X154014285Y-58388857D01*
X154061904Y-58293619D01*
X154109523Y-58246000D01*
X154204761Y-58198380D01*
X154442857Y-58198380D01*
X154585714Y-58246000D01*
X155585714Y-59103142D02*
X155538095Y-59150761D01*
X155395238Y-59198380D01*
X155300000Y-59198380D01*
X155157142Y-59150761D01*
X155061904Y-59055523D01*
X155014285Y-58960285D01*
X154966666Y-58769809D01*
X154966666Y-58626952D01*
X155014285Y-58436476D01*
X155061904Y-58341238D01*
X155157142Y-58246000D01*
X155300000Y-58198380D01*
X155395238Y-58198380D01*
X155538095Y-58246000D01*
X155585714Y-58293619D01*
X156014285Y-59198380D02*
X156014285Y-58198380D01*
X156585714Y-59198380D02*
X156157142Y-58626952D01*
X156585714Y-58198380D02*
X156014285Y-58769809D01*
X154054095Y-56658380D02*
X154054095Y-55658380D01*
X154292190Y-55658380D01*
X154435047Y-55706000D01*
X154530285Y-55801238D01*
X154577904Y-55896476D01*
X154625523Y-56086952D01*
X154625523Y-56229809D01*
X154577904Y-56420285D01*
X154530285Y-56515523D01*
X154435047Y-56610761D01*
X154292190Y-56658380D01*
X154054095Y-56658380D01*
X155006476Y-56372666D02*
X155482666Y-56372666D01*
X154911238Y-56658380D02*
X155244571Y-55658380D01*
X155577904Y-56658380D01*
X155768380Y-55658380D02*
X156339809Y-55658380D01*
X156054095Y-56658380D02*
X156054095Y-55658380D01*
X156625523Y-56372666D02*
X157101714Y-56372666D01*
X156530285Y-56658380D02*
X156863619Y-55658380D01*
X157196952Y-56658380D01*
X157530285Y-56658380D02*
X157530285Y-55658380D01*
X158006476Y-56658380D02*
X158006476Y-55658380D01*
X158577904Y-56658380D01*
X158577904Y-55658380D01*
X153966666Y-50578380D02*
X154300000Y-51578380D01*
X154633333Y-50578380D01*
X155538095Y-51483142D02*
X155490476Y-51530761D01*
X155347619Y-51578380D01*
X155252380Y-51578380D01*
X155109523Y-51530761D01*
X155014285Y-51435523D01*
X154966666Y-51340285D01*
X154919047Y-51149809D01*
X154919047Y-51006952D01*
X154966666Y-50816476D01*
X155014285Y-50721238D01*
X155109523Y-50626000D01*
X155252380Y-50578380D01*
X155347619Y-50578380D01*
X155490476Y-50626000D01*
X155538095Y-50673619D01*
X156538095Y-51483142D02*
X156490476Y-51530761D01*
X156347619Y-51578380D01*
X156252380Y-51578380D01*
X156109523Y-51530761D01*
X156014285Y-51435523D01*
X155966666Y-51340285D01*
X155919047Y-51149809D01*
X155919047Y-51006952D01*
X155966666Y-50816476D01*
X156014285Y-50721238D01*
X156109523Y-50626000D01*
X156252380Y-50578380D01*
X156347619Y-50578380D01*
X156490476Y-50626000D01*
X156538095Y-50673619D01*
X154538095Y-53166000D02*
X154442857Y-53118380D01*
X154300000Y-53118380D01*
X154157142Y-53166000D01*
X154061904Y-53261238D01*
X154014285Y-53356476D01*
X153966666Y-53546952D01*
X153966666Y-53689809D01*
X154014285Y-53880285D01*
X154061904Y-53975523D01*
X154157142Y-54070761D01*
X154300000Y-54118380D01*
X154395238Y-54118380D01*
X154538095Y-54070761D01*
X154585714Y-54023142D01*
X154585714Y-53689809D01*
X154395238Y-53689809D01*
X155014285Y-54118380D02*
X155014285Y-53118380D01*
X155585714Y-54118380D01*
X155585714Y-53118380D01*
X156061904Y-54118380D02*
X156061904Y-53118380D01*
X156300000Y-53118380D01*
X156442857Y-53166000D01*
X156538095Y-53261238D01*
X156585714Y-53356476D01*
X156633333Y-53546952D01*
X156633333Y-53689809D01*
X156585714Y-53880285D01*
X156538095Y-53975523D01*
X156442857Y-54070761D01*
X156300000Y-54118380D01*
X156061904Y-54118380D01*
X245630952Y-48182380D02*
X245630952Y-48896666D01*
X245583333Y-49039523D01*
X245488095Y-49134761D01*
X245345238Y-49182380D01*
X245250000Y-49182380D01*
X246583333Y-49182380D02*
X246107142Y-49182380D01*
X246107142Y-48182380D01*
X247488095Y-49087142D02*
X247440476Y-49134761D01*
X247297619Y-49182380D01*
X247202380Y-49182380D01*
X247059523Y-49134761D01*
X246964285Y-49039523D01*
X246916666Y-48944285D01*
X246869047Y-48753809D01*
X246869047Y-48610952D01*
X246916666Y-48420476D01*
X246964285Y-48325238D01*
X247059523Y-48230000D01*
X247202380Y-48182380D01*
X247297619Y-48182380D01*
X247440476Y-48230000D01*
X247488095Y-48277619D01*
X248202380Y-48182380D02*
X248202380Y-48896666D01*
X248154761Y-49039523D01*
X248059523Y-49134761D01*
X247916666Y-49182380D01*
X247821428Y-49182380D01*
X249154761Y-49182380D02*
X248678571Y-49182380D01*
X248678571Y-48182380D01*
X250059523Y-49087142D02*
X250011904Y-49134761D01*
X249869047Y-49182380D01*
X249773809Y-49182380D01*
X249630952Y-49134761D01*
X249535714Y-49039523D01*
X249488095Y-48944285D01*
X249440476Y-48753809D01*
X249440476Y-48610952D01*
X249488095Y-48420476D01*
X249535714Y-48325238D01*
X249630952Y-48230000D01*
X249773809Y-48182380D01*
X249869047Y-48182380D01*
X250011904Y-48230000D01*
X250059523Y-48277619D01*
X250773809Y-48182380D02*
X250773809Y-48896666D01*
X250726190Y-49039523D01*
X250630952Y-49134761D01*
X250488095Y-49182380D01*
X250392857Y-49182380D01*
X251726190Y-49182380D02*
X251250000Y-49182380D01*
X251250000Y-48182380D01*
X252630952Y-49087142D02*
X252583333Y-49134761D01*
X252440476Y-49182380D01*
X252345238Y-49182380D01*
X252202380Y-49134761D01*
X252107142Y-49039523D01*
X252059523Y-48944285D01*
X252011904Y-48753809D01*
X252011904Y-48610952D01*
X252059523Y-48420476D01*
X252107142Y-48325238D01*
X252202380Y-48230000D01*
X252345238Y-48182380D01*
X252440476Y-48182380D01*
X252583333Y-48230000D01*
X252630952Y-48277619D01*
X253345238Y-48182380D02*
X253345238Y-48896666D01*
X253297619Y-49039523D01*
X253202380Y-49134761D01*
X253059523Y-49182380D01*
X252964285Y-49182380D01*
X254297619Y-49182380D02*
X253821428Y-49182380D01*
X253821428Y-48182380D01*
X255202380Y-49087142D02*
X255154761Y-49134761D01*
X255011904Y-49182380D01*
X254916666Y-49182380D01*
X254773809Y-49134761D01*
X254678571Y-49039523D01*
X254630952Y-48944285D01*
X254583333Y-48753809D01*
X254583333Y-48610952D01*
X254630952Y-48420476D01*
X254678571Y-48325238D01*
X254773809Y-48230000D01*
X254916666Y-48182380D01*
X255011904Y-48182380D01*
X255154761Y-48230000D01*
X255202380Y-48277619D01*
D12*
%TO.C,C16*%
X169241422Y-73070000D02*
X169758578Y-73070000D01*
X169241422Y-74490000D02*
X169758578Y-74490000D01*
%TO.C,C15*%
X162558578Y-74490000D02*
X162041422Y-74490000D01*
X162558578Y-73070000D02*
X162041422Y-73070000D01*
%TO.C,U11*%
X166000000Y-67520000D02*
X164050000Y-67520000D01*
X166000000Y-67520000D02*
X167950000Y-67520000D01*
X166000000Y-72640000D02*
X164050000Y-72640000D01*
X166000000Y-72640000D02*
X169450000Y-72640000D01*
%TO.C,J2*%
X150170000Y-67550000D02*
X152830000Y-67550000D01*
X150170000Y-52250000D02*
X150170000Y-67550000D01*
X152830000Y-52250000D02*
X152830000Y-67550000D01*
X150170000Y-52250000D02*
X152830000Y-52250000D01*
X150170000Y-50980000D02*
X150170000Y-49650000D01*
X150170000Y-49650000D02*
X151500000Y-49650000D01*
%TO.C,C14*%
X162358578Y-46390000D02*
X161841422Y-46390000D01*
X162358578Y-44970000D02*
X161841422Y-44970000D01*
%TO.C,HV_GND*%
X168550000Y-36180000D02*
X168550000Y-33780000D01*
X170950000Y-36180000D02*
X168550000Y-36180000D01*
X170950000Y-33780000D02*
X170950000Y-36180000D01*
X168550000Y-33780000D02*
X170950000Y-33780000D01*
%TO.C,HV_VCC*%
X173550000Y-40930000D02*
X173550000Y-38530000D01*
X175950000Y-40930000D02*
X173550000Y-40930000D01*
X175950000Y-38530000D02*
X175950000Y-40930000D01*
X173550000Y-38530000D02*
X175950000Y-38530000D01*
%TO.C,U1*%
X184000000Y-34020000D02*
X182050000Y-34020000D01*
X184000000Y-34020000D02*
X185950000Y-34020000D01*
X184000000Y-44140000D02*
X182050000Y-44140000D01*
X184000000Y-44140000D02*
X187450000Y-44140000D01*
%TO.C,C5*%
X169241422Y-45190000D02*
X169758578Y-45190000D01*
X169241422Y-43770000D02*
X169758578Y-43770000D01*
%TO.C,C4*%
X169241422Y-49690000D02*
X169758578Y-49690000D01*
X169241422Y-48270000D02*
X169758578Y-48270000D01*
%TO.C,U10*%
X166000000Y-59420000D02*
X162550000Y-59420000D01*
X166000000Y-59420000D02*
X167950000Y-59420000D01*
X166000000Y-64540000D02*
X164050000Y-64540000D01*
X166000000Y-64540000D02*
X167950000Y-64540000D01*
%TO.C,U9*%
X166000000Y-50420000D02*
X162550000Y-50420000D01*
X166000000Y-50420000D02*
X167950000Y-50420000D01*
X166000000Y-55540000D02*
X164050000Y-55540000D01*
X166000000Y-55540000D02*
X167950000Y-55540000D01*
D11*
%TO.C,M1*%
X159560000Y-42510000D02*
X159560000Y-36510000D01*
X159560000Y-36510000D02*
X171560000Y-36510000D01*
X171560000Y-36510000D02*
X171560000Y-42510000D01*
X171560000Y-42510000D02*
X159560000Y-42510000D01*
D12*
%TO.C,J1*%
X161300000Y-142280000D02*
X161300000Y-140780000D01*
X159560000Y-142280000D02*
X161300000Y-142280000D01*
X157976000Y-135660000D02*
X158069000Y-135754000D01*
X155725000Y-133410000D02*
X155784000Y-133469000D01*
X158216000Y-135490000D02*
X158274000Y-135549000D01*
X155931000Y-133205000D02*
X156024000Y-133299000D01*
X151940000Y-131920000D02*
X161060000Y-131920000D01*
X151940000Y-142040000D02*
X161060000Y-142040000D01*
X161060000Y-142040000D02*
X161060000Y-131920000D01*
X151940000Y-142040000D02*
X151940000Y-131920000D01*
X159500000Y-142040000D02*
X159500000Y-131920000D01*
X154900000Y-134480000D02*
G75*
G03*
X154900000Y-134480000I-900000J0D01*
G01*
X158680000Y-134480000D02*
G75*
G03*
X158680000Y-134480000I-1680000J0D01*
G01*
X154900000Y-139480000D02*
G75*
G03*
X154900000Y-139480000I-900000J0D01*
G01*
X158680450Y-139450617D02*
G75*
G02*
X158484000Y-140269000I-1680450J-29383D01*
G01*
X157789088Y-140963953D02*
G75*
G02*
X156211000Y-140964000I-789088J1483953D01*
G01*
X155516047Y-140269088D02*
G75*
G02*
X155516000Y-138691000I1483953J789088D01*
G01*
X156210912Y-137996047D02*
G75*
G02*
X157789000Y-137996000I789088J-1483953D01*
G01*
X158483352Y-138691288D02*
G75*
G02*
X158680000Y-139480000I-1483352J-788712D01*
G01*
%TO.C,C13*%
X183341422Y-75970000D02*
X183858578Y-75970000D01*
X183341422Y-74550000D02*
X183858578Y-74550000D01*
%TO.C,C12*%
X183541422Y-90070000D02*
X184058578Y-90070000D01*
X183541422Y-88650000D02*
X184058578Y-88650000D01*
%TO.C,C11*%
X183641422Y-62070000D02*
X184158578Y-62070000D01*
X183641422Y-60650000D02*
X184158578Y-60650000D01*
%TO.C,C10*%
X183441422Y-104070000D02*
X183958578Y-104070000D01*
X183441422Y-102650000D02*
X183958578Y-102650000D01*
%TO.C,C9*%
X183741422Y-47770000D02*
X184258578Y-47770000D01*
X183741422Y-46350000D02*
X184258578Y-46350000D01*
%TO.C,C8*%
X183341422Y-118070000D02*
X183858578Y-118070000D01*
X183341422Y-116650000D02*
X183858578Y-116650000D01*
%TO.C,C7*%
X183341422Y-33590000D02*
X183858578Y-33590000D01*
X183341422Y-32170000D02*
X183858578Y-32170000D01*
%TO.C,C6*%
X183341422Y-132070000D02*
X183858578Y-132070000D01*
X183341422Y-130650000D02*
X183858578Y-130650000D01*
%TO.C,C3*%
X169241422Y-58690000D02*
X169758578Y-58690000D01*
X169241422Y-57270000D02*
X169758578Y-57270000D01*
%TO.C,C2*%
X162258578Y-57270000D02*
X161741422Y-57270000D01*
X162258578Y-58690000D02*
X161741422Y-58690000D01*
%TO.C,C1*%
X162321077Y-48270000D02*
X161803921Y-48270000D01*
X162321077Y-49690000D02*
X161803921Y-49690000D01*
%TO.C,R128*%
X255949015Y-141156865D02*
X256179220Y-141387070D01*
X255227766Y-141878114D02*
X255457971Y-142108319D01*
%TO.C,R126*%
X247218434Y-141168996D02*
X247448639Y-141399201D01*
X246497185Y-141890245D02*
X246727390Y-142120450D01*
%TO.C,R124*%
X238405547Y-141229549D02*
X238635752Y-141459754D01*
X237684298Y-141950798D02*
X237914503Y-142181003D01*
%TO.C,R122*%
X229712796Y-141200188D02*
X229943001Y-141430393D01*
X228991547Y-141921437D02*
X229221752Y-142151642D01*
%TO.C,R120*%
X220845927Y-141308407D02*
X221076132Y-141538612D01*
X220124678Y-142029656D02*
X220354883Y-142259861D01*
%TO.C,R118*%
X212189395Y-141238667D02*
X212419600Y-141468872D01*
X211468146Y-141959916D02*
X211698351Y-142190121D01*
%TO.C,R116*%
X203427837Y-141265981D02*
X203658042Y-141496186D01*
X202706588Y-141987230D02*
X202936793Y-142217435D01*
%TO.C,R114*%
X194688675Y-141247426D02*
X194918880Y-141477631D01*
X193967426Y-141968675D02*
X194197631Y-142198880D01*
%TO.C,R112*%
X255949015Y-127156865D02*
X256179220Y-127387070D01*
X255227766Y-127878114D02*
X255457971Y-128108319D01*
%TO.C,R110*%
X247218434Y-127168996D02*
X247448639Y-127399201D01*
X246497185Y-127890245D02*
X246727390Y-128120450D01*
%TO.C,R108*%
X238405547Y-127229549D02*
X238635752Y-127459754D01*
X237684298Y-127950798D02*
X237914503Y-128181003D01*
%TO.C,R106*%
X229712796Y-127200188D02*
X229943001Y-127430393D01*
X228991547Y-127921437D02*
X229221752Y-128151642D01*
%TO.C,R104*%
X220845927Y-127308407D02*
X221076132Y-127538612D01*
X220124678Y-128029656D02*
X220354883Y-128259861D01*
%TO.C,R102*%
X212189395Y-127238667D02*
X212419600Y-127468872D01*
X211468146Y-127959916D02*
X211698351Y-128190121D01*
%TO.C,R100*%
X203427837Y-127265981D02*
X203658042Y-127496186D01*
X202706588Y-127987230D02*
X202936793Y-128217435D01*
%TO.C,R98*%
X194688675Y-127247426D02*
X194918880Y-127477631D01*
X193967426Y-127968675D02*
X194197631Y-128198880D01*
%TO.C,R96*%
X255949015Y-113156865D02*
X256179220Y-113387070D01*
X255227766Y-113878114D02*
X255457971Y-114108319D01*
%TO.C,R94*%
X247218434Y-113168996D02*
X247448639Y-113399201D01*
X246497185Y-113890245D02*
X246727390Y-114120450D01*
%TO.C,R92*%
X238405547Y-113229549D02*
X238635752Y-113459754D01*
X237684298Y-113950798D02*
X237914503Y-114181003D01*
%TO.C,R90*%
X229712796Y-113200188D02*
X229943001Y-113430393D01*
X228991547Y-113921437D02*
X229221752Y-114151642D01*
%TO.C,R88*%
X220845927Y-113308407D02*
X221076132Y-113538612D01*
X220124678Y-114029656D02*
X220354883Y-114259861D01*
%TO.C,R86*%
X212189395Y-113238667D02*
X212419600Y-113468872D01*
X211468146Y-113959916D02*
X211698351Y-114190121D01*
%TO.C,R84*%
X203427837Y-113265981D02*
X203658042Y-113496186D01*
X202706588Y-113987230D02*
X202936793Y-114217435D01*
%TO.C,R82*%
X194688675Y-113247426D02*
X194918880Y-113477631D01*
X193967426Y-113968675D02*
X194197631Y-114198880D01*
%TO.C,R80*%
X255949015Y-99156865D02*
X256179220Y-99387070D01*
X255227766Y-99878114D02*
X255457971Y-100108319D01*
%TO.C,R78*%
X247218434Y-99168996D02*
X247448639Y-99399201D01*
X246497185Y-99890245D02*
X246727390Y-100120450D01*
%TO.C,R76*%
X238405547Y-99229549D02*
X238635752Y-99459754D01*
X237684298Y-99950798D02*
X237914503Y-100181003D01*
%TO.C,R74*%
X229712796Y-99200188D02*
X229943001Y-99430393D01*
X228991547Y-99921437D02*
X229221752Y-100151642D01*
%TO.C,R72*%
X220845927Y-99308407D02*
X221076132Y-99538612D01*
X220124678Y-100029656D02*
X220354883Y-100259861D01*
%TO.C,R70*%
X212189395Y-99238667D02*
X212419600Y-99468872D01*
X211468146Y-99959916D02*
X211698351Y-100190121D01*
%TO.C,R68*%
X203427837Y-99265981D02*
X203658042Y-99496186D01*
X202706588Y-99987230D02*
X202936793Y-100217435D01*
%TO.C,R66*%
X194688675Y-99247426D02*
X194918880Y-99477631D01*
X193967426Y-99968675D02*
X194197631Y-100198880D01*
%TO.C,R64*%
X255949015Y-85156865D02*
X256179220Y-85387070D01*
X255227766Y-85878114D02*
X255457971Y-86108319D01*
%TO.C,R62*%
X247218434Y-85168996D02*
X247448639Y-85399201D01*
X246497185Y-85890245D02*
X246727390Y-86120450D01*
%TO.C,R60*%
X238405547Y-85229549D02*
X238635752Y-85459754D01*
X237684298Y-85950798D02*
X237914503Y-86181003D01*
%TO.C,R58*%
X229712796Y-85200188D02*
X229943001Y-85430393D01*
X228991547Y-85921437D02*
X229221752Y-86151642D01*
%TO.C,R56*%
X220845927Y-85308407D02*
X221076132Y-85538612D01*
X220124678Y-86029656D02*
X220354883Y-86259861D01*
%TO.C,R54*%
X212189395Y-85238667D02*
X212419600Y-85468872D01*
X211468146Y-85959916D02*
X211698351Y-86190121D01*
%TO.C,R52*%
X203427837Y-85265981D02*
X203658042Y-85496186D01*
X202706588Y-85987230D02*
X202936793Y-86217435D01*
%TO.C,R50*%
X194688675Y-85247426D02*
X194918880Y-85477631D01*
X193967426Y-85968675D02*
X194197631Y-86198880D01*
%TO.C,R48*%
X255949015Y-71156865D02*
X256179220Y-71387070D01*
X255227766Y-71878114D02*
X255457971Y-72108319D01*
%TO.C,R46*%
X247218434Y-71168996D02*
X247448639Y-71399201D01*
X246497185Y-71890245D02*
X246727390Y-72120450D01*
%TO.C,R44*%
X238405547Y-71229549D02*
X238635752Y-71459754D01*
X237684298Y-71950798D02*
X237914503Y-72181003D01*
%TO.C,R42*%
X229712796Y-71200188D02*
X229943001Y-71430393D01*
X228991547Y-71921437D02*
X229221752Y-72151642D01*
%TO.C,R40*%
X220845927Y-71308407D02*
X221076132Y-71538612D01*
X220124678Y-72029656D02*
X220354883Y-72259861D01*
%TO.C,R38*%
X212189395Y-71238667D02*
X212419600Y-71468872D01*
X211468146Y-71959916D02*
X211698351Y-72190121D01*
%TO.C,R36*%
X203427837Y-71265981D02*
X203658042Y-71496186D01*
X202706588Y-71987230D02*
X202936793Y-72217435D01*
%TO.C,R34*%
X194688675Y-71247426D02*
X194918880Y-71477631D01*
X193967426Y-71968675D02*
X194197631Y-72198880D01*
%TO.C,R32*%
X255949015Y-56856865D02*
X256179220Y-57087070D01*
X255227766Y-57578114D02*
X255457971Y-57808319D01*
%TO.C,R30*%
X247218434Y-56868996D02*
X247448639Y-57099201D01*
X246497185Y-57590245D02*
X246727390Y-57820450D01*
%TO.C,R28*%
X238405547Y-56929549D02*
X238635752Y-57159754D01*
X237684298Y-57650798D02*
X237914503Y-57881003D01*
%TO.C,R26*%
X229712796Y-56900188D02*
X229943001Y-57130393D01*
X228991547Y-57621437D02*
X229221752Y-57851642D01*
%TO.C,R24*%
X220845927Y-57008407D02*
X221076132Y-57238612D01*
X220124678Y-57729656D02*
X220354883Y-57959861D01*
%TO.C,R22*%
X212189395Y-56938667D02*
X212419600Y-57168872D01*
X211468146Y-57659916D02*
X211698351Y-57890121D01*
%TO.C,R20*%
X203427837Y-56965981D02*
X203658042Y-57196186D01*
X202706588Y-57687230D02*
X202936793Y-57917435D01*
%TO.C,R18*%
X194688675Y-56947426D02*
X194918880Y-57177631D01*
X193967426Y-57668675D02*
X194197631Y-57898880D01*
%TO.C,D64*%
X255812816Y-139202503D02*
X256470425Y-139860113D01*
X258047274Y-141436961D02*
X257389664Y-140779352D01*
X258047274Y-141436961D02*
X259574624Y-139909610D01*
X255812816Y-139202503D02*
X256845192Y-138170128D01*
%TO.C,D63*%
X247082235Y-139214635D02*
X247739844Y-139872245D01*
X249316693Y-141449093D02*
X248659083Y-140791484D01*
X249316693Y-141449093D02*
X250844043Y-139921742D01*
X247082235Y-139214635D02*
X248114611Y-138182260D01*
%TO.C,D62*%
X238269348Y-139275188D02*
X238926957Y-139932798D01*
X240503806Y-141509646D02*
X239846196Y-140852037D01*
X240503806Y-141509646D02*
X242031156Y-139982295D01*
X238269348Y-139275188D02*
X239301724Y-138242813D01*
%TO.C,D61*%
X229576598Y-139245827D02*
X230234207Y-139903437D01*
X231811056Y-141480285D02*
X231153446Y-140822676D01*
X231811056Y-141480285D02*
X233338406Y-139952934D01*
X229576598Y-139245827D02*
X230608974Y-138213452D01*
%TO.C,D60*%
X220709729Y-139354046D02*
X221367338Y-140011656D01*
X222944187Y-141588504D02*
X222286577Y-140930895D01*
X222944187Y-141588504D02*
X224471537Y-140061153D01*
X220709729Y-139354046D02*
X221742105Y-138321671D01*
%TO.C,D59*%
X212053197Y-139284305D02*
X212710806Y-139941915D01*
X214287655Y-141518763D02*
X213630045Y-140861154D01*
X214287655Y-141518763D02*
X215815005Y-139991412D01*
X212053197Y-139284305D02*
X213085573Y-138251930D01*
%TO.C,D58*%
X203291639Y-139311620D02*
X203949248Y-139969230D01*
X205526097Y-141546078D02*
X204868487Y-140888469D01*
X205526097Y-141546078D02*
X207053447Y-140018727D01*
X203291639Y-139311620D02*
X204324015Y-138279245D01*
%TO.C,D57*%
X194552477Y-139293065D02*
X195210086Y-139950675D01*
X196786935Y-141527523D02*
X196129325Y-140869914D01*
X196786935Y-141527523D02*
X198314285Y-140000172D01*
X194552477Y-139293065D02*
X195584853Y-138260690D01*
%TO.C,D56*%
X255812816Y-125202503D02*
X256470425Y-125860113D01*
X258047274Y-127436961D02*
X257389664Y-126779352D01*
X258047274Y-127436961D02*
X259574624Y-125909610D01*
X255812816Y-125202503D02*
X256845192Y-124170128D01*
%TO.C,D55*%
X247082235Y-125214635D02*
X247739844Y-125872245D01*
X249316693Y-127449093D02*
X248659083Y-126791484D01*
X249316693Y-127449093D02*
X250844043Y-125921742D01*
X247082235Y-125214635D02*
X248114611Y-124182260D01*
%TO.C,D54*%
X238269348Y-125275188D02*
X238926957Y-125932798D01*
X240503806Y-127509646D02*
X239846196Y-126852037D01*
X240503806Y-127509646D02*
X242031156Y-125982295D01*
X238269348Y-125275188D02*
X239301724Y-124242813D01*
%TO.C,D53*%
X229576598Y-125245827D02*
X230234207Y-125903437D01*
X231811056Y-127480285D02*
X231153446Y-126822676D01*
X231811056Y-127480285D02*
X233338406Y-125952934D01*
X229576598Y-125245827D02*
X230608974Y-124213452D01*
%TO.C,D52*%
X220709729Y-125354046D02*
X221367338Y-126011656D01*
X222944187Y-127588504D02*
X222286577Y-126930895D01*
X222944187Y-127588504D02*
X224471537Y-126061153D01*
X220709729Y-125354046D02*
X221742105Y-124321671D01*
%TO.C,D51*%
X212053197Y-125284305D02*
X212710806Y-125941915D01*
X214287655Y-127518763D02*
X213630045Y-126861154D01*
X214287655Y-127518763D02*
X215815005Y-125991412D01*
X212053197Y-125284305D02*
X213085573Y-124251930D01*
%TO.C,D50*%
X203291639Y-125311620D02*
X203949248Y-125969230D01*
X205526097Y-127546078D02*
X204868487Y-126888469D01*
X205526097Y-127546078D02*
X207053447Y-126018727D01*
X203291639Y-125311620D02*
X204324015Y-124279245D01*
%TO.C,D49*%
X194552477Y-125293065D02*
X195210086Y-125950675D01*
X196786935Y-127527523D02*
X196129325Y-126869914D01*
X196786935Y-127527523D02*
X198314285Y-126000172D01*
X194552477Y-125293065D02*
X195584853Y-124260690D01*
%TO.C,D48*%
X255812816Y-111202503D02*
X256470425Y-111860113D01*
X258047274Y-113436961D02*
X257389664Y-112779352D01*
X258047274Y-113436961D02*
X259574624Y-111909610D01*
X255812816Y-111202503D02*
X256845192Y-110170128D01*
%TO.C,D47*%
X247082235Y-111214635D02*
X247739844Y-111872245D01*
X249316693Y-113449093D02*
X248659083Y-112791484D01*
X249316693Y-113449093D02*
X250844043Y-111921742D01*
X247082235Y-111214635D02*
X248114611Y-110182260D01*
%TO.C,D46*%
X238269348Y-111275188D02*
X238926957Y-111932798D01*
X240503806Y-113509646D02*
X239846196Y-112852037D01*
X240503806Y-113509646D02*
X242031156Y-111982295D01*
X238269348Y-111275188D02*
X239301724Y-110242813D01*
%TO.C,D45*%
X229576598Y-111245827D02*
X230234207Y-111903437D01*
X231811056Y-113480285D02*
X231153446Y-112822676D01*
X231811056Y-113480285D02*
X233338406Y-111952934D01*
X229576598Y-111245827D02*
X230608974Y-110213452D01*
%TO.C,D44*%
X220709729Y-111354046D02*
X221367338Y-112011656D01*
X222944187Y-113588504D02*
X222286577Y-112930895D01*
X222944187Y-113588504D02*
X224471537Y-112061153D01*
X220709729Y-111354046D02*
X221742105Y-110321671D01*
%TO.C,D43*%
X212053197Y-111284305D02*
X212710806Y-111941915D01*
X214287655Y-113518763D02*
X213630045Y-112861154D01*
X214287655Y-113518763D02*
X215815005Y-111991412D01*
X212053197Y-111284305D02*
X213085573Y-110251930D01*
%TO.C,D42*%
X203291639Y-111311620D02*
X203949248Y-111969230D01*
X205526097Y-113546078D02*
X204868487Y-112888469D01*
X205526097Y-113546078D02*
X207053447Y-112018727D01*
X203291639Y-111311620D02*
X204324015Y-110279245D01*
%TO.C,D41*%
X194552477Y-111293065D02*
X195210086Y-111950675D01*
X196786935Y-113527523D02*
X196129325Y-112869914D01*
X196786935Y-113527523D02*
X198314285Y-112000172D01*
X194552477Y-111293065D02*
X195584853Y-110260690D01*
%TO.C,D40*%
X255812816Y-97202503D02*
X256470425Y-97860113D01*
X258047274Y-99436961D02*
X257389664Y-98779352D01*
X258047274Y-99436961D02*
X259574624Y-97909610D01*
X255812816Y-97202503D02*
X256845192Y-96170128D01*
%TO.C,D39*%
X247082235Y-97214635D02*
X247739844Y-97872245D01*
X249316693Y-99449093D02*
X248659083Y-98791484D01*
X249316693Y-99449093D02*
X250844043Y-97921742D01*
X247082235Y-97214635D02*
X248114611Y-96182260D01*
%TO.C,D38*%
X238269348Y-97275188D02*
X238926957Y-97932798D01*
X240503806Y-99509646D02*
X239846196Y-98852037D01*
X240503806Y-99509646D02*
X242031156Y-97982295D01*
X238269348Y-97275188D02*
X239301724Y-96242813D01*
%TO.C,D37*%
X229576598Y-97245827D02*
X230234207Y-97903437D01*
X231811056Y-99480285D02*
X231153446Y-98822676D01*
X231811056Y-99480285D02*
X233338406Y-97952934D01*
X229576598Y-97245827D02*
X230608974Y-96213452D01*
%TO.C,D36*%
X220709729Y-97354046D02*
X221367338Y-98011656D01*
X222944187Y-99588504D02*
X222286577Y-98930895D01*
X222944187Y-99588504D02*
X224471537Y-98061153D01*
X220709729Y-97354046D02*
X221742105Y-96321671D01*
%TO.C,D35*%
X212053197Y-97284305D02*
X212710806Y-97941915D01*
X214287655Y-99518763D02*
X213630045Y-98861154D01*
X214287655Y-99518763D02*
X215815005Y-97991412D01*
X212053197Y-97284305D02*
X213085573Y-96251930D01*
%TO.C,D34*%
X203291639Y-97311620D02*
X203949248Y-97969230D01*
X205526097Y-99546078D02*
X204868487Y-98888469D01*
X205526097Y-99546078D02*
X207053447Y-98018727D01*
X203291639Y-97311620D02*
X204324015Y-96279245D01*
%TO.C,D33*%
X194552477Y-97293065D02*
X195210086Y-97950675D01*
X196786935Y-99527523D02*
X196129325Y-98869914D01*
X196786935Y-99527523D02*
X198314285Y-98000172D01*
X194552477Y-97293065D02*
X195584853Y-96260690D01*
%TO.C,D32*%
X255812816Y-83202503D02*
X256470425Y-83860113D01*
X258047274Y-85436961D02*
X257389664Y-84779352D01*
X258047274Y-85436961D02*
X259574624Y-83909610D01*
X255812816Y-83202503D02*
X256845192Y-82170128D01*
%TO.C,D31*%
X247082235Y-83214635D02*
X247739844Y-83872245D01*
X249316693Y-85449093D02*
X248659083Y-84791484D01*
X249316693Y-85449093D02*
X250844043Y-83921742D01*
X247082235Y-83214635D02*
X248114611Y-82182260D01*
%TO.C,D30*%
X238269348Y-83275188D02*
X238926957Y-83932798D01*
X240503806Y-85509646D02*
X239846196Y-84852037D01*
X240503806Y-85509646D02*
X242031156Y-83982295D01*
X238269348Y-83275188D02*
X239301724Y-82242813D01*
%TO.C,D29*%
X229576598Y-83245827D02*
X230234207Y-83903437D01*
X231811056Y-85480285D02*
X231153446Y-84822676D01*
X231811056Y-85480285D02*
X233338406Y-83952934D01*
X229576598Y-83245827D02*
X230608974Y-82213452D01*
%TO.C,D28*%
X220709729Y-83354046D02*
X221367338Y-84011656D01*
X222944187Y-85588504D02*
X222286577Y-84930895D01*
X222944187Y-85588504D02*
X224471537Y-84061153D01*
X220709729Y-83354046D02*
X221742105Y-82321671D01*
%TO.C,D27*%
X212053197Y-83284305D02*
X212710806Y-83941915D01*
X214287655Y-85518763D02*
X213630045Y-84861154D01*
X214287655Y-85518763D02*
X215815005Y-83991412D01*
X212053197Y-83284305D02*
X213085573Y-82251930D01*
%TO.C,D26*%
X203291639Y-83311620D02*
X203949248Y-83969230D01*
X205526097Y-85546078D02*
X204868487Y-84888469D01*
X205526097Y-85546078D02*
X207053447Y-84018727D01*
X203291639Y-83311620D02*
X204324015Y-82279245D01*
%TO.C,D25*%
X194552477Y-83293065D02*
X195210086Y-83950675D01*
X196786935Y-85527523D02*
X196129325Y-84869914D01*
X196786935Y-85527523D02*
X198314285Y-84000172D01*
X194552477Y-83293065D02*
X195584853Y-82260690D01*
%TO.C,D24*%
X255812816Y-69202503D02*
X256470425Y-69860113D01*
X258047274Y-71436961D02*
X257389664Y-70779352D01*
X258047274Y-71436961D02*
X259574624Y-69909610D01*
X255812816Y-69202503D02*
X256845192Y-68170128D01*
%TO.C,D23*%
X247082235Y-69214635D02*
X247739844Y-69872245D01*
X249316693Y-71449093D02*
X248659083Y-70791484D01*
X249316693Y-71449093D02*
X250844043Y-69921742D01*
X247082235Y-69214635D02*
X248114611Y-68182260D01*
%TO.C,D22*%
X238269348Y-69275188D02*
X238926957Y-69932798D01*
X240503806Y-71509646D02*
X239846196Y-70852037D01*
X240503806Y-71509646D02*
X242031156Y-69982295D01*
X238269348Y-69275188D02*
X239301724Y-68242813D01*
%TO.C,D21*%
X229576598Y-69245827D02*
X230234207Y-69903437D01*
X231811056Y-71480285D02*
X231153446Y-70822676D01*
X231811056Y-71480285D02*
X233338406Y-69952934D01*
X229576598Y-69245827D02*
X230608974Y-68213452D01*
%TO.C,D20*%
X220709729Y-69354046D02*
X221367338Y-70011656D01*
X222944187Y-71588504D02*
X222286577Y-70930895D01*
X222944187Y-71588504D02*
X224471537Y-70061153D01*
X220709729Y-69354046D02*
X221742105Y-68321671D01*
%TO.C,D19*%
X212053197Y-69284305D02*
X212710806Y-69941915D01*
X214287655Y-71518763D02*
X213630045Y-70861154D01*
X214287655Y-71518763D02*
X215815005Y-69991412D01*
X212053197Y-69284305D02*
X213085573Y-68251930D01*
%TO.C,D18*%
X203291639Y-69311620D02*
X203949248Y-69969230D01*
X205526097Y-71546078D02*
X204868487Y-70888469D01*
X205526097Y-71546078D02*
X207053447Y-70018727D01*
X203291639Y-69311620D02*
X204324015Y-68279245D01*
%TO.C,D17*%
X194552477Y-69293065D02*
X195210086Y-69950675D01*
X196786935Y-71527523D02*
X196129325Y-70869914D01*
X196786935Y-71527523D02*
X198314285Y-70000172D01*
X194552477Y-69293065D02*
X195584853Y-68260690D01*
%TO.C,D16*%
X255812816Y-54902503D02*
X256470425Y-55560113D01*
X258047274Y-57136961D02*
X257389664Y-56479352D01*
X258047274Y-57136961D02*
X259574624Y-55609610D01*
X255812816Y-54902503D02*
X256845192Y-53870128D01*
%TO.C,D15*%
X247082235Y-54914635D02*
X247739844Y-55572245D01*
X249316693Y-57149093D02*
X248659083Y-56491484D01*
X249316693Y-57149093D02*
X250844043Y-55621742D01*
X247082235Y-54914635D02*
X248114611Y-53882260D01*
%TO.C,D14*%
X238269348Y-54975188D02*
X238926957Y-55632798D01*
X240503806Y-57209646D02*
X239846196Y-56552037D01*
X240503806Y-57209646D02*
X242031156Y-55682295D01*
X238269348Y-54975188D02*
X239301724Y-53942813D01*
%TO.C,D13*%
X229576598Y-54945827D02*
X230234207Y-55603437D01*
X231811056Y-57180285D02*
X231153446Y-56522676D01*
X231811056Y-57180285D02*
X233338406Y-55652934D01*
X229576598Y-54945827D02*
X230608974Y-53913452D01*
%TO.C,D12*%
X220709729Y-55054046D02*
X221367338Y-55711656D01*
X222944187Y-57288504D02*
X222286577Y-56630895D01*
X222944187Y-57288504D02*
X224471537Y-55761153D01*
X220709729Y-55054046D02*
X221742105Y-54021671D01*
%TO.C,D11*%
X212053197Y-54984305D02*
X212710806Y-55641915D01*
X214287655Y-57218763D02*
X213630045Y-56561154D01*
X214287655Y-57218763D02*
X215815005Y-55691412D01*
X212053197Y-54984305D02*
X213085573Y-53951930D01*
%TO.C,D10*%
X203291639Y-55011620D02*
X203949248Y-55669230D01*
X205526097Y-57246078D02*
X204868487Y-56588469D01*
X205526097Y-57246078D02*
X207053447Y-55718727D01*
X203291639Y-55011620D02*
X204324015Y-53979245D01*
%TO.C,D9*%
X194552477Y-54993065D02*
X195210086Y-55650675D01*
X196786935Y-57227523D02*
X196129325Y-56569914D01*
X196786935Y-57227523D02*
X198314285Y-55700172D01*
X194552477Y-54993065D02*
X195584853Y-53960690D01*
%TO.C,U8*%
X184000000Y-132620000D02*
X182050000Y-132620000D01*
X184000000Y-132620000D02*
X185950000Y-132620000D01*
X184000000Y-142740000D02*
X182050000Y-142740000D01*
X184000000Y-142740000D02*
X187450000Y-142740000D01*
%TO.C,U7*%
X184000000Y-118620000D02*
X182050000Y-118620000D01*
X184000000Y-118620000D02*
X185950000Y-118620000D01*
X184000000Y-128740000D02*
X182050000Y-128740000D01*
X184000000Y-128740000D02*
X187450000Y-128740000D01*
%TO.C,U6*%
X184000000Y-104620000D02*
X182050000Y-104620000D01*
X184000000Y-104620000D02*
X185950000Y-104620000D01*
X184000000Y-114740000D02*
X182050000Y-114740000D01*
X184000000Y-114740000D02*
X187450000Y-114740000D01*
%TO.C,U5*%
X184000000Y-90620000D02*
X182050000Y-90620000D01*
X184000000Y-90620000D02*
X185950000Y-90620000D01*
X184000000Y-100740000D02*
X182050000Y-100740000D01*
X184000000Y-100740000D02*
X187450000Y-100740000D01*
%TO.C,U4*%
X184000000Y-76620000D02*
X182050000Y-76620000D01*
X184000000Y-76620000D02*
X185950000Y-76620000D01*
X184000000Y-86740000D02*
X182050000Y-86740000D01*
X184000000Y-86740000D02*
X187450000Y-86740000D01*
%TO.C,U3*%
X184000000Y-62620000D02*
X182050000Y-62620000D01*
X184000000Y-62620000D02*
X185950000Y-62620000D01*
X184000000Y-72740000D02*
X182050000Y-72740000D01*
X184000000Y-72740000D02*
X187450000Y-72740000D01*
%TO.C,U2*%
X184000000Y-48320000D02*
X182050000Y-48320000D01*
X184000000Y-48320000D02*
X185950000Y-48320000D01*
X184000000Y-58440000D02*
X182050000Y-58440000D01*
X184000000Y-58440000D02*
X187450000Y-58440000D01*
%TO.C,R16*%
X255949015Y-42556865D02*
X256179220Y-42787070D01*
X255227766Y-43278114D02*
X255457971Y-43508319D01*
%TO.C,R14*%
X247218434Y-42568996D02*
X247448639Y-42799201D01*
X246497185Y-43290245D02*
X246727390Y-43520450D01*
%TO.C,R12*%
X238405547Y-42629549D02*
X238635752Y-42859754D01*
X237684298Y-43350798D02*
X237914503Y-43581003D01*
%TO.C,R10*%
X229712796Y-42600188D02*
X229943001Y-42830393D01*
X228991547Y-43321437D02*
X229221752Y-43551642D01*
%TO.C,R8*%
X220845927Y-42708407D02*
X221076132Y-42938612D01*
X220124678Y-43429656D02*
X220354883Y-43659861D01*
%TO.C,R6*%
X212189395Y-42638667D02*
X212419600Y-42868872D01*
X211468146Y-43359916D02*
X211698351Y-43590121D01*
%TO.C,R4*%
X203427837Y-42665981D02*
X203658042Y-42896186D01*
X202706588Y-43387230D02*
X202936793Y-43617435D01*
%TO.C,D8*%
X255812816Y-40602503D02*
X256470425Y-41260113D01*
X258047274Y-42836961D02*
X257389664Y-42179352D01*
X258047274Y-42836961D02*
X259574624Y-41309610D01*
X255812816Y-40602503D02*
X256845192Y-39570128D01*
%TO.C,D7*%
X247082235Y-40614635D02*
X247739844Y-41272245D01*
X249316693Y-42849093D02*
X248659083Y-42191484D01*
X249316693Y-42849093D02*
X250844043Y-41321742D01*
X247082235Y-40614635D02*
X248114611Y-39582260D01*
%TO.C,D6*%
X238269348Y-40675188D02*
X238926957Y-41332798D01*
X240503806Y-42909646D02*
X239846196Y-42252037D01*
X240503806Y-42909646D02*
X242031156Y-41382295D01*
X238269348Y-40675188D02*
X239301724Y-39642813D01*
%TO.C,D5*%
X229576598Y-40645827D02*
X230234207Y-41303437D01*
X231811056Y-42880285D02*
X231153446Y-42222676D01*
X231811056Y-42880285D02*
X233338406Y-41352934D01*
X229576598Y-40645827D02*
X230608974Y-39613452D01*
%TO.C,D4*%
X220709729Y-40754046D02*
X221367338Y-41411656D01*
X222944187Y-42988504D02*
X222286577Y-42330895D01*
X222944187Y-42988504D02*
X224471537Y-41461153D01*
X220709729Y-40754046D02*
X221742105Y-39721671D01*
%TO.C,D3*%
X212053197Y-40684305D02*
X212710806Y-41341915D01*
X214287655Y-42918763D02*
X213630045Y-42261154D01*
X214287655Y-42918763D02*
X215815005Y-41391412D01*
X212053197Y-40684305D02*
X213085573Y-39651930D01*
%TO.C,D2*%
X203291639Y-40711620D02*
X203949248Y-41369230D01*
X205526097Y-42946078D02*
X204868487Y-42288469D01*
X205526097Y-42946078D02*
X207053447Y-41418727D01*
X203291639Y-40711620D02*
X204324015Y-39679245D01*
%TO.C,R2*%
X194688675Y-42647426D02*
X194918880Y-42877631D01*
X193967426Y-43368675D02*
X194197631Y-43598880D01*
%TO.C,D1*%
X194552477Y-40693065D02*
X195210086Y-41350675D01*
X196786935Y-42927523D02*
X196129325Y-42269914D01*
X196786935Y-42927523D02*
X198314285Y-41400172D01*
X194552477Y-40693065D02*
X195584853Y-39660690D01*
%TO.C,U11*%
D11*
X164761904Y-72932380D02*
X164761904Y-73741904D01*
X164809523Y-73837142D01*
X164857142Y-73884761D01*
X164952380Y-73932380D01*
X165142857Y-73932380D01*
X165238095Y-73884761D01*
X165285714Y-73837142D01*
X165333333Y-73741904D01*
X165333333Y-72932380D01*
X166333333Y-73932380D02*
X165761904Y-73932380D01*
X166047619Y-73932380D02*
X166047619Y-72932380D01*
X165952380Y-73075238D01*
X165857142Y-73170476D01*
X165761904Y-73218095D01*
X167285714Y-73932380D02*
X166714285Y-73932380D01*
X167000000Y-73932380D02*
X167000000Y-72932380D01*
X166904761Y-73075238D01*
X166809523Y-73170476D01*
X166714285Y-73218095D01*
%TO.C,J2*%
X151166666Y-48102380D02*
X151166666Y-48816666D01*
X151119047Y-48959523D01*
X151023809Y-49054761D01*
X150880952Y-49102380D01*
X150785714Y-49102380D01*
X151595238Y-48197619D02*
X151642857Y-48150000D01*
X151738095Y-48102380D01*
X151976190Y-48102380D01*
X152071428Y-48150000D01*
X152119047Y-48197619D01*
X152166666Y-48292857D01*
X152166666Y-48388095D01*
X152119047Y-48530952D01*
X151547619Y-49102380D01*
X152166666Y-49102380D01*
%TO.C,HV_GND*%
X167130952Y-33434380D02*
X167130952Y-32434380D01*
X167130952Y-32910571D02*
X167702380Y-32910571D01*
X167702380Y-33434380D02*
X167702380Y-32434380D01*
X168035714Y-32434380D02*
X168369047Y-33434380D01*
X168702380Y-32434380D01*
X168797619Y-33529619D02*
X169559523Y-33529619D01*
X170321428Y-32482000D02*
X170226190Y-32434380D01*
X170083333Y-32434380D01*
X169940476Y-32482000D01*
X169845238Y-32577238D01*
X169797619Y-32672476D01*
X169750000Y-32862952D01*
X169750000Y-33005809D01*
X169797619Y-33196285D01*
X169845238Y-33291523D01*
X169940476Y-33386761D01*
X170083333Y-33434380D01*
X170178571Y-33434380D01*
X170321428Y-33386761D01*
X170369047Y-33339142D01*
X170369047Y-33005809D01*
X170178571Y-33005809D01*
X170797619Y-33434380D02*
X170797619Y-32434380D01*
X171369047Y-33434380D01*
X171369047Y-32434380D01*
X171845238Y-33434380D02*
X171845238Y-32434380D01*
X172083333Y-32434380D01*
X172226190Y-32482000D01*
X172321428Y-32577238D01*
X172369047Y-32672476D01*
X172416666Y-32862952D01*
X172416666Y-33005809D01*
X172369047Y-33196285D01*
X172321428Y-33291523D01*
X172226190Y-33386761D01*
X172083333Y-33434380D01*
X171845238Y-33434380D01*
%TO.C,HV_VCC*%
X172226190Y-38184380D02*
X172226190Y-37184380D01*
X172226190Y-37660571D02*
X172797619Y-37660571D01*
X172797619Y-38184380D02*
X172797619Y-37184380D01*
X173130952Y-37184380D02*
X173464285Y-38184380D01*
X173797619Y-37184380D01*
X173892857Y-38279619D02*
X174654761Y-38279619D01*
X174750000Y-37184380D02*
X175083333Y-38184380D01*
X175416666Y-37184380D01*
X176321428Y-38089142D02*
X176273809Y-38136761D01*
X176130952Y-38184380D01*
X176035714Y-38184380D01*
X175892857Y-38136761D01*
X175797619Y-38041523D01*
X175750000Y-37946285D01*
X175702380Y-37755809D01*
X175702380Y-37612952D01*
X175750000Y-37422476D01*
X175797619Y-37327238D01*
X175892857Y-37232000D01*
X176035714Y-37184380D01*
X176130952Y-37184380D01*
X176273809Y-37232000D01*
X176321428Y-37279619D01*
X177321428Y-38089142D02*
X177273809Y-38136761D01*
X177130952Y-38184380D01*
X177035714Y-38184380D01*
X176892857Y-38136761D01*
X176797619Y-38041523D01*
X176750000Y-37946285D01*
X176702380Y-37755809D01*
X176702380Y-37612952D01*
X176750000Y-37422476D01*
X176797619Y-37327238D01*
X176892857Y-37232000D01*
X177035714Y-37184380D01*
X177130952Y-37184380D01*
X177273809Y-37232000D01*
X177321428Y-37279619D01*
%TO.C,U1*%
X183238095Y-44432380D02*
X183238095Y-45241904D01*
X183285714Y-45337142D01*
X183333333Y-45384761D01*
X183428571Y-45432380D01*
X183619047Y-45432380D01*
X183714285Y-45384761D01*
X183761904Y-45337142D01*
X183809523Y-45241904D01*
X183809523Y-44432380D01*
X184809523Y-45432380D02*
X184238095Y-45432380D01*
X184523809Y-45432380D02*
X184523809Y-44432380D01*
X184428571Y-44575238D01*
X184333333Y-44670476D01*
X184238095Y-44718095D01*
%TO.C,U10*%
X164761904Y-58032380D02*
X164761904Y-58841904D01*
X164809523Y-58937142D01*
X164857142Y-58984761D01*
X164952380Y-59032380D01*
X165142857Y-59032380D01*
X165238095Y-58984761D01*
X165285714Y-58937142D01*
X165333333Y-58841904D01*
X165333333Y-58032380D01*
X166333333Y-59032380D02*
X165761904Y-59032380D01*
X166047619Y-59032380D02*
X166047619Y-58032380D01*
X165952380Y-58175238D01*
X165857142Y-58270476D01*
X165761904Y-58318095D01*
X166952380Y-58032380D02*
X167047619Y-58032380D01*
X167142857Y-58080000D01*
X167190476Y-58127619D01*
X167238095Y-58222857D01*
X167285714Y-58413333D01*
X167285714Y-58651428D01*
X167238095Y-58841904D01*
X167190476Y-58937142D01*
X167142857Y-58984761D01*
X167047619Y-59032380D01*
X166952380Y-59032380D01*
X166857142Y-58984761D01*
X166809523Y-58937142D01*
X166761904Y-58841904D01*
X166714285Y-58651428D01*
X166714285Y-58413333D01*
X166761904Y-58222857D01*
X166809523Y-58127619D01*
X166857142Y-58080000D01*
X166952380Y-58032380D01*
%TO.C,U9*%
X165238095Y-49032380D02*
X165238095Y-49841904D01*
X165285714Y-49937142D01*
X165333333Y-49984761D01*
X165428571Y-50032380D01*
X165619047Y-50032380D01*
X165714285Y-49984761D01*
X165761904Y-49937142D01*
X165809523Y-49841904D01*
X165809523Y-49032380D01*
X166333333Y-50032380D02*
X166523809Y-50032380D01*
X166619047Y-49984761D01*
X166666666Y-49937142D01*
X166761904Y-49794285D01*
X166809523Y-49603809D01*
X166809523Y-49222857D01*
X166761904Y-49127619D01*
X166714285Y-49080000D01*
X166619047Y-49032380D01*
X166428571Y-49032380D01*
X166333333Y-49080000D01*
X166285714Y-49127619D01*
X166238095Y-49222857D01*
X166238095Y-49460952D01*
X166285714Y-49556190D01*
X166333333Y-49603809D01*
X166428571Y-49651428D01*
X166619047Y-49651428D01*
X166714285Y-49603809D01*
X166761904Y-49556190D01*
X166809523Y-49460952D01*
%TO.C,M1*%
X164588571Y-44752857D02*
X164588571Y-43552857D01*
X164988571Y-44410000D01*
X165388571Y-43552857D01*
X165388571Y-44752857D01*
X166588571Y-44752857D02*
X165902857Y-44752857D01*
X166245714Y-44752857D02*
X166245714Y-43552857D01*
X166131428Y-43724285D01*
X166017142Y-43838571D01*
X165902857Y-43895714D01*
%TO.C,J1*%
X150392380Y-137313333D02*
X151106666Y-137313333D01*
X151249523Y-137360952D01*
X151344761Y-137456190D01*
X151392380Y-137599047D01*
X151392380Y-137694285D01*
X151392380Y-136313333D02*
X151392380Y-136884761D01*
X151392380Y-136599047D02*
X150392380Y-136599047D01*
X150535238Y-136694285D01*
X150630476Y-136789523D01*
X150678095Y-136884761D01*
%TO.C,U8*%
X183238095Y-143032380D02*
X183238095Y-143841904D01*
X183285714Y-143937142D01*
X183333333Y-143984761D01*
X183428571Y-144032380D01*
X183619047Y-144032380D01*
X183714285Y-143984761D01*
X183761904Y-143937142D01*
X183809523Y-143841904D01*
X183809523Y-143032380D01*
X184428571Y-143460952D02*
X184333333Y-143413333D01*
X184285714Y-143365714D01*
X184238095Y-143270476D01*
X184238095Y-143222857D01*
X184285714Y-143127619D01*
X184333333Y-143080000D01*
X184428571Y-143032380D01*
X184619047Y-143032380D01*
X184714285Y-143080000D01*
X184761904Y-143127619D01*
X184809523Y-143222857D01*
X184809523Y-143270476D01*
X184761904Y-143365714D01*
X184714285Y-143413333D01*
X184619047Y-143460952D01*
X184428571Y-143460952D01*
X184333333Y-143508571D01*
X184285714Y-143556190D01*
X184238095Y-143651428D01*
X184238095Y-143841904D01*
X184285714Y-143937142D01*
X184333333Y-143984761D01*
X184428571Y-144032380D01*
X184619047Y-144032380D01*
X184714285Y-143984761D01*
X184761904Y-143937142D01*
X184809523Y-143841904D01*
X184809523Y-143651428D01*
X184761904Y-143556190D01*
X184714285Y-143508571D01*
X184619047Y-143460952D01*
%TO.C,U7*%
X183238095Y-129032380D02*
X183238095Y-129841904D01*
X183285714Y-129937142D01*
X183333333Y-129984761D01*
X183428571Y-130032380D01*
X183619047Y-130032380D01*
X183714285Y-129984761D01*
X183761904Y-129937142D01*
X183809523Y-129841904D01*
X183809523Y-129032380D01*
X184190476Y-129032380D02*
X184857142Y-129032380D01*
X184428571Y-130032380D01*
%TO.C,U6*%
X183238095Y-115032380D02*
X183238095Y-115841904D01*
X183285714Y-115937142D01*
X183333333Y-115984761D01*
X183428571Y-116032380D01*
X183619047Y-116032380D01*
X183714285Y-115984761D01*
X183761904Y-115937142D01*
X183809523Y-115841904D01*
X183809523Y-115032380D01*
X184714285Y-115032380D02*
X184523809Y-115032380D01*
X184428571Y-115080000D01*
X184380952Y-115127619D01*
X184285714Y-115270476D01*
X184238095Y-115460952D01*
X184238095Y-115841904D01*
X184285714Y-115937142D01*
X184333333Y-115984761D01*
X184428571Y-116032380D01*
X184619047Y-116032380D01*
X184714285Y-115984761D01*
X184761904Y-115937142D01*
X184809523Y-115841904D01*
X184809523Y-115603809D01*
X184761904Y-115508571D01*
X184714285Y-115460952D01*
X184619047Y-115413333D01*
X184428571Y-115413333D01*
X184333333Y-115460952D01*
X184285714Y-115508571D01*
X184238095Y-115603809D01*
%TO.C,U5*%
X183238095Y-101032380D02*
X183238095Y-101841904D01*
X183285714Y-101937142D01*
X183333333Y-101984761D01*
X183428571Y-102032380D01*
X183619047Y-102032380D01*
X183714285Y-101984761D01*
X183761904Y-101937142D01*
X183809523Y-101841904D01*
X183809523Y-101032380D01*
X184761904Y-101032380D02*
X184285714Y-101032380D01*
X184238095Y-101508571D01*
X184285714Y-101460952D01*
X184380952Y-101413333D01*
X184619047Y-101413333D01*
X184714285Y-101460952D01*
X184761904Y-101508571D01*
X184809523Y-101603809D01*
X184809523Y-101841904D01*
X184761904Y-101937142D01*
X184714285Y-101984761D01*
X184619047Y-102032380D01*
X184380952Y-102032380D01*
X184285714Y-101984761D01*
X184238095Y-101937142D01*
%TO.C,U4*%
X183238095Y-87032380D02*
X183238095Y-87841904D01*
X183285714Y-87937142D01*
X183333333Y-87984761D01*
X183428571Y-88032380D01*
X183619047Y-88032380D01*
X183714285Y-87984761D01*
X183761904Y-87937142D01*
X183809523Y-87841904D01*
X183809523Y-87032380D01*
X184714285Y-87365714D02*
X184714285Y-88032380D01*
X184476190Y-86984761D02*
X184238095Y-87699047D01*
X184857142Y-87699047D01*
%TO.C,U3*%
X183238095Y-73032380D02*
X183238095Y-73841904D01*
X183285714Y-73937142D01*
X183333333Y-73984761D01*
X183428571Y-74032380D01*
X183619047Y-74032380D01*
X183714285Y-73984761D01*
X183761904Y-73937142D01*
X183809523Y-73841904D01*
X183809523Y-73032380D01*
X184190476Y-73032380D02*
X184809523Y-73032380D01*
X184476190Y-73413333D01*
X184619047Y-73413333D01*
X184714285Y-73460952D01*
X184761904Y-73508571D01*
X184809523Y-73603809D01*
X184809523Y-73841904D01*
X184761904Y-73937142D01*
X184714285Y-73984761D01*
X184619047Y-74032380D01*
X184333333Y-74032380D01*
X184238095Y-73984761D01*
X184190476Y-73937142D01*
%TO.C,U2*%
X183238095Y-58732380D02*
X183238095Y-59541904D01*
X183285714Y-59637142D01*
X183333333Y-59684761D01*
X183428571Y-59732380D01*
X183619047Y-59732380D01*
X183714285Y-59684761D01*
X183761904Y-59637142D01*
X183809523Y-59541904D01*
X183809523Y-58732380D01*
X184238095Y-58827619D02*
X184285714Y-58780000D01*
X184380952Y-58732380D01*
X184619047Y-58732380D01*
X184714285Y-58780000D01*
X184761904Y-58827619D01*
X184809523Y-58922857D01*
X184809523Y-59018095D01*
X184761904Y-59160952D01*
X184190476Y-59732380D01*
X184809523Y-59732380D01*
%TD*%
M02*
